<svg width="100%" height="100%" viewBox="0 0 32 32" version="1.1" xmlns="http://www.w3.org/2000/svg" xmlns:xlink="http://www.w3.org/1999/xlink">
            <path fill="#252525" d="M18.121,16.0001 L23.56,10.5611 C24.146,9.9751 24.146,9.0251 23.56,8.4391 C22.975,7.8541 22.025,7.8541 21.439,8.4391 L16,13.8791 L10.56,8.4391 C9.975,7.8541 9.025,7.8541 8.439,8.4391 C7.853,9.0251 7.853,9.9751 8.439,10.5611 L13.879,16.0001 L8.439,21.4391 C7.853,22.0251 7.853,22.9751 8.439,23.5611 C8.732,23.8541 9.116,24.0001 9.5,24.0001 C9.884,24.0001 10.267,23.8541 10.56,23.5611 L16,18.1211 L21.439,23.5611 C21.732,23.8541 22.116,24.0001 22.5,24.0001 C22.884,24.0001 23.267,23.8541 23.56,23.5611 C24.146,22.9751 24.146,22.0251 23.56,21.4391 L18.121,16.0001 Z"></path>
</svg>