<svg viewBox="0 0 375 18" version="1.1" xmlns="http://www.w3.org/2000/svg">
  <path d="M31.1006524,4.77252857 L21.891081,4.77252857 C21.438681,4.77252857 20.6146667,4.64327143 20.6146667,3.54458571 C20.6146667,2.68825714 21.1155381,2.30048571 21.891081,2.30048571 L32.8779381,2.30048571 C33.4434381,2.30048571 34.6552238,2.38127143 34.6552238,3.70615714 C34.6552238,4.43322857 34.2512952,5.90352857 33.1202952,7.40614286 C32.1023952,8.76334286 30.6805667,9.81355714 30.0181238,9.81355714 C29.2910524,9.81355714 28.677081,9.1188 28.677081,8.4402 C28.677081,7.92317143 28.8871238,7.77775714 29.5980381,7.34151429 C30.599781,6.71138571 31.5368952,5.3865 31.5368952,4.96641429 C31.5368952,4.77252857 31.391481,4.77252857 31.1006524,4.77252857 Z M27.2229381,5.75811429 C28.4831952,5.75811429 28.4831952,6.64675714 28.4831952,7.17994286 C28.4831952,9.26421429 27.998481,11.3484857 26.7866952,13.0449857 C25.5749095,14.7091714 23.6037381,15.9371143 22.6666238,15.9371143 C22.004181,15.9371143 21.3740524,15.2746714 21.3740524,14.5476 C21.3740524,13.9659429 21.5356238,13.869 22.8928238,13.1257714 C25.7526381,11.5585286 25.8334238,9.18342857 25.9142095,7.083 C25.9465238,6.50134286 25.962681,5.75811429 27.2229381,5.75811429 Z M47.6545429,5.74195714 L39.2851429,5.74195714 C38.9943143,5.74195714 37.9925714,5.74195714 37.9925714,4.4817 C37.9925714,3.2376 38.8812143,3.18912857 39.2851429,3.18912857 L48.2038857,3.18912857 C48.4462429,3.18912857 48.8663286,3.22144286 49.1571571,3.26991429 C49.141,3.17297143 49.0925286,3.0114 49.0925286,2.80135714 C49.0925286,1.79961429 49.9165429,0.991757143 50.9182857,0.991757143 C51.9038714,0.991757143 52.7117286,1.78345714 52.7117286,2.76904286 C52.7117286,3.73847143 51.9200286,4.62711429 50.8375,4.5948 C50.8698143,4.75637143 50.9344429,4.96641429 50.9344429,5.43497143 C50.9344429,6.6306 50.2235286,9.94281429 47.8807429,12.4310143 C45.4410143,15.0323143 41.8056571,15.9371143 40.9331714,15.9371143 C39.9314286,15.9371143 39.6729143,14.9030571 39.6729143,14.4668143 C39.6729143,13.7074286 40.2384143,13.5135429 41.0301143,13.3035 C46.0549857,11.9463 47.2344571,9.13495714 47.7030143,7.74544286 C47.9938429,6.92142857 48.0746286,6.32361429 48.0746286,6.12972857 C48.0746286,5.74195714 47.8484286,5.74195714 47.6545429,5.74195714 Z M51.6776714,2.80135714 C51.6776714,2.36511429 51.3222143,2.02581429 50.9021286,2.02581429 C50.4658857,2.02581429 50.1265857,2.36511429 50.1265857,2.7852 C50.1265857,3.22144286 50.4658857,3.56074286 50.9021286,3.56074286 C51.3222143,3.56074286 51.6776714,3.22144286 51.6776714,2.80135714 Z M59.1512476,3.26991429 L59.1512476,9.9105 C59.1512476,10.5406286 58.9250476,11.1384429 57.8102048,11.1384429 C56.9700333,11.1384429 56.4368476,10.8476143 56.4368476,9.9105 L56.4368476,3.26991429 C56.4368476,2.65594286 56.6307333,2.02581429 57.7778905,2.02581429 C58.634219,2.02581429 59.1512476,2.3328 59.1512476,3.26991429 Z M67.229819,3.05987143 L67.229819,8.8926 C67.229819,9.95897143 67.229819,13.0288286 64.1114905,14.6445429 C62.1564762,15.6624429 60.0237333,15.9048 59.0058333,15.9048 C58.7150048,15.9048 58.2626048,15.9048 57.9233048,15.5008714 C57.6486333,15.1938857 57.5840048,14.8061143 57.5840048,14.5152857 C57.5840048,13.4812286 58.294919,13.4004429 59.199719,13.3196571 C61.8656476,13.0611429 62.8512333,12.4794857 63.5136762,11.8170429 C64.3538476,10.9768714 64.4831048,10.0397571 64.4831048,8.98954286 L64.4831048,3.05987143 C64.4831048,2.3328 64.8062476,1.81577143 65.8403048,1.81577143 C66.6320048,1.81577143 67.229819,2.09044286 67.229819,3.05987143 Z M76.5614667,3.18912857 C76.6907238,2.88214286 76.8522952,2.39742857 76.9977095,2.09044286 C77.0946524,1.86424286 77.3208524,1.49262857 78.1610238,1.49262857 C78.742681,1.49262857 79.4697524,1.70267143 79.4697524,2.4459 C79.4697524,2.70441429 79.3404952,3.0114 79.2920238,3.1245 C80.9238952,3.07602857 83.8160238,2.96292857 84.171481,2.96292857 C84.7692952,2.96292857 85.415581,3.22144286 85.415581,4.12624286 C85.415581,5.11182857 84.6885095,5.22492857 84.4461524,5.25724286 C84.058381,5.32187143 79.6797952,5.45112857 77.9671381,5.48344286 C77.5147381,6.19435714 77.498581,6.22667143 77.2239095,6.69522857 C78.2094952,6.14588571 79.0496667,6.12972857 79.2758667,6.12972857 C79.6151667,6.12972857 80.1968238,6.19435714 80.6976952,6.48518571 C81.2955095,6.84064286 81.570181,7.34151429 81.6671238,7.51924286 C82.6203952,7.17994286 84.2361095,6.67907143 84.850081,6.67907143 C85.9487667,6.67907143 85.9972381,7.77775714 85.9972381,7.9878 C85.9972381,8.97338571 85.302481,9.13495714 84.6885095,9.26421429 C82.927381,9.65198571 82.8789095,9.66814286 82.135681,9.87818571 C82.1841524,10.5083143 82.2164667,11.1546 82.2164667,11.4777429 C82.2164667,12.2209714 82.2164667,13.1257714 80.9885238,13.1257714 C79.7928952,13.1257714 79.760581,12.2532857 79.7444238,11.9947714 C79.7282667,11.6554714 79.7444238,11.0899714 79.7444238,10.7506714 C78.3387524,11.3646429 77.3531667,11.9301429 77.3531667,12.8511 C77.3531667,13.5781714 78.403381,13.7559 80.0675667,13.7559 C81.1985667,13.7559 82.3134095,13.6104857 83.4282524,13.4489143 C83.7029238,13.4004429 83.9291238,13.4004429 84.0422238,13.4004429 C84.8823952,13.4004429 85.1247524,13.9659429 85.1247524,14.5637571 C85.1247524,15.4524 84.5592524,15.6139714 84.3492095,15.6786 C83.1212667,16.0502143 81.0531524,16.0502143 80.5845952,16.0502143 C78.1610238,16.0502143 77.1915952,15.8724857 76.3191095,15.5170286 C75.3335238,15.1292571 74.6387667,14.2890857 74.6387667,13.2065571 C74.6387667,10.7829857 77.385481,9.32884286 79.2758667,8.47251429 C79.0335095,8.23015714 78.7103667,8.11705714 78.3710667,8.11705714 C76.5614667,8.11705714 75.236581,9.7974 74.8326524,10.3144286 C74.6872381,10.4921571 74.105581,11.2677 73.9763238,11.4292714 C73.766281,11.6716286 73.4592952,11.9139857 72.974581,11.9139857 C72.2475095,11.9139857 71.7466381,11.2677 71.7466381,10.6698857 C71.7466381,10.1528571 72.0213095,9.84587143 72.8937952,8.8926 C73.7178095,7.9878 74.218681,7.34151429 75.3819952,5.53191429 C75.0911667,5.53191429 73.8147524,5.54807143 73.5562381,5.54807143 C73.200781,5.54807143 72.2151952,5.54807143 72.2151952,4.3686 C72.2151952,3.2376 73.1523095,3.22144286 73.5077667,3.22144286 C75.3981524,3.20528571 75.6081952,3.20528571 76.5614667,3.18912857 Z M95.6035571,8.7795 L96.7668714,8.7795 C96.7991857,7.93932857 96.7991857,7.58387143 96.7991857,7.37382857 L95.6035571,7.37382857 C95.3935143,7.37382857 95.1834714,7.45461429 95.1834714,7.79391429 L95.1834714,8.35941429 C95.1834714,8.65024286 95.3288857,8.7795 95.6035571,8.7795 Z M93.6808571,2.49437143 L96.7991857,2.49437143 L96.7991857,2.18738571 C96.7991857,1.84808571 96.8476571,1.13717143 97.9301857,1.13717143 C98.8349857,1.13717143 99.1742857,1.49262857 99.1742857,2.18738571 L99.1742857,2.49437143 L102.421871,2.49437143 C102.728857,2.49437143 103.601343,2.49437143 103.601343,3.5769 C103.601343,4.51401429 103.003529,4.69174286 102.421871,4.69174286 L99.1742857,4.69174286 L99.1742857,5.3865 L101.096986,5.3865 C102.324929,5.3865 103.052,5.79042857 103.052,7.34151429 L103.052,8.82797143 C103.052,10.3467429 102.357243,10.7991429 101.096986,10.7991429 L98.9642429,10.7991429 C98.8996143,11.2838571 98.7703571,12.0270857 98.3664286,12.9318857 C99.8367286,13.5297 100.5638,13.6589571 102.5996,14.0144143 C103.3913,14.1436714 103.552871,14.6122286 103.552871,15.0807857 C103.552871,15.4524 103.407457,16.5187714 102.324929,16.5187714 C101.662486,16.5187714 99.1096571,16.0663714 96.8476571,14.9030571 C95.6843429,15.9532714 94.2948286,16.4864571 93.5192857,16.4864571 C92.8083714,16.4864571 92.3236571,15.9532714 92.3236571,15.2100429 C92.3236571,14.4991286 92.6952714,14.2729286 93.0345714,14.1598286 C94.2786714,13.7074286 94.4240857,13.6589571 94.6826,13.5135429 C93.3254,12.3663857 93.3254,12.0594 93.3254,11.7685714 C93.3254,11.4292714 93.5192857,10.8960857 94.0686286,10.7022 C92.9376286,10.4113714 92.9376286,9.28037143 92.9376286,8.82797143 L92.9376286,7.34151429 C92.9376286,5.80658571 93.6485429,5.3865 94.9088,5.3865 L96.7991857,5.3865 L96.7991857,4.69174286 L93.6808571,4.69174286 C93.0184143,4.69174286 92.7275857,4.4817 92.6306429,3.9162 C92.5013857,4.35244286 92.4044429,4.69174286 92.2267143,5.19261429 L92.2267143,15.3877714 C92.2267143,15.6462857 92.2267143,16.5834 91.0795571,16.5834 C90.0455,16.5834 89.8354571,16.0340571 89.8354571,15.3877714 L89.8354571,9.40962857 C89.7385143,9.47425714 89.6092571,9.53888571 89.3507429,9.53888571 C88.6559857,9.53888571 88.0904857,8.87644286 88.0904857,8.06858571 C88.0904857,7.63234286 88.1066429,7.61618571 89.0599143,6.12972857 C89.5123143,5.43497143 90.1262857,4.01314286 90.3524857,3.1245 C90.7402571,1.67035714 90.7402571,1.62188571 90.9503,1.41184286 C91.1280286,1.25027143 91.3865429,1.16948571 91.7258429,1.16948571 C92.2913429,1.16948571 93.0022571,1.39568571 93.0022571,2.15507143 C93.0022571,2.36511429 92.9537857,2.559 92.9376286,2.6721 C93.1153571,2.54284286 93.3415571,2.49437143 93.6808571,2.49437143 Z M100.353757,7.37382857 L99.1581286,7.37382857 C99.1742857,7.61618571 99.1581286,7.97164286 99.1419714,8.7795 L100.353757,8.7795 C100.5638,8.7795 100.773843,8.69871429 100.773843,8.35941429 L100.773843,7.79391429 C100.773843,7.48692857 100.628429,7.37382857 100.353757,7.37382857 Z M96.5568286,10.7991429 L95.0542143,10.7991429 C95.1188429,10.8314571 95.1673143,10.8637714 95.3612,11.0415 C95.7812857,11.4292714 96.0721143,11.6393143 96.2498429,11.7685714 C96.3467857,11.5262143 96.4598857,11.2353857 96.5568286,10.7991429 Z M108.150476,2.72057143 C108.263576,1.83192857 108.74829,1.55725714 109.31379,1.55725714 C109.572305,1.55725714 110.654833,1.78345714 110.881033,1.81577143 C111.834305,1.97734286 113.870105,2.18738571 115.98669,2.30048571 C116.697605,2.3328 117.68319,2.38127143 117.68319,3.56074286 C117.68319,3.98082857 117.505462,4.44938571 117.246948,4.65942857 C117.00459,4.85331429 116.697605,4.88562857 116.309833,4.88562857 C115.243462,4.88562857 110.864876,4.43322857 109.119905,4.0293 C108.425148,3.86772857 108.06969,3.41532857 108.150476,2.72057143 Z M119.476633,10.0559143 C119.476633,15.3877714 113.692376,16.0986857 110.735619,16.0986857 C110.186276,16.0986857 109.830819,16.0502143 109.53999,15.7593857 C109.31379,15.5331857 109.152219,15.1777286 109.152219,14.7738 C109.152219,13.7074286 109.943919,13.6589571 110.44479,13.6428 C112.36749,13.5458571 114.225562,13.4973857 115.53429,12.4633286 C116.55219,11.6554714 116.713762,10.5729429 116.713762,10.1043857 C116.713762,9.40962857 116.406776,8.79565714 116.019005,8.48867143 C115.501976,8.08474286 114.774905,8.00395714 114.209405,8.00395714 C113.72469,8.00395714 111.769676,8.13321429 109.523833,9.24805714 C109.265319,9.37731429 108.18279,9.95897143 107.940433,10.0559143 C107.601133,10.1851714 107.423405,10.2013286 107.294148,10.2013286 C106.324719,10.2013286 105.953105,9.26421429 105.953105,8.74718571 C105.953105,7.92317143 106.470133,7.66465714 108.312048,6.90527143 C110.299376,6.09741429 112.949148,5.64501429 114.17709,5.64501429 C115.243462,5.64501429 116.988433,5.85505714 118.070962,6.77601429 C119.282748,7.82622857 119.476633,9.31268571 119.476633,10.0559143 Z M130.375524,5.66117143 C131.845824,5.09567143 134.737952,4.28781429 135.465024,4.28781429 C136.773752,4.28781429 136.773752,5.53191429 136.773752,5.66117143 C136.773752,6.6306 136.11131,6.82448571 135.061095,7.01837143 C131.991238,7.56771429 129.696924,8.35941429 128.485138,8.97338571 C127.935795,9.24805714 126.206981,10.1205429 126.206981,11.5746857 C126.206981,12.8672571 127.208724,13.3519714 130.11701,13.3519714 C131.118752,13.3519714 132.330538,13.2873429 134.123981,12.9965143 C134.430967,12.9480429 134.98031,12.8511 135.271138,12.8511 C136.127467,12.8511 136.56371,13.3035 136.56371,14.1759857 C136.56371,15.0484714 136.078995,15.3069857 135.416552,15.4685571 C134.285552,15.7432286 131.861981,15.8563286 130.520938,15.8563286 C127.887324,15.8563286 123.427952,15.6462857 123.427952,11.8170429 C123.427952,10.1205429 124.397381,8.76334286 125.447595,8.02011429 C126.320081,7.38998571 127.111781,7.00221429 127.951952,6.59828571 C127.903481,6.21051429 127.838852,5.8389 127.305667,3.78694286 C127.014838,2.70441429 126.982524,2.59131429 126.982524,2.39742857 C126.982524,1.57341429 127.725752,1.26642857 128.42051,1.26642857 C129.567667,1.26642857 129.66461,1.75114286 129.987752,3.38301429 C130.00391,3.47995714 130.359367,5.4996 130.375524,5.66117143 Z M145.814571,9.21574286 L145.814571,3.4638 C145.814571,1.96118571 146.525486,1.55725714 147.721114,1.55725714 L152.342057,1.55725714 C153.553843,1.55725714 154.264757,1.97734286 154.264757,3.4638 L154.264757,9.21574286 C154.264757,10.6860429 153.586157,11.1384429 152.342057,11.1384429 L152.018914,11.1384429 L152.018914,13.7720571 C152.018914,14.1113571 152.0997,14.2244571 152.422843,14.2244571 C152.762143,14.2244571 152.810614,14.0952 152.842929,13.3035 C152.875243,12.4956429 152.8914,11.9947714 153.747729,11.9947714 C154.781786,11.9947714 154.781786,12.7864714 154.781786,13.0934571 C154.781786,16.4703 154.054714,16.4703 152.164329,16.4703 C150.241629,16.4703 149.870014,16.2441 149.870014,14.4506571 L149.870014,11.1384429 L149.062157,11.1384429 C149.013686,12.1401857 148.755171,13.7720571 147.672643,15.0323143 C146.961729,15.8401714 145.959986,16.4379857 145.459114,16.4379857 C144.828986,16.4379857 144.279643,15.8724857 144.279643,15.1938857 C144.279643,14.8222714 144.441214,14.5637571 144.715886,14.3860286 C146.056929,13.5458571 146.800157,13.0611429 147.074829,11.0738143 C145.830729,10.8637714 145.814571,9.70045714 145.814571,9.21574286 Z M151.905814,6.75985714 L151.905814,5.93584286 L148.1412,5.93584286 L148.1412,6.75985714 L151.905814,6.75985714 Z M148.1412,3.85157143 L148.1412,4.38475714 L151.905814,4.38475714 L151.905814,3.85157143 C151.905814,3.67384286 151.808871,3.54458571 151.614986,3.54458571 L148.432029,3.54458571 C148.238143,3.54458571 148.1412,3.65768571 148.1412,3.85157143 Z M151.905814,8.35941429 L148.1412,8.35941429 L148.1412,8.8926 C148.1412,9.08648571 148.238143,9.19958571 148.432029,9.19958571 L151.614986,9.19958571 C151.808871,9.19958571 151.905814,9.08648571 151.905814,8.8926 L151.905814,8.35941429 Z M143.714143,3.43148571 L143.940343,3.43148571 C144.134229,3.43148571 144.473529,3.52842857 144.6351,3.64152857 C145.039029,3.90004286 145.119814,4.49785714 145.119814,4.83715714 C145.119814,6.04894286 144.457371,7.26072857 144.198857,7.72928571 C144.505843,8.08474286 144.683571,8.27862857 145.362171,8.94107143 C145.620686,9.19958571 145.814571,9.42578571 145.814571,9.76508571 C145.814571,10.3305857 145.362171,11.0415 144.7482,11.0415 C144.2958,11.0415 144.053443,10.7022 143.714143,10.2659571 L143.714143,15.3716143 C143.714143,16.2279429 143.358686,16.5672429 142.437729,16.5672429 C141.322886,16.5672429 141.306729,15.7109143 141.306729,15.3716143 L141.306729,11.2838571 C141.048214,11.4777429 140.7897,11.6393143 140.434243,11.6393143 C139.691014,11.6393143 139.2063,10.9284 139.2063,10.2982714 C139.2063,9.70045714 139.448657,9.50657143 140.191886,8.92491429 C141.6945,7.71312857 142.534671,6.11357143 142.534671,5.90352857 C142.534671,5.74195714 142.389257,5.70964286 142.292314,5.70964286 L140.5635,5.70964286 C139.674857,5.70964286 139.384029,5.32187143 139.384029,4.49785714 C139.384029,3.44764286 140.240357,3.43148571 140.5635,3.43148571 L141.306729,3.43148571 L141.306729,2.31664286 C141.306729,1.39568571 141.759129,1.10485714 142.615457,1.10485714 C143.520257,1.10485714 143.714143,1.75114286 143.714143,2.31664286 L143.714143,3.43148571 Z M166.585476,12.6895286 L166.585476,13.9336286 C166.585476,14.3052429 166.682419,14.3052429 167.280233,14.3052429 C167.668005,14.3052429 167.716476,14.2406143 167.781105,13.8851571 C167.845733,13.5297 167.926519,13.0934571 168.572805,13.0934571 C168.637433,13.0934571 168.944419,13.0934571 169.251405,13.2873429 C169.186776,13.1419286 168.928262,12.5279571 168.87979,12.3987 C168.815162,12.2048143 168.799005,12.1240286 168.799005,12.0432429 C168.799005,11.4777429 169.316033,11.1546 169.865376,11.1546 C170.495505,11.1546 170.624762,11.4615857 171.012533,12.3340714 C171.271048,12.9318857 171.82039,14.3537143 171.82039,14.9192143 C171.82039,15.6786 170.947905,15.8240143 170.657076,15.8240143 C170.140048,15.8240143 169.946162,15.5331857 169.849219,15.1938857 C169.800748,15.0161571 169.590705,14.2567714 169.55839,14.1113571 C169.526076,14.4991286 169.348348,15.3069857 169.025205,15.7917 C168.65359,16.3733571 168.120405,16.3733571 167.247919,16.3733571 C165.018233,16.3733571 164.549676,16.3410429 164.549676,14.3537143 L164.549676,12.6895286 C164.549676,11.9301429 164.888976,11.6877857 165.632205,11.7039429 C165.163648,11.4615857 164.937448,11.3484857 164.937448,10.9122429 C164.937448,10.7183571 164.985919,10.5891 165.018233,10.5083143 L164.743562,10.5083143 C163.063219,10.5083143 162.691605,10.2498 162.691605,8.50482857 L162.691605,7.11531429 C162.691605,5.45112857 162.99859,5.11182857 164.69509,5.11182857 L165.890719,5.11182857 L165.890719,4.49785714 L163.644876,4.49785714 C163.22479,4.49785714 162.594662,4.44938571 162.626976,3.33454286 C162.497719,3.60921429 162.384619,3.73847143 162.158419,3.8031 L162.158419,13.7559 C162.384619,13.1904 162.43309,13.0611429 162.756233,11.9139857 C162.837019,11.6554714 162.982433,11.2192286 163.612562,11.2192286 C163.822605,11.2192286 164.598148,11.3000143 164.598148,11.9947714 C164.598148,12.3825429 164.291162,13.5620143 163.984176,14.4345 C163.580248,15.5493429 163.354048,15.7270714 162.901648,15.7270714 C162.788548,15.7270714 162.513876,15.7270714 162.158419,15.4847143 C162.158419,15.8563286 162.158419,16.5995571 161.140519,16.5995571 C160.122619,16.5995571 160.122619,15.8401714 160.122619,15.5655 L160.122619,14.2890857 C159.444019,14.4668143 157.860619,14.9192143 157.246648,14.9192143 C156.374162,14.9192143 156.293376,13.8366857 156.293376,13.6104857 C156.293376,12.8187857 156.858876,12.6733714 157.101233,12.6087429 L157.101233,3.8031 C156.390319,3.59305714 156.390319,2.84982857 156.390319,2.75288571 C156.390319,2.47821429 156.487262,1.62188571 157.472848,1.62188571 L161.689862,1.62188571 C162.013005,1.62188571 162.77239,1.62188571 162.740076,2.83367143 C162.966276,2.39742857 163.321733,2.36511429 163.644876,2.36511429 L165.890719,2.36511429 L165.890719,2.02581429 C165.890719,1.3149 166.488533,1.13717143 166.95709,1.13717143 C167.377176,1.13717143 168.152719,1.2018 168.152719,2.02581429 L168.152719,2.36511429 L170.818648,2.36511429 C171.125633,2.36511429 171.852705,2.38127143 171.852705,3.43148571 C171.852705,4.44938571 171.222576,4.49785714 170.818648,4.49785714 L168.152719,4.49785714 L168.152719,5.11182857 L169.380662,5.11182857 C171.061005,5.11182857 171.384148,5.41881429 171.384148,7.11531429 L171.384148,8.50482857 C171.384148,10.1690143 171.077162,10.5083143 169.380662,10.5083143 L167.361019,10.5083143 C168.54049,11.1222857 168.637433,11.3161714 168.637433,11.7039429 C168.637433,12.2209714 168.217348,12.7541571 167.732633,12.7541571 C167.457962,12.7541571 167.29639,12.6733714 166.50469,12.1725 C166.569319,12.3340714 166.585476,12.3987 166.585476,12.6895286 Z M167.377176,8.6664 L167.377176,6.9699 L166.650105,6.9699 L166.650105,8.6664 L167.377176,8.6664 Z M164.759719,8.6664 L165.163648,8.6664 L165.163648,6.9699 L164.759719,6.9699 C164.565833,6.9699 164.46889,7.083 164.46889,7.26072857 L164.46889,8.35941429 C164.46889,8.5533 164.565833,8.6664 164.759719,8.6664 Z M168.799005,6.9699 L168.799005,8.6664 L169.283719,8.6664 C169.477605,8.6664 169.574548,8.5533 169.574548,8.35941429 L169.574548,7.26072857 C169.574548,7.06684286 169.477605,6.9699 169.283719,6.9699 L168.799005,6.9699 Z M160.122619,8.65024286 L160.122619,7.26072857 L159.137033,7.26072857 L159.137033,8.65024286 L160.122619,8.65024286 Z M160.122619,5.22492857 L160.122619,3.85157143 L159.137033,3.85157143 L159.137033,5.22492857 L160.122619,5.22492857 Z M159.137033,10.6860429 L159.137033,12.2532857 C159.444019,12.1886571 159.864105,12.0917143 160.122619,12.0270857 L160.122619,10.6860429 L159.137033,10.6860429 Z M181.216667,6.66291429 C182.428452,6.66291429 183.414038,7.63234286 183.414038,8.86028571 C183.414038,10.0720714 182.428452,11.0576571 181.216667,11.0576571 C180.004881,11.0576571 179.019295,10.0720714 179.019295,8.86028571 C179.035452,7.63234286 180.004881,6.66291429 181.216667,6.66291429 Z M190.919929,14.2729286 L190.919929,6.80832857 C190.919929,5.19261429 191.743943,4.90178571 192.858786,4.90178571 L192.858786,3.75462857 L191.566214,3.75462857 C191.097657,3.75462857 190.516,3.62537143 190.516,2.68825714 C190.516,1.63804286 191.291543,1.63804286 191.566214,1.63804286 L197.689771,1.63804286 C198.158329,1.63804286 198.723829,1.7673 198.723829,2.70441429 C198.723829,3.73847143 197.996757,3.75462857 197.689771,3.75462857 L196.526457,3.75462857 L196.526457,4.90178571 C197.172743,4.90178571 197.657457,5.03104286 197.964443,5.32187143 C198.287586,5.62885714 198.433,6.09741429 198.433,6.80832857 L198.433,14.2729286 C198.433,15.8078571 197.705929,16.1956286 196.5103,16.1956286 L192.826471,16.1956286 C191.630843,16.1956286 190.919929,15.8078571 190.919929,14.2729286 Z M194.991529,6.95374286 L194.393714,6.95374286 L194.393714,7.85854286 C194.393714,8.37557143 194.393714,9.07032857 194.199829,9.86202857 C194.070571,10.3952143 193.973629,10.7991429 193.472757,10.7991429 C193.3435,10.7991429 192.874943,10.7668286 192.713371,10.2659571 L192.713371,11.3323286 L196.688029,11.3323286 L196.688029,10.7022 L196.364886,10.7022 C195.120786,10.7022 194.991529,10.3952143 194.991529,9.19958571 L194.991529,6.95374286 Z M194.393714,4.90178571 L194.991529,4.90178571 L194.991529,3.75462857 L194.393714,3.75462857 L194.393714,4.90178571 Z M192.713371,7.26072857 L192.713371,9.7974 C192.745686,9.66814286 193.036514,9.13495714 193.084986,9.0057 C193.198086,8.68255714 193.278871,8.34325714 193.278871,7.56771429 L193.278871,6.95374286 L193.020357,6.95374286 C192.810314,6.95374286 192.713371,7.06684286 192.713371,7.26072857 Z M196.381043,6.95374286 L196.090214,6.95374286 L196.090214,8.3271 C196.090214,8.68255714 196.219471,8.68255714 196.348729,8.68255714 L196.688029,8.68255714 L196.688029,7.26072857 C196.688029,7.06684286 196.591086,6.95374286 196.381043,6.95374286 Z M196.688029,13.0934571 L192.713371,13.0934571 L192.713371,13.8043714 C192.713371,14.0144143 192.810314,14.1113571 193.020357,14.1113571 L196.381043,14.1113571 C196.558771,14.1113571 196.688029,14.0305714 196.688029,13.8043714 L196.688029,13.0934571 Z M201.0343,6.92142857 L202.666171,6.92142857 C202.973157,6.92142857 203.118571,6.75985714 203.118571,6.46902857 L203.118571,4.41707143 C203.118571,4.11008571 202.957,3.96467143 202.666171,3.96467143 L199.984086,3.96467143 C199.628629,3.96467143 198.836929,3.93235714 198.836929,2.80135714 C198.836929,1.7673 199.467057,1.63804286 199.984086,1.63804286 L203.587129,1.63804286 C204.847386,1.63804286 205.542143,2.07428571 205.542143,3.59305714 L205.542143,7.27688571 C205.542143,8.82797143 204.831229,9.24805714 203.587129,9.24805714 L201.826,9.24805714 C201.535171,9.24805714 201.389757,9.40962857 201.389757,9.70045714 L201.389757,13.3035 C201.389757,13.7397429 201.648271,13.7720571 202.229929,13.7720571 C203.393243,13.7720571 203.393243,13.7559 203.490186,12.7056857 C203.506343,12.5279571 203.554814,11.7362571 203.570971,11.5746857 C203.619443,11.3484857 203.732543,10.7183571 204.669657,10.7183571 C205.929914,10.7183571 205.929914,11.7524143 205.929914,12.1563429 C205.929914,12.9318857 205.800657,15.1615714 205.315943,15.7109143 C204.863543,16.2279429 204.346514,16.2279429 202.246086,16.2279429 C200.113343,16.2279429 199.079286,16.2279429 199.079286,14.2567714 L199.079286,8.87644286 C199.079286,7.35767143 199.774043,6.92142857 201.0343,6.92142857 Z M222.322233,13.0773 L222.322233,14.2406143 C222.322233,15.7593857 221.611319,16.1956286 220.351062,16.1956286 L214.469862,16.1956286 C213.17729,16.1956286 212.514848,15.7432286 212.514848,14.2406143 L212.514848,13.0773 C212.514848,11.5423714 213.209605,11.1061286 214.469862,11.1061286 L220.351062,11.1061286 C221.562848,11.1061286 222.322233,11.4939 222.322233,13.0773 Z M219.898662,13.9336286 L219.898662,13.3196571 C219.898662,13.1096143 219.817876,12.9642 219.559362,12.9642 L215.277719,12.9642 C215.019205,12.9642 214.938419,13.1257714 214.938419,13.3196571 L214.938419,13.9336286 C214.938419,14.1436714 215.035362,14.2567714 215.277719,14.2567714 L219.559362,14.2567714 C219.801719,14.2567714 219.898662,14.1436714 219.898662,13.9336286 Z M211.610048,5.1603 L211.610048,15.3716143 C211.610048,15.6462857 211.610048,16.5834 210.46289,16.5834 C209.44499,16.5834 209.21879,16.0502143 209.21879,15.3716143 L209.21879,9.40962857 C209.121848,9.47425714 208.99259,9.53888571 208.734076,9.53888571 C208.071633,9.53888571 207.457662,8.95722857 207.457662,8.03627143 C207.457662,7.61618571 207.554605,7.47077143 208.410933,6.16204286 C209.10569,5.09567143 209.590405,3.67384286 209.913548,2.38127143 C210.091276,1.6542 210.204376,1.18564286 211.076862,1.18564286 C211.222276,1.18564286 212.353276,1.18564286 212.353276,2.17122857 C212.353276,2.73672857 211.884719,4.41707143 211.610048,5.1603 Z M220.948876,3.47995714 L213.920519,3.47995714 C213.645848,3.47995714 212.918776,3.47995714 212.918776,2.559 C212.918776,1.68651429 213.532748,1.62188571 213.920519,1.62188571 L220.948876,1.62188571 C221.175076,1.62188571 221.950619,1.62188571 221.950619,2.54284286 C221.950619,3.47995714 221.191233,3.47995714 220.948876,3.47995714 Z M221.126605,8.27862857 L213.726633,8.27862857 C213.468119,8.27862857 212.72489,8.27862857 212.72489,7.35767143 C212.72489,6.48518571 213.338862,6.42055714 213.726633,6.42055714 L221.126605,6.42055714 C221.401276,6.42055714 222.128348,6.42055714 222.128348,7.34151429 C222.128348,8.18168571 221.54669,8.27862857 221.126605,8.27862857 Z M221.126605,10.6214143 L213.726633,10.6214143 C213.468119,10.6214143 212.72489,10.6214143 212.72489,9.70045714 C212.72489,8.82797143 213.355019,8.7795 213.726633,8.7795 L221.078133,8.7795 C221.385119,8.7795 222.128348,8.7795 222.128348,9.70045714 C222.128348,10.6052571 221.417433,10.6214143 221.126605,10.6214143 Z M221.982933,5.90352857 L212.789519,5.90352857 C212.563319,5.90352857 211.771619,5.90352857 211.771619,4.95025714 C211.771619,3.96467143 212.547162,3.96467143 212.789519,3.96467143 L221.982933,3.96467143 C222.241448,3.96467143 223.000833,3.96467143 223.000833,4.9341 C223.000833,5.90352857 222.257605,5.90352857 221.982933,5.90352857 Z M228.616338,4.49785714 C228.697124,4.15855714 228.971795,2.65594286 229.052581,2.36511429 C229.197995,1.89655714 229.504981,1.57341429 230.151267,1.57341429 C230.684452,1.57341429 231.589252,1.71882857 231.589252,2.62362857 C231.589252,2.97908571 231.443838,3.59305714 231.26611,4.38475714 C232.316324,4.35244286 233.07571,4.40091429 233.64121,4.65942857 C235.289238,5.3865 235.580067,7.66465714 235.580067,9.31268571 C235.580067,13.9174714 234.675267,16.0017429 231.928552,16.0017429 C231.072224,16.0017429 230.232052,15.8078571 229.472667,15.4200857 C229.214152,15.2908286 228.794067,15.0323143 228.794067,14.4021857 C228.794067,14.2567714 228.858695,13.1096143 229.860438,13.1096143 C230.118952,13.1096143 230.183581,13.1257714 230.70061,13.3196571 C230.878338,13.3842857 231.314581,13.5297 231.702352,13.5297 C232.39711,13.5297 232.607152,13.1904 232.817195,12.2048143 C232.96261,11.4615857 233.07571,10.3952143 233.07571,8.98954286 C233.07571,7.3092 232.833352,6.69522857 231.298424,6.69522857 C231.072224,6.69522857 230.829867,6.71138571 230.668295,6.72754286 C230.070481,8.94107143 229.375724,11.1384429 228.535552,13.2550286 C227.711538,15.3069857 227.323767,15.8078571 226.580538,15.8078571 C225.853467,15.8078571 225.077924,15.2100429 225.077924,14.5637571 C225.077924,14.1598286 225.223338,13.9174714 225.675738,13.1096143 C225.918095,12.6572143 227.08141,10.3952143 228.018524,6.9699 C226.806738,7.09915714 226.370495,7.14762857 226.257395,7.14762857 C225.191024,7.14762857 225.094081,6.33977143 225.094081,5.91968571 C225.094081,5.6127 225.15871,4.95025714 225.788838,4.77252857 C226.28971,4.62711429 227.000624,4.57864286 228.616338,4.49785714 Z M236.985738,2.6721 C236.937267,2.559 236.678752,2.09044286 236.597967,1.96118571 C236.533338,1.84808571 236.501024,1.6542 236.501024,1.58957143 C236.501024,1.26642857 236.904952,1.07254286 237.14731,1.07254286 C237.438138,1.07254286 237.59971,1.29874286 237.906695,1.83192857 C238.149052,2.28432857 238.456038,2.83367143 238.456038,3.2376 C238.456038,3.67384286 237.987481,3.78694286 237.82591,3.78694286 C237.745124,3.78694286 237.518924,3.78694286 237.341195,3.43148571 C237.292724,3.31838571 237.03421,2.7852 236.985738,2.6721 Z M235.612381,5.46728571 L234.901467,4.74021429 C234.707581,4.54632857 234.65911,4.2555 234.65911,4.09392857 C234.65911,3.62537143 234.99841,3.33454286 235.11151,3.25375714 C235.240767,3.15681429 235.515438,3.0114 235.887052,3.0114 C236.904952,3.0114 238.116738,4.44938571 238.682238,5.59654286 C239.700138,7.61618571 239.700138,9.95897143 239.700138,10.0882286 C239.700138,10.4275286 239.700138,11.4615857 238.27831,11.4615857 C237.228095,11.4615857 237.114995,10.7829857 237.082681,10.3144286 C236.969581,8.7795 236.791852,6.66291429 235.612381,5.46728571 Z M238.859967,2.39742857 C238.811495,2.28432857 238.536824,1.81577143 238.472195,1.68651429 C238.407567,1.55725714 238.39141,1.41184286 238.39141,1.3149 C238.39141,0.991757143 238.779181,0.797871429 239.037695,0.797871429 C239.328524,0.797871429 239.473938,1.02407143 239.764767,1.5411 C239.990967,1.92887143 240.330267,2.63978571 240.330267,2.96292857 C240.330267,3.33454286 239.942495,3.49611429 239.700138,3.49611429 C239.603195,3.49611429 239.376995,3.49611429 239.215424,3.15681429 C239.150795,3.02755714 238.908438,2.49437143 238.859967,2.39742857 Z M248.223929,6.04894286 L248.030043,7.82622857 C248.4986,7.82622857 249.952743,7.79391429 250.7606,7.74544286 C250.906014,7.72928571 251.164529,7.71312857 251.293786,7.71312857 C251.536143,7.71312857 252.537886,7.71312857 252.537886,8.87644286 C252.537886,9.97512857 251.746186,10.0236 250.970643,10.0720714 C250.469771,10.1043857 248.256243,10.1528571 247.803843,10.1690143 C247.771529,10.5729429 247.755371,10.9445571 247.755371,11.4292714 C247.755371,12.5925857 248.013886,13.5135429 250.582871,13.5135429 C252.990286,13.5135429 253.830457,12.7541571 253.830457,10.8960857 C253.830457,10.5244714 253.798143,10.0882286 253.5881,9.37731429 C253.3619,8.60177143 253.345743,8.56945714 253.345743,8.39172857 C253.345743,7.66465714 254.105129,7.35767143 254.686786,7.35767143 C255.446171,7.35767143 255.769314,7.74544286 256.011671,8.214 C256.334814,8.81181429 256.544857,9.81355714 256.544857,11.0415 C256.544857,15.0646286 254.1536,16.0017429 250.550557,16.0017429 C246.979829,16.0017429 245.137914,14.7899571 245.137914,11.3808 C245.137914,11.1869143 245.154071,10.9768714 245.202543,10.1690143 C244.556257,10.1690143 243.6353,10.1528571 243.296,10.1205429 C243.0698,10.0882286 242.326571,9.99128571 242.326571,8.97338571 C242.326571,8.00395714 243.037486,7.81007143 243.586829,7.81007143 C243.877657,7.81007143 245.121757,7.82622857 245.380271,7.82622857 L245.541843,6.04894286 C245.057129,6.04894286 243.6353,6.03278571 243.328314,5.96815714 C242.940543,5.87121429 242.601243,5.46728571 242.601243,4.85331429 C242.601243,3.75462857 243.5222,3.69 243.909971,3.69 C243.926129,3.69 245.654943,3.72231429 245.735729,3.72231429 L245.800357,2.88214286 C245.848829,2.30048571 245.913457,1.5411 247.157557,1.5411 C247.965414,1.5411 248.660171,1.86424286 248.547071,2.94677143 L248.466286,3.72231429 C248.708643,3.72231429 250.518243,3.69 252.198586,3.62537143 C252.408629,3.60921429 253.329586,3.5769 253.523471,3.5769 C253.781986,3.5769 254.783729,3.5769 254.783729,4.74021429 C254.783729,5.8389 253.911243,5.90352857 253.475,5.91968571 C251.358414,6.03278571 250.130471,6.03278571 248.223929,6.04894286 Z M262.144205,14.3860286 C262.144205,13.7882143 262.370405,13.1742429 263.35599,13.1742429 C263.501405,13.1742429 263.953805,13.2065571 264.131533,13.2227143 C264.454676,13.2550286 264.761662,13.2550286 265.068648,13.2550286 C266.845933,13.2550286 269.786533,13.0449857 269.786533,10.0882286 C269.786533,8.19784286 268.510119,7.5354 267.08829,7.5354 C265.601833,7.5354 264.018433,7.97164286 263.210576,8.23015714 C261.740276,8.71487143 261.562548,8.76334286 261.287876,8.76334286 C260.383076,8.76334286 260.140719,7.92317143 260.140719,7.43845714 C260.140719,6.56597143 260.673905,6.35592857 261.417133,6.12972857 C264.196162,5.32187143 266.328905,5.24108571 267.104448,5.24108571 C267.815362,5.24108571 269.738062,5.24108571 271.095262,6.64675714 C272.129319,7.72928571 272.307048,9.18342857 272.307048,10.0559143 C272.307048,11.5746857 271.822333,13.3358143 270.061205,14.4991286 C268.44549,15.5655 265.682619,15.6301286 264.697033,15.6301286 C263.24289,15.6301286 262.144205,15.5816571 262.144205,14.3860286 Z M283.868381,5.66117143 C285.338681,5.09567143 288.23081,4.28781429 288.957881,4.28781429 C290.26661,4.28781429 290.26661,5.53191429 290.26661,5.66117143 C290.26661,6.6306 289.604167,6.82448571 288.553952,7.01837143 C285.484095,7.56771429 283.189781,8.35941429 281.977995,8.97338571 C281.428652,9.24805714 279.699838,10.1205429 279.699838,11.5746857 C279.699838,12.8672571 280.701581,13.3519714 283.609867,13.3519714 C284.61161,13.3519714 285.823395,13.2873429 287.616838,12.9965143 C287.923824,12.9480429 288.473167,12.8511 288.763995,12.8511 C289.620324,12.8511 290.056567,13.3035 290.056567,14.1759857 C290.056567,15.0484714 289.571852,15.3069857 288.90941,15.4685571 C287.77841,15.7432286 285.354838,15.8563286 284.013795,15.8563286 C281.380181,15.8563286 276.92081,15.6462857 276.92081,11.8170429 C276.92081,10.1205429 277.890238,8.76334286 278.940452,8.02011429 C279.812938,7.38998571 280.604638,7.00221429 281.44481,6.59828571 C281.396338,6.21051429 281.33171,5.8389 280.798524,3.78694286 C280.507695,2.70441429 280.475381,2.59131429 280.475381,2.39742857 C280.475381,1.57341429 281.21861,1.26642857 281.913367,1.26642857 C283.060524,1.26642857 283.157467,1.75114286 283.48061,3.38301429 C283.496767,3.47995714 283.852224,5.4996 283.868381,5.66117143 Z M297.610929,9.24805714 L297.610929,6.53365714 C297.610929,4.91794286 298.354157,4.43322857 299.711357,4.43322857 L301.5048,4.43322857 L301.5048,3.77078571 L298.418786,3.77078571 C298.1118,3.77078571 297.400886,3.77078571 297.400886,2.73672857 C297.400886,1.75114286 297.9987,1.68651429 298.418786,1.68651429 L307.256743,1.68651429 C307.547571,1.68651429 308.274643,1.68651429 308.274643,2.72057143 C308.274643,3.73847143 307.644514,3.77078571 307.256743,3.77078571 L303.831429,3.77078571 L303.831429,4.43322857 L305.608714,4.43322857 C306.965914,4.43322857 307.7253,4.90178571 307.7253,6.53365714 L307.7253,9.24805714 C307.7253,10.8960857 306.965914,11.3646429 305.608714,11.3646429 L303.637543,11.3646429 C303.5406,11.9624571 303.395186,12.6410571 302.942786,13.3842857 C304.348457,13.8528429 306.158057,14.0467286 307.143643,14.1113571 C307.6122,14.1436714 308.242329,14.1759857 308.242329,15.0969429 C308.242329,15.4039286 308.145386,15.7593857 307.9515,16.0340571 C307.757614,16.3087286 307.515257,16.4541429 306.949757,16.4541429 C306.222686,16.4541429 303.217457,16.0017429 301.246286,15.0807857 C299.872929,16.0017429 298.402629,16.3895143 297.9987,16.3895143 C297.400886,16.3895143 296.900014,15.8563286 296.900014,15.1292571 C296.900014,14.3698714 297.352414,14.2567714 297.869443,14.1275143 C298.4511,13.9659429 298.7904,13.8205286 299.032757,13.7074286 C297.982543,12.8672571 297.853286,12.5441143 297.853286,12.2371286 C297.853286,11.9139857 298.144114,11.3323286 298.822714,11.2677 C297.610929,10.9607143 297.610929,9.76508571 297.610929,9.24805714 Z M300.082971,9.55504286 L301.472486,9.55504286 C301.488643,9.24805714 301.5048,9.0057 301.5048,8.61792857 L299.792143,8.61792857 L299.792143,9.24805714 C299.792143,9.44194286 299.889086,9.55504286 300.082971,9.55504286 Z M301.5048,7.06684286 L301.5048,6.1782 L300.082971,6.1782 C299.872929,6.1782 299.792143,6.2913 299.792143,6.46902857 L299.792143,7.06684286 L301.5048,7.06684286 Z M303.831429,6.1782 L303.831429,7.06684286 L305.495614,7.06684286 L305.495614,6.46902857 C305.495614,6.2913 305.398671,6.1782 305.188629,6.1782 L303.831429,6.1782 Z M303.799114,9.55504286 L305.188629,9.55504286 C305.382514,9.55504286 305.495614,9.44194286 305.495614,9.24805714 L305.495614,8.61792857 L303.831429,8.61792857 C303.815271,8.84412857 303.815271,9.36115714 303.799114,9.55504286 Z M299.291357,11.3485199 C299.372103,11.3808342 299.436731,11.4292999 299.565943,11.5100571 C300.228386,12.0270857 300.341486,12.1078714 300.777729,12.3663857 C300.842357,12.2856 301.133186,11.8978286 301.2786,11.3646429 L299.711357,11.3646429 C299.570866,11.3646429 299.460539,11.3646429 299.30752,11.350072 L299.291357,11.3485199 Z M296.786914,4.74021429 L296.786914,15.3877714 C296.786914,15.6462857 296.786914,16.5672429 295.720543,16.5672429 C294.799586,16.5672429 294.557229,16.0502143 294.557229,15.3877714 L294.557229,9.61967143 C294.460286,9.73277143 294.2664,9.92665714 293.991729,9.92665714 C293.410071,9.92665714 292.683,9.26421429 292.683,8.47251429 C292.683,8.08474286 292.812257,7.82622857 293.086929,7.34151429 C294.217929,5.43497143 294.896529,3.2376 295.122729,2.23585714 C295.251986,1.71882857 295.381243,1.13717143 296.205257,1.13717143 C296.5284,1.13717143 297.417043,1.28258571 297.417043,2.15507143 C297.417043,2.80135714 296.996957,4.09392857 296.786914,4.74021429 Z M315.489705,3.77078571 L315.489705,5.32187143 L317.089262,5.32187143 C317.412405,5.32187143 318.28489,5.33802857 318.28489,6.4044 C318.28489,7.3092 317.800176,7.56771429 317.089262,7.56771429 L315.522019,7.56771429 C316.071362,8.53714286 316.70149,9.47425714 317.49319,10.2821143 C318.139476,10.9284 318.236419,11.0253429 318.236419,11.4454286 C318.236419,12.0755571 317.751705,12.8026286 317.15389,12.8026286 C316.426819,12.8026286 315.651276,11.3646429 315.489705,11.0576571 L315.489705,15.5170286 C315.489705,15.8078571 315.489705,16.5510857 314.407176,16.5510857 C313.340805,16.5510857 313.179233,16.0986857 313.179233,15.5170286 L313.179233,11.8170429 C312.694519,12.7056857 312.258276,13.2388714 312.080548,13.4489143 C311.805876,13.7559 311.563519,13.9821 311.143433,13.9821 C310.416362,13.9821 309.883176,13.2550286 309.883176,12.6087429 C309.883176,12.1886571 310.060905,11.9786143 310.901076,11.0899714 C312.17749,9.74892857 312.872248,8.18168571 313.130762,7.56771429 L311.191905,7.56771429 C310.771819,7.56771429 309.996276,7.50308571 309.996276,6.48518571 C309.996276,5.69348571 310.319419,5.32187143 311.191905,5.32187143 L313.179233,5.32187143 L313.179233,4.04545714 C312.581419,4.11008571 311.935133,4.17471429 311.38579,4.17471429 C310.335576,4.17471429 310.238633,3.41532857 310.238633,3.04371429 C310.238633,2.05812857 310.965705,2.00965714 311.708933,1.96118571 C314.051719,1.81577143 314.358705,1.79961429 315.473548,1.58957143 C316.378348,1.41184286 316.911533,1.29874286 317.105419,1.29874286 C318.026376,1.29874286 318.107162,2.25201429 318.107162,2.49437143 C318.107162,3.41532857 317.541662,3.49611429 315.489705,3.77078571 Z M321.11239,3.41532857 L321.11239,11.8493571 C321.11239,12.1401857 321.11239,12.9642 319.965233,12.9642 C318.915019,12.9642 318.656505,12.5279571 318.656505,11.8493571 L318.656505,3.41532857 C318.656505,3.14065714 318.656505,2.31664286 319.819819,2.31664286 C320.805405,2.31664286 321.11239,2.68825714 321.11239,3.41532857 Z M324.796219,2.23585714 L324.796219,14.3052429 C324.796219,14.7253286 324.796219,16.131 323.471333,16.3733571 C323.245133,16.4218286 322.889676,16.4703 321.257805,16.4703 C320.853876,16.4703 320.078333,16.4703 319.75519,16.3733571 C319.060433,16.1633143 319.011962,15.3231429 319.011962,15.0807857 C319.011962,13.8528429 319.819819,13.8366857 320.239905,13.8366857 C320.466105,13.8366857 321.467848,13.8851571 321.67789,13.8851571 C322.24339,13.8851571 322.388805,13.8528429 322.388805,13.4004429 L322.388805,2.23585714 C322.388805,1.91271429 322.404962,1.13717143 323.503648,1.13717143 C324.424605,1.13717143 324.796219,1.44415714 324.796219,2.23585714 Z M329.959324,1.79961429 C330.233995,1.79961429 331.154952,1.91271429 331.154952,2.83367143 C331.154952,3.07602857 330.977224,4.17471429 330.94491,4.40091429 C330.864124,5.09567143 330.60561,7.35767143 330.60561,9.94281429 C330.60561,10.476 330.60561,11.7847286 330.71871,12.8834143 C330.751024,13.1096143 330.896438,14.5152857 330.896438,14.6445429 C330.896438,15.1292571 330.767181,15.8724857 329.539238,15.8724857 C328.602124,15.8724857 328.408238,15.3393 328.262824,14.6445429 C328.182038,14.2729286 328.00431,12.738 328.00431,10.476 C328.00431,6.50134286 328.408238,3.31838571 328.56981,2.68825714 C328.779852,1.79961429 329.313038,1.79961429 329.959324,1.79961429 Z M341.35011,4.11008571 C341.35011,5.24108571 340.574567,5.37034286 339.960595,5.37034286 C339.702081,5.37034286 338.554924,5.35418571 338.312567,5.35418571 C337.601652,5.35418571 335.711267,5.3865 334.33791,5.46728571 C334.289438,5.46728571 333.966295,5.4996 333.853195,5.4996 C333.077652,5.4996 332.560624,5.14414286 332.560624,4.23934286 C332.560624,3.15681429 333.271538,3.05987143 333.562367,3.0114 C333.917824,2.94677143 335.888995,2.83367143 338.457981,2.83367143 C338.97501,2.83367143 340.235267,2.83367143 340.606881,2.93061429 C341.107752,3.04371429 341.35011,3.52842857 341.35011,4.11008571 Z M341.737881,13.5135429 C341.737881,14.3537143 341.414738,14.6122286 341.026967,14.7738 C340.299895,15.0969429 338.005581,15.1615714 337.456238,15.1615714 C334.774152,15.1615714 332.07591,14.7091714 332.07591,11.9139857 C332.07591,11.8978286 332.07591,9.18342857 333.869352,9.18342857 C334.515638,9.18342857 335.323495,9.50657143 335.323495,10.2013286 C335.323495,10.4921571 335.275024,10.6052571 335.000352,11.1222857 C334.806467,11.4777429 334.757995,11.6554714 334.757995,11.8008857 C334.757995,12.4310143 335.46891,12.6572143 337.068467,12.6572143 C337.84401,12.6572143 338.651867,12.5441143 339.104267,12.4956429 C339.330467,12.4633286 340.348367,12.3017571 340.55841,12.3017571 C341.382424,12.3017571 341.737881,12.8026286 341.737881,13.5135429 Z M353.169957,5.88737143 L352.604457,10.2174857 C352.539829,10.7183571 352.442886,11.1869143 351.780443,11.1869143 C351.134157,11.1869143 351.0049,10.8314571 350.924114,10.2174857 L350.358614,5.88737143 L350.358614,2.7852 C350.358614,2.3328 350.4394,1.47647143 351.748129,1.47647143 C352.749871,1.47647143 353.169957,1.91271429 353.169957,2.7852 L353.169957,5.88737143 Z M351.764286,12.2371286 C352.620614,12.2371286 353.315371,12.9157286 353.315371,13.7882143 C353.315371,14.6607 352.620614,15.3554571 351.764286,15.3554571 C350.907957,15.3554571 350.2132,14.6607 350.2132,13.7882143 C350.2132,12.9157286 350.907957,12.2371286 351.764286,12.2371286 Z M3.38853788,3.29849734 L14.8133632,14.7233226 C15.5144472,15.4244067 15.5144472,16.5610886 14.8133632,17.2621727 C14.1122791,17.9632568 12.9755972,17.9632568 12.2745131,17.2621727 L0.849687821,5.83734741 C0.148603735,5.13626332 0.148603735,3.99958143 0.849687821,3.29849734 C1.55077191,2.59741326 2.6874538,2.59741326 3.38853788,3.29849734 Z M371.322132,3.29849734 C372.023216,2.59741326 373.159898,2.59741326 373.860982,3.29849734 C374.562066,3.99958143 374.562066,5.13626332 373.860982,5.83734741 L362.436157,17.2621727 C361.735073,17.9632568 360.598391,17.9632568 359.897307,17.2621727 C359.196223,16.5610886 359.196223,15.4244067 359.897307,14.7233226 L371.322132,3.29849734 Z" id="img_mv-nicocaspromotion_catch" fill="#252525"></path>
</svg>
