<svg viewBox="0 0 326 200" version="1.1" xmlns="http://www.w3.org/2000/svg">
  <rect fill="#FFFFFF" x="69" y="4" width="186" height="116"></rect>
  <rect fill="#C6C6C6" x="137" y="82" width="52" height="26"></rect>
  <path d="M75.35,187.166 C75.372,186.594 75.306,184.02 75.416,183.514 C75.526,183.03 75.812,182.326 77.154,182.326 C78.848,182.326 79.068,183.36 79.068,184.592 C79.068,185.758 78.936,187.364 78.848,188.486 C80.476,189.234 81.554,189.74 81.554,190.884 C81.554,191.632 80.916,192.842 79.882,192.842 C79.354,192.842 79.068,192.666 78.232,192.204 C77.308,195.68 74.514,198.474 72.468,198.474 C71.588,198.474 70.708,197.616 70.708,196.67 C70.708,195.812 71.016,195.614 73.018,194.316 C73.524,193.986 74.668,192.996 75.042,190.664 C73.48,189.982 72.556,189.696 71.148,189.454 C70.928,190.312 70.422,192.336 69.3,194.668 C68.662,195.966 67.76,197.308 66,197.308 C63.976,197.308 61.578,195.526 61.578,192.314 C61.578,190.29 62.568,187.848 65.648,186.748 C66.99,186.264 68.134,186.198 68.64,186.176 C68.706,185.89 69.036,184.658 69.058,184.46 C69.102,184.152 69.278,183.25 69.278,183.074 C69.278,182.612 68.992,182.546 68.64,182.546 C68.024,182.546 65.362,182.744 64.812,182.744 C64.35,182.744 63.052,182.744 63.052,181.072 C63.052,179.378 64.328,179.378 65.12,179.378 L66.352,179.378 C66.99,179.378 70.334,179.268 70.422,179.268 C71.038,179.268 72.908,179.268 72.908,181.182 C72.908,181.952 72.6,183.426 72.534,183.756 C72.468,184.174 72.006,185.956 71.918,186.33 C73.502,186.638 74.272,186.858 75.35,187.166 Z M67.87,189.212 C67.32,189.322 66.946,189.388 66.484,189.564 C65.384,190.026 64.526,190.928 64.526,192.38 C64.526,193.656 65.34,193.964 65.604,193.964 C66.066,193.964 66.418,193.414 66.814,192.446 C67.54,190.642 67.76,189.74 67.87,189.212 Z M90.848,187.584 C91.64,187.056 92.366,186.572 93.686,186.572 C96.15,186.572 97.14,188.134 97.14,190.356 C97.14,190.818 96.986,192.886 96.986,193.304 C96.986,193.656 97.008,194.228 97.492,194.58 C97.756,194.756 98.02,194.778 98.174,194.778 C99.758,194.778 100.22,192.732 100.462,191.28 C100.528,190.796 100.616,188.64 100.682,188.2 C100.748,187.848 100.88,186.902 102.398,186.902 C104.246,186.902 104.246,188.244 104.246,188.882 C104.246,190.576 103.916,192.864 103.344,194.448 C103.124,195.064 102.178,197.462 99.582,198.1 C98.768,198.298 98.13,198.298 97.91,198.298 C96.898,198.298 95.182,198.078 94.324,196.736 C93.642,195.658 93.642,194.69 93.642,193.986 C93.642,193.546 93.752,191.654 93.752,191.258 C93.752,190.708 93.752,189.85 92.476,189.85 C91.948,189.85 90.254,190.136 89.176,193.37 C89.066,193.722 88.802,194.536 88.472,196.032 C88.208,197.286 87.966,198.078 86.646,198.078 C85.788,198.078 84.776,197.55 84.776,196.45 C84.776,196.054 84.842,195.768 85.15,194.734 C86.338,190.642 87.592,186.572 88.978,182.524 C89.176,181.952 89.88,179.884 90.056,179.532 C90.166,179.312 90.562,178.718 91.508,178.718 C91.948,178.718 93.466,178.938 93.466,180.236 C93.466,180.742 93.334,181.072 92.564,183.052 C91.53,185.736 91.42,186.044 91.2,186.638 C91.112,186.858 91.024,187.056 90.848,187.584 Z M119.678,189.696 L119.458,186.638 C119.348,185.252 120.602,185.076 121.174,185.076 C121.834,185.076 122.802,185.252 122.868,186.506 L123.066,190.752 C124.188,191.324 125.244,192.028 126.168,192.886 C126.74,193.392 126.916,193.832 126.916,194.316 C126.916,195.24 126.234,196.164 125.178,196.164 C124.87,196.164 124.518,196.076 124.276,195.856 C123.396,195.086 123.22,194.932 122.802,194.536 C122.758,195.196 122.714,195.746 122.34,196.428 C121.328,198.188 119.106,198.386 117.984,198.386 C114.156,198.386 112.528,196.34 112.528,194.074 C112.528,191.962 114.068,189.608 118.27,189.608 C118.842,189.608 119.26,189.652 119.678,189.696 Z M119.788,192.776 C119.348,192.578 118.996,192.424 118.072,192.424 C117.368,192.424 115.52,192.556 115.52,194.008 C115.52,195.482 117.412,195.482 117.72,195.482 C119.436,195.482 119.81,194.646 119.788,192.776 Z M114.706,184.9 C114.2,186.572 113.078,190.158 111.23,193.48 C110.9,194.052 110.526,194.602 109.602,194.602 C108.678,194.602 107.688,193.964 107.688,193.018 C107.688,192.424 107.864,192.16 109.14,189.894 C110.152,188.112 110.856,185.89 111.142,185.032 C109.558,185.054 109.162,185.076 108.722,184.966 C108.172,184.834 107.732,184.284 107.732,183.382 C107.732,181.996 108.7,181.864 109.052,181.798 C109.206,181.776 111.692,181.71 112.066,181.71 C112.132,181.38 112.396,179.928 112.484,179.642 C112.682,178.982 113.254,178.696 114.002,178.696 C114.442,178.696 115.916,178.784 115.916,180.082 C115.916,180.588 115.784,181.094 115.674,181.578 C115.916,181.578 116.972,181.512 117.192,181.512 C117.698,181.512 118.886,181.556 118.886,183.162 C118.886,184.702 117.764,184.768 117.104,184.812 C116.686,184.834 116.488,184.834 114.706,184.9 Z M119.612,180.522 C119.788,180.302 120.272,179.752 121.02,179.752 C122.01,179.752 124.606,181.292 126.124,182.48 C126.894,183.096 127.158,183.558 127.158,184.13 C127.158,185.164 126.234,185.912 125.398,185.912 C124.826,185.912 124.43,185.626 123.968,185.23 C122.758,184.196 122.362,183.866 120.338,182.744 C119.92,182.524 119.326,182.194 119.326,181.402 C119.326,180.984 119.546,180.632 119.612,180.522 Z M140.302,183.382 C139.136,183.47 132.844,183.954 132.272,183.954 C131.128,183.954 130.6,183.162 130.6,182.128 C130.6,181.182 130.93,180.412 132.184,180.28 C133.108,180.192 143.558,179.796 147.826,179.796 C149.036,179.796 150.29,179.796 150.29,181.468 C150.29,183.25 149.102,183.294 147.848,183.294 C146.528,183.316 145.186,183.558 143.206,184.68 C140.94,185.978 138.696,188.42 138.696,190.994 C138.696,193.744 140.962,194.36 144.658,194.36 L146.55,194.36 C147.364,194.36 148.244,194.69 148.244,196.01 C148.244,198.078 146.638,198.078 145.054,198.078 C144.416,198.078 142.392,198.056 140.17,197.484 C138.982,197.176 135.044,196.164 135.044,191.412 C135.044,188.926 136.166,187.122 137.42,185.736 C138.542,184.482 139.466,183.91 140.302,183.382 Z M144.812,187.254 C144.724,187.1 144.35,186.44 144.284,186.286 C144.218,186.132 144.152,185.956 144.152,185.802 C144.152,185.362 144.702,185.098 145.032,185.098 C145.406,185.098 145.626,185.34 146.088,186.154 C146.242,186.44 146.792,187.562 146.792,188.002 C146.792,188.596 146.176,188.75 145.912,188.75 C145.802,188.75 145.516,188.75 145.296,188.288 C145.208,188.134 144.878,187.408 144.812,187.254 Z M147.1,186.22 C147.012,186.044 146.616,185.296 146.55,185.142 C146.484,184.988 146.462,184.834 146.462,184.746 C146.462,184.306 147.012,184.064 147.32,184.064 C147.76,184.064 147.98,184.416 148.376,185.142 C148.662,185.648 149.102,186.506 149.102,186.968 C149.102,187.452 148.596,187.694 148.222,187.694 C148.112,187.694 147.826,187.694 147.584,187.232 C147.496,187.078 147.166,186.352 147.1,186.22 Z M164.05,195.526 L164.05,189.3 L163.258,189.3 C162.95,193.172 162.422,195.02 162.026,196.318 C161.3,198.694 160.728,199.024 159.848,199.024 C158.99,199.024 158.22,198.452 158.088,197.77 C157.736,198.98 156.724,199.024 155.316,199.024 C154.348,199.024 153.05,199.024 153.05,197.308 C153.05,196.274 153.622,195.746 154.524,195.746 C155.052,195.746 155.206,195.658 155.206,195.152 L155.206,192.182 C154.81,192.292 154.59,192.358 154.282,192.358 C153.028,192.358 152.896,190.95 152.896,190.554 C152.896,189.322 153.622,189.168 155.206,188.794 L155.206,185.01 L154.546,185.01 C154.084,185.01 152.984,184.988 152.984,183.448 C152.984,182.062 153.798,181.842 154.546,181.842 L155.206,181.842 L155.206,179.796 C155.206,179.444 155.206,178.146 156.702,178.146 C158.198,178.146 158.198,179.356 158.198,179.796 L158.198,181.842 L158.704,181.842 C159.144,181.842 160.134,181.886 160.134,183.426 C160.134,184.79 159.408,185.01 158.704,185.01 L158.198,185.01 L158.198,187.87 C158.396,187.804 158.704,187.716 159.012,187.716 C159.782,187.716 160.222,188.266 160.354,188.926 C160.398,188.442 160.464,187.32 160.464,186.616 L160.464,181.534 C160.464,179.466 161.41,178.872 163.126,178.872 L172.256,178.872 C172.608,178.872 173.862,178.872 173.862,180.28 C173.862,181.6 172.828,181.71 172.256,181.71 L163.94,181.71 C163.522,181.71 163.324,181.93 163.324,182.326 L163.324,186.44 L172.322,186.44 C172.674,186.44 173.928,186.44 173.928,187.782 C173.928,188.772 173.51,189.3 172.322,189.3 L170.32,189.3 C170.452,190.444 170.628,191.06 170.738,191.412 C170.98,191.17 171.222,190.928 171.442,190.686 C171.772,190.312 172.08,190.004 172.586,190.004 C173.246,190.004 173.884,190.62 173.884,191.39 C173.884,192.028 173.378,192.666 171.86,193.876 C172.322,194.602 172.366,194.668 173.554,196.098 C173.664,196.23 173.95,196.626 173.95,197.132 C173.95,197.968 173.202,198.892 172.256,198.892 C171.75,198.892 171.354,198.65 170.98,198.232 C170.254,197.418 169.682,196.45 169.308,195.658 C169.352,195.812 169.418,196.054 169.418,196.384 C169.418,197.484 168.846,197.748 167.438,198.034 C166.536,198.232 164.182,198.716 163.5,198.716 C163.104,198.716 162.664,198.606 162.4,198.276 C162.114,197.902 162.026,197.396 162.026,197.066 C162.026,195.856 162.84,195.724 164.05,195.526 Z M166.8,189.3 L166.8,195.02 C166.998,194.998 167.702,194.844 168.12,194.844 C168.648,194.844 168.89,194.976 169.132,195.328 C167.966,192.776 167.768,190.026 167.746,189.3 L166.8,189.3 Z M158.396,196.384 L159.21,194.646 C159.562,193.898 160.002,192.028 160.266,189.85 C160.024,190.378 159.628,190.576 158.198,191.148 L158.198,196.89 C158.242,196.736 158.286,196.604 158.396,196.384 Z M165.106,182.766 L171.772,182.766 C172.124,182.766 173.136,182.766 173.136,184.042 C173.136,185.274 172.278,185.34 171.772,185.34 L165.106,185.34 C164.776,185.34 163.764,185.34 163.764,184.108 C163.764,183.118 164.204,182.766 165.106,182.766 Z M182.474,182.832 C183.046,181.93 183.64,181.006 185.092,180.06 C186.236,179.312 187.402,179.092 188.348,179.092 C190.394,179.092 191.956,180.126 192.77,181.27 C194.178,183.228 194.508,185.978 194.508,188.354 C194.508,193.744 192.748,196.318 189.162,197.594 C187.292,198.254 185.356,198.452 183.574,198.452 C182.276,198.452 180.824,198.452 180.824,196.692 C180.824,195.064 182.188,195.064 182.65,195.064 C182.936,195.064 184.19,195.086 184.432,195.064 C189.58,194.8 190.812,192.424 190.812,188.354 C190.812,185.692 190.416,182.326 187.864,182.326 C185.048,182.326 182.166,186.198 182.166,189.586 C182.166,189.916 182.254,191.302 182.254,191.588 C182.254,192.116 182.254,193.304 180.516,193.304 C180.142,193.304 179.174,193.26 178.91,192.336 C178.756,191.786 178.624,190.312 178.624,189.124 C178.624,184.636 179.02,180.786 179.306,179.818 C179.482,179.202 179.834,178.608 181.066,178.608 C181.616,178.608 182.936,178.674 182.936,180.06 C182.936,180.236 182.892,180.522 182.848,180.742 C182.562,181.996 182.562,182.128 182.474,182.832 Z M215.198,185.648 L211.612,185.648 C212.184,185.736 212.382,186.044 212.58,186.374 C213.57,188.002 213.724,188.178 214.142,188.706 C215.044,187.54 215.638,186.242 215.638,185.934 C215.638,185.736 215.528,185.648 215.198,185.648 Z M209.17,182.898 L216.518,182.898 C217.53,182.898 217.904,182.942 218.366,183.316 C218.784,183.646 219.026,184.108 219.026,184.944 C219.026,186.748 217.53,189.168 216.364,190.73 C217.09,191.236 217.288,191.346 219.18,192.27 C219.444,192.402 219.796,192.754 219.796,193.37 C219.796,193.92 219.4,195.174 218.19,195.174 C217.178,195.174 215.176,193.678 214.274,192.952 C213.108,193.964 211.282,195.218 210.094,195.218 C209.06,195.218 208.598,194.096 208.598,193.524 C208.598,192.754 209.214,192.424 209.478,192.292 C211.436,191.28 211.656,191.17 212.052,190.84 C210.71,189.234 209.72,187.628 209.72,187.056 C209.72,186.374 210.336,185.78 211.194,185.648 L209.17,185.648 L209.17,187.496 C209.17,187.628 209.17,190.048 208.488,192.732 C208.114,194.206 207.674,194.778 206.794,194.778 C205.826,194.778 204.902,194.096 204.902,193.238 C204.902,192.842 205.474,191.214 205.562,190.862 C205.87,189.718 206.046,188.024 206.046,186.858 L206.046,181.732 C206.046,179.422 207.124,178.784 208.994,178.784 L218.146,178.784 C218.63,178.784 219.752,178.828 219.752,180.236 C219.752,181.446 219.004,181.732 218.146,181.732 L209.786,181.732 C209.368,181.732 209.17,181.93 209.17,182.348 L209.17,182.898 Z M200.854,178.278 C201.316,178.278 201.712,178.278 203.626,180.038 C203.846,180.236 204.66,180.984 205.056,181.512 C205.364,181.886 205.364,182.172 205.364,182.348 C205.364,183.338 204.462,184.152 203.56,184.152 C202.922,184.152 202.724,183.954 201.492,182.7 C201.206,182.392 199.798,181.094 199.534,180.808 C199.248,180.5 199.226,180.17 199.226,180.016 C199.226,179.114 200.062,178.278 200.854,178.278 Z M208.136,195.46 L218.432,195.46 C219.642,195.46 219.994,196.296 219.994,197 C219.994,197.594 219.818,198.584 218.432,198.584 L208.576,198.584 C207.938,198.584 206.706,198.474 205.716,198.166 C204.792,197.858 204.154,197.286 203.494,196.516 C203.23,196.912 202.636,197.704 202.064,198.298 C201.866,198.518 201.492,198.87 200.832,198.87 C199.908,198.87 198.984,197.924 198.984,196.846 C198.984,196.186 199.38,195.856 199.688,195.57 C200.238,195.086 201.03,194.404 201.338,194.096 L201.338,189.938 C201.338,189.74 201.338,189.388 200.964,189.388 L200.524,189.388 C200.084,189.388 199.116,189.19 199.116,187.936 C199.116,186.836 199.512,186.308 200.722,186.308 L201.8,186.308 C204.11,186.308 204.528,186.748 204.528,189.036 L204.528,192.886 C204.528,194.316 205.782,195.46 208.136,195.46 Z M233.27,185.736 C234.062,185.56 234.37,185.516 235.03,185.516 C239.166,185.516 241.564,187.694 241.564,191.302 C241.564,194.206 239.98,195.966 238.726,196.736 C236.746,197.946 234.392,198.276 232.082,198.276 C230.278,198.276 228.496,198.056 227.264,197.506 C226.736,197.264 226.164,196.846 226.164,195.944 C226.164,195.108 226.714,194.316 227.55,194.316 C227.924,194.316 228.606,194.47 229.508,194.69 C230.168,194.844 231.312,194.954 232.104,194.954 C234.326,194.954 235.448,194.58 236.284,194.074 C236.922,193.7 237.78,192.864 237.78,191.5 C237.78,190.334 237.208,189.432 236.504,189.014 C236.064,188.75 235.382,188.464 233.776,188.464 C230.872,188.464 229.134,189.344 226.538,191.764 C225.768,192.49 225.416,192.776 224.8,192.776 C223.722,192.776 222.908,191.698 222.908,191.016 C222.908,190.268 223.172,189.894 224.558,188.86 C229.53,185.186 231.708,183.58 232.72,182.568 C232.148,182.59 227.352,182.832 226.34,182.832 C225.438,182.832 224.558,182.502 224.558,181.204 C224.558,179.73 225.262,179.466 227.154,179.466 C229.618,179.466 232.104,179.444 235.14,179.312 C235.294,179.312 235.844,179.29 236.02,179.29 C237.23,179.29 238.132,179.62 238.132,180.94 C238.132,181.6 237.824,182.216 237.23,182.678 C236.086,183.602 235.866,183.734 234.128,185.12 C233.974,185.23 233.556,185.516 233.27,185.736 Z M248.9,180.28 C249.054,179.07 249.714,178.696 250.484,178.696 C250.836,178.696 252.31,179.004 252.618,179.048 C253.916,179.268 256.688,179.554 259.57,179.708 C260.538,179.752 261.88,179.818 261.88,181.424 C261.88,181.996 261.638,182.634 261.286,182.92 C260.956,183.184 260.538,183.228 260.01,183.228 C258.558,183.228 252.596,182.612 250.22,182.062 C249.274,181.842 248.79,181.226 248.9,180.28 Z M305.673016,117.699999 L300.211383,122.857516 C299.515922,123.514161 298.082925,123.514161 297.389939,122.857516 L291.926655,117.699999 L290.849999,117.699999 C280.16329,117.699999 271.5,109.036709 271.5,98.3499995 C271.5,87.6632899 280.16329,79 290.849999,79 L305.849994,79 C316.536704,79 325.199994,87.6632899 325.199994,98.3499995 C325.199994,109.036709 316.536704,117.699999 305.849994,117.699999 L305.673016,117.699999 Z M34.6730158,38.699999 L29.2113827,43.8575156 C28.5159217,44.5141609 27.0829254,44.5141609 26.3899393,43.8575156 L20.9266551,38.699999 L19.8499995,38.699999 C9.16328986,38.699999 0.5,30.0367091 0.5,19.3499995 C0.5,8.66328986 9.16328986,1.96311671e-15 19.8499995,0 L34.8499942,0 C45.5367039,-1.96311671e-15 54.1999937,8.66328986 54.1999937,19.3499995 C54.1999937,30.0367091 45.5367039,38.699999 34.8499942,38.699999 L34.6730158,38.699999 Z M152.719626,132.71028 L152.719626,125.233645 L67,125.233645 C64.790861,125.233645 63,123.442784 63,121.233645 L63,4 C63,1.790861 64.790861,0 67,0 L259,0 C261.209139,0 263,1.790861 263,4 L263,121.233645 C263,123.442784 261.209139,125.233645 259,125.233645 L174.214953,125.233645 L174.214953,132.71028 L182.626168,132.71028 C184.690784,132.71028 186.364486,134.383982 186.364486,136.448598 C186.364486,138.513214 184.690784,140.186916 182.626168,140.186916 L144.308411,140.186916 C142.243795,140.186916 140.570093,138.513214 140.570093,136.448598 C140.570093,134.383982 142.243795,132.71028 144.308411,132.71028 L152.719626,132.71028 Z M264.322,190.268 C264.322,197.528 256.446,198.496 252.42,198.496 C251.672,198.496 251.188,198.43 250.792,198.034 C250.484,197.726 250.264,197.242 250.264,196.692 C250.264,195.24 251.342,195.174 252.024,195.152 C254.642,195.02 257.172,194.954 258.954,193.546 C260.34,192.446 260.56,190.972 260.56,190.334 C260.56,189.388 260.142,188.552 259.614,188.134 C258.91,187.584 257.92,187.474 257.15,187.474 C256.49,187.474 253.828,187.65 250.77,189.168 C250.418,189.344 248.944,190.136 248.614,190.268 C248.152,190.444 247.91,190.466 247.734,190.466 C246.414,190.466 245.908,189.19 245.908,188.486 C245.908,187.364 246.612,187.012 249.12,185.978 C251.826,184.878 255.434,184.262 257.106,184.262 C258.558,184.262 260.934,184.548 262.408,185.802 C264.058,187.232 264.322,189.256 264.322,190.268 Z M72,116.233645 L254,116.233645 L254,9 L72,9 L72,116.233645 Z M202.892571,64.5890871 C202.892571,66.2548879 201.542846,67.6046138 199.875621,67.6046138 C198.20982,67.6046138 196.860094,66.2548879 196.860094,64.5890871 C196.860094,62.9232862 198.20982,61.5721366 199.875621,61.5721366 C201.542846,61.5721366 202.892571,62.9232862 202.892571,64.5890871 Z M219.562113,64.5890871 C219.562113,66.2548879 218.210963,67.6046138 216.545162,67.6046138 C214.879361,67.6046138 213.529635,66.2548879 213.529635,64.5890871 C213.529635,62.9232862 214.879361,61.5721366 216.545162,61.5721366 C218.210963,61.5721366 219.562113,62.9232862 219.562113,64.5890871 Z M208.21089,80.3770351 C207.602944,80.3770351 207.020625,80.1349957 206.590649,79.7064435 L200.71621,73.8320038 C199.822088,72.9364579 199.822088,71.4870688 200.71621,70.5929466 C201.611756,69.6988244 203.061145,69.6988244 203.956691,70.5929466 L208.21089,74.8485695 L212.465089,70.5929466 C213.357787,69.6988244 214.8086,69.6988244 215.704146,70.5929466 C216.598268,71.4870688 216.598268,72.9364579 215.704146,73.8320038 L209.83113,79.7064435 C209.401154,80.1349957 208.818836,80.3770351 208.21089,80.3770351 Z M242.005718,88.6831169 C242.454203,89.9944012 242.682005,91.3113805 242.682005,92.597037 L242.682005,103.171313 C242.682005,104.800096 241.362178,106.119923 239.733395,106.119923 L239.078465,106.119923 C237.451105,106.119923 236.131278,104.800096 236.131278,103.171313 L236.131278,92.597037 C236.131278,92.0132949 236.021649,91.4124675 235.792423,90.758961 L235.73832,90.5881097 C234.538089,86.4349976 230.696781,83.5362193 226.395598,83.5362193 L220.711942,83.5362193 L223.411394,78.6185474 C224.84085,76.1525926 225.598291,73.3677152 225.598291,70.5629052 L225.598291,65.3405483 C225.598291,56.4035979 218.35277,49.158076 209.414395,49.158076 L207.802697,49.158076 C198.864323,49.158076 191.620225,56.4021741 191.620225,65.3391246 L191.620225,70.5629052 C191.620225,72.5519 189.846218,74.1280038 187.794578,73.7934199 C186.184304,73.5314478 185.070923,72.0194132 185.070923,70.3877826 L185.070923,65.3405483 C185.070923,52.7858201 195.247969,42.6073497 207.804121,42.6073497 L209.415819,42.6073497 C221.971971,42.6073497 232.147594,52.7858201 232.147594,65.3391246 L232.147594,70.5629052 C232.147594,72.9804521 231.751788,75.3837614 230.985805,77.6788648 C236.21528,79.2421549 240.42819,83.3340452 242.005718,88.6831169 Z M233.990926,44.0470974 C233.351657,44.0470974 232.710965,43.805058 232.219767,43.3209791 C231.227405,42.342855 231.217439,40.7453947 232.194139,39.753033 L234.621652,37.2927733 C235.6012,36.3018353 237.200084,36.291869 238.189599,37.2671455 C239.18196,38.2466934 239.191927,39.8441537 238.215226,40.8350917 L235.787713,43.2967752 C235.293668,43.7965154 234.641585,44.0470974 233.990926,44.0470974 Z M225.452106,37.7314093 C225.294068,37.7314093 225.133183,37.715748 224.972298,37.685849 C223.604063,37.4210293 222.708518,36.0997787 222.971913,34.731544 L223.669557,31.1023761 C223.932952,29.7341414 225.252779,28.8400192 226.623861,29.1005676 C227.992096,29.3653872 228.887642,30.6880616 228.62567,32.0562963 L227.926603,35.6854642 C227.69453,36.8913901 226.636675,37.7314093 225.452106,37.7314093 Z M241.135835,53.6277056 C239.965503,53.6277056 238.914767,52.807619 238.668456,51.6159307 C238.385127,50.2519673 239.263588,48.9164791 240.627552,48.6331506 L244.245329,47.884252 C245.606445,47.6094661 246.943357,48.4793843 247.226686,49.8433478 C247.510014,51.2073112 246.631554,52.5413757 245.26759,52.8261279 L241.649812,53.5750265 C241.477537,53.6091967 241.305262,53.6277056 241.135835,53.6277056 Z M127.107429,64.5890871 C127.107429,62.9232862 128.457154,61.5721366 130.124379,61.5721366 C131.79018,61.5721366 133.139906,62.9232862 133.139906,64.5890871 C133.139906,66.2548879 131.79018,67.6046138 130.124379,67.6046138 C128.457154,67.6046138 127.107429,66.2548879 127.107429,64.5890871 Z M110.437887,64.5890871 C110.437887,62.9232862 111.789037,61.5721366 113.454838,61.5721366 C115.120639,61.5721366 116.470365,62.9232862 116.470365,64.5890871 C116.470365,66.2548879 115.120639,67.6046138 113.454838,67.6046138 C111.789037,67.6046138 110.437887,66.2548879 110.437887,64.5890871 Z M121.78911,80.3770351 C121.181164,80.3770351 120.598846,80.1349957 120.16887,79.7064435 L114.295854,73.8320038 C113.401732,72.9364579 113.401732,71.4870688 114.295854,70.5929466 C115.1914,69.6988244 116.642213,69.6988244 117.534911,70.5929466 L121.78911,74.8485695 L126.043309,70.5929466 C126.938855,69.6988244 128.388244,69.6988244 129.28379,70.5929466 C130.177912,71.4870688 130.177912,72.9364579 129.28379,73.8320038 L123.409351,79.7064435 C122.979375,80.1349957 122.397056,80.3770351 121.78911,80.3770351 Z M87.9942819,88.6831169 C89.5718095,83.3340452 93.7847196,79.2421549 99.0141953,77.6788648 C98.2482116,75.3837614 97.852406,72.9804521 97.852406,70.5629052 L97.852406,65.3391246 C97.852406,52.7858201 108.028029,42.6073497 120.584181,42.6073497 L122.195879,42.6073497 C134.752031,42.6073497 144.929077,52.7858201 144.929077,65.3405483 L144.929077,70.3877826 C144.929077,72.0194132 143.815696,73.5314478 142.205422,73.7934199 C140.153782,74.1280038 138.379775,72.5519 138.379775,70.5629052 L138.379775,65.3391246 C138.379775,56.4021741 131.135677,49.158076 122.197303,49.158076 L120.585605,49.158076 C111.64723,49.158076 104.401709,56.4035979 104.401709,65.3405483 L104.401709,70.5629052 C104.401709,73.3677152 105.15915,76.1525926 106.588606,78.6185474 L109.288058,83.5362193 L103.604402,83.5362193 C99.3032189,83.5362193 95.4619105,86.4349976 94.2616797,90.5881097 L94.2075767,90.758961 C93.9783511,91.4124675 93.8687215,92.0132949 93.8687215,92.597037 L93.8687215,103.171313 C93.8687215,104.800096 92.5488947,106.119923 90.9215354,106.119923 L90.2666051,106.119923 C88.637822,106.119923 87.3179952,104.800096 87.3179952,103.171313 L87.3179952,92.597037 C87.3179952,91.3113805 87.545797,89.9944012 87.9942819,88.6831169 Z M138,79 L188,79 C190.209139,79 192,80.790861 192,83 L192,107 C192,109.209139 190.209139,111 188,111 L138,111 C135.790861,111 134,109.209139 134,107 L134,83 C134,80.790861 135.790861,79 138,79 Z M138,83 L138,107 L188,107 L188,83 L138,83 Z M29.5199968,19.8399997 C29.5199968,18.9799997 29.8399968,18.7199997 30.6999968,18.0199997 C32.4999968,16.5799997 33.2999968,15.9399997 33.2999968,14.3199997 C33.2999968,12.0599997 31.3399968,9.83999971 27.7399968,9.83999971 C22.9199968,9.83999971 21.6999968,13.2799997 21.6999968,14.5799997 C21.6999968,16.0599997 23.3599968,16.1599997 23.9799968,16.1599997 C25.4199968,16.1599997 26.1199968,15.6599997 26.1999968,15.0599997 C26.2799968,14.4199997 26.3599968,13.8599997 27.5799968,13.8599997 C28.1399968,13.8599997 28.7199968,13.9799997 28.7199968,14.4799997 C28.7199968,14.9199997 28.5599968,15.0599997 27.1199968,16.1199997 C25.7599968,17.1199997 25.1799968,18.0599997 25.1799968,19.8399997 C25.1799968,21.3999997 25.9199968,21.8399997 27.4399968,21.8399997 C29.5199968,21.8399997 29.5199968,20.5399997 29.5199968,19.8399997 Z M27.3399968,22.4399997 C26.0399968,22.4399997 24.9599968,23.4999997 24.9599968,24.8399997 C24.9599968,26.1599997 26.0199968,27.2399997 27.3399968,27.2399997 C28.6799968,27.2399997 29.7399968,26.1599997 29.7399968,24.8399997 C29.7399968,23.4999997 28.6599968,22.4399997 27.3399968,22.4399997 Z M296.259997,94.1199997 L297.039997,99.2799997 C297.159997,100.14 297.379997,100.74 298.539997,100.74 C299.699997,100.74 299.859997,99.9599997 299.959997,99.2799997 L300.739997,94.1199997 L300.739997,90.7799997 C300.739997,89.3599997 299.919997,88.8399997 298.459997,88.8399997 C296.299997,88.8399997 296.259997,90.2599997 296.259997,90.7799997 L296.259997,94.1199997 Z M298.499997,101.44 C297.199997,101.44 296.099997,102.5 296.099997,103.84 C296.099997,105.16 297.179997,106.24 298.499997,106.24 C299.819997,106.24 300.899997,105.16 300.899997,103.84 C300.899997,102.5 299.819997,101.44 298.499997,101.44 Z" fill="#252525"></path>
</svg>
