<svg viewBox="0 0 199 146" version="1.1" xmlns="http://www.w3.org/2000/svg">
  <path d="M199,73 C199,113.316638 166.317655,146 126.000655,146 C85.6836549,146 53,113.316638 53,73 C53,32.6833617 85.6836549,0 126.000655,0 C166.317655,0 199,32.6833617 199,73" fill="#FFFFFF"></path>
  <path d="M175.940055,87.5393112 L175.940055,70.0545179 C175.940055,61.2179619 168.776611,54.0545179 159.940055,54.0545179 L103.583564,54.0545179 C94.7470077,54.0545179 87.5835636,61.2179619 87.5835636,70.0545179 L87.5835636,103.252398 L168.298949,103.252398 C158.864689,116.419992 143.434629,125 126.000656,125 C97.2821717,125 74,101.718122 74,73 C74,44.2818778 97.2821717,21 126.000656,21 C154.719141,21 178,44.2818778 178,73 C178,78.0465912 177.281076,82.9253085 175.940055,87.5393112 Z" fill="#C6C6C6"></path>
  <path d="M123.537504,66 C123.268926,65.2881024 122.951087,64.5629011 122.574964,63.8454982 C119.808703,58.5668097 115.04068,56 108,56 C100.818662,56 95.9959396,58.6739779 93.2557267,64.1748444 C91.0963763,68.506009 91,73.014916 91,73.0593516 L91,102 L108,102 L108,78.9985881 C108,66 120.730829,66 120.730829,66 L123.537504,66 Z M139,33.1382363 L139,25.8630785 C139,23.7290498 140.703683,22 142.806404,22 L156.193596,22 C158.295021,22 160,23.7290498 160,25.8630785 L160,33.1382363 C160,35.2709502 158.295021,37 156.193596,37 L145,37 L145,50 L155.3329,50 C179,50 179,73.9989442 179,73.9989442 L179,86.6055167 C179,88.0902732 177.813066,89.2939158 176.34892,89.2939158 L174.971973,89.2939158 C173.507827,89.2939158 172.320893,88.0902732 172.320893,86.6055167 L172.320893,82 L133,82 L133,103.225551 L155.3329,103.225551 L172.320893,103.225551 L172.320893,100.238881 C172.320893,98.7633628 173.50132,97.5663191 174.956355,97.5663191 L176.363236,97.5663191 C177.820875,97.5663191 179,98.7633628 179,100.238881 L179,104.719546 C179,107.634948 176.66908,110 173.794149,110 L155.3329,110 L144,110 L144,137.48667 C171.671698,129.572936 192,103.883173 192,73.500657 C192,36.8322055 162.392097,7 126.000652,7 C89.6079032,7 60,36.8322055 60,73.500657 C60,110.167795 89.6079032,140 126.000652,140 C128.025877,140 130.030094,139.907608 132.009367,139.726788 C132.003158,139.642016 132,139.556414 132,139.470087 L132,110 L85,110 L85,109 L75.5016346,109 C74.1193932,109 73,107.881338 73,106.5 C73,105.118662 74.1193932,104 75.5016346,104 L85,104 L85,74.000264 C85,74.000264 85,50.6713916 108,50.0141527 L108,50 L139,50 L139,33.1382363 Z M133,77 L172.320893,77 L172.320893,73.9989442 C172.320893,73.9949848 172.232394,69.1936122 169.900172,64.6957899 C167.134564,59.3651841 162.369909,56.7731292 155.3329,56.7731292 L126.419257,56.7731292 C133,63.8706758 133,74.000264 133,74.000264 L133,77 Z M126.000655,0 C166.317655,0 199,32.6836549 199,73.0006548 C199,113.316345 166.317655,146 126.000655,146 C85.6836549,146 53,113.316345 53,73.0006548 C53,32.6836549 85.6836549,0 126.000655,0 Z M54,58 C54,60.2092787 52.2089754,62 49.9993226,62 C47.7910246,62 46,60.2092787 46,58 C46,55.7907213 47.7910246,54 49.9993226,54 C52.2089754,54 54,55.7907213 54,58 Z M80,67 C82.2092787,67 84,68.7907213 84,71 C84,73.2079241 82.2092787,75 80,75 C77.7907213,75 76,73.2079241 76,71 C76,68.7907213 77.7907213,67 80,67 Z M70,67 C70,69.2092787 68.2089754,71 65.9993226,71 C63.7910246,71 62,69.2092787 62,67 C62,64.7907213 63.7910246,63 65.9993226,63 C68.2089754,63 70,64.7907213 70,67 Z M37.6613441,41.9967441 L44.2917245,48.4049509 C44.2917245,48.4049509 42.0950847,50.5738624 39.8083866,48.6681242 C35.625243,51.4813568 26.8895862,55.3382079 18.1500139,46.657376 C14.0843377,42.619026 12.7569564,38.5832689 12.7778395,34.9999625 L12.7713135,34.9999625 C8.9157734,34.9999625 5.65670647,32.4667568 4.5877534,28.9845712 L0,28.9845712 C0,28.9845712 0.015662316,23.3062493 5.28342127,22.3883835 C6.74393224,19.7722069 9.54748681,18 12.7713135,18 C17.237684,18 20.8987503,21.3992146 21.2903082,25.7357413 L22.0603721,26.5006295 L47,26.5006295 C47,26.5006295 46.9947792,37.8443092 37.6613441,41.9967441 Z M15,26.5 C15,25.1195198 13.881785,24 12.5,24 C11.1195198,24 10,25.1195198 10,26.5 C10,27.8804802 11.1195198,29 12.5,29 C13.881785,29 15,27.8804802 15,26.5 Z" fill="#252525"></path>
</svg>
