<svg id="レイヤー_1" data-name="レイヤー 1" xmlns="http://www.w3.org/2000/svg" viewBox="0 0 333.51 52.21"><defs><style>.cls-1{fill:#fff;fill-rule:evenodd;}</style></defs><title>img_ft_logo</title><path class="cls-1" d="M0,16.42V42.74a4.4,4.4,0,0,0,4.41,4.39H9.62l2.85,4.59a1,1,0,0,0,.92.5,1.07,1.07,0,0,0,.91-.5l2.85-4.59H32.4l2.85,4.59a1,1,0,0,0,.92.5,1.06,1.06,0,0,0,.9-.5l2.85-4.59h5.77a4.39,4.39,0,0,0,4.41-4.39V16.42A4.39,4.39,0,0,0,45.69,12H29l9.71-9.65L36.28,0,25,11.21,13.78,0l-2.42,2.4L21,12H4.41A4.4,4.4,0,0,0,0,16.42Z"/><path class="cls-1" d="M247.08,9.81c-2.65,0-4,1.07-4,3.24s1.32,3.17,4,3.17c2.83,0,4.24-1.06,4.24-3.17S249.91,9.81,247.08,9.81Z"/><path class="cls-1" d="M154.87,40.44a3.29,3.29,0,0,1-2.33,5.63H133.11a9.11,9.11,0,0,1-5-1.37,13,13,0,0,1-3.73-3.55A16.76,16.76,0,0,1,122,36.3a36.76,36.76,0,0,1-.83-7.68,16.9,16.9,0,0,1,.86-5.26,16,16,0,0,1,2.5-4.82,13.55,13.55,0,0,1,4-3.54,10.11,10.11,0,0,1,5.28-1.38h18.74a3.29,3.29,0,0,1,3.3,3.3,3.19,3.19,0,0,1-1,2.33,3.15,3.15,0,0,1-2.33,1H135.24a7.77,7.77,0,0,0-3.88.85,7.35,7.35,0,0,0-2.33,2.1,7.59,7.59,0,0,0-1.16,2.71,13.53,13.53,0,0,0-.31,2.72,46.18,46.18,0,0,0,.31,5.17A7.71,7.71,0,0,0,129,36.51a7.32,7.32,0,0,0,2.33,2.09,7.67,7.67,0,0,0,3.88.86h17.29A3.15,3.15,0,0,1,154.87,40.44Z"/><path class="cls-1" d="M101.69,24.58V43.4a3.29,3.29,0,1,1-6.57,0V26a7.81,7.81,0,0,0-.85-3.89,7.27,7.27,0,0,0-2.09-2.34,7.41,7.41,0,0,0-2.7-1.17,31.43,31.43,0,0,0-4.34-.31,43.57,43.57,0,0,0-5.15.31,7.34,7.34,0,0,0-2.7,1.17,7,7,0,0,0-2.09,2.34A7.71,7.71,0,0,0,74.33,26V43.4a3.29,3.29,0,1,1-6.57,0V23.89a9.26,9.26,0,0,1,1.36-5,13,13,0,0,1,3.54-3.75,16.5,16.5,0,0,1,4.82-2.37,36.62,36.62,0,0,1,7.66-.83,28.86,28.86,0,0,1,6.88.86,16,16,0,0,1,4.79,2.51,13.87,13.87,0,0,1,3.54,4A10.38,10.38,0,0,1,101.69,24.58Z"/><path class="cls-1" d="M115.83,13.07q0,3.16-4.24,3.16-4,0-4-3.16t4-3.24Q115.83,9.83,115.83,13.07Zm-1,30.25c0,1.84-1,3.38-3,3.38s-2.88-1.54-2.88-3.38V23.25a2.46,2.46,0,0,1,2.75-2.74c2.09,0,3.15,1,3.15,2.74Z"/><path class="cls-1" d="M197.19,23.35a16.6,16.6,0,0,0-2.37-4.76A14.16,14.16,0,0,0,191.09,15a10.13,10.13,0,0,0-5-1.55H170.35a10.37,10.37,0,0,0-5.28,1.37,14,14,0,0,0-4,3.55,16.1,16.1,0,0,0-2.5,4.81,17,17,0,0,0-.86,5.27,37.16,37.16,0,0,0,.81,7.62,16.49,16.49,0,0,0,2.37,4.74,13.73,13.73,0,0,0,3.73,3.55,9.89,9.89,0,0,0,5,1.55H185.4a10.17,10.17,0,0,0,5.28-1.37,13.48,13.48,0,0,0,4-3.55,15.91,15.91,0,0,0,2.51-4.81A35.55,35.55,0,0,0,198,28.5,17.16,17.16,0,0,0,197.19,23.35Zm-5.86,10.33a7.23,7.23,0,0,1-1.17,2.71,7,7,0,0,1-2.36,2.1,7.57,7.57,0,0,1-3.84.86H171.78a7.48,7.48,0,0,1-3.86-.86,7,7,0,0,1-2.33-2.1,7.09,7.09,0,0,1-1.17-2.71,44.28,44.28,0,0,1-.31-5.17,12.86,12.86,0,0,1,.31-2.71,7.17,7.17,0,0,1,1.17-2.73,7.27,7.27,0,0,1,2.33-2.1,7.57,7.57,0,0,1,3.86-.85H184a7.67,7.67,0,0,1,3.84.85,7,7,0,0,1,3.53,4.83,13.39,13.39,0,0,1,.3,2.71A46.22,46.22,0,0,1,191.33,33.68Z"/><path class="cls-1" d="M290.37,40.4A3.31,3.31,0,0,1,288,46H268.62a9.26,9.26,0,0,1-5-1.38,12.92,12.92,0,0,1-3.72-3.55,16.54,16.54,0,0,1-2.37-4.85,36.76,36.76,0,0,1-.81-7.68,17,17,0,0,1,.85-5.27,15.94,15.94,0,0,1,2.5-4.8A13.62,13.62,0,0,1,264,15a10.19,10.19,0,0,1,5.28-1.37H288a3.26,3.26,0,0,1,3.29,3.3,3.29,3.29,0,0,1-3.29,3.3h-17.3a7.63,7.63,0,0,0-3.87.86,7.22,7.22,0,0,0-2.32,2.1,7.47,7.47,0,0,0-1.18,2.71,14.23,14.23,0,0,0-.31,2.72,48.46,48.46,0,0,0,.31,5.17,7.34,7.34,0,0,0,1.18,2.71,6.92,6.92,0,0,0,2.32,2.1,7.63,7.63,0,0,0,3.87.85H288A3.2,3.2,0,0,1,290.37,40.4Z"/><path class="cls-1" d="M237.19,24.55V43.36a3.26,3.26,0,0,1-1,2.35,3.22,3.22,0,0,1-2.33,1,3.27,3.27,0,0,1-3.29-3.3V26a7.66,7.66,0,0,0-.86-3.89A7.07,7.07,0,0,0,225,18.6a33.1,33.1,0,0,0-4.34-.31,45.73,45.73,0,0,0-5.16.31,7.3,7.3,0,0,0-2.71,1.17,7,7,0,0,0-2.08,2.34,7.66,7.66,0,0,0-.86,3.89V43.36a3.26,3.26,0,0,1-1,2.35,3.23,3.23,0,0,1-2.34,1,3.29,3.29,0,0,1-3.29-3.3V23.87a9.35,9.35,0,0,1,1.38-5,12.83,12.83,0,0,1,3.53-3.75A16.61,16.61,0,0,1,213,12.72a36.66,36.66,0,0,1,7.67-.84,28.34,28.34,0,0,1,6.87.87,16.19,16.19,0,0,1,4.8,2.51,13.7,13.7,0,0,1,3.52,4A10.36,10.36,0,0,1,237.19,24.55Z"/><path class="cls-1" d="M250.29,23.22V43.29c0,1.84-1,3.38-3,3.38s-2.89-1.54-2.89-3.38V23.22a2.46,2.46,0,0,1,2.74-2.74C249.25,20.48,250.29,21.48,250.29,23.22Z"/><path class="cls-1" d="M332.68,23.31a16.52,16.52,0,0,0-2.36-4.75A13.77,13.77,0,0,0,326.58,15a10.13,10.13,0,0,0-5-1.55H305.84a10.2,10.2,0,0,0-5.28,1.38,13.69,13.69,0,0,0-4,3.55,16.12,16.12,0,0,0-2.51,4.81,17.49,17.49,0,0,0-.85,5.26,35.88,35.88,0,0,0,.82,7.63,16.73,16.73,0,0,0,2.37,4.74,13.6,13.6,0,0,0,3.73,3.55,9.94,9.94,0,0,0,5,1.55h15.76a10.1,10.1,0,0,0,5.27-1.38,13.71,13.71,0,0,0,4-3.54,16,16,0,0,0,2.49-4.81,35.64,35.64,0,0,0,.86-7.73A17.17,17.17,0,0,0,332.68,23.31Zm-5.85,10.34a7.31,7.31,0,0,1-1.18,2.71,7.07,7.07,0,0,1-2.36,2.1,7.67,7.67,0,0,1-3.83.85H307.28a7.59,7.59,0,0,1-3.87-.85,7.16,7.16,0,0,1-2.33-2.1,7.45,7.45,0,0,1-1.17-2.71,46.29,46.29,0,0,1-.31-5.18,13.43,13.43,0,0,1,.31-2.71A7.5,7.5,0,0,1,301.08,23a7.16,7.16,0,0,1,2.33-2.1,7.68,7.68,0,0,1,3.87-.85h12.18a7.77,7.77,0,0,1,3.83.85,7.07,7.07,0,0,1,2.36,2.1,7.36,7.36,0,0,1,1.18,2.72,14.13,14.13,0,0,1,.31,2.71A48.6,48.6,0,0,1,326.83,33.65Z"/></svg>