<svg viewBox="0 0 179 25" version="1.1" xmlns="http://www.w3.org/2000/svg">
  <path d="M19.125,6.8 L22.975,6.8 C23.425,6.8 24.325,6.825 24.325,8.125 C24.325,9.35 23.5,9.45 22.975,9.45 L17.3,9.45 C19.35,11.425 21.375,12.2 23.4,13 C23.725,13.125 24.375,13.375 24.375,14.325 C24.375,15.025 23.95,16.075 23,16.075 C22.65,16.075 22.375,15.95 21.65,15.625 L21.65,21 C21.65,23.525 20.075,23.775 18.775,23.775 L6.225,23.775 C4.875,23.775 3.325,23.525 3.325,21 L3.325,15.65 C2.95,15.825 2.475,16.075 2.075,16.075 C1.225,16.075 0.625,15.2 0.625,14.25 C0.625,13.6 0.875,13.325 1.625,13.025 C3.6,12.225 4.525,11.875 6.2,10.7 C6.9,10.225 7.375,9.775 7.7,9.45 L2,9.45 C1.625,9.45 0.65,9.45 0.65,8.125 C0.65,6.85 1.5,6.8 2,6.8 L5.7,6.8 C5.65,6.7 5.425,6.225 5.275,5.925 C5.175,5.7 5.025,5.4 5.025,5.1 C5.025,4.85 5.1,4.7 5.175,4.575 C2.9,4.625 2.05,4.65 2.05,3.225 C2.05,1.875 2.95,1.875 3.675,1.875 C9.375,1.875 11.85,1.775 15.325,1.475 C17.15,1.325 17.275,1.3 20.175,0.875 C20.35,0.85 20.85,0.775 21.2,0.775 C22.375,0.775 22.5,1.7 22.5,2.2 C22.5,2.775 22.275,3.225 21.75,3.375 C21.45,3.475 20.2,3.65 19.425,3.75 C19.625,3.85 19.975,4.05 19.975,4.6 C19.975,5.1 19.6,5.85 19.125,6.8 Z M6.375,16.175 L6.375,17.275 L10.975,17.275 L10.975,15.575 L6.975,15.575 C6.625,15.575 6.375,15.725 6.375,16.175 Z M13.925,17.275 L18.625,17.275 L18.625,16.175 C18.625,15.775 18.425,15.575 18.025,15.575 L13.925,15.575 L13.925,17.275 Z M7.1,21.2 L10.975,21.2 L10.975,19.475 L6.375,19.475 L6.375,20.475 C6.375,20.9 6.55,21.2 7.1,21.2 Z M18.625,20.475 L18.625,19.475 L13.925,19.475 L13.925,21.2 L17.9,21.2 C18.375,21.2 18.625,20.975 18.625,20.475 Z M13.925,6.8 L16.1,6.8 C16.45,6 16.875,5.025 16.975,4.675 C17.025,4.55 17.15,4.1 17.175,4.025 C16.475,4.1 16.425,4.1 13.925,4.3 L13.925,6.8 Z M10.975,6.8 L10.975,4.45 C10.15,4.5 9.9,4.5 7.7,4.55 C7.975,4.9 8.45,6.125 8.7,6.8 L10.975,6.8 Z M10.975,13.175 L10.975,9.625 C9.675,11.275 8.275,12.425 7.275,13.175 L10.975,13.175 Z M13.925,9.525 L13.925,13.175 L17.575,13.175 C16.05,12.025 15,10.975 13.925,9.525 Z M36.875,20.675 L38.075,20.675 L38.075,4.5 C38.075,2.175 39.025,1.525 41.05,1.525 L45.775,1.525 C47.8,1.525 48.775,2.15 48.775,4.5 L48.775,20.675 L49.275,20.675 C50.375,20.675 50.375,21.775 50.375,22.025 C50.375,23.525 49.575,23.6 49,23.6 L36.975,23.6 C36.55,23.6 35.6,23.6 35.6,22.15 C35.6,21.975 35.6,21.425 35.925,21.05 C35.25,21.05 34.85,21 34.65,19.9 C34.575,19.45 34.1,15.95 34.1,15.875 C34.1,15 34.925,14.9 35.325,14.9 C36.225,14.9 36.4,15.4 36.575,16.175 C36.85,17.35 37.15,19.15 37.15,19.875 C37.15,20.375 37,20.525 36.875,20.675 Z M45.8,14.125 L45.8,10.625 L41.025,10.625 L41.025,14.125 L45.8,14.125 Z M41.025,7.9 L45.8,7.9 L45.8,5.3 C45.8,4.675 45.45,4.45 44.95,4.45 L41.875,4.45 C41.325,4.45 41.025,4.7 41.025,5.3 L41.025,7.9 Z M45.8,20.675 L45.8,16.9 L41.025,16.9 L41.025,20.675 L45.8,20.675 Z M30.675,23 L30.675,13.825 C30.025,13.875 28.425,14 27.95,14 C27.625,14 26.675,14 26.675,12.625 C26.675,12.05 26.875,11.675 27.175,11.5 C27.425,11.35 27.575,11.35 28.8,11.275 C29.15,10.85 29.55,10.325 29.925,9.8 C28.85,8.35 28,7.55 27.875,7.425 C27.15,6.775 26.85,6.5 26.85,5.9 C26.85,5.3 27.325,4.375 28.275,4.375 C28.625,4.375 28.775,4.475 28.925,4.575 C29.175,4.175 29.425,3.775 30.05,2.575 C30.9,1 31,0.8 31.725,0.8 C32.45,0.8 33.35,1.325 33.35,2.075 C33.35,2.75 31.5,5.625 30.9,6.475 C31.25,6.875 31.3,6.925 31.65,7.35 C32.175,6.5 32.75,5.6 33.575,4.1 C33.925,3.45 34.175,3.125 34.825,3.125 C35.4,3.125 36.475,3.425 36.475,4.4 C36.475,4.925 36.275,5.3 35.4,6.575 C34.35,8.125 33.225,9.65 32.05,11.125 C32.9,11.075 33.05,11.05 34.35,10.925 C34.2,10.425 34.075,9.975 34.075,9.65 C34.075,8.85 34.9,8.575 35.4,8.575 C36.2,8.575 36.4,9 36.8,10 C37.325,11.3 37.8,12.9 37.8,13.4 C37.8,14.65 36.475,14.65 36.35,14.65 C35.35,14.65 35.2,14.05 35,13.35 C33.625,13.55 33.6,13.55 33.4,13.575 L33.4,23 C33.4,23.9 33.075,24.35 31.975,24.35 C30.675,24.35 30.675,23.375 30.675,23 Z M28.325,22.525 C27.875,22.525 26.775,22.525 26.775,21.475 C26.775,21.175 27,19.9 27.05,19.625 C27.125,19 27.325,17.8 27.525,15.975 C27.575,15.65 27.625,14.95 28.675,14.95 C29.875,14.95 29.875,15.825 29.875,16.225 C29.875,16.875 29.65,19.575 29.25,21.4 C29.15,21.825 29,22.525 28.325,22.525 Z M72.825,3.65 L72.95,3.65 C73.375,3.65 74.55,3.65 74.55,5.125 C74.55,6.4 73.625,6.55 73.325,6.6 C72.875,6.65 66.55,6.875 62.925,6.95 C62.45,7.7 62.25,8 61.35,9.425 C62.925,8.425 64.35,8.325 64.875,8.325 C66.675,8.325 67.975,9.175 68.625,10.8 C69.775,10.35 73.05,9.35 73.95,9.35 C75.475,9.35 75.475,10.775 75.475,11.025 C75.475,12.15 74.7,12.45 73.95,12.625 C70.45,13.45 70.075,13.525 69.15,13.85 C69.225,14.875 69.275,16.025 69.275,16.675 C69.275,18.05 69.275,19.2 67.65,19.2 C66.075,19.2 66.075,18.075 66.075,17.25 C66.075,16.875 66.1,15.3 66.1,14.975 C62.525,16.525 61.55,17.6 61.55,18.825 C61.55,20.275 63.6,20.525 66.225,20.525 C67.625,20.525 69.5,20.4 71.175,20.15 C71.475,20.1 72.05,20.025 72.525,20.025 C72.9,20.025 74.025,20.025 74.025,21.5 C74.025,22.65 73.35,22.875 72.875,22.975 C70.75,23.45 67.675,23.5 66.825,23.5 C63.175,23.5 61.7,23.1 60.55,22.65 C59.075,22.05 58.1,20.8 58.1,19.275 C58.1,15.7 62.25,13.425 65.65,11.95 C65.125,11 64.3,10.9 63.825,10.9 C63.075,10.9 60.825,11.125 58.55,13.825 C58.175,14.275 56.625,16.3 56.25,16.65 C56.05,16.85 55.675,17.125 55.1,17.125 C54.15,17.125 53.525,16.225 53.525,15.5 C53.525,14.875 53.825,14.525 55.35,12.85 C57.5,10.475 59.325,7.4 59.575,7 C59,7 56.45,7.025 55.95,7.05 C55.475,7.05 54.2,7.025 54.2,5.525 C54.2,4.075 55.425,4.05 55.875,4.05 C57.6,4.025 59.325,4.025 61.05,3.975 C61.175,3.7 61.65,2.425 61.75,2.175 C61.925,1.725 62.15,1.15 63.375,1.15 C64.275,1.15 65.025,1.575 65.025,2.45 C65.025,2.85 64.875,3.175 64.55,3.925 C69.225,3.775 69.725,3.65 72.825,3.65 Z M88.75,13.225 L88.75,4.05 C88.75,1.95 89.675,1.35 91.475,1.35 L98.725,1.35 C100.6,1.35 101.45,2.025 101.45,4.05 L101.45,13.225 C101.45,15.2 100.65,15.925 98.725,15.925 L97.925,15.925 L97.925,20.55 C97.925,21.25 98.225,21.3 98.825,21.3 C99.575,21.3 99.65,21.175 99.725,19.45 C99.775,18.45 99.8,17.775 100.9,17.775 C102.25,17.775 102.25,18.825 102.25,19.275 C102.25,20.375 102.15,22.475 101.575,23.325 C101,24.175 100.025,24.175 98.475,24.175 C95.825,24.175 95.125,23.95 95.125,21.35 L95.125,15.925 L93.525,15.925 C93.4,18.125 92.675,21.1 90.1,23.025 C89.525,23.45 88.35,24.15 87.725,24.15 C86.925,24.15 86.2,23.425 86.2,22.55 C86.2,22.15 86.375,21.725 86.825,21.475 C89.425,20.025 90.425,19 90.925,15.9 C89.375,15.75 88.75,14.975 88.75,13.225 Z M98.45,9.45 L98.45,7.725 L91.725,7.725 L91.725,9.45 L98.45,9.45 Z M91.725,4.5 L91.725,5.675 L98.45,5.675 L98.45,4.5 C98.45,4.125 98.25,3.9 97.85,3.9 L92.325,3.9 C92,3.9 91.725,4.05 91.725,4.5 Z M98.45,11.55 L91.725,11.55 L91.725,12.85 C91.725,13.25 91.95,13.45 92.325,13.45 L97.85,13.45 C98.2,13.45 98.45,13.275 98.45,12.85 L98.45,11.55 Z M84.925,4.375 L85.4,4.375 C86.65,4.375 87.325,5.05 87.325,6.325 C87.325,7.275 87,8.775 85.725,10.9 C86.45,11.775 87.075,12.4 87.25,12.55 C88.1,13.375 88.35,13.6 88.35,14.125 C88.35,14.875 87.75,15.775 86.975,15.775 C86.275,15.775 85.55,14.775 84.925,13.925 L84.925,22.825 C84.925,23.875 84.5,24.35 83.3,24.35 C81.85,24.35 81.85,23.225 81.85,22.825 L81.85,15.5 C80.9,16.3 80.525,16.525 79.975,16.525 C79.05,16.525 78.45,15.625 78.45,14.85 C78.45,14 78.775,13.825 80.15,12.775 C82.25,11.175 84.05,8.35 84.05,7.65 C84.05,7.3 83.7,7.3 83.55,7.3 L80.175,7.3 C79.05,7.3 78.65,6.8 78.65,5.75 C78.65,4.375 79.8,4.375 80.175,4.375 L81.85,4.375 L81.85,2.15 C81.85,0.975 82.425,0.6 83.5,0.6 C84.8,0.6 84.925,1.625 84.925,2.15 L84.925,4.375 Z M115.35,2.6 L119.35,2.6 L119.35,1.85 C119.35,0.975 119.975,0.65 120.7,0.65 C121.35,0.65 122.25,0.775 122.25,1.85 L122.25,2.6 L126.925,2.6 C127.3,2.6 128.25,2.6 128.25,3.95 C128.25,5.275 127.425,5.325 126.925,5.325 L122.25,5.325 L122.25,6.65 L124.725,6.65 C127.025,6.65 127.525,7.15 127.525,9.45 L127.525,11.9 C127.525,14.175 127.025,14.7 124.725,14.7 L119.9,14.7 C120.3,14.875 120.95,15.15 121.95,15.75 C122.85,16.275 123.1,16.475 123.1,17.025 C123.1,17.675 122.575,18.4 121.9,18.4 C121.6,18.4 121.475,18.35 120.15,17.55 C119.85,17.375 118.525,16.7 118.25,16.55 C118.025,16.425 117.775,16.225 117.775,15.75 C117.775,15.675 117.775,15.075 118.3,14.7 L117.05,14.7 C114.775,14.7 114.175,14.3 114.175,11.9 L114.175,9.45 C114.175,7.15 114.675,6.65 116.975,6.65 L119.35,6.65 L119.35,5.325 L115.35,5.325 C114.925,5.325 113.875,5.325 114.05,3.65 C113.825,4.15 113.55,4.2 113.175,4.25 L113.175,21.075 C113.925,19.45 113.975,19.225 114.5,17.3 C114.6,16.925 114.8,16.375 115.6,16.375 C115.925,16.375 116.925,16.55 116.925,17.425 C116.925,18.05 116.375,20 115.925,21.225 C115.35,22.775 115,23.025 114.45,23.025 C114.15,23.025 113.55,22.9 113.175,22.425 L113.175,23.025 C113.175,23.375 113.175,24.375 111.875,24.375 C110.525,24.375 110.525,23.4 110.525,23.025 L110.525,20.325 C110,20.5 109.125,20.725 108.675,20.825 C107.95,21 106.275,21.45 105.725,21.45 C104.675,21.45 104.475,20.225 104.475,19.75 C104.475,18.65 105.275,18.5 105.75,18.4 L105.75,4.25 C104.675,4.1 104.6,3.15 104.6,2.85 C104.6,2.5 104.725,1.4 106,1.4 L112.85,1.4 C113.45,1.4 114.025,1.5 114.175,2.55 C114.225,2.85 114.2,3.025 114.175,3.175 C114.475,2.65 114.925,2.6 115.35,2.6 Z M121.45,12.325 L121.45,9.05 L120.125,9.05 L120.125,12.325 L121.45,12.325 Z M117.175,12.325 L117.875,12.325 L117.875,9.05 L117.175,9.05 C116.875,9.05 116.6,9.175 116.6,9.65 L116.6,11.725 C116.6,12.125 116.8,12.325 117.175,12.325 Z M123.6,9.05 L123.6,12.325 L124.475,12.325 C124.775,12.325 125.05,12.175 125.05,11.725 L125.05,9.65 C125.05,9.25 124.85,9.05 124.475,9.05 L123.6,9.05 Z M110.525,12.25 L110.525,9.575 L108.375,9.575 L108.375,12.25 L110.525,12.25 Z M110.525,6.95 L110.525,4.275 L108.375,4.275 L108.375,6.95 L110.525,6.95 Z M108.375,14.875 L108.375,17.925 C108.675,17.875 110.1,17.55 110.525,17.45 L110.525,14.875 L108.375,14.875 Z M119.8,18.325 L119.8,20.65 C119.8,21.325 119.95,21.325 121.4,21.325 C122.075,21.325 122.175,21.25 122.3,20.6 C122.45,19.8 122.525,19.25 123.4,19.25 C123.95,19.25 124.725,19.425 124.725,20.475 C124.725,20.825 124.5,22.75 123.675,23.5 C123.1,24 122.45,24 120.975,24 C117.975,24 117.125,24 117.125,21.175 L117.125,18.325 C117.125,17.925 117.15,17 118.375,17 C119.35,17 119.8,17.3 119.8,18.325 Z M125.3,16.175 C125.975,16.175 126.225,16.35 127.1,18.35 C127.45,19.175 128.25,21.05 128.25,21.8 C128.25,22.75 127.225,23 126.75,23 C125.925,23 125.85,22.7 125.375,21.1 C125.05,20.075 124.725,19.4 124.125,18.075 C124.075,17.975 123.925,17.625 123.925,17.325 C123.925,16.625 124.525,16.175 125.3,16.175 Z M148.025,6.925 L148.025,12.175 C148.275,12.875 148.625,13.875 148.625,15.525 C148.625,20.5 145.3,22.625 141.25,23.225 C139.425,23.5 137.85,23.525 137.525,23.525 C137.025,23.525 135.55,23.525 135.55,21.9 C135.55,20.575 136.425,20.575 138.025,20.55 C143.75,20.5 144.925,18.325 145.35,16.575 C144.65,17.35 143.775,18.3 141.175,18.3 C137.2,18.3 135.025,16.075 135.025,13.375 C135.025,10.725 137.175,8.4 141.175,8.4 C141.55,8.4 143.4,8.4 144.8,9.125 L144.75,6.975 C141.65,7.05 138.625,7.1 135.4,7.1 C132.675,7.1 132.575,7.075 132.25,7 C132,6.925 131.375,6.65 131.375,5.575 C131.375,4.1 132.5,4.1 133.3,4.1 L136.075,4.1 C139.5,4.1 142.7,4.05 144.7,4 L144.675,2.85 C144.675,2.45 144.65,1.15 146.325,1.15 C148.025,1.15 148.025,2.4 148.025,2.8 L148.025,3.95 C148.5,3.925 151.775,3.825 151.95,3.825 C152.575,3.825 153.6,3.925 153.6,5.325 C153.6,6.775 152.7,6.8 151.1,6.85 C150.6,6.85 148.45,6.9 148.025,6.925 Z M141.45,15.75 C144.025,15.75 144.8,14.4 144.8,13.275 C144.8,11.175 142.5,10.9 141.65,10.9 C140.25,10.9 138.225,11.525 138.225,13.375 C138.225,15.225 140.225,15.75 141.45,15.75 Z M168.275,9.45 C168.95,9.2 169.675,8.9 171.25,8.9 C176.475,8.9 178.775,12.125 178.775,15.775 C178.775,17.75 178.025,21 174.2,22.6 C172.45,23.325 170.55,23.55 168.675,23.55 C165.7,23.55 164.275,22.95 163.3,22.35 C162.2,21.675 161.55,20.5 161.55,19.25 C161.55,16.225 164.275,14.975 166.85,14.975 C168.025,14.975 171.8,15.175 171.8,19.2 C171.8,19.7 171.75,19.95 171.6,20.375 C174.55,19.75 175.325,17.625 175.325,16.05 C175.325,14.775 174.825,13.425 173.75,12.675 C172.6,11.875 171.075,11.725 169.925,11.725 C166.35,11.725 163.675,13.35 161.525,15.3 C159.925,16.75 159.825,16.825 159.275,16.825 C158.35,16.825 157.525,16.05 157.525,15.1 C157.525,14.4 157.7,14.25 159.675,12.75 C162.7,10.5 168.075,6.475 169.675,4.95 C169.075,5 162.525,5.375 161.525,5.375 C161.025,5.375 159.825,5.35 159.825,3.775 C159.825,2.275 161,2.225 161.6,2.2 C162.975,2.175 169.1,2.075 170.35,2.025 C170.625,2 172.125,1.95 173,1.95 C173.9,1.95 175.125,2.125 175.125,3.55 C175.125,4.7 174.85,4.875 172.025,6.7 C170,8 168.975,8.875 168.275,9.45 Z M168.925,20.775 C169.075,20.35 169.175,20.075 169.175,19.6 C169.175,17.725 167.625,17.55 166.8,17.55 C165.5,17.55 164.475,18.2 164.475,19.175 C164.475,20.325 166.075,20.875 167.8,20.875 C168.2,20.875 168.475,20.85 168.925,20.775 Z" fill="#FFFFFF"></path>
</svg>
