<svg xmlns="http://www.w3.org/2000/svg" viewBox="0 0 100 100"><title>sns-share-icons</title><path d="M38.145,84.493c30.158,0,46.66-25.009,46.66-46.66,0-.7,0-1.408-.032-2.111a33.409,33.409,0,0,0,8.188-8.507A33.24,33.24,0,0,1,83.526,29.8a16.5,16.5,0,0,0,7.228-9.083,32.621,32.621,0,0,1-10.426,3.96A16.4,16.4,0,0,0,51.961,35.9a18.12,18.12,0,0,0,.415,3.742A46.568,46.568,0,0,1,18.572,22.5,16.465,16.465,0,0,0,23.657,44.41a16.588,16.588,0,0,1-7.42-2.047v.224a16.44,16.44,0,0,0,13.145,16.1,16.5,16.5,0,0,1-7.387.288A16.4,16.4,0,0,0,37.314,70.361,32.892,32.892,0,0,1,16.942,77.4a31.559,31.559,0,0,1-3.9-.224,46.648,46.648,0,0,0,25.105,7.32" style="fill:#252525"/></svg>
