<svg id="レイヤー_1" data-name="レイヤー 1" xmlns="http://www.w3.org/2000/svg" viewBox="0 0 43.77 25"><defs><style>.cls-1{fill:#fff;}</style></defs><title>img_tt_logo</title><path class="cls-1" d="M3.91,25c-.23-.06-.87-.25-1-.25a3.86,3.86,0,0,1-1-.24.59.59,0,0,1-.31-.18,4.39,4.39,0,0,0-.6-.51,1.16,1.16,0,0,1-.44-.51.68.68,0,0,0-.19-.25A2.28,2.28,0,0,1,0,22.28a1,1,0,0,1,0-.55,4.44,4.44,0,0,1,.62-1.6c.19-.29.38-.58.59-.85a1.4,1.4,0,0,1,.36-.3,8.41,8.41,0,0,1,1-.62,7.22,7.22,0,0,1,1.28-.45c.2-.06.41-.09.6-.17.62-.23,1.25-.44,1.84-.72s.9-.37,1.32-.62a2.3,2.3,0,0,0,.42-.31L10,14.19c.27-.27.53-.55.81-.81a7.35,7.35,0,0,0,.8-.9,3.78,3.78,0,0,1,.76-.78,1.88,1.88,0,0,0,.66-.67c.34-.64.71-.74.9-1s.07-.31,0-.7.73-.42.92-.66c.47-.62,1-1.22,1.4-1.89.16-.25,1-1.34,1.18-1.66,0-.06,0-.15.09-.19a8.25,8.25,0,0,0,1-1.43c.1-.16.17-.34.26-.51a5.05,5.05,0,0,1,.32-.53c.36-.47.74-.93,1.11-1.39.12-.15.66-.65.79-.76A1.06,1.06,0,0,1,21.89,0,2.47,2.47,0,0,1,23,.37,5.44,5.44,0,0,1,24,1.18a8.17,8.17,0,0,0,.68.57,8.9,8.9,0,0,1,1.17,1.19c.21.28.43.56.65.82s.64.69.71.82a3.92,3.92,0,0,0,.7.9,10.94,10.94,0,0,1,.89,1c.42.51.88,1,1.33,1.46s.83.93,1.24,1.42.71.71,1,1.1,1.06,1.18,1.4,1.55.75.74,1.12,1.1a4.86,4.86,0,0,0,1.16,1,2.56,2.56,0,0,1,.62.47c.44.4,1.38,1.23,1.49,1.39a3.62,3.62,0,0,0,.85.76,1.38,1.38,0,0,0,.62.27,1.07,1.07,0,0,0,.74-.18,2.84,2.84,0,0,0,.56-2.3c0-.19,0-.38,0-.57a1.77,1.77,0,0,1,.48-.84.27.27,0,0,1,.3.06,3.29,3.29,0,0,1,1.1,1.43,21.31,21.31,0,0,1,.87,2.94c0,.28,0,.38,0,.66a1.63,1.63,0,0,0,0,.41,5.79,5.79,0,0,1-.51,2.14,4.36,4.36,0,0,1-.5.79,2.42,2.42,0,0,0-.38.8,3,3,0,0,1-1,1.34c-.3.22-.57.45-.86.69a1.3,1.3,0,0,0-.31.28.75.75,0,0,1-.73.3c-.21,0-.42,0-.63,0a3,3,0,0,1-1.61-.68,1.5,1.5,0,0,1-.56-.69,2.46,2.46,0,0,0-.42-.66L35,21.32a4,4,0,0,1-.59-.86c-.06-.1-.85-1.08-1.17-1.48a3.28,3.28,0,0,1-.47-.69c0-.1-.69-.89-.93-1.19-.36-.47-.75-.93-1.06-1.43a9,9,0,0,0-1.16-1.42.39.39,0,0,1-.3-.38.25.25,0,0,0-.07-.14,1.94,1.94,0,0,1-.5-.66.78.78,0,0,0-.57-.41.16.16,0,0,1-.14-.19c0-.2,0-.33-.25-.39s-.18-.18-.19-.3a.57.57,0,0,0-.2-.45,6.23,6.23,0,0,0-.67-1,1,1,0,0,0-.27-.22A1.12,1.12,0,0,1,26,9.57a2,2,0,0,0-.19-.37,2.32,2.32,0,0,0-.43-.52,2.21,2.21,0,0,1-.42-.46,1.24,1.24,0,0,0-.29-.3,4.63,4.63,0,0,1-.75-.79c-.31-.41-.65-.79-.94-1.2a1.07,1.07,0,0,0-.79-.35c-.27,0-.59.31-.72.47a.91.91,0,0,1-.61.37.52.52,0,0,0-.37.26c-.24.34-.5.68-.72,1s-.43.8-.66,1.18c-.13.23-.28.44-.43.66-.34.5-.69,1-1,1.49-.12.18-.25.34-.38.5-.46.57-1.28,2-1.32,2-.59.8-1,1.7-1.56,2.53-.15.22-.31.43-.44.65a6.84,6.84,0,0,1-.39.61c-.4.57-.81,1.13-1.27,1.67-.25.31-1.08,1.34-1.21,1.56a7,7,0,0,1-.48.54,10.64,10.64,0,0,1-.91,1,5.88,5.88,0,0,1-1.21,1,6.8,6.8,0,0,0-.72.52,6.54,6.54,0,0,1-1.4.9s-1.06.28-1.51.39A2.64,2.64,0,0,1,3.91,25Z"/></svg>