<svg viewBox="0 0 468 48" version="1.1" xmlns="http://www.w3.org/2000/svg">
  <path d="M31.75,20.65 C31.8,19.35 31.65,13.5 31.9,12.35 C32.15,11.25 32.8,9.65 35.85,9.65 C39.7,9.65 40.2,12 40.2,14.8 C40.2,17.45 39.9,21.1 39.7,23.65 C43.4,25.35 45.85,26.5 45.85,29.1 C45.85,30.8 44.4,33.55 42.05,33.55 C40.85,33.55 40.2,33.15 38.3,32.1 C36.2,40 29.85,46.35 25.2,46.35 C23.2,46.35 21.2,44.4 21.2,42.25 C21.2,40.3 21.9,39.85 26.45,36.9 C27.6,36.15 30.2,33.9 31.05,28.6 C27.5,27.05 25.4,26.4 22.2,25.85 C21.7,27.8 20.55,32.4 18,37.7 C16.55,40.65 14.5,43.7 10.5,43.7 C5.9,43.7 0.45,39.65 0.45,32.35 C0.45,27.75 2.7,22.2 9.7,19.7 C12.75,18.6 15.35,18.45 16.5,18.4 C16.65,17.75 17.4,14.95 17.45,14.5 C17.55,13.8 17.95,11.75 17.95,11.35 C17.95,10.3 17.3,10.15 16.5,10.15 C15.1,10.15 9.05,10.6 7.8,10.6 C6.75,10.6 3.8,10.6 3.8,6.8 C3.8,2.95 6.7,2.95 8.5,2.95 L11.3,2.95 C12.75,2.95 20.35,2.7 20.55,2.7 C21.95,2.7 26.2,2.7 26.2,7.05 C26.2,8.8 25.5,12.15 25.35,12.9 C25.2,13.85 24.15,17.9 23.95,18.75 C27.55,19.45 29.3,19.95 31.75,20.65 Z M14.75,25.3 C13.5,25.55 12.65,25.7 11.6,26.1 C9.1,27.15 7.15,29.2 7.15,32.5 C7.15,35.4 9,36.1 9.6,36.1 C10.65,36.1 11.45,34.85 12.35,32.65 C14,28.55 14.5,26.5 14.75,25.3 Z M67.7,21.6 C69.5,20.4 71.15,19.3 74.15,19.3 C79.75,19.3 82,22.85 82,27.9 C82,28.95 81.65,33.65 81.65,34.6 C81.65,35.4 81.7,36.7 82.8,37.5 C83.4,37.9 84,37.95 84.35,37.95 C87.95,37.95 89,33.3 89.55,30 C89.7,28.9 89.9,24 90.05,23 C90.2,22.2 90.5,20.05 93.95,20.05 C98.15,20.05 98.15,23.1 98.15,24.55 C98.15,28.4 97.4,33.6 96.1,37.2 C95.6,38.6 93.45,44.05 87.55,45.5 C85.7,45.95 84.25,45.95 83.75,45.95 C81.45,45.95 77.55,45.45 75.6,42.4 C74.05,39.95 74.05,37.75 74.05,36.15 C74.05,35.15 74.3,30.85 74.3,29.95 C74.3,28.7 74.3,26.75 71.4,26.75 C70.2,26.75 66.35,27.4 63.9,34.75 C63.65,35.55 63.05,37.4 62.3,40.8 C61.7,43.65 61.15,45.45 58.15,45.45 C56.2,45.45 53.9,44.25 53.9,41.75 C53.9,40.85 54.05,40.2 54.75,37.85 C57.45,28.55 60.3,19.3 63.45,10.1 C63.9,8.8 65.5,4.1 65.9,3.3 C66.15,2.8 67.05,1.45 69.2,1.45 C70.2,1.45 73.65,1.95 73.65,4.9 C73.65,6.05 73.35,6.8 71.6,11.3 C69.25,17.4 69,18.1 68.5,19.45 C68.3,19.95 68.1,20.4 67.7,21.6 Z M133.95,26.4 L133.45,19.45 C133.2,16.3 136.05,15.9 137.35,15.9 C138.85,15.9 141.05,16.3 141.2,19.15 L141.65,28.8 C144.2,30.1 146.6,31.7 148.7,33.65 C150,34.8 150.4,35.8 150.4,36.9 C150.4,39 148.85,41.1 146.45,41.1 C145.75,41.1 144.95,40.9 144.4,40.4 C142.4,38.65 142,38.3 141.05,37.4 C140.95,38.9 140.85,40.15 140,41.7 C137.7,45.7 132.65,46.15 130.1,46.15 C121.4,46.15 117.7,41.5 117.7,36.35 C117.7,31.55 121.2,26.2 130.75,26.2 C132.05,26.2 133,26.3 133.95,26.4 Z M134.2,33.4 C133.2,32.95 132.4,32.6 130.3,32.6 C128.7,32.6 124.5,32.9 124.5,36.2 C124.5,39.55 128.8,39.55 129.5,39.55 C133.4,39.55 134.25,37.65 134.2,33.4 Z M122.65,15.5 C121.5,19.3 118.95,27.45 114.75,35 C114,36.3 113.15,37.55 111.05,37.55 C108.95,37.55 106.7,36.1 106.7,33.95 C106.7,32.6 107.1,32 110,26.85 C112.3,22.8 113.9,17.75 114.55,15.8 C110.95,15.85 110.05,15.9 109.05,15.65 C107.8,15.35 106.8,14.1 106.8,12.05 C106.8,8.9 109,8.6 109.8,8.45 C110.15,8.4 115.8,8.25 116.65,8.25 C116.8,7.5 117.4,4.2 117.6,3.55 C118.05,2.05 119.35,1.4 121.05,1.4 C122.05,1.4 125.4,1.6 125.4,4.55 C125.4,5.7 125.1,6.85 124.85,7.95 C125.4,7.95 127.8,7.8 128.3,7.8 C129.45,7.8 132.15,7.9 132.15,11.55 C132.15,15.05 129.6,15.2 128.1,15.3 C127.15,15.35 126.7,15.35 122.65,15.5 Z M133.8,5.55 C134.2,5.05 135.3,3.8 137,3.8 C139.25,3.8 145.15,7.3 148.6,10 C150.35,11.4 150.95,12.45 150.95,13.75 C150.95,16.1 148.85,17.8 146.95,17.8 C145.65,17.8 144.75,17.15 143.7,16.25 C140.95,13.9 140.05,13.15 135.45,10.6 C134.5,10.1 133.15,9.35 133.15,7.55 C133.15,6.6 133.65,5.8 133.8,5.55 Z M181.55,12.05 C178.9,12.25 164.6,13.35 163.3,13.35 C160.7,13.35 159.5,11.55 159.5,9.2 C159.5,7.05 160.25,5.3 163.1,5 C165.2,4.8 188.95,3.9 198.65,3.9 C201.4,3.9 204.25,3.9 204.25,7.7 C204.25,11.75 201.55,11.85 198.7,11.85 C195.7,11.9 192.65,12.45 188.15,15 C183,17.95 177.9,23.5 177.9,29.35 C177.9,35.6 183.05,37 191.45,37 L195.75,37 C197.6,37 199.6,37.75 199.6,40.75 C199.6,45.45 195.95,45.45 192.35,45.45 C190.9,45.45 186.3,45.4 181.25,44.1 C178.55,43.4 169.6,41.1 169.6,30.3 C169.6,24.65 172.15,20.55 175,17.4 C177.55,14.55 179.65,13.25 181.55,12.05 Z M191.8,20.85 C191.6,20.5 190.75,19 190.6,18.65 C190.45,18.3 190.3,17.9 190.3,17.55 C190.3,16.55 191.55,15.95 192.3,15.95 C193.15,15.95 193.65,16.5 194.7,18.35 C195.05,19 196.3,21.55 196.3,22.55 C196.3,23.9 194.9,24.25 194.3,24.25 C194.05,24.25 193.4,24.25 192.9,23.2 C192.7,22.85 191.95,21.2 191.8,20.85 Z M197,18.5 C196.8,18.1 195.9,16.4 195.75,16.05 C195.6,15.7 195.55,15.35 195.55,15.15 C195.55,14.15 196.8,13.6 197.5,13.6 C198.5,13.6 199,14.4 199.9,16.05 C200.55,17.2 201.55,19.15 201.55,20.2 C201.55,21.3 200.4,21.85 199.55,21.85 C199.3,21.85 198.65,21.85 198.1,20.8 C197.9,20.45 197.15,18.8 197,18.5 Z M236.25,39.65 L236.25,25.5 L234.45,25.5 C233.75,34.3 232.55,38.5 231.65,41.45 C230,46.85 228.7,47.6 226.7,47.6 C224.75,47.6 223,46.3 222.7,44.75 C221.9,47.5 219.6,47.6 216.4,47.6 C214.2,47.6 211.25,47.6 211.25,43.7 C211.25,41.35 212.55,40.15 214.6,40.15 C215.8,40.15 216.15,39.95 216.15,38.8 L216.15,32.05 C215.25,32.3 214.75,32.45 214.05,32.45 C211.2,32.45 210.9,29.25 210.9,28.35 C210.9,25.55 212.55,25.2 216.15,24.35 L216.15,15.75 L214.65,15.75 C213.6,15.75 211.1,15.7 211.1,12.2 C211.1,9.05 212.95,8.55 214.65,8.55 L216.15,8.55 L216.15,3.9 C216.15,3.1 216.15,0.15 219.55,0.15 C222.95,0.15 222.95,2.9 222.95,3.9 L222.95,8.55 L224.1,8.55 C225.1,8.55 227.35,8.65 227.35,12.15 C227.35,15.25 225.7,15.75 224.1,15.75 L222.95,15.75 L222.95,22.25 C223.4,22.1 224.1,21.9 224.8,21.9 C226.55,21.9 227.55,23.15 227.85,24.65 C227.95,23.55 228.1,21 228.1,19.4 L228.1,7.85 C228.1,3.15 230.25,1.8 234.15,1.8 L254.9,1.8 C255.7,1.8 258.55,1.8 258.55,5 C258.55,8 256.2,8.25 254.9,8.25 L236,8.25 C235.05,8.25 234.6,8.75 234.6,9.65 L234.6,19 L255.05,19 C255.85,19 258.7,19 258.7,22.05 C258.7,24.3 257.75,25.5 255.05,25.5 L250.5,25.5 C250.8,28.1 251.2,29.5 251.45,30.3 C252,29.75 252.55,29.2 253.05,28.65 C253.8,27.8 254.5,27.1 255.65,27.1 C257.15,27.1 258.6,28.5 258.6,30.25 C258.6,31.7 257.45,33.15 254,35.9 C255.05,37.55 255.15,37.7 257.85,40.95 C258.1,41.25 258.75,42.15 258.75,43.3 C258.75,45.2 257.05,47.3 254.9,47.3 C253.75,47.3 252.85,46.75 252,45.8 C250.35,43.95 249.05,41.75 248.2,39.95 C248.3,40.3 248.45,40.85 248.45,41.6 C248.45,44.1 247.15,44.7 243.95,45.35 C241.9,45.8 236.55,46.9 235,46.9 C234.1,46.9 233.1,46.65 232.5,45.9 C231.85,45.05 231.65,43.9 231.65,43.15 C231.65,40.4 233.5,40.1 236.25,39.65 Z M242.5,25.5 L242.5,38.5 C242.95,38.45 244.55,38.1 245.5,38.1 C246.7,38.1 247.25,38.4 247.8,39.2 C245.15,33.4 244.7,27.15 244.65,25.5 L242.5,25.5 Z M223.4,41.6 L225.25,37.65 C226.05,35.95 227.05,31.7 227.65,26.75 C227.1,27.95 226.2,28.4 222.95,29.7 L222.95,42.75 C223.05,42.4 223.15,42.1 223.4,41.6 Z M238.65,10.65 L253.8,10.65 C254.6,10.65 256.9,10.65 256.9,13.55 C256.9,16.35 254.95,16.5 253.8,16.5 L238.65,16.5 C237.9,16.5 235.6,16.5 235.6,13.7 C235.6,11.45 236.6,10.65 238.65,10.65 Z M278.85,10.8 C280.15,8.75 281.5,6.65 284.8,4.5 C287.4,2.8 290.05,2.3 292.2,2.3 C296.85,2.3 300.4,4.65 302.25,7.25 C305.45,11.7 306.2,17.95 306.2,23.35 C306.2,35.6 302.2,41.45 294.05,44.35 C289.8,45.85 285.4,46.3 281.35,46.3 C278.4,46.3 275.1,46.3 275.1,42.3 C275.1,38.6 278.2,38.6 279.25,38.6 C279.9,38.6 282.75,38.65 283.3,38.6 C295,38 297.8,32.6 297.8,23.35 C297.8,17.3 296.9,9.65 291.1,9.65 C284.7,9.65 278.15,18.45 278.15,26.15 C278.15,26.9 278.35,30.05 278.35,30.7 C278.35,31.9 278.35,34.6 274.4,34.6 C273.55,34.6 271.35,34.5 270.75,32.4 C270.4,31.15 270.1,27.8 270.1,25.1 C270.1,14.9 271,6.15 271.65,3.95 C272.05,2.55 272.85,1.2 275.65,1.2 C276.9,1.2 279.9,1.35 279.9,4.5 C279.9,4.9 279.8,5.55 279.7,6.05 C279.05,8.9 279.05,9.2 278.85,10.8 Z M353.95,17.2 L345.8,17.2 C347.1,17.4 347.55,18.1 348,18.85 C350.25,22.55 350.6,22.95 351.55,24.15 C353.6,21.5 354.95,18.55 354.95,17.85 C354.95,17.4 354.7,17.2 353.95,17.2 Z M340.25,10.95 L356.95,10.95 C359.25,10.95 360.1,11.05 361.15,11.9 C362.1,12.65 362.65,13.7 362.65,15.6 C362.65,19.7 359.25,25.2 356.6,28.75 C358.25,29.9 358.7,30.15 363,32.25 C363.6,32.55 364.4,33.35 364.4,34.75 C364.4,36 363.5,38.85 360.75,38.85 C358.45,38.85 353.9,35.45 351.85,33.8 C349.2,36.1 345.05,38.95 342.35,38.95 C340,38.95 338.95,36.4 338.95,35.1 C338.95,33.35 340.35,32.6 340.95,32.3 C345.4,30 345.9,29.75 346.8,29 C343.75,25.35 341.5,21.7 341.5,20.4 C341.5,18.85 342.9,17.5 344.85,17.2 L340.25,17.2 L340.25,21.4 C340.25,21.7 340.25,27.2 338.7,33.3 C337.85,36.65 336.85,37.95 334.85,37.95 C332.65,37.95 330.55,36.4 330.55,34.45 C330.55,33.55 331.85,29.85 332.05,29.05 C332.75,26.45 333.15,22.6 333.15,19.95 L333.15,8.3 C333.15,3.05 335.6,1.6 339.85,1.6 L360.65,1.6 C361.75,1.6 364.3,1.7 364.3,4.9 C364.3,7.65 362.6,8.3 360.65,8.3 L341.65,8.3 C340.7,8.3 340.25,8.75 340.25,9.7 L340.25,10.95 Z M321.35,0.45 C322.4,0.45 323.3,0.45 327.65,4.45 C328.15,4.9 330,6.6 330.9,7.8 C331.6,8.65 331.6,9.3 331.6,9.7 C331.6,11.95 329.55,13.8 327.5,13.8 C326.05,13.8 325.6,13.35 322.8,10.5 C322.15,9.8 318.95,6.85 318.35,6.2 C317.7,5.5 317.65,4.75 317.65,4.4 C317.65,2.35 319.55,0.45 321.35,0.45 Z M337.9,39.5 L361.3,39.5 C364.05,39.5 364.85,41.4 364.85,43 C364.85,44.35 364.45,46.6 361.3,46.6 L338.9,46.6 C337.45,46.6 334.65,46.35 332.4,45.65 C330.3,44.95 328.85,43.65 327.35,41.9 C326.75,42.8 325.4,44.6 324.1,45.95 C323.65,46.45 322.8,47.25 321.3,47.25 C319.2,47.25 317.1,45.1 317.1,42.65 C317.1,41.15 318,40.4 318.7,39.75 C319.95,38.65 321.75,37.1 322.45,36.4 L322.45,26.95 C322.45,26.5 322.45,25.7 321.6,25.7 L320.6,25.7 C319.6,25.7 317.4,25.25 317.4,22.4 C317.4,19.9 318.3,18.7 321.05,18.7 L323.5,18.7 C328.75,18.7 329.7,19.7 329.7,24.9 L329.7,33.65 C329.7,36.9 332.55,39.5 337.9,39.5 Z M395.75,17.4 C397.55,17 398.25,16.9 399.75,16.9 C409.15,16.9 414.6,21.85 414.6,30.05 C414.6,36.65 411,40.65 408.15,42.4 C403.65,45.15 398.3,45.9 393.05,45.9 C388.95,45.9 384.9,45.4 382.1,44.15 C380.9,43.6 379.6,42.65 379.6,40.6 C379.6,38.7 380.85,36.9 382.75,36.9 C383.6,36.9 385.15,37.25 387.2,37.75 C388.7,38.1 391.3,38.35 393.1,38.35 C398.15,38.35 400.7,37.5 402.6,36.35 C404.05,35.5 406,33.6 406,30.5 C406,27.85 404.7,25.8 403.1,24.85 C402.1,24.25 400.55,23.6 396.9,23.6 C390.3,23.6 386.35,25.6 380.45,31.1 C378.7,32.75 377.9,33.4 376.5,33.4 C374.05,33.4 372.2,30.95 372.2,29.4 C372.2,27.7 372.8,26.85 375.95,24.5 C387.25,16.15 392.2,12.5 394.5,10.2 C393.2,10.25 382.3,10.8 380,10.8 C377.95,10.8 375.95,10.05 375.95,7.1 C375.95,3.75 377.55,3.15 381.85,3.15 C387.45,3.15 393.1,3.1 400,2.8 C400.35,2.8 401.6,2.75 402,2.75 C404.75,2.75 406.8,3.5 406.8,6.5 C406.8,8 406.1,9.4 404.75,10.45 C402.15,12.55 401.65,12.85 397.7,16 C397.35,16.25 396.4,16.9 395.75,17.4 Z M432,5 C432.35,2.25 433.85,1.4 435.6,1.4 C436.4,1.4 439.75,2.1 440.45,2.2 C443.4,2.7 449.7,3.35 456.25,3.7 C458.45,3.8 461.5,3.95 461.5,7.6 C461.5,8.9 460.95,10.35 460.15,11 C459.4,11.6 458.45,11.7 457.25,11.7 C453.95,11.7 440.4,10.3 435,9.05 C432.85,8.55 431.75,7.15 432,5 Z M467.05,27.7 C467.05,44.2 449.15,46.4 440,46.4 C438.3,46.4 437.2,46.25 436.3,45.35 C435.6,44.65 435.1,43.55 435.1,42.3 C435.1,39 437.55,38.85 439.1,38.8 C445.05,38.5 450.8,38.35 454.85,35.15 C458,32.65 458.5,29.3 458.5,27.85 C458.5,25.7 457.55,23.8 456.35,22.85 C454.75,21.6 452.5,21.35 450.75,21.35 C449.25,21.35 443.2,21.75 436.25,25.2 C435.45,25.6 432.1,27.4 431.35,27.7 C430.3,28.1 429.75,28.15 429.35,28.15 C426.35,28.15 425.2,25.25 425.2,23.65 C425.2,21.1 426.8,20.3 432.5,17.95 C438.65,15.45 446.85,14.05 450.65,14.05 C453.95,14.05 459.35,14.7 462.7,17.55 C466.45,20.8 467.05,25.4 467.05,27.7 Z" fill="#252525"></path>
</svg>
