<svg viewBox="0 0 255 24" version="1.1" xmlns="http://www.w3.org/2000/svg">
  <path d="M1.95,3.1 L17.525,3.1 C20.15,3.1 20.25,4.625 20.25,5.525 C20.25,5.825 20,12.125 15.725,17.05 C11.85,21.55 5.825,23 4.6,23 C3.075,23 2.925,21.45 2.925,21.175 C2.925,20.125 3.8,19.9 4.825,19.625 C10.925,18.025 14.05,14.525 15.3,11.55 C16.2,9.45 16.525,7.5 16.525,7.05 C16.525,6.375 16.075,6.375 15.725,6.375 L1.95,6.375 C1.575,6.375 0.275,6.375 0.275,4.75 C0.275,3.225 1.325,3.1 1.95,3.1 Z M38.975,12.075 L38.975,22.15 C38.975,22.975 38.6,23.65 37.375,23.65 C36.35,23.65 35.75,23.225 35.75,22.15 L35.75,13.8 C34.175,14.525 33.075,15.05 31.05,15.7 C30.45,15.9 29.3,16.25 28.75,16.25 C27.575,16.25 27.25,15.125 27.25,14.55 C27.25,13.55 27.675,13.45 29.25,13 C33.55,11.8 37.95,9.375 39.975,7.65 L42.05,5.875 C42.6,5.4 42.9,5.3 43.225,5.3 C44.1,5.3 44.925,6.05 44.925,6.95 C44.925,7.45 44.725,7.775 44.225,8.25 C42.8,9.575 41.25,10.7 38.975,12.075 Z M71.8,14.2 L53.2,14.2 C52.65,14.2 51.35,14.2 51.35,12.5 C51.35,10.875 52.475,10.775 53.2,10.775 L71.8,10.775 C72.325,10.775 73.65,10.775 73.65,12.475 C73.65,14.15 72.475,14.2 71.8,14.2 Z M86.975,11.15 L86.975,21.95 C86.975,22.525 86.925,23.675 85.225,23.675 C83.5,23.675 83.425,22.6 83.425,21.95 L83.425,3.025 C83.425,2.45 83.45,1.275 85.175,1.275 C86.9,1.275 86.975,2.35 86.975,3.025 L86.975,7.675 C90.35,8.675 93.65,10.025 96.8,11.625 C98.625,12.575 99.025,12.95 99.025,13.8 C99.025,14.675 98.4,15.85 97.275,15.85 C96.7,15.85 96.15,15.525 95.125,14.925 C93.7,14.075 91.625,13.05 90.2,12.4 C88.6,11.675 87.7,11.4 86.975,11.15 Z M93.5,4.375 C93.45,4.2 93.175,3.475 93.1,3.3 C93.025,3.15 93,2.95 93,2.8 C93,2.2 93.675,2.075 93.9,2.075 C94.4,2.075 94.6,2.45 94.95,3.325 C95.25,4.025 95.55,5.025 95.55,5.35 C95.55,6.15 94.725,6.15 94.65,6.15 C94.525,6.15 94.125,6.15 93.925,5.65 C93.85,5.45 93.575,4.55 93.5,4.375 Z M96.475,3.975 C96.425,3.85 96.125,3.05 96.025,2.85 C95.975,2.725 95.95,2.55 95.95,2.45 C95.95,1.85 96.575,1.7 96.875,1.7 C97.4,1.7 97.55,2.05 97.925,2.925 C98.35,3.925 98.55,4.65 98.55,4.95 C98.55,5.675 97.8,5.75 97.65,5.75 C97.075,5.75 96.975,5.5 96.475,3.975 Z M110.85,2.325 C112.15,2.525 112.25,3.3 112.25,3.9 C112.25,4.25 111.65,13.875 107.8,20.2 C106.525,22.3 106,22.675 105.2,22.675 C104.375,22.675 103.35,21.875 103.35,20.975 C103.35,20.35 103.675,19.9 104.05,19.4 C107.675,14.4 108.325,8.925 108.925,3.875 C109.025,3.15 109.225,2.075 110.85,2.325 Z M118.125,2.325 C119.75,2.075 119.95,3.2 120.025,3.875 C120.6,8.825 121.275,14.375 124.925,19.4 C125.375,20 125.625,20.4 125.625,20.975 C125.625,21.925 124.525,22.7 123.775,22.7 C122.9,22.7 122.35,22.125 121.15,20.175 C117.35,13.925 116.7,4.35 116.7,3.9 C116.7,3.425 116.725,2.525 118.125,2.325 Z M121.4,2.975 C121.35,2.825 121.075,2.125 121,1.925 C120.95,1.775 120.9,1.575 120.9,1.4 C120.9,0.85 121.525,0.7 121.825,0.7 C122.3,0.7 122.5,1.05 122.875,1.95 C123.125,2.575 123.45,3.625 123.45,3.975 C123.45,4.775 122.625,4.775 122.575,4.775 C122.3,4.775 121.975,4.65 121.825,4.25 C121.675,3.9 121.525,3.325 121.4,2.975 Z M124.4,2.775 C124.35,2.6 124,1.8 123.95,1.65 C123.9,1.5 123.875,1.325 123.875,1.225 C123.875,0.65 124.5,0.5 124.775,0.5 C125.3,0.5 125.45,0.8 125.8,1.625 C126.025,2.125 126.45,3.275 126.45,3.75 C126.45,4.475 125.7,4.55 125.55,4.55 C124.975,4.55 124.9,4.25 124.4,2.775 Z M134.975,15.325 C134.1,15.325 133.875,14.6 133.6,13.725 C133,11.775 132.575,10.825 132.075,9.75 C131.95,9.475 131.825,9.2 131.825,8.85 C131.825,7.975 132.725,7.5 133.5,7.5 C134.675,7.5 135.1,8.65 136.55,12.625 C136.75,13.2 136.825,13.475 136.825,13.85 C136.825,15.1 135.525,15.325 134.975,15.325 Z M140.4,14.2 C139.525,14.2 139.3,13.3 139.125,12.525 C138.65,10.575 138.325,9.6 137.875,8.45 C137.775,8.175 137.675,7.925 137.675,7.6 C137.675,6.775 138.5,6.3 139.3,6.3 C140.225,6.3 140.475,6.8 140.775,7.475 C141.35,8.7 142.35,12.125 142.35,12.725 C142.35,14.15 140.925,14.2 140.4,14.2 Z M148,7.025 C149,7.225 149.175,7.9 149.175,8.4 C149.175,8.5 148.625,13.25 145.9,17.2 C142.175,22.55 136.15,23.45 135.75,23.45 C134.6,23.45 134.275,22.325 134.275,21.825 C134.275,20.9 134.775,20.75 136.525,20.225 C138.525,19.625 143.025,18.125 145.05,12.25 C145.4,11.275 145.45,11 145.975,8.5 C146.125,7.825 146.325,6.95 147.5,6.95 C147.65,6.95 147.825,6.975 148,7.025 Z M166,4.8 L173.575,4.8 C175.4,4.8 176.075,5.7 176.075,7 C176.075,7.95 175.1,14.825 169.375,19.35 C165.4,22.475 160.05,23.5 159.25,23.5 C157.75,23.5 157.6,22.15 157.6,21.775 C157.6,20.7 158.075,20.55 159.925,20.1 C164.05,19.075 168.325,17.425 170.925,12.35 C171.575,11.05 172.35,8.975 172.35,8.325 C172.35,7.85 172.025,7.85 171.4,7.85 L164.025,7.85 C162.775,9.55 159.625,13.05 157.925,13.05 C157.05,13.05 156.3,12.2 156.3,11.375 C156.3,10.7 156.5,10.55 157.65,9.7 C160.55,7.55 162.5,4.4 162.875,3.625 C163.8,1.775 163.975,1.35 165.025,1.35 C165.775,1.35 166.8,1.75 166.8,2.65 C166.8,3.1 166.675,3.525 166,4.8 Z M200.825,3.65 L200.95,3.65 C201.375,3.65 202.55,3.65 202.55,5.125 C202.55,6.4 201.625,6.55 201.325,6.6 C200.875,6.65 194.55,6.875 190.925,6.95 C190.45,7.7 190.25,8 189.35,9.425 C190.925,8.425 192.35,8.325 192.875,8.325 C194.675,8.325 195.975,9.175 196.625,10.8 C197.775,10.35 201.05,9.35 201.95,9.35 C203.475,9.35 203.475,10.775 203.475,11.025 C203.475,12.15 202.7,12.45 201.95,12.625 C198.45,13.45 198.075,13.525 197.15,13.85 C197.225,14.875 197.275,16.025 197.275,16.675 C197.275,18.05 197.275,19.2 195.65,19.2 C194.075,19.2 194.075,18.075 194.075,17.25 C194.075,16.875 194.1,15.3 194.1,14.975 C190.525,16.525 189.55,17.6 189.55,18.825 C189.55,20.275 191.6,20.525 194.225,20.525 C195.625,20.525 197.5,20.4 199.175,20.15 C199.475,20.1 200.05,20.025 200.525,20.025 C200.9,20.025 202.025,20.025 202.025,21.5 C202.025,22.65 201.35,22.875 200.875,22.975 C198.75,23.45 195.675,23.5 194.825,23.5 C191.175,23.5 189.7,23.1 188.55,22.65 C187.075,22.05 186.1,20.8 186.1,19.275 C186.1,15.7 190.25,13.425 193.65,11.95 C193.125,11 192.3,10.9 191.825,10.9 C191.075,10.9 188.825,11.125 186.55,13.825 C186.175,14.275 184.625,16.3 184.25,16.65 C184.05,16.85 183.675,17.125 183.1,17.125 C182.15,17.125 181.525,16.225 181.525,15.5 C181.525,14.875 181.825,14.525 183.35,12.85 C185.5,10.475 187.325,7.4 187.575,7 C187,7 184.45,7.025 183.95,7.05 C183.475,7.05 182.2,7.025 182.2,5.525 C182.2,4.075 183.425,4.05 183.875,4.05 C185.6,4.025 187.325,4.025 189.05,3.975 C189.175,3.7 189.65,2.425 189.75,2.175 C189.925,1.725 190.15,1.15 191.375,1.15 C192.275,1.15 193.025,1.575 193.025,2.45 C193.025,2.85 192.875,3.175 192.55,3.925 C197.225,3.775 197.725,3.65 200.825,3.65 Z M223.275,9.75 L228.775,9.75 C229.225,9.75 230.3,9.775 230.3,11.125 C230.3,12.2 229.9,12.675 228.775,12.675 L224.05,12.675 C224.9,14.45 226.3,15.65 227.35,16.25 C227.65,16.425 229.275,17.35 229.375,17.45 C229.8,17.85 229.8,18.275 229.8,18.45 C229.8,19.525 228.95,20.1 228.225,20.1 C227.15,20.1 223.825,18.575 221.775,14.475 C221.225,15.6 220.425,17.325 217.9,19.125 C216.875,19.85 216.375,19.975 215.9,19.975 C214.775,19.975 214.175,19 214.175,18.325 C214.175,17.825 214.375,17.45 214.875,17.15 C217.175,15.75 218.5,14.95 219.525,12.675 L214.85,12.675 C214.425,12.675 213.325,12.675 213.325,11.3 C213.325,10.25 213.725,9.75 214.85,9.75 L220.15,9.75 L220.15,7.125 L215.55,7.125 C215.1,7.125 214.05,7.125 214.05,5.7 C214.05,4.75 214.4,4.175 215.475,4.175 L217.35,4.175 C217.25,4.025 216.925,3.325 216.85,3.2 C216.5,2.55 216.35,2.25 216.35,1.825 C216.35,1 217.275,0.625 218.025,0.625 C218.85,0.625 219.125,1.15 219.4,1.625 C219.525,1.85 220.075,2.825 220.075,3.375 C220.075,3.45 220.075,3.8 219.7,4.175 L223.025,4.175 C223.525,3.325 223.6,3.175 224.325,1.55 C224.525,1.125 224.75,0.625 225.7,0.625 C226.35,0.625 227.425,0.9 227.425,1.825 C227.425,2.45 226.75,3.475 226.3,4.175 L227.975,4.175 C228.825,4.175 229.45,4.525 229.45,5.55 C229.45,6.575 229.125,7.125 227.925,7.125 L223.275,7.125 L223.275,9.75 Z M208.525,1.075 C209.15,1 209.7,1.325 211.075,2.425 C211.425,2.7 212.775,3.95 213.05,4.275 C213.25,4.5 213.35,4.775 213.35,5.1 C213.35,6 212.525,6.85 211.75,6.85 C211.2,6.85 210.85,6.6 210.175,5.95 C209.675,5.45 208.825,4.7 208.3,4.275 C207.45,3.625 207.175,3.275 207.175,2.675 C207.175,1.95 207.8,1.175 208.525,1.075 Z M217.475,20.725 L228.925,20.725 C230.225,20.725 230.425,21.6 230.425,22.175 C230.425,22.35 230.425,23.725 228.875,23.725 L217.775,23.725 C215,23.725 213,23.05 211.625,20.9 C210.925,21.85 210.825,22 210.125,22.75 C209.3,23.625 208.975,23.95 208.3,23.95 C207.325,23.95 206.575,23 206.575,22.075 C206.575,21.4 206.725,21.275 208,20.225 C208.075,20.175 209.4,19.025 209.7,18.675 L209.7,13.8 C209.7,13.625 209.7,13.075 209.125,13.075 L208.225,13.075 C207.175,13.075 206.775,12.45 206.775,11.625 C206.775,10.5 207.225,10.05 208.325,10.05 L209.925,10.05 C212.2,10.05 212.725,10.525 212.725,12.85 L212.725,17.425 C213.075,19.95 215.15,20.725 217.475,20.725 Z M244.275,9.45 C244.95,9.2 245.675,8.9 247.25,8.9 C252.475,8.9 254.775,12.125 254.775,15.775 C254.775,17.75 254.025,21 250.2,22.6 C248.45,23.325 246.55,23.55 244.675,23.55 C241.7,23.55 240.275,22.95 239.3,22.35 C238.2,21.675 237.55,20.5 237.55,19.25 C237.55,16.225 240.275,14.975 242.85,14.975 C244.025,14.975 247.8,15.175 247.8,19.2 C247.8,19.7 247.75,19.95 247.6,20.375 C250.55,19.75 251.325,17.625 251.325,16.05 C251.325,14.775 250.825,13.425 249.75,12.675 C248.6,11.875 247.075,11.725 245.925,11.725 C242.35,11.725 239.675,13.35 237.525,15.3 C235.925,16.75 235.825,16.825 235.275,16.825 C234.35,16.825 233.525,16.05 233.525,15.1 C233.525,14.4 233.7,14.25 235.675,12.75 C238.7,10.5 244.075,6.475 245.675,4.95 C245.075,5 238.525,5.375 237.525,5.375 C237.025,5.375 235.825,5.35 235.825,3.775 C235.825,2.275 237,2.225 237.6,2.2 C238.975,2.175 245.1,2.075 246.35,2.025 C246.625,2 248.125,1.95 249,1.95 C249.9,1.95 251.125,2.125 251.125,3.55 C251.125,4.7 250.85,4.875 248.025,6.7 C246,8 244.975,8.875 244.275,9.45 Z M244.925,20.775 C245.075,20.35 245.175,20.075 245.175,19.6 C245.175,17.725 243.625,17.55 242.8,17.55 C241.5,17.55 240.475,18.2 240.475,19.175 C240.475,20.325 242.075,20.875 243.8,20.875 C244.2,20.875 244.475,20.85 244.925,20.775 Z" fill="#FFFFFF"></path>
</svg>
