<svg xmlns="http://www.w3.org/2000/svg" viewBox="0 0 100 100"><title>sns-share-icons</title><path d="M49.791,9.533C25.9,9.533,6.485,25.3,6.485,44.624c0,17.345,15.431,31.941,36.171,34.678,1.41.333,3.318.912,3.816,2.157a10.31,10.31,0,0,1,.166,3.9s-.5,3.07-.581,3.733c-.166,1.079-.832,4.315,3.734,2.323C54.436,89.507,74.68,76.731,83.8,66.278c6.306-6.89,9.291-13.854,9.291-21.653h0C93.1,25.294,73.683,9.533,49.791,9.533ZM34.534,54.994a.832.832,0,0,1-.832.832H21.584a.85.85,0,0,1-.832-.832V36.163a.832.832,0,0,1,.832-.832h3.067a.832.832,0,0,1,.832.832V51.1H33.7l.006,0a.832.832,0,0,1,.832.832Zm7.378-.082a.832.832,0,0,1-.832.832H38.01a.832.832,0,0,1-.832-.832V36.081a.832.832,0,0,1,.832-.832H41a.981.981,0,0,1,.912.912ZM62.563,36.163V54.908a.832.832,0,0,1-.832.832H58.247L58,55.492l-8.621-11.7V55.16a.832.832,0,0,1-.832.832h-3.07a.832.832,0,0,1-.832-.832V36.332a.832.832,0,0,1,.832-.832H49.2l.083.083.083.083L58,47.281v-11.2a.832.832,0,0,1,.832-.832H61.9a.666.666,0,0,1,.663.912ZM79.5,54.994a.832.832,0,0,1-.832.832H66.555a.85.85,0,0,1-.832-.832V36.161a.646.646,0,0,1,.248-.581.753.753,0,0,1,.581-.248H78.661a.832.832,0,0,1,.832.832v2.984a.832.832,0,0,1-.832.832v.083H70.448v3.151h8.213a.832.832,0,0,1,.832.832v3.067a.832.832,0,0,1-.832.832H70.448v3.151h8.224a.832.832,0,0,1,.832.832Z" style="fill:#252525"/></svg>
