<svg viewBox="0 0 32 32" version="1.1" xmlns="http://www.w3.org/2000/svg" xmlns:xlink="http://www.w3.org/1999/xlink">
  <title>iconNg</title>
  <g id="iconNg" fill-rule="nonzero" fill="#999999">
    <path d="M16,14.232233 L12.2502854,10.4825185 C11.7621301,9.99436311 10.9706738,9.99436311 10.4825185,10.4825185 C9.99436311,10.9706738 9.99436311,11.7621301 10.4825185,12.2502854 L14.232233,16 L10.4825185,19.7497146 C9.99436311,20.2378699 9.99436311,21.0293262 10.4825185,21.5174815 C10.9706738,22.0056369 11.7621301,22.0056369 12.2502854,21.5174815 L16,17.767767 L19.7497146,21.5174815 C20.2378699,22.0056369 21.0293262,22.0056369 21.5174815,21.5174815 C22.0056369,21.0293262 22.0056369,20.2378699 21.5174815,19.7497146 L17.767767,16 L21.5174815,12.2502854 C22.0056369,11.7621301 22.0056369,10.9706738 21.5174815,10.4825185 C21.0293262,9.99436311 20.2378699,9.99436311 19.7497146,10.4825185 L16,14.232233 Z" id="Combined-Shape"></path>
  </g>
</svg>
