<svg viewBox="0 0 833 74" version="1.1" xmlns="http://www.w3.org/2000/svg">
  <path d="M21.324,4.224 L37.62,4.224 C38.124,4.224 39.86,4.224 39.86,6.408 C39.86,8.144 38.852,8.62 37.62,8.62 L21.324,8.62 C20.82,8.62 19.112,8.62 19.112,6.436 C19.112,4.588 20.26,4.224 21.324,4.224 Z M19.28,20.128 L39.72,20.128 C40.252,20.128 41.932,20.128 41.932,22.312 C41.932,23.964 41.036,24.524 39.72,24.524 L19.28,24.524 C18.776,24.524 17.068,24.524 17.068,22.34 C17.068,20.716 17.964,20.128 19.28,20.128 Z M51.568,20.436 L65.344,20.436 C65.848,20.436 66.268,20.184 66.268,19.512 L66.268,9.292 C66.268,8.732 65.96,8.368 65.344,8.368 L51.904,8.368 C51.12,8.368 49.692,8.144 49.692,6.184 C49.692,4.728 50.476,4 51.904,4 L67.192,4 C69.684,4 71,4.896 71,7.836 L71,20.996 C71,23.88 69.74,24.832 67.192,24.832 L51.568,24.832 C50.784,24.832 49.356,24.58 49.356,22.648 C49.356,21.192 50.14,20.436 51.568,20.436 Z M86.208,5.82 L89.484,5.82 L89.484,2.88 C89.484,2.348 89.512,0.948 91.528,0.948 C93.348,0.948 93.852,1.676 93.852,2.88 L93.852,5.82 L101.832,5.82 C102.308,5.82 103.764,5.82 103.764,7.752 C103.764,9.348 103.092,9.88 101.832,9.88 L93.852,9.88 L93.852,14.136 L100.908,14.136 C101.496,14.136 102.84,14.192 102.84,16.096 C102.84,17.832 101.804,18.084 100.908,18.084 L93.852,18.084 L93.852,22.9 L102.924,22.9 C103.484,22.9 104.828,22.928 104.828,24.776 C104.828,26.288 104.296,26.904 102.924,26.904 L80.104,26.904 C79.572,26.904 78.172,26.904 78.172,24.916 C78.172,23.264 79.068,22.9 80.104,22.9 L89.484,22.9 L89.484,18.084 L82.092,18.084 C81.532,18.084 80.188,18 80.188,16.236 C80.188,14.864 80.692,14.136 82.092,14.136 L89.484,14.136 L89.484,9.88 L84.5,9.88 C82.736,13.324 81.952,13.716 81.056,13.716 C79.88,13.716 78.564,12.708 78.564,11.532 C78.564,10.944 78.648,10.804 80.076,8.704 C80.384,8.256 81.588,5.876 82.036,4.644 C82.82,2.376 82.876,2.236 83.24,1.956 C83.548,1.704 83.996,1.592 84.444,1.592 C84.78,1.592 86.908,1.676 86.908,3.3 C86.908,3.916 86.292,5.568 86.208,5.82 Z M114.268,2.124 C114.744,2.124 116.34,2.32 116.34,3.916 C116.34,4.336 116.032,6.24 115.976,6.632 C115.836,7.836 115.388,11.756 115.388,16.236 C115.388,17.16 115.388,19.428 115.584,21.332 C115.64,21.724 115.892,24.16 115.892,24.384 C115.892,25.224 115.668,26.512 113.54,26.512 C111.916,26.512 111.58,25.588 111.328,24.384 C111.188,23.74 110.88,21.08 110.88,17.16 C110.88,10.272 111.58,4.756 111.86,3.664 C112.224,2.124 113.148,2.124 114.268,2.124 Z M134.008,6.128 C134.008,8.088 132.664,8.312 131.6,8.312 C131.152,8.312 129.164,8.284 128.744,8.284 C127.512,8.284 124.236,8.34 121.856,8.48 C121.772,8.48 121.212,8.536 121.016,8.536 C119.672,8.536 118.776,7.92 118.776,6.352 C118.776,4.476 120.008,4.308 120.512,4.224 C121.128,4.112 124.544,3.916 128.996,3.916 C129.892,3.916 132.076,3.916 132.72,4.084 C133.588,4.28 134.008,5.12 134.008,6.128 Z M134.68,22.424 C134.68,23.88 134.12,24.328 133.448,24.608 C132.188,25.168 128.212,25.28 127.26,25.28 C122.612,25.28 117.936,24.496 117.936,19.652 C117.936,19.624 117.936,14.92 121.044,14.92 C122.164,14.92 123.564,15.48 123.564,16.684 C123.564,17.188 123.48,17.384 123.004,18.28 C122.668,18.896 122.584,19.204 122.584,19.456 C122.584,20.548 123.816,20.94 126.588,20.94 C127.932,20.94 129.332,20.744 130.116,20.66 C130.508,20.604 132.272,20.324 132.636,20.324 C134.064,20.324 134.68,21.192 134.68,22.424 Z M154.228,14.724 L154.228,5.512 C154.228,3.804 154.228,2.796 157.084,2.46 C160.892,2.04 160.948,2.04 162.516,1.704 C164,1.368 164.252,1.312 164.588,1.312 C165.764,1.312 166.52,2.376 166.52,3.524 C166.52,5.4 165.288,5.708 159.632,6.268 C158.4,6.38 158.148,6.604 158.148,7.276 L158.148,9.264 L164.868,9.264 C165.904,9.264 166.94,9.544 166.94,11.168 C166.94,12.596 166.52,13.38 164.868,13.38 L164.392,13.38 L164.392,25.644 C164.392,26.652 164.084,27.66 162.572,27.66 C161.144,27.66 160.36,27.296 160.36,25.644 L160.36,13.38 L158.148,13.38 L158.148,14.78 C158.148,19.26 157.252,23.236 156.104,25.392 C155.236,27.016 154.648,27.38 153.724,27.38 C152.436,27.38 151.428,26.484 151.428,25.364 C151.428,24.804 151.512,24.664 152.352,23.376 C151.792,23.852 151.288,23.852 151.176,23.852 C150.476,23.852 150.084,23.46 149.188,22.2 L149.188,25.644 C149.188,26.344 149.076,27.688 147.424,27.688 C146.136,27.688 145.38,27.268 145.38,25.644 L145.38,22.788 C143.252,25.392 142.776,25.392 142.244,25.392 C140.984,25.392 140.004,24.384 140.004,23.096 C140.004,22.144 140.34,21.892 142.188,20.52 C142.832,20.044 143.812,19.12 144.68,18.084 L142.412,18.084 C141.964,18.084 140.396,18.084 140.396,16.348 C140.396,15.088 140.9,14.444 142.412,14.444 L145.38,14.444 L145.38,13.016 L142.188,13.016 C141.46,13.016 140.144,13.016 140.144,11.28 C140.144,9.488 141.096,9.32 142.16,9.32 L142.972,9.32 C142.832,8.48 142.608,7.5 142.412,6.632 C141.852,6.632 140.648,6.632 140.648,4.924 C140.648,3.356 141.292,2.936 142.552,2.936 L145.38,2.936 L145.38,2.432 C145.38,1.34 146.276,0.92 147.228,0.92 C147.9,0.92 149.328,1.004 149.328,2.432 L149.328,2.936 L152.016,2.936 C152.548,2.936 153.92,2.936 153.92,4.756 C153.92,6.38 153.192,6.632 152.1,6.632 C152.016,7.052 151.54,8.956 151.484,9.32 L152.044,9.32 C152.604,9.32 153.92,9.32 153.92,11.112 C153.92,12.96 152.884,13.016 151.904,13.016 L149.188,13.016 L149.188,14.444 L151.624,14.444 C152.072,14.444 153.64,14.444 153.64,16.18 C153.64,17.496 153.024,18.084 151.624,18.084 L149.972,18.084 C150.896,19.148 151.12,19.372 152.324,20.464 C152.66,20.772 153.164,21.22 153.08,21.976 C153.36,21.332 154.228,18.924 154.228,14.724 Z M146.5,9.32 L147.956,9.32 C148.264,7.976 148.348,7.556 148.46,6.632 L145.996,6.632 C146.36,8.452 146.388,8.648 146.5,9.32 Z M190.212,14.108 L191.948,14.108 C191.92,14.052 191.864,13.968 191.808,13.884 C191.304,13.072 191.248,12.988 191.192,12.736 C190.968,12.764 190.436,12.82 190.072,12.848 C190.1,13.24 190.156,13.52 190.212,14.108 Z M177.892,9.824 L177.892,11.14 C178.144,11.56 178.284,11.7 178.424,11.868 C178.396,10.888 178.816,10.804 179.152,10.72 C179.46,10.328 180.888,8.424 181.224,7.976 C180.72,7.416 180.58,7.276 179.32,6.156 C178.984,5.876 178.816,5.484 178.816,5.064 C178.816,4.672 179.152,3.272 180.44,3.328 C180.832,2.712 181.056,2.404 181.476,1.704 C181.672,1.396 181.896,1.116 182.456,1.116 C183.24,1.116 183.968,1.676 183.968,2.292 C183.968,2.88 182.932,4.224 182.456,4.84 C182.624,5.036 182.764,5.176 183.044,5.484 C183.296,5.12 183.688,4.532 183.968,4.168 C184.276,3.748 184.444,3.58 184.892,3.58 C185.396,3.58 185.704,3.776 185.9,3.916 C185.844,1.984 185.816,0.892 187.664,0.892 C188.196,0.892 189.036,1.06 189.372,1.732 C189.512,2.04 189.568,2.432 189.568,3.72 C189.708,3.524 190.044,3.104 190.828,3.188 C190.968,2.964 191.612,1.844 191.836,1.592 C192.088,1.284 192.256,1.06 192.788,1.06 C193.516,1.06 194.3,1.564 194.3,2.208 C194.3,2.796 193.18,4.28 192.732,4.924 C192.788,5.008 193.096,5.372 193.292,5.624 C193.656,5.064 194.216,4.252 194.524,3.888 C194.72,3.664 194.916,3.468 195.336,3.468 C196.064,3.468 197.016,4.168 197.016,4.868 C197.016,5.4 196.26,6.296 195.952,6.688 C195.42,7.304 193.936,9.04 193.068,9.936 C193.488,9.908 193.628,9.908 194.748,9.796 C194.664,9.432 194.58,9.152 194.58,8.984 C194.58,8.172 195.448,7.92 195.952,7.92 C196.68,7.92 196.876,8.396 197.044,8.956 C197.52,10.524 197.688,11.896 197.688,12.176 C197.688,13.128 196.764,13.38 196.344,13.38 C195.42,13.38 195.252,12.624 195.224,12.316 C194.608,12.428 194.384,12.456 194.076,12.484 C194.552,13.156 194.888,13.632 194.972,14.108 L195.784,14.108 C197.24,14.108 197.828,14.752 197.828,15.9 C197.828,17.244 196.96,17.636 195.784,17.636 L193.74,17.636 C194.58,17.832 195.28,18.504 195.28,19.232 C195.28,20.128 193.6,21.892 192.704,22.788 C192.984,23.096 193.404,23.516 193.796,23.516 C194.3,23.516 194.468,23.152 194.748,22.62 C195.084,21.948 195.308,21.584 196.064,21.584 C197.324,21.584 197.968,22.424 197.968,23.292 C197.968,24.58 196.512,27.716 193.74,27.716 C191.864,27.716 190.8,26.68 189.764,25.224 C188.196,26.288 186.208,27.352 185.396,27.352 C184.276,27.352 183.716,26.148 183.716,25.364 C183.716,24.468 184.36,24.188 184.892,23.964 C186.516,23.292 187.244,22.9 188.252,22.228 C187.916,21.304 187.524,20.212 186.992,17.636 L183.828,17.636 C183.828,17.776 183.8,18.476 183.8,18.616 C186.908,19.596 187.132,19.988 187.132,20.996 C187.132,21.612 186.852,22.9 185.676,22.9 C185.368,22.9 185.116,22.816 184.668,22.62 C183.996,22.312 183.968,22.312 183.52,22.144 C183.1,24.748 182.484,26.064 182.232,26.54 C181.756,27.38 180.86,27.548 180.44,27.548 C179.88,27.548 178.396,27.184 178.396,25.924 C178.396,25.504 178.48,25.364 178.984,24.104 C180.048,21.472 180.16,18.56 180.16,17.58 C179.684,17.496 179.124,17.272 178.9,16.6 C178.424,16.656 178.2,16.488 177.892,16.18 L177.892,25.644 C177.892,26.764 177.668,27.716 175.988,27.716 C174.308,27.716 174.308,26.232 174.308,25.644 L174.308,19.12 C173.86,20.212 173.664,20.8 172.768,20.8 C171.704,20.8 170.892,19.512 170.892,18.644 C170.892,18.308 171.004,17.972 171.144,17.664 C172.376,15.284 173.72,12.652 174.28,9.824 L173.328,9.824 C171.844,9.824 171.368,9.04 171.368,7.836 C171.368,6.66 172.068,6.044 173.328,6.044 L174.308,6.044 L174.308,2.992 C174.308,2.096 174.364,0.976 176.184,0.976 C177.892,0.976 177.892,2.376 177.892,2.992 L177.892,6.044 C178.676,6.044 180.048,6.044 180.048,7.948 C180.048,9.824 178.676,9.824 177.892,9.824 Z M180.804,14.108 L186.46,14.108 C186.376,13.492 186.348,13.408 186.348,13.128 C185.984,13.548 185.48,13.548 185.396,13.548 C184.64,13.548 184.472,12.96 184.416,12.764 C183.828,12.848 180.888,13.268 179.936,13.296 C180.104,13.576 180.188,13.772 180.188,14.164 C180.412,14.136 180.524,14.108 180.804,14.108 Z M193.264,17.636 L190.772,17.636 C190.996,18.784 191.108,19.148 191.248,19.652 C191.444,19.428 192.284,18.364 192.508,18.112 C192.592,18 192.816,17.748 193.264,17.636 Z M182.26,10.664 C183.352,10.608 183.492,10.58 183.884,10.58 C183.688,9.796 183.66,9.712 183.66,9.516 C183.66,8.844 184.248,8.564 184.752,8.564 C185.536,8.564 185.648,8.9 186.124,10.636 C186.096,9.964 185.956,6.744 185.928,6.156 C185.172,7.248 183.632,9.236 182.26,10.664 Z M189.848,10.104 C190.296,9.516 191.164,8.396 191.5,7.976 C191.248,7.668 189.932,6.268 189.624,5.96 C189.68,7.164 189.764,9.264 189.848,10.104 Z M210.88,21.696 L207.24,21.696 L207.24,25.644 C207.24,26.288 207.156,27.688 205.364,27.688 C203.964,27.688 203.264,27.212 203.264,25.644 L203.264,13.548 C203.264,10.636 203.796,10.076 206.708,10.076 L211.272,10.076 C214.156,10.076 214.744,10.608 214.744,13.548 L214.744,24.104 C214.744,26.904 214.212,27.576 211.216,27.576 C210.796,27.576 209.816,27.576 209.312,27.436 C208.528,27.184 208.36,26.176 208.36,25.616 C208.36,23.908 209.368,23.88 209.956,23.88 C210.656,23.852 210.88,23.852 210.88,23.208 L210.88,21.696 Z M207.24,13.772 L207.24,14.696 L210.88,14.696 L210.88,13.772 C210.88,13.436 210.74,13.24 210.348,13.24 L207.772,13.24 C207.408,13.24 207.24,13.464 207.24,13.772 Z M210.88,18.868 L210.88,17.328 L207.24,17.328 L207.24,18.868 L210.88,18.868 Z M203.712,5.708 C203.768,5.568 204.384,4.14 204.804,3.104 C205.504,1.396 205.672,0.948 206.876,0.948 C207.856,0.948 209.06,1.424 209.06,2.488 C209.06,2.908 208.892,3.272 208.528,3.944 C208.248,4.42 207.912,4.98 207.576,5.568 C208.584,5.512 209.844,5.456 210.824,5.372 C210.376,4.532 210.152,4 210.152,3.552 C210.152,2.572 211.244,2.04 212.084,2.04 C213.064,2.04 213.4,2.432 214.744,4.98 C215.78,6.912 216.032,7.388 216.032,8.004 C216.032,9.208 214.772,9.852 213.96,9.852 C212.896,9.852 212.588,9.152 212.252,8.396 C209.508,8.816 204.636,9.264 203.544,9.264 C203.264,9.264 202.76,9.264 202.424,8.816 C202.06,8.34 202.004,7.696 202.004,7.388 C202.004,5.82 203.012,5.736 203.712,5.708 Z M220.54,7.444 L220.54,9.096 C220.54,9.964 220.96,9.964 221.884,9.964 C222.276,9.964 223.956,9.964 224.18,9.852 C224.572,9.712 224.628,9.488 224.852,8.284 C225.076,7.164 225.188,6.436 226.7,6.436 C227.092,6.436 227.652,6.52 228.184,6.8 C228.856,7.192 228.912,7.724 228.912,8.172 C228.912,8.62 228.688,11.672 227.764,12.736 C227.008,13.604 226.224,13.604 222.836,13.604 C221.94,13.604 219.448,13.604 218.804,13.548 C216.34,13.268 216.34,11.168 216.34,10.496 L216.34,3.02 C216.34,2.152 216.536,0.948 218.272,0.948 C219.812,0.948 220.54,1.396 220.54,3.02 L220.54,3.972 C221.772,3.636 222.92,3.16 224.152,2.572 C225.58,1.9 225.804,1.76 226.28,1.76 C227.344,1.76 228.072,2.908 228.072,3.888 C228.072,5.008 227.288,5.372 225.86,5.876 C223.2,6.8 222.136,7.052 220.54,7.444 Z M220.54,20.576 L220.54,22.676 C220.54,23.572 220.876,23.572 222.612,23.572 C224.404,23.572 224.488,23.544 224.656,22.116 C224.852,20.632 224.964,19.764 226.616,19.764 C226.84,19.764 228.856,19.764 228.856,21.444 C228.856,21.808 228.604,25.336 227.652,26.456 C226.98,27.212 226,27.38 222.472,27.38 C221.464,27.38 218.86,27.352 218.048,27.072 C216.368,26.54 216.368,25 216.368,24.076 L216.368,15.9 C216.368,15.032 216.564,13.856 218.3,13.856 C219.672,13.856 220.54,14.22 220.54,15.844 L220.54,16.992 C221.8,16.516 222.92,16.096 224.124,15.396 C225.496,14.612 225.664,14.528 226.196,14.528 C227.372,14.528 228.044,15.872 228.044,16.656 C228.044,17.468 227.708,17.916 225.636,18.784 C224.096,19.456 222.36,19.988 220.54,20.576 Z M242.468,4.532 C242.692,4 242.972,3.16 243.224,2.628 C243.392,2.236 243.784,1.592 245.24,1.592 C246.248,1.592 247.508,1.956 247.508,3.244 C247.508,3.692 247.284,4.224 247.2,4.42 C250.028,4.336 255.04,4.14 255.656,4.14 C256.692,4.14 257.812,4.588 257.812,6.156 C257.812,7.864 256.552,8.06 256.132,8.116 C255.46,8.228 247.872,8.452 244.904,8.508 C244.12,9.74 244.092,9.796 243.616,10.608 C245.324,9.656 246.78,9.628 247.172,9.628 C247.76,9.628 248.768,9.74 249.636,10.244 C250.672,10.86 251.148,11.728 251.316,12.036 C252.968,11.448 255.768,10.58 256.832,10.58 C258.736,10.58 258.82,12.484 258.82,12.848 C258.82,14.556 257.616,14.836 256.552,15.06 C253.5,15.732 253.416,15.76 252.128,16.124 C252.212,17.216 252.268,18.336 252.268,18.896 C252.268,20.184 252.268,21.752 250.14,21.752 C248.068,21.752 248.012,20.24 247.984,19.792 C247.956,19.204 247.984,18.224 247.984,17.636 C245.548,18.7 243.84,19.68 243.84,21.276 C243.84,22.536 245.66,22.844 248.544,22.844 C250.504,22.844 252.436,22.592 254.368,22.312 C254.844,22.228 255.236,22.228 255.432,22.228 C256.888,22.228 257.308,23.208 257.308,24.244 C257.308,25.784 256.328,26.064 255.964,26.176 C253.836,26.82 250.252,26.82 249.44,26.82 C245.24,26.82 243.56,26.512 242.048,25.896 C240.34,25.224 239.136,23.768 239.136,21.892 C239.136,17.692 243.896,15.172 247.172,13.688 C246.752,13.268 246.192,13.072 245.604,13.072 C242.468,13.072 240.172,15.984 239.472,16.88 C239.22,17.188 238.212,18.532 237.988,18.812 C237.624,19.232 237.092,19.652 236.252,19.652 C234.992,19.652 234.124,18.532 234.124,17.496 C234.124,16.6 234.6,16.068 236.112,14.416 C237.54,12.848 238.408,11.728 240.424,8.592 C239.92,8.592 237.708,8.62 237.26,8.62 C236.644,8.62 234.936,8.62 234.936,6.576 C234.936,4.616 236.56,4.588 237.176,4.588 C240.452,4.56 240.816,4.56 242.468,4.532 Z M282.54,3.412 L285.956,3.412 C288.84,3.412 289.4,3.944 289.4,6.884 L289.4,8.396 C289.4,11.28 288.896,11.868 285.956,11.868 L277.36,11.868 L277.36,13.156 L286.404,13.156 C289.316,13.156 289.876,13.688 289.876,16.6 L289.876,18.336 C289.876,21.22 289.344,21.808 286.404,21.808 L276.688,21.808 C273.748,21.808 273.244,21.22 273.244,18.336 L273.244,6.884 C273.244,4 273.748,3.412 276.688,3.412 L278.144,3.412 C278.2,3.216 278.508,2.292 278.592,2.096 C278.732,1.732 279.068,0.92 280.692,0.92 C282.148,0.92 282.904,1.34 282.904,2.236 C282.904,2.516 282.848,2.796 282.54,3.412 Z M277.36,7.416 L277.36,8.62 L284.78,8.62 C285.116,8.62 285.228,8.452 285.228,8.144 L285.228,7.416 C285.228,7.192 285.172,6.968 284.78,6.968 L277.808,6.968 C277.472,6.968 277.36,7.164 277.36,7.416 Z M285.228,16.46 L277.36,16.46 L277.36,17.832 C277.36,18.168 277.528,18.28 277.808,18.28 L285.228,18.28 C285.424,18.28 285.676,18.224 285.676,17.832 L285.676,16.908 C285.676,16.572 285.508,16.46 285.228,16.46 Z M264.648,3.3 C264.648,2.74 265.46,1.312 266.86,1.312 C267.364,1.312 267.924,1.312 270.696,3.804 C272.124,5.092 272.544,5.512 272.544,6.38 C272.544,7.444 271.592,8.732 270.304,8.732 C269.52,8.732 269.38,8.592 267.98,7.276 C267.532,6.828 265.404,5.008 265.04,4.588 C264.732,4.252 264.648,3.916 264.648,3.3 Z M276.604,22.956 L288.868,22.956 C290.884,22.956 290.912,24.608 290.912,24.972 C290.912,25.224 290.912,27.016 288.868,27.016 L276.716,27.016 C274.252,27.016 271.872,26.68 270.108,24.216 C269.716,24.832 269.408,25.28 268.624,26.092 C267.7,27.072 267.28,27.436 266.496,27.436 C265.096,27.436 264.116,26.12 264.116,24.888 C264.116,23.908 264.452,23.656 265.824,22.564 C266.048,22.396 267.28,21.36 267.532,21.164 L267.532,16.04 C267.532,15.844 267.532,15.312 267.028,15.312 L266.216,15.312 C264.9,15.312 264.284,14.556 264.284,13.408 C264.284,11.896 264.844,11.224 266.356,11.224 L268.26,11.224 C271.172,11.224 271.732,11.756 271.732,14.696 L271.732,19.792 C272.068,22.956 275.624,22.956 276.604,22.956 Z M298.672,9.908 L297.244,9.908 C296.292,9.908 295.2,9.684 295.2,8.004 C295.2,6.464 295.62,5.736 297.244,5.736 L298.672,5.736 L298.672,3.048 C298.672,2.32 298.784,0.976 300.548,0.976 C302.032,0.976 302.76,1.452 302.76,3.048 L302.76,5.736 L304.664,5.736 C306.12,5.736 307.156,5.736 307.94,6.632 C308.584,7.36 308.612,8.032 308.612,10.3 C308.612,12.316 308.472,18.476 308.332,20.632 C307.94,26.736 307.38,27.632 303.6,27.632 C302.956,27.632 301.808,27.632 301.332,27.324 C300.912,27.072 300.436,26.316 300.436,25.224 C300.436,24.804 300.52,23.796 301.22,23.376 C301.444,23.236 301.724,23.152 302.172,23.152 C303.264,23.152 303.488,23.152 303.768,22.48 C304.3,21.22 304.44,13.38 304.44,10.776 C304.44,9.992 304.328,9.908 303.628,9.908 L302.76,9.908 C302.592,18.084 301.248,21.808 300.352,24.02 C299.204,26.82 298.42,27.38 297.524,27.38 C296.292,27.38 294.976,26.344 294.976,25.224 C294.976,24.58 295.284,24.048 295.76,23.208 C296.796,21.388 298.672,18.028 298.672,9.908 Z M320.792,6.016 L320.792,23.32 C320.792,26.26 319.448,27.072 317.068,27.072 L313.764,27.072 C311.468,27.072 310.012,26.316 310.012,23.32 L310.012,6.016 C310.012,3.076 311.384,2.292 313.764,2.292 L317.068,2.292 C319.476,2.292 320.792,3.132 320.792,6.016 Z M316.76,22.088 L316.76,7.276 C316.76,6.716 316.452,6.38 315.892,6.38 L314.912,6.38 C314.352,6.38 314.044,6.716 314.044,7.276 L314.044,22.088 C314.044,22.648 314.352,22.956 314.912,22.956 L315.892,22.956 C316.424,22.956 316.76,22.704 316.76,22.088 Z M345.856,8.508 L345.856,14.444 C346.108,15.2 346.472,16.292 346.472,18 C346.472,22.956 343.476,25.7 338.296,26.512 C336.224,26.848 334.432,26.904 334.04,26.904 C333.508,26.904 331.548,26.904 331.548,24.72 C331.548,22.9 332.836,22.9 334.264,22.9 C335.888,22.872 338.296,22.76 340.032,21.864 C341.432,21.136 341.768,20.1 341.908,19.652 C341.04,20.296 340.172,20.968 337.708,20.968 C333.704,20.968 330.82,18.784 330.82,15.368 C330.82,12.372 333.228,9.796 337.82,9.796 C338.8,9.796 340.116,9.88 341.46,10.384 L341.432,8.62 C336.476,8.704 334.712,8.76 331.66,8.76 C328.832,8.76 328.58,8.732 328.16,8.62 C327.74,8.508 326.956,8.144 326.956,6.716 C326.956,4.728 328.468,4.7 329.476,4.7 C330.204,4.7 333.396,4.728 334.068,4.728 C337.092,4.7 338.324,4.672 341.348,4.616 L341.32,3.86 C341.292,3.272 341.264,1.564 343.56,1.564 C345.856,1.564 345.856,3.216 345.856,3.804 L345.856,4.504 C346.472,4.504 349.244,4.392 349.832,4.392 C350.756,4.392 352.016,4.588 352.016,6.38 C352.016,8.256 350.728,8.396 349.776,8.424 C349.216,8.452 348.88,8.452 345.856,8.508 Z M338.296,17.608 C339.864,17.608 341.46,16.964 341.46,15.368 C341.46,13.212 338.828,13.128 338.38,13.128 C337.12,13.128 335.16,13.66 335.16,15.368 C335.16,17.384 337.596,17.608 338.296,17.608 Z M371.172,10.608 C371.844,10.384 372.656,10.216 373.804,10.216 C375.232,10.216 376.8,10.496 378.284,11.168 C381,12.372 382.288,15.172 382.288,17.972 C382.288,20.156 381.504,23.796 377.304,25.7 C375.26,26.624 373.02,26.876 370.808,26.876 C367.364,26.876 365.712,26.176 364.536,25.448 C363.304,24.664 362.576,23.32 362.576,21.864 C362.576,18.42 365.544,16.852 368.736,16.852 C370.5,16.852 374.42,17.328 374.42,21.584 C374.42,21.948 374.364,22.228 374.28,22.62 C377.304,21.808 377.612,19.232 377.612,18.364 C377.612,17.216 377.164,15.368 375.148,14.528 C374.056,14.052 372.74,14.024 372.012,14.024 C369.772,14.024 366.636,14.528 363.108,17.72 C361.26,19.428 361.092,19.54 360.364,19.54 C359.272,19.54 358.04,18.56 358.04,17.16 C358.04,16.208 358.376,15.956 360.364,14.5 C364.032,11.84 366.748,9.796 369.744,7.416 C370.08,7.164 370.304,6.968 370.696,6.604 C369.436,6.632 363.388,7.08 362.772,7.08 C362.1,7.08 360.532,7.024 360.532,4.924 C360.532,2.936 362.016,2.824 362.912,2.796 C370.164,2.684 370.808,2.684 374.308,2.544 C374.588,2.544 375.204,2.516 375.792,2.516 C376.632,2.516 378.396,2.544 378.396,4.476 C378.396,5.932 378.032,6.156 374.84,8.088 C373.132,9.124 371.9,10.076 371.172,10.608 Z M370.836,23.18 C370.976,22.592 370.976,22.368 370.976,22.228 C370.976,20.716 369.912,20.296 368.764,20.296 C367.504,20.296 366.496,20.856 366.496,21.752 C366.496,22.676 367.7,23.32 369.66,23.32 C370.08,23.32 370.36,23.264 370.836,23.18 Z M394.64,5.344 C395.032,3.02 395.06,2.768 395.368,2.376 C395.788,1.816 396.432,1.676 397.048,1.676 C398.14,1.676 399.428,2.012 399.428,3.552 C399.428,3.944 399.344,4.392 399.204,5.232 C401.444,5.176 404.16,5.12 405.924,5.036 C406.26,5.036 407.772,4.924 408.08,4.924 C408.64,4.924 410.292,4.952 410.292,7.024 C410.292,8.928 408.892,9.04 408.024,9.096 C405.14,9.236 401.584,9.348 398.392,9.432 C397.664,12.988 394.248,24.972 393.1,26.176 C392.904,26.4 392.456,26.736 391.7,26.736 C390.916,26.736 389.124,26.316 389.124,24.72 C389.124,24.104 389.572,23.096 389.852,22.508 C390.972,19.988 392.344,15.788 393.1,12.904 C393.408,11.7 393.744,10.216 393.912,9.516 C392.316,9.572 390.692,9.572 390.16,9.264 C389.432,8.844 389.32,8.004 389.32,7.472 C389.32,5.736 390.216,5.344 391.616,5.344 L394.64,5.344 Z M413.008,13.772 C413.008,14.192 412.812,14.948 412.308,15.34 C411.944,15.648 411.552,15.704 410.908,15.704 C410.432,15.704 408.332,15.592 407.912,15.592 C406.148,15.592 405.392,15.648 402.732,15.844 C402.564,15.872 402.116,15.9 401.724,15.9 C399.876,15.9 399.876,14.08 399.876,13.8 C399.876,12.932 400.24,12.12 401.556,11.812 C403.32,11.42 406.596,11.336 408.472,11.336 C412.7,11.336 413.008,12.036 413.008,13.772 Z M413.792,24.048 C413.792,26.036 412.812,26.512 407.8,26.512 C401.164,26.512 398.252,25.448 398.252,21.78 C398.252,21.416 398.28,18.364 401.024,18.364 C402.032,18.364 403.124,18.784 403.124,19.792 C403.124,20.072 403.04,20.296 402.984,20.436 C402.816,20.884 402.788,20.996 402.788,21.248 C402.788,21.752 403.096,22.088 404.104,22.256 C404.86,22.396 405.812,22.424 406.456,22.424 C407.24,22.424 408.724,22.368 410.572,22.144 C410.908,22.116 411.524,22.032 411.832,22.032 C413.092,22.032 413.792,22.732 413.792,24.048 Z M430.092,21.864 C427.768,24.608 426.2,25.084 424.772,25.084 C421.972,25.084 419.816,22.76 419.816,18.56 C419.816,15.368 421.076,12.316 423.344,10.104 C423.036,8.872 422.308,6.212 422.308,5.148 C422.308,3.188 424.184,3.132 424.632,3.132 C425.808,3.132 426.116,3.72 426.34,4.364 C426.48,4.84 426.844,7.164 426.928,7.612 C428.636,6.772 430.484,6.324 432.416,6.1 C432.612,4.868 432.92,3.076 433.256,2.488 C433.648,1.816 434.292,1.62 435.048,1.62 C436.448,1.62 437.484,2.292 437.484,3.384 C437.484,3.944 437.008,5.82 436.84,6.352 C442.636,7.444 445.072,11.084 445.072,15.928 C445.072,19.26 443.868,22.564 441.124,24.412 C438.212,26.372 434.768,26.624 433.9,26.624 C431.772,26.624 431.716,24.804 431.716,24.412 C431.716,22.788 432.528,22.676 434.096,22.424 C436.14,22.116 440.816,21.416 440.816,15.732 C440.816,11 437.288,10.384 435.804,10.104 C435.216,11.812 433.76,15.984 432.472,18.336 C433.228,18.952 433.592,19.288 433.592,19.988 C433.592,21.22 432.416,22.368 431.492,22.368 C431.128,22.368 430.596,22.2 430.092,21.864 Z M427.488,19.064 C426.424,17.608 425.556,16.152 424.8,14.304 C424.016,15.592 423.652,17.272 423.652,18.392 C423.652,19.624 423.932,20.968 425.08,20.968 C425.724,20.968 426.228,20.688 427.488,19.064 Z M427.824,11.364 C428.636,13.688 429.476,15.032 429.7,15.396 C430.26,14.164 431.016,12.288 431.576,10.076 C430.736,10.216 429.308,10.468 427.824,11.364 Z M465.852,6.856 C465.264,11.588 463.724,17.664 461.736,20.744 C460.252,23.068 458.6,24.188 456.472,24.188 C452.412,24.188 450.676,20.072 450.676,15.9 C450.676,6.856 457.452,2.628 464.228,2.628 C472.46,2.628 476.296,7.808 476.296,14.36 C476.296,24.832 466.58,26.372 464.396,26.372 C462.212,26.372 462.156,24.384 462.156,24.076 C462.156,22.284 463.416,22.088 464.34,21.948 C466.692,21.584 471.62,20.856 471.62,14.108 C471.62,9.292 468.848,7.136 465.852,6.856 Z M461.484,6.968 C455.492,8.592 454.988,14.052 454.988,15.928 C454.988,18.224 455.856,19.372 456.724,19.372 C457.872,19.372 458.684,17.608 459.3,15.928 C460.7,12.064 461.148,9.264 461.484,6.968 Z M496.292,11.448 L496.292,12.512 L503.18,12.512 C503.572,12.512 505.168,12.512 505.168,13.996 C505.168,15.228 504.16,15.508 503.18,15.508 L496.068,15.508 C495.984,16.208 495.928,16.404 495.9,16.6 L505.7,16.6 C506.148,16.6 507.772,16.628 507.772,18.42 C507.772,19.82 506.82,20.24 505.7,20.24 L498.924,20.24 C501.248,22.284 503.292,22.76 505.896,23.376 C506.764,23.6 507.408,24.16 507.408,25.112 C507.408,25.28 507.38,27.492 505.364,27.492 C504.524,27.492 497.804,26.12 494.444,20.884 C491.924,25.756 485.288,27.492 483.664,27.492 C482.208,27.492 481.648,26.092 481.648,25.196 C481.648,24.272 482.068,23.6 483.16,23.348 C486.464,22.62 486.828,22.508 487.948,21.948 C489.264,21.276 489.88,20.576 490.16,20.24 L483.272,20.24 C482.264,20.24 481.2,19.876 481.2,18.448 C481.2,17.076 482.124,16.6 483.272,16.6 L491.812,16.6 C491.84,16.488 491.952,16.012 492.036,15.508 L485.68,15.508 C485.148,15.508 483.72,15.452 483.72,14.024 C483.72,12.82 484.7,12.512 485.68,12.512 L492.204,12.512 L492.204,11.448 L486.856,11.448 C486.464,11.448 485.092,11.448 484.924,10.104 C484.56,10.244 484.196,10.3 483.832,10.3 C482.236,10.3 481.732,9.656 481.732,8.032 L481.732,6.66 C481.732,3.692 482.376,2.964 485.428,2.964 L492.316,2.964 C492.316,2.236 492.316,1.004 494.276,1.004 C496.544,1.004 496.544,2.012 496.544,2.964 L503.6,2.964 C506.568,2.964 507.296,3.608 507.296,6.66 L507.296,7.976 C507.296,9.32 507.072,10.3 505.252,10.3 C504.888,10.3 504.384,10.272 503.936,10.076 C503.796,11.392 502.536,11.448 502.004,11.448 L496.292,11.448 Z M496.292,7.752 L496.292,8.2 L502.004,8.2 C502.592,8.2 502.76,8.256 503.124,8.396 C503.096,8.2 503.096,8.144 503.096,7.976 L503.096,7.08 C503.096,6.688 502.9,6.492 502.508,6.492 L495.816,6.492 C495.956,6.604 496.292,6.94 496.292,7.752 Z M492.204,8.2 L492.204,7.752 C492.204,6.94 492.568,6.604 492.68,6.492 L486.408,6.492 C486.044,6.492 485.82,6.66 485.82,7.08 L485.82,8.34 C486.1,8.256 486.296,8.2 486.856,8.2 L492.204,8.2 Z M533.62,10.44 L532.976,10.44 L532.976,11.504 L534.488,11.504 C537.428,11.504 537.96,12.064 537.96,14.976 L537.96,16.74 C537.96,19.848 537.288,20.212 534.264,20.212 C535.3,22.088 536.28,22.76 537.932,23.768 C538.38,24.048 538.912,24.412 538.912,25.336 C538.912,26.176 538.324,27.604 536.812,27.604 C535.664,27.604 532.976,25.7 531.268,22.508 C529.784,25.392 527.04,27.604 525.696,27.604 C524.212,27.604 523.624,26.176 523.624,25.336 C523.624,24.384 524.212,24.02 524.688,23.74 C526.48,22.676 527.376,22.032 528.3,20.212 C525.36,20.212 524.66,19.848 524.66,16.74 L524.66,14.976 C524.66,12.092 525.192,11.504 528.104,11.504 L529.392,11.504 L529.392,10.44 L528.608,10.44 C527.852,10.44 527.348,10.272 527.012,9.544 C526.144,10.328 525.752,10.58 525.192,10.58 C524.436,10.58 523.764,10.076 523.372,9.292 C523.092,9.432 522.98,9.488 522.448,9.488 L521.02,9.488 L521.02,10.664 L522.392,10.664 C522.756,10.664 523.876,10.664 523.876,12.064 C523.876,13.492 522.784,13.492 522.392,13.492 L521.02,13.492 L521.02,14.78 L521.524,14.78 C523.568,14.78 524.212,15.48 524.212,17.244 C524.212,18.224 524.072,23.6 523.372,25.532 C522.756,27.268 521.748,27.604 519.256,27.604 C517.688,27.604 517.268,27.548 516.848,27.072 C516.512,26.708 516.4,25.98 516.4,25.532 C516.4,24.356 516.932,23.712 518.024,23.712 C518.304,23.712 519.424,23.74 519.676,23.74 C520.096,23.684 520.74,23.656 520.964,22.06 C521.076,21.276 521.244,19.064 521.244,18.672 C521.244,18.056 521.02,18 520.516,18 L516.316,18 C513.6,18 513.068,17.468 513.068,14.556 L513.068,5.372 C513.068,2.488 513.572,1.9 516.316,1.9 L523.12,1.9 C523.652,1.9 524.772,1.928 524.772,3.664 C524.772,5.428 523.708,5.456 523.12,5.456 L521.02,5.456 L521.02,6.66 L522.448,6.66 C523.176,6.66 523.372,6.828 523.568,7.024 C523.848,6.688 525.444,5.568 525.724,5.288 C526.928,4.14 527.18,3.832 528.552,2.068 C529.224,1.2 530.12,0.948 531.1,0.948 C532.78,0.948 533.34,1.592 533.788,2.152 C535.776,4.532 535.832,4.588 538.072,6.38 C538.744,6.912 538.996,7.36 538.996,8.088 C538.996,9.292 538.156,10.44 537.064,10.44 C536.392,10.44 535.944,10.048 535.272,9.46 C534.936,10.384 534.208,10.44 533.62,10.44 Z M518.136,10.664 L518.136,9.488 L516.344,9.488 L516.344,10.664 L518.136,10.664 Z M516.344,5.988 L516.344,6.66 L518.136,6.66 L518.136,5.456 L516.848,5.456 C516.512,5.456 516.344,5.68 516.344,5.988 Z M518.136,13.492 L516.344,13.492 L516.344,14.248 C516.344,14.584 516.512,14.78 516.848,14.78 L518.136,14.78 L518.136,13.492 Z M534.152,14.892 L532.976,14.892 C532.948,15.592 532.92,16.096 532.864,16.824 L534.152,16.824 C534.488,16.824 534.684,16.628 534.684,16.292 L534.684,15.424 C534.684,15.088 534.488,14.892 534.152,14.892 Z M529.392,14.892 L528.188,14.892 C527.852,14.892 527.656,15.06 527.656,15.424 L527.656,16.292 C527.656,16.628 527.824,16.824 528.188,16.824 L529.28,16.824 C529.336,16.208 529.392,15.704 529.392,14.892 Z M529.448,7.024 L532.948,7.024 C532.276,6.156 532.108,5.96 531.66,5.288 C531.408,4.896 531.38,4.84 531.184,4.84 C531.044,4.84 530.988,4.924 530.792,5.232 C530.4,5.876 529.84,6.52 529.448,7.024 Z M515.84,18.504 C516.316,18.504 516.54,18.644 516.624,19.12 C516.68,19.4 516.764,20.576 516.764,22.312 C516.764,23.628 516.764,24.3 515.924,24.3 C515.448,24.3 515.168,24.104 515.168,23.572 C515.168,23.096 515.252,20.94 515.252,20.52 C515.252,20.268 515.224,19.232 515.252,19.036 C515.336,18.588 515.756,18.504 515.84,18.504 Z M513.768,18.392 C514.58,18.392 514.58,19.204 514.58,19.624 C514.58,20.016 514.552,23.152 514.132,25.336 C514.048,25.812 513.852,26.316 513.124,26.316 C512.62,26.316 512.088,26.036 512.088,25.28 C512.088,24.888 512.48,23.208 512.536,22.872 C512.704,21.864 512.76,21.472 512.872,19.68 C512.928,19.008 512.956,18.392 513.768,18.392 Z M517.8,18.504 C518.332,18.504 518.444,18.588 518.584,19.484 C518.78,20.716 518.836,22.032 518.836,22.592 C518.836,22.844 518.836,23.32 518.164,23.32 C517.548,23.32 517.436,22.788 517.436,22.48 C517.436,21.36 517.464,20.996 517.38,20.408 C517.352,20.212 517.24,19.288 517.24,19.176 C517.24,18.504 517.716,18.504 517.8,18.504 Z M519.732,18.42 C520.292,18.392 520.348,18.672 520.488,19.68 C520.572,20.268 520.74,21.22 520.74,22.172 C520.74,22.424 520.74,22.844 520.096,22.844 C519.564,22.844 519.536,22.676 519.452,21.304 C519.424,20.94 519.172,19.008 519.172,18.896 C519.172,18.7 519.312,18.42 519.732,18.42 Z M561.652,4.924 L568.036,4.924 C569.604,4.924 569.912,6.128 569.912,6.996 C569.912,8.62 569.044,9.18 568.456,9.18 L567.98,9.18 C567.784,12.68 567.504,16.46 565.152,20.352 C565.628,20.828 566.132,21.304 568.652,23.124 C569.464,23.712 569.688,24.104 569.688,24.748 C569.688,25.98 568.652,27.464 567.392,27.464 C566.888,27.464 566.412,27.464 564.312,25.7 C563.332,24.86 562.772,24.244 562.408,23.796 C560.42,25.756 557.564,27.492 556.416,27.492 C555.408,27.492 554.596,26.68 554.316,25.644 C553.672,27.548 552.132,27.576 551.012,27.576 C549.08,27.576 547.68,27.576 547.68,25.364 C547.68,24.748 547.764,23.376 549.248,23.376 C550.172,23.376 550.564,23.292 550.732,22.228 C551.012,20.576 551.124,17.3 551.124,15.508 C551.124,14.948 550.76,14.948 550.564,14.948 L549.332,14.948 C549.136,18.028 548.744,21.136 547.792,24.076 C546.98,26.624 546.504,27.296 545.496,27.296 C544.236,27.296 542.976,26.288 542.976,25.112 C542.976,24.636 543.144,24.3 543.508,23.572 C544.992,20.52 545.552,16.964 545.552,13.296 L545.552,8.732 L545.02,8.732 C543.956,8.732 543.088,8.2 543.088,6.8 C543.088,5.092 544.208,4.84 545.16,4.84 L547.512,4.84 L547.512,2.712 C547.512,1.48 548.24,0.948 549.416,0.948 C550.648,0.948 551.6,1.228 551.6,2.712 L551.6,4.84 L553.868,4.84 C554.708,4.84 555.884,5.008 555.884,6.632 C555.884,7.976 555.492,8.732 553.868,8.732 L549.416,8.732 L549.416,11.196 L552.272,11.196 C553.084,11.196 553.588,11.196 554.176,11.616 C554.4,11.168 555.604,9.208 555.8,8.788 C556.752,6.94 557.088,5.736 558.04,2.32 C558.264,1.536 558.46,0.892 559.888,0.892 C560.084,0.892 562.156,0.892 562.156,2.516 C562.156,3.02 561.96,3.804 561.652,4.924 Z M564.06,9.18 L560.392,9.18 C560.644,10.86 561.232,13.884 562.548,16.572 C563.444,14.64 563.92,12.764 564.06,9.18 Z M559.916,20.184 C558.88,18.308 558.124,16.264 557.62,14.164 C557.424,14.388 557.004,14.808 556.276,14.808 C555.996,14.808 555.548,14.752 555.044,14.472 C555.044,16.208 554.96,21.108 554.652,23.796 C554.904,23.544 555.24,23.348 555.632,23.152 C557.564,22.144 558.74,21.332 559.916,20.184 Z M593.212,10.888 L598.728,10.888 C599.372,10.888 600.772,10.944 600.772,12.764 C600.772,14.192 600.268,14.864 598.728,14.864 L594.556,14.864 C595.816,16.656 596.348,16.964 599.428,18.868 C599.624,19.008 600.156,19.484 600.156,20.38 C600.156,21.276 599.624,22.732 597.944,22.732 C596.236,22.732 593.1,20.744 591.196,17.048 C590.72,18 590.02,19.4 588.2,20.996 C586.492,22.508 585.68,22.648 585.092,22.648 C583.552,22.648 582.712,21.416 582.712,20.296 C582.712,19.316 582.908,19.176 584.952,17.888 C586.156,17.104 587.22,16.124 587.948,14.864 L583.832,14.864 C583.188,14.864 581.788,14.808 581.788,13.016 C581.788,11.588 582.292,10.888 583.832,10.888 L588.956,10.888 L588.956,8.676 L584.448,8.676 C583.804,8.676 582.432,8.648 582.432,6.772 C582.432,5.484 582.88,4.672 584.336,4.672 L585.82,4.672 C585.708,4.504 585.288,3.776 585.204,3.608 C585.036,3.272 584.896,2.936 584.896,2.572 C584.896,1.592 586.072,0.892 587.248,0.892 C588.088,0.892 588.48,1.172 588.928,1.928 C589.32,2.544 589.88,3.58 589.88,4.168 C589.88,4.392 589.796,4.56 589.768,4.672 L592.344,4.672 C592.624,4.14 592.96,3.524 593.38,2.46 C593.716,1.592 593.996,0.892 595.34,0.892 C596.404,0.892 597.72,1.312 597.72,2.404 C597.72,3.132 597.272,3.832 596.768,4.672 L597.916,4.672 C599.176,4.672 599.904,5.232 599.904,6.52 C599.904,7.948 599.456,8.676 597.86,8.676 L593.212,8.676 L593.212,10.888 Z M576.524,1.368 C577.14,1.284 577.924,1.424 579.94,3.188 C581.984,5.008 582.096,5.4 582.096,6.044 C582.096,7.248 581.032,8.424 579.912,8.424 C579.1,8.424 578.96,8.284 577.532,6.94 C577.14,6.548 575.292,5.008 575.012,4.616 C574.844,4.392 574.704,3.972 574.704,3.58 C574.704,2.6 575.544,1.536 576.524,1.368 Z M586.184,22.928 L598.896,22.928 C600.856,22.928 600.94,24.524 600.94,24.944 C600.94,25.168 600.94,26.988 598.896,26.988 L586.604,26.988 C582.236,26.988 580.892,25.252 580.08,24.188 C579.632,24.86 579.408,25.196 578.568,26.064 C577.7,26.988 577.28,27.38 576.468,27.38 C575.152,27.38 574.088,26.12 574.088,24.804 C574.088,23.824 574.452,23.572 575.684,22.62 C576.272,22.144 577.028,21.556 577.42,21.192 L577.42,16.068 C577.42,15.872 577.42,15.34 576.916,15.34 L576.216,15.34 C574.844,15.34 574.284,14.5 574.284,13.408 C574.284,11.896 574.844,11.224 576.356,11.224 L578.036,11.224 C580.948,11.224 581.508,11.784 581.508,14.696 L581.508,19.792 C581.592,20.464 581.76,21.36 583.048,22.172 C584.196,22.872 585.652,22.928 586.184,22.928 Z M614.468,4.532 C614.692,4 614.972,3.16 615.224,2.628 C615.392,2.236 615.784,1.592 617.24,1.592 C618.248,1.592 619.508,1.956 619.508,3.244 C619.508,3.692 619.284,4.224 619.2,4.42 C622.028,4.336 627.04,4.14 627.656,4.14 C628.692,4.14 629.812,4.588 629.812,6.156 C629.812,7.864 628.552,8.06 628.132,8.116 C627.46,8.228 619.872,8.452 616.904,8.508 C616.12,9.74 616.092,9.796 615.616,10.608 C617.324,9.656 618.78,9.628 619.172,9.628 C619.76,9.628 620.768,9.74 621.636,10.244 C622.672,10.86 623.148,11.728 623.316,12.036 C624.968,11.448 627.768,10.58 628.832,10.58 C630.736,10.58 630.82,12.484 630.82,12.848 C630.82,14.556 629.616,14.836 628.552,15.06 C625.5,15.732 625.416,15.76 624.128,16.124 C624.212,17.216 624.268,18.336 624.268,18.896 C624.268,20.184 624.268,21.752 622.14,21.752 C620.068,21.752 620.012,20.24 619.984,19.792 C619.956,19.204 619.984,18.224 619.984,17.636 C617.548,18.7 615.84,19.68 615.84,21.276 C615.84,22.536 617.66,22.844 620.544,22.844 C622.504,22.844 624.436,22.592 626.368,22.312 C626.844,22.228 627.236,22.228 627.432,22.228 C628.888,22.228 629.308,23.208 629.308,24.244 C629.308,25.784 628.328,26.064 627.964,26.176 C625.836,26.82 622.252,26.82 621.44,26.82 C617.24,26.82 615.56,26.512 614.048,25.896 C612.34,25.224 611.136,23.768 611.136,21.892 C611.136,17.692 615.896,15.172 619.172,13.688 C618.752,13.268 618.192,13.072 617.604,13.072 C614.468,13.072 612.172,15.984 611.472,16.88 C611.22,17.188 610.212,18.532 609.988,18.812 C609.624,19.232 609.092,19.652 608.252,19.652 C606.992,19.652 606.124,18.532 606.124,17.496 C606.124,16.6 606.6,16.068 608.112,14.416 C609.54,12.848 610.408,11.728 612.424,8.592 C611.92,8.592 609.708,8.62 609.26,8.62 C608.644,8.62 606.936,8.62 606.936,6.576 C606.936,4.616 608.56,4.588 609.176,4.588 C612.452,4.56 612.816,4.56 614.468,4.532 Z M639.812,25.616 L639.812,17.72 C639.224,18.224 638.804,18.588 638.132,18.588 C636.984,18.588 635.976,17.328 635.976,16.124 C635.976,15.032 636.592,14.556 637.096,14.164 C638.72,12.904 640.204,11.448 641.464,9.824 C642.892,7.976 643.144,7.64 643.984,7.64 C644.964,7.64 646.14,8.508 646.14,9.628 C646.14,10.076 646.028,10.356 645.636,10.972 C644.908,12.12 644.348,12.82 644.04,13.212 L644.04,25.616 C644.04,27.128 643.368,27.66 641.744,27.66 C639.924,27.66 639.812,26.372 639.812,25.616 Z M658.628,13.492 L658.628,23.628 C658.628,27.408 656.444,27.408 653.42,27.408 C652.244,27.408 650.676,27.38 649.976,27.016 C649.248,26.624 648.94,25.84 648.94,25.168 C648.94,25 648.94,23.096 650.956,23.096 C651.264,23.096 652.58,23.18 652.86,23.18 C653.84,23.18 654.288,23.18 654.288,22.2 L654.288,13.492 L647.904,13.492 C647.4,13.492 645.832,13.492 645.832,11.616 C645.832,10.132 646.42,9.488 647.904,9.488 L660.756,9.488 C661.288,9.488 662.828,9.488 662.828,11.364 C662.828,12.876 662.24,13.492 660.756,13.492 L658.628,13.492 Z M659.776,5.876 L648.996,5.876 C648.52,5.876 646.924,5.876 646.924,4 C646.924,2.516 647.568,1.928 648.996,1.928 L659.776,1.928 C660.224,1.928 661.848,1.928 661.848,3.804 C661.848,5.4 661.064,5.876 659.776,5.876 Z M645.636,3.16 C645.636,3.692 645.636,4.168 643.312,6.296 C642.584,6.968 641.1,8.284 640.148,8.928 C639.532,9.348 639.028,9.6 638.384,9.6 C637.264,9.6 636.172,8.508 636.172,7.304 C636.172,6.352 636.592,6.072 638.076,5.036 C639.896,3.804 640.484,3.216 641.828,1.9 C642.22,1.536 642.64,1.144 643.424,1.144 C644.46,1.144 645.636,1.984 645.636,3.16 Z M672.968,23.936 C672.968,22.9 673.36,21.836 675.068,21.836 C675.32,21.836 676.104,21.892 676.412,21.92 C676.972,21.976 677.504,21.976 678.036,21.976 C681.116,21.976 686.212,21.612 686.212,16.488 C686.212,13.212 684,12.064 681.536,12.064 C678.96,12.064 676.216,12.82 674.816,13.268 C672.268,14.108 671.96,14.192 671.484,14.192 C669.916,14.192 669.496,12.736 669.496,11.896 C669.496,10.384 670.42,10.02 671.708,9.628 C676.524,8.228 680.22,8.088 681.564,8.088 C682.796,8.088 686.128,8.088 688.48,10.524 C690.272,12.4 690.58,14.92 690.58,16.432 C690.58,19.064 689.74,22.116 686.688,24.132 C683.888,25.98 679.1,26.092 677.392,26.092 C674.872,26.092 672.968,26.008 672.968,23.936 Z M711.248,7.668 C709.764,7.78 701.756,8.396 701.028,8.396 C699.572,8.396 698.9,7.388 698.9,6.072 C698.9,4.868 699.32,3.888 700.916,3.72 C702.092,3.608 715.392,3.104 720.824,3.104 C722.364,3.104 723.96,3.104 723.96,5.232 C723.96,7.5 722.448,7.556 720.852,7.556 C719.172,7.584 717.464,7.892 714.944,9.32 C712.06,10.972 709.204,14.08 709.204,17.356 C709.204,20.856 712.088,21.64 716.792,21.64 L719.2,21.64 C720.236,21.64 721.356,22.06 721.356,23.74 C721.356,26.372 719.312,26.372 717.296,26.372 C716.484,26.372 713.908,26.344 711.08,25.616 C709.568,25.224 704.556,23.936 704.556,17.888 C704.556,14.724 705.984,12.428 707.58,10.664 C709.008,9.068 710.184,8.34 711.248,7.668 Z M733.12,2.824 C735.136,2.824 735.136,4.504 735.136,4.896 C735.136,5.232 734.968,6.8 734.94,7.108 C734.856,8.116 734.688,10.412 734.688,12.484 C734.688,16.488 735.276,19.148 735.92,20.24 C736.144,20.604 736.592,20.996 737.236,20.996 C738.468,20.996 739.224,19.708 739.756,18.056 C740.232,16.516 740.428,15.9 741.772,15.9 C743.06,15.9 744.152,16.628 744.152,17.944 C744.152,19.82 742.696,22.424 741.884,23.488 C741.296,24.244 739.812,26.148 737.012,26.148 C730.292,26.148 730.292,14.808 730.292,11.532 C730.292,10.048 730.404,5.4 730.712,4.336 C731.104,2.908 732.056,2.824 733.12,2.824 Z M752.636,24.188 C750.228,24.188 750.228,22.564 750.228,21.584 C750.228,16.208 750.228,9.88 747.148,8.844 C746.868,8.76 745.552,8.564 745.272,8.508 C744.628,8.34 743.956,7.92 743.956,6.464 C743.956,5.4 744.404,4.224 746.252,4.224 C747.736,4.224 750.956,4.868 752.748,7.808 C754.54,10.748 754.988,16.712 754.988,21.388 C754.988,22.424 754.904,24.188 752.636,24.188 Z M776.272,8.424 L776.328,10.412 C777.252,10.384 781.424,10.3 782.264,10.244 C782.376,10.244 782.852,10.216 783.048,10.216 C784.056,10.216 785.008,10.608 785.008,12.12 C785.008,13.94 783.776,14.024 782.18,14.052 C781.284,14.08 777.224,14.164 776.384,14.192 L776.44,16.908 C779.408,17.86 782.684,19.988 784.28,21.304 C785.148,22.032 785.288,22.676 785.288,23.124 C785.288,24.356 784.308,25.672 782.964,25.672 C782.292,25.672 781.9,25.476 780.948,24.636 C780.472,24.216 779.268,23.264 778.036,22.396 C777.308,21.892 776.888,21.696 776.44,21.444 C776.328,23.096 776.104,26.68 769.944,26.68 C764.68,26.68 761.824,24.412 761.824,21.276 C761.824,18.196 764.652,15.844 769.832,15.844 C770.84,15.844 771.512,15.928 771.96,15.984 L771.932,14.276 C770.812,14.276 765.968,14.332 764.96,14.332 C763.644,14.332 763.028,14.332 762.58,14.08 C762.104,13.8 761.796,13.212 761.796,12.4 C761.796,11.028 762.636,10.524 763.784,10.524 C766.024,10.524 769.608,10.496 771.848,10.496 L771.792,8.508 C770.756,8.508 766.22,8.564 765.268,8.564 L764.596,8.564 C763.392,8.564 762.776,8.564 762.356,8.312 C761.824,8.004 761.544,7.36 761.544,6.632 C761.544,4.7 763.056,4.7 763.84,4.7 C764.092,4.7 765.156,4.728 765.38,4.728 C766.388,4.7 770.812,4.672 771.736,4.672 L771.708,3.608 C771.652,1.872 773.108,1.648 773.92,1.648 C775.068,1.648 776.132,2.012 776.188,3.608 L776.216,4.588 C777.196,4.56 781.592,4.476 782.488,4.42 C782.544,4.42 783.104,4.392 783.3,4.392 C784.14,4.392 785.26,4.672 785.26,6.324 C785.26,8.144 784.056,8.2 782.908,8.256 C781.872,8.312 777.224,8.396 776.272,8.424 Z M771.988,19.68 C771.512,19.512 770.784,19.26 769.552,19.26 C768.796,19.26 766.024,19.372 766.024,21.136 C766.024,22.312 767.34,22.9 769.356,22.9 C770.196,22.9 771.26,22.788 771.708,22.06 C771.96,21.612 771.988,21.164 771.988,19.68 Z M810.856,8.508 L810.856,14.444 C811.108,15.2 811.472,16.292 811.472,18 C811.472,22.956 808.476,25.7 803.296,26.512 C801.224,26.848 799.432,26.904 799.04,26.904 C798.508,26.904 796.548,26.904 796.548,24.72 C796.548,22.9 797.836,22.9 799.264,22.9 C800.888,22.872 803.296,22.76 805.032,21.864 C806.432,21.136 806.768,20.1 806.908,19.652 C806.04,20.296 805.172,20.968 802.708,20.968 C798.704,20.968 795.82,18.784 795.82,15.368 C795.82,12.372 798.228,9.796 802.82,9.796 C803.8,9.796 805.116,9.88 806.46,10.384 L806.432,8.62 C801.476,8.704 799.712,8.76 796.66,8.76 C793.832,8.76 793.58,8.732 793.16,8.62 C792.74,8.508 791.956,8.144 791.956,6.716 C791.956,4.728 793.468,4.7 794.476,4.7 C795.204,4.7 798.396,4.728 799.068,4.728 C802.092,4.7 803.324,4.672 806.348,4.616 L806.32,3.86 C806.292,3.272 806.264,1.564 808.56,1.564 C810.856,1.564 810.856,3.216 810.856,3.804 L810.856,4.504 C811.472,4.504 814.244,4.392 814.832,4.392 C815.756,4.392 817.016,4.588 817.016,6.38 C817.016,8.256 815.728,8.396 814.776,8.424 C814.216,8.452 813.88,8.452 810.856,8.508 Z M803.296,17.608 C804.864,17.608 806.46,16.964 806.46,15.368 C806.46,13.212 803.828,13.128 803.38,13.128 C802.12,13.128 800.16,13.66 800.16,15.368 C800.16,17.384 802.596,17.608 803.296,17.608 Z M21.952,53.808 L25.592,53.808 C26.096,53.808 27.384,53.808 27.384,55.572 C27.384,57.112 26.544,57.392 25.592,57.392 L20.636,57.392 C22.484,59.1 24.36,59.856 26.152,60.584 C26.6,60.78 27.44,61.088 27.44,62.376 C27.44,63.328 26.88,64.728 25.592,64.728 C25.144,64.728 24.696,64.532 24.332,64.364 L24.332,69.88 C24.332,72.96 22.148,73.072 20.944,73.072 L7.028,73.072 C5.852,73.072 3.64,72.96 3.64,69.88 L3.64,64.448 C3.472,64.532 3.052,64.728 2.548,64.728 C1.4,64.728 0.588,63.524 0.588,62.236 C0.588,61.116 0.84,61.032 3.472,59.912 C3.668,59.856 5.74,58.904 7.448,57.392 L2.38,57.392 C1.848,57.392 0.616,57.392 0.616,55.628 C0.616,53.976 1.624,53.808 2.38,53.808 L5.908,53.808 C5.516,52.884 5.376,52.576 5.376,52.184 C5.376,52.044 5.404,51.96 5.46,51.764 C3.584,51.708 3.332,51.708 2.94,51.484 C2.38,51.176 2.24,50.42 2.24,49.916 C2.24,48.096 3.416,48.068 4.424,48.068 C5.824,48.068 8.064,48.124 9.492,48.096 C12.992,48.068 16.492,47.9 19.964,47.508 C20.552,47.452 23.212,47.088 23.716,47.088 C24.248,47.088 25.424,47.256 25.424,49.02 C25.424,50.56 24.472,50.672 22.26,50.952 C22.372,51.092 22.624,51.288 22.624,51.792 C22.624,52.128 22.54,52.52 21.952,53.808 Z M7.784,64.532 L7.784,65.4 L11.956,65.4 L11.956,64 L8.316,64 C7.952,64 7.784,64.196 7.784,64.532 Z M15.932,65.4 L20.216,65.4 L20.216,64.532 C20.216,64.196 20.048,64 19.712,64 L15.932,64 L15.932,65.4 Z M8.372,69.628 L11.956,69.628 L11.956,68.2 L7.784,68.2 L7.784,69.04 C7.784,69.376 7.952,69.628 8.372,69.628 Z M20.216,69.04 L20.216,68.2 L15.932,68.2 L15.932,69.628 L19.656,69.628 C20.02,69.628 20.216,69.404 20.216,69.04 Z M15.932,53.808 L17.892,53.808 C18.312,52.716 18.368,52.576 18.732,51.316 C18.452,51.316 16.8,51.456 15.932,51.484 L15.932,53.808 Z M11.956,53.808 L11.956,51.68 C10.808,51.68 10.024,51.708 9.128,51.708 C9.38,52.1 9.716,53.192 9.912,53.808 L11.956,53.808 Z M11.956,60.892 L11.956,57.616 C10.808,59.016 9.912,59.884 8.736,60.892 L11.956,60.892 Z M15.932,57.56 L15.932,60.892 L19.068,60.892 C18.256,60.22 17.108,59.156 15.932,57.56 Z M47.996,47.9 L53.12,47.9 C55.36,47.9 56.648,48.516 56.648,51.456 L56.648,68.872 C57.376,68.872 58.412,68.872 58.412,70.72 C58.412,72.708 57.46,72.904 56.62,72.904 L43.768,72.904 C43.152,72.904 41.948,72.876 41.948,70.916 C41.948,70.496 42.004,70.272 42.06,70.076 C40.856,70.048 40.744,69.124 40.66,68.256 C40.576,67.304 40.268,64.476 40.268,64.364 C40.268,63.132 41.472,63.104 41.78,63.104 C43.012,63.104 43.124,63.776 43.432,65.904 C43.544,66.604 43.768,68.256 43.684,68.872 L44.44,68.872 L44.44,61.508 C44.272,62.824 43.068,62.936 42.452,62.936 C41.164,62.936 40.996,62.096 40.912,61.676 C39.904,61.816 39.82,61.844 39.624,61.872 L39.624,72.008 C39.624,73.128 39.204,73.744 37.72,73.744 C36.012,73.744 36.012,72.484 36.012,72.008 L36.012,62.236 C35.48,62.292 33.744,62.432 33.352,62.432 C32.932,62.432 31.672,62.432 31.672,60.556 C31.672,59.8 31.924,59.268 32.344,59.044 C32.652,58.848 32.792,58.848 33.996,58.792 C34.304,58.428 34.752,57.868 35.116,57.392 C34.472,56.468 33.8,55.6 32.988,54.816 C32.176,54.032 31.812,53.696 31.812,52.912 C31.812,52.128 32.456,50.812 33.772,50.812 C34.052,50.812 34.22,50.868 34.332,50.896 C34.92,49.944 35.032,49.72 35.648,48.628 C36.264,47.508 36.628,47.116 37.44,47.116 C38.336,47.116 39.428,47.76 39.428,48.712 C39.428,49.552 37.552,52.268 36.824,53.276 C37.272,53.836 37.328,53.892 37.496,54.116 C38.476,52.604 38.728,52.128 39.484,50.84 C39.848,50.196 40.184,49.804 40.968,49.804 C41.584,49.804 43.04,50.168 43.04,51.428 C43.04,51.876 42.928,52.268 41.836,53.808 C41.08,54.872 39.876,56.524 38.168,58.54 C39.008,58.512 39.036,58.512 40.184,58.372 C40.128,58.12 39.988,57.56 39.988,57.168 C39.988,56.048 41.164,55.74 41.808,55.74 C42.844,55.74 43.068,56.356 43.376,57.196 C43.908,58.652 44.328,60.304 44.44,61.004 L44.44,51.456 C44.44,48.516 45.812,47.9 47.996,47.9 Z M52.644,61.76 L52.644,58.68 L48.444,58.68 L48.444,61.76 L52.644,61.76 Z M48.444,54.984 L52.644,54.984 L52.644,52.66 C52.644,52.156 52.364,51.904 51.888,51.904 L49.2,51.904 C48.724,51.904 48.444,52.156 48.444,52.66 L48.444,54.984 Z M52.644,68.872 L52.644,65.54 L48.444,65.54 L48.444,68.872 L52.644,68.872 Z M33.688,71.812 C32.848,71.812 31.756,71.784 31.756,70.328 C31.756,69.992 32.008,68.424 32.036,68.088 C32.12,67.472 32.4,64.252 32.428,64.084 C32.568,63.412 33.1,63.132 33.744,63.132 C35.228,63.132 35.228,64.196 35.228,64.84 C35.228,66.38 34.976,69.012 34.808,70.244 C34.724,70.776 34.556,71.812 33.688,71.812 Z M67.768,48.124 C68.244,48.124 69.84,48.32 69.84,49.916 C69.84,50.336 69.532,52.24 69.476,52.632 C69.336,53.836 68.888,57.756 68.888,62.236 C68.888,63.16 68.888,65.428 69.084,67.332 C69.14,67.724 69.392,70.16 69.392,70.384 C69.392,71.224 69.168,72.512 67.04,72.512 C65.416,72.512 65.08,71.588 64.828,70.384 C64.688,69.74 64.38,67.08 64.38,63.16 C64.38,56.272 65.08,50.756 65.36,49.664 C65.724,48.124 66.648,48.124 67.768,48.124 Z M87.508,52.128 C87.508,54.088 86.164,54.312 85.1,54.312 C84.652,54.312 82.664,54.284 82.244,54.284 C81.012,54.284 77.736,54.34 75.356,54.48 C75.272,54.48 74.712,54.536 74.516,54.536 C73.172,54.536 72.276,53.92 72.276,52.352 C72.276,50.476 73.508,50.308 74.012,50.224 C74.628,50.112 78.044,49.916 82.496,49.916 C83.392,49.916 85.576,49.916 86.22,50.084 C87.088,50.28 87.508,51.12 87.508,52.128 Z M88.18,68.424 C88.18,69.88 87.62,70.328 86.948,70.608 C85.688,71.168 81.712,71.28 80.76,71.28 C76.112,71.28 71.436,70.496 71.436,65.652 C71.436,65.624 71.436,60.92 74.544,60.92 C75.664,60.92 77.064,61.48 77.064,62.684 C77.064,63.188 76.98,63.384 76.504,64.28 C76.168,64.896 76.084,65.204 76.084,65.456 C76.084,66.548 77.316,66.94 80.088,66.94 C81.432,66.94 82.832,66.744 83.616,66.66 C84.008,66.604 85.772,66.324 86.136,66.324 C87.564,66.324 88.18,67.192 88.18,68.424 Z M95.828,55.152 L103.108,55.152 C103.388,54.816 103.556,54.508 103.78,54.088 C101.848,54.144 98.432,54.2 96.472,54.2 C95.66,54.2 94.428,54.2 94.428,52.464 C94.428,50.84 95.772,50.784 96.192,50.784 C97.088,50.756 98.124,50.784 99.02,50.756 C99.44,50.112 99.664,49.804 100.476,48.488 C101.176,47.396 101.596,46.752 102.772,46.752 C103.584,46.752 105.264,47.06 105.264,48.32 C105.264,48.684 105.236,49.02 103.724,50.84 L104.816,50.84 C106.888,50.84 108.96,50.784 111.004,50.756 C110.08,49.944 109.856,49.748 109.856,49.188 C109.856,48.18 110.976,47.256 112.124,47.256 C112.432,47.256 112.796,47.312 113.524,47.788 C113.972,48.096 114.84,48.712 116.184,49.776 C118.368,51.512 118.872,51.988 118.872,52.884 C118.872,53.808 118.004,54.956 116.688,54.956 C116.016,54.956 115.96,54.928 114.448,53.612 C112.096,53.808 111.116,53.836 107.756,53.976 C107.476,54.536 107.336,54.788 107.14,55.152 L118.228,55.152 C118.648,55.152 120.3,55.152 120.3,56.916 C120.3,58.652 118.62,58.652 118.228,58.652 L114.252,58.652 C114.588,58.876 114.672,58.932 115.4,59.436 C115.96,59.856 117.388,60.5 118.004,60.752 C119.656,61.396 120.216,61.62 120.216,62.824 C120.216,64.028 119.404,65.12 118.34,65.12 C117.248,65.12 115.344,63.888 114.196,63.104 C111.648,61.368 110.304,59.856 109.296,58.652 L104.732,58.652 C104.032,59.492 102.884,60.64 101.036,62.096 C102.408,61.76 103.752,61.424 105.768,60.332 C107.392,59.464 107.476,59.408 107.896,59.408 C108.708,59.408 109.436,60.22 109.436,61.088 C109.436,61.676 109.324,62.012 107.028,63.132 C104.032,64.616 100.616,65.26 99.832,65.26 C98.964,65.26 98.6,64.504 98.516,63.832 C97.06,64.672 96.276,64.952 95.632,64.952 C94.68,64.952 93.756,64.056 93.756,62.712 C93.756,61.76 94.148,61.452 95.352,60.948 C97.48,60.024 98.796,59.128 99.44,58.652 L95.828,58.652 C95.352,58.652 93.784,58.624 93.784,56.888 C93.784,55.152 95.436,55.152 95.828,55.152 Z M115.036,65.064 C116.016,65.064 116.94,66.072 116.94,67.052 C116.94,67.724 116.688,68.452 113.86,69.88 C106.552,73.604 98.796,73.66 98.348,73.66 C96.556,73.66 96.444,72.288 96.444,71.84 C96.444,70.356 97.592,70.244 98.796,70.132 C105.712,69.516 110.108,68.06 113.524,65.68 C114.112,65.288 114.504,65.064 115.036,65.064 Z M111.284,62.236 C112.292,62.236 112.88,63.328 112.88,63.916 C112.88,64.644 112.32,65.12 110.864,65.876 C106.3,68.256 99.776,69.376 97.844,69.376 C96.388,69.376 96.388,67.92 96.388,67.78 C96.388,66.688 97.2,66.464 98.124,66.352 C103.444,65.708 106.804,64.672 110.136,62.684 C110.64,62.376 110.976,62.236 111.284,62.236 Z M128.172,55.908 L126.744,55.908 C125.792,55.908 124.7,55.684 124.7,54.004 C124.7,52.464 125.12,51.736 126.744,51.736 L128.172,51.736 L128.172,49.048 C128.172,48.32 128.284,46.976 130.048,46.976 C131.532,46.976 132.26,47.452 132.26,49.048 L132.26,51.736 L134.164,51.736 C135.62,51.736 136.656,51.736 137.44,52.632 C138.084,53.36 138.112,54.032 138.112,56.3 C138.112,58.316 137.972,64.476 137.832,66.632 C137.44,72.736 136.88,73.632 133.1,73.632 C132.456,73.632 131.308,73.632 130.832,73.324 C130.412,73.072 129.936,72.316 129.936,71.224 C129.936,70.804 130.02,69.796 130.72,69.376 C130.944,69.236 131.224,69.152 131.672,69.152 C132.764,69.152 132.988,69.152 133.268,68.48 C133.8,67.22 133.94,59.38 133.94,56.776 C133.94,55.992 133.828,55.908 133.128,55.908 L132.26,55.908 C132.092,64.084 130.748,67.808 129.852,70.02 C128.704,72.82 127.92,73.38 127.024,73.38 C125.792,73.38 124.476,72.344 124.476,71.224 C124.476,70.58 124.784,70.048 125.26,69.208 C126.296,67.388 128.172,64.028 128.172,55.908 Z M150.292,52.016 L150.292,69.32 C150.292,72.26 148.948,73.072 146.568,73.072 L143.264,73.072 C140.968,73.072 139.512,72.316 139.512,69.32 L139.512,52.016 C139.512,49.076 140.884,48.292 143.264,48.292 L146.568,48.292 C148.976,48.292 150.292,49.132 150.292,52.016 Z M146.26,68.088 L146.26,53.276 C146.26,52.716 145.952,52.38 145.392,52.38 L144.412,52.38 C143.852,52.38 143.544,52.716 143.544,53.276 L143.544,68.088 C143.544,68.648 143.852,68.956 144.412,68.956 L145.392,68.956 C145.924,68.956 146.26,68.704 146.26,68.088 Z M161.58,47.788 C163.876,47.788 163.876,49.524 163.876,50.168 C163.876,50.448 163.708,54.144 163.68,54.704 C163.484,58.54 163.428,59.688 163.428,62.908 C163.428,65.708 163.624,68.368 168.356,68.368 C173.256,68.368 175.608,66.268 176.392,61.956 C176.7,60.276 176.924,59.1 178.772,59.1 C179.192,59.1 181.292,59.128 181.292,61.144 C181.292,62.376 180.788,65.54 178.66,68.396 C176.42,71.392 172.92,72.652 168.496,72.652 C164.324,72.652 161.804,71.616 160.236,69.488 C159.48,68.48 158.864,67.164 158.864,61.956 C158.864,60.024 159.06,50.112 159.088,49.888 C159.2,48.712 159.592,47.788 161.58,47.788 Z M199.748,53.668 C198.264,53.78 190.256,54.396 189.528,54.396 C188.072,54.396 187.4,53.388 187.4,52.072 C187.4,50.868 187.82,49.888 189.416,49.72 C190.592,49.608 203.892,49.104 209.324,49.104 C210.864,49.104 212.46,49.104 212.46,51.232 C212.46,53.5 210.948,53.556 209.352,53.556 C207.672,53.584 205.964,53.892 203.444,55.32 C200.56,56.972 197.704,60.08 197.704,63.356 C197.704,66.856 200.588,67.64 205.292,67.64 L207.7,67.64 C208.736,67.64 209.856,68.06 209.856,69.74 C209.856,72.372 207.812,72.372 205.796,72.372 C204.984,72.372 202.408,72.344 199.58,71.616 C198.068,71.224 193.056,69.936 193.056,63.888 C193.056,60.724 194.484,58.428 196.08,56.664 C197.508,55.068 198.684,54.34 199.748,53.668 Z M228.032,70.104 C228.032,71.42 226.716,72.484 225.428,72.484 C224.364,72.484 223.804,71.756 223.356,71.168 C222.32,69.796 222.04,69.488 219.576,66.716 C219.296,66.408 218.932,65.96 218.932,65.232 C218.932,64.028 220.192,63.076 221.284,63.076 C222.068,63.076 222.544,63.356 224.196,65.036 C225.568,66.408 227.08,68.144 227.584,68.928 C227.864,69.376 228.032,69.628 228.032,70.104 Z M267.712,60.108 L269.448,60.108 C269.42,60.052 269.364,59.968 269.308,59.884 C268.804,59.072 268.748,58.988 268.692,58.736 C268.468,58.764 267.936,58.82 267.572,58.848 C267.6,59.24 267.656,59.52 267.712,60.108 Z M255.392,55.824 L255.392,57.14 C255.644,57.56 255.784,57.7 255.924,57.868 C255.896,56.888 256.316,56.804 256.652,56.72 C256.96,56.328 258.388,54.424 258.724,53.976 C258.22,53.416 258.08,53.276 256.82,52.156 C256.484,51.876 256.316,51.484 256.316,51.064 C256.316,50.672 256.652,49.272 257.94,49.328 C258.332,48.712 258.556,48.404 258.976,47.704 C259.172,47.396 259.396,47.116 259.956,47.116 C260.74,47.116 261.468,47.676 261.468,48.292 C261.468,48.88 260.432,50.224 259.956,50.84 C260.124,51.036 260.264,51.176 260.544,51.484 C260.796,51.12 261.188,50.532 261.468,50.168 C261.776,49.748 261.944,49.58 262.392,49.58 C262.896,49.58 263.204,49.776 263.4,49.916 C263.344,47.984 263.316,46.892 265.164,46.892 C265.696,46.892 266.536,47.06 266.872,47.732 C267.012,48.04 267.068,48.432 267.068,49.72 C267.208,49.524 267.544,49.104 268.328,49.188 C268.468,48.964 269.112,47.844 269.336,47.592 C269.588,47.284 269.756,47.06 270.288,47.06 C271.016,47.06 271.8,47.564 271.8,48.208 C271.8,48.796 270.68,50.28 270.232,50.924 C270.288,51.008 270.596,51.372 270.792,51.624 C271.156,51.064 271.716,50.252 272.024,49.888 C272.22,49.664 272.416,49.468 272.836,49.468 C273.564,49.468 274.516,50.168 274.516,50.868 C274.516,51.4 273.76,52.296 273.452,52.688 C272.92,53.304 271.436,55.04 270.568,55.936 C270.988,55.908 271.128,55.908 272.248,55.796 C272.164,55.432 272.08,55.152 272.08,54.984 C272.08,54.172 272.948,53.92 273.452,53.92 C274.18,53.92 274.376,54.396 274.544,54.956 C275.02,56.524 275.188,57.896 275.188,58.176 C275.188,59.128 274.264,59.38 273.844,59.38 C272.92,59.38 272.752,58.624 272.724,58.316 C272.108,58.428 271.884,58.456 271.576,58.484 C272.052,59.156 272.388,59.632 272.472,60.108 L273.284,60.108 C274.74,60.108 275.328,60.752 275.328,61.9 C275.328,63.244 274.46,63.636 273.284,63.636 L271.24,63.636 C272.08,63.832 272.78,64.504 272.78,65.232 C272.78,66.128 271.1,67.892 270.204,68.788 C270.484,69.096 270.904,69.516 271.296,69.516 C271.8,69.516 271.968,69.152 272.248,68.62 C272.584,67.948 272.808,67.584 273.564,67.584 C274.824,67.584 275.468,68.424 275.468,69.292 C275.468,70.58 274.012,73.716 271.24,73.716 C269.364,73.716 268.3,72.68 267.264,71.224 C265.696,72.288 263.708,73.352 262.896,73.352 C261.776,73.352 261.216,72.148 261.216,71.364 C261.216,70.468 261.86,70.188 262.392,69.964 C264.016,69.292 264.744,68.9 265.752,68.228 C265.416,67.304 265.024,66.212 264.492,63.636 L261.328,63.636 C261.328,63.776 261.3,64.476 261.3,64.616 C264.408,65.596 264.632,65.988 264.632,66.996 C264.632,67.612 264.352,68.9 263.176,68.9 C262.868,68.9 262.616,68.816 262.168,68.62 C261.496,68.312 261.468,68.312 261.02,68.144 C260.6,70.748 259.984,72.064 259.732,72.54 C259.256,73.38 258.36,73.548 257.94,73.548 C257.38,73.548 255.896,73.184 255.896,71.924 C255.896,71.504 255.98,71.364 256.484,70.104 C257.548,67.472 257.66,64.56 257.66,63.58 C257.184,63.496 256.624,63.272 256.4,62.6 C255.924,62.656 255.7,62.488 255.392,62.18 L255.392,71.644 C255.392,72.764 255.168,73.716 253.488,73.716 C251.808,73.716 251.808,72.232 251.808,71.644 L251.808,65.12 C251.36,66.212 251.164,66.8 250.268,66.8 C249.204,66.8 248.392,65.512 248.392,64.644 C248.392,64.308 248.504,63.972 248.644,63.664 C249.876,61.284 251.22,58.652 251.78,55.824 L250.828,55.824 C249.344,55.824 248.868,55.04 248.868,53.836 C248.868,52.66 249.568,52.044 250.828,52.044 L251.808,52.044 L251.808,48.992 C251.808,48.096 251.864,46.976 253.684,46.976 C255.392,46.976 255.392,48.376 255.392,48.992 L255.392,52.044 C256.176,52.044 257.548,52.044 257.548,53.948 C257.548,55.824 256.176,55.824 255.392,55.824 Z M258.304,60.108 L263.96,60.108 C263.876,59.492 263.848,59.408 263.848,59.128 C263.484,59.548 262.98,59.548 262.896,59.548 C262.14,59.548 261.972,58.96 261.916,58.764 C261.328,58.848 258.388,59.268 257.436,59.296 C257.604,59.576 257.688,59.772 257.688,60.164 C257.912,60.136 258.024,60.108 258.304,60.108 Z M270.764,63.636 L268.272,63.636 C268.496,64.784 268.608,65.148 268.748,65.652 C268.944,65.428 269.784,64.364 270.008,64.112 C270.092,64 270.316,63.748 270.764,63.636 Z M259.76,56.664 C260.852,56.608 260.992,56.58 261.384,56.58 C261.188,55.796 261.16,55.712 261.16,55.516 C261.16,54.844 261.748,54.564 262.252,54.564 C263.036,54.564 263.148,54.9 263.624,56.636 C263.596,55.964 263.456,52.744 263.428,52.156 C262.672,53.248 261.132,55.236 259.76,56.664 Z M267.348,56.104 C267.796,55.516 268.664,54.396 269,53.976 C268.748,53.668 267.432,52.268 267.124,51.96 C267.18,53.164 267.264,55.264 267.348,56.104 Z M288.38,67.696 L284.74,67.696 L284.74,71.644 C284.74,72.288 284.656,73.688 282.864,73.688 C281.464,73.688 280.764,73.212 280.764,71.644 L280.764,59.548 C280.764,56.636 281.296,56.076 284.208,56.076 L288.772,56.076 C291.656,56.076 292.244,56.608 292.244,59.548 L292.244,70.104 C292.244,72.904 291.712,73.576 288.716,73.576 C288.296,73.576 287.316,73.576 286.812,73.436 C286.028,73.184 285.86,72.176 285.86,71.616 C285.86,69.908 286.868,69.88 287.456,69.88 C288.156,69.852 288.38,69.852 288.38,69.208 L288.38,67.696 Z M284.74,59.772 L284.74,60.696 L288.38,60.696 L288.38,59.772 C288.38,59.436 288.24,59.24 287.848,59.24 L285.272,59.24 C284.908,59.24 284.74,59.464 284.74,59.772 Z M288.38,64.868 L288.38,63.328 L284.74,63.328 L284.74,64.868 L288.38,64.868 Z M281.212,51.708 C281.268,51.568 281.884,50.14 282.304,49.104 C283.004,47.396 283.172,46.948 284.376,46.948 C285.356,46.948 286.56,47.424 286.56,48.488 C286.56,48.908 286.392,49.272 286.028,49.944 C285.748,50.42 285.412,50.98 285.076,51.568 C286.084,51.512 287.344,51.456 288.324,51.372 C287.876,50.532 287.652,50 287.652,49.552 C287.652,48.572 288.744,48.04 289.584,48.04 C290.564,48.04 290.9,48.432 292.244,50.98 C293.28,52.912 293.532,53.388 293.532,54.004 C293.532,55.208 292.272,55.852 291.46,55.852 C290.396,55.852 290.088,55.152 289.752,54.396 C287.008,54.816 282.136,55.264 281.044,55.264 C280.764,55.264 280.26,55.264 279.924,54.816 C279.56,54.34 279.504,53.696 279.504,53.388 C279.504,51.82 280.512,51.736 281.212,51.708 Z M298.04,53.444 L298.04,55.096 C298.04,55.964 298.46,55.964 299.384,55.964 C299.776,55.964 301.456,55.964 301.68,55.852 C302.072,55.712 302.128,55.488 302.352,54.284 C302.576,53.164 302.688,52.436 304.2,52.436 C304.592,52.436 305.152,52.52 305.684,52.8 C306.356,53.192 306.412,53.724 306.412,54.172 C306.412,54.62 306.188,57.672 305.264,58.736 C304.508,59.604 303.724,59.604 300.336,59.604 C299.44,59.604 296.948,59.604 296.304,59.548 C293.84,59.268 293.84,57.168 293.84,56.496 L293.84,49.02 C293.84,48.152 294.036,46.948 295.772,46.948 C297.312,46.948 298.04,47.396 298.04,49.02 L298.04,49.972 C299.272,49.636 300.42,49.16 301.652,48.572 C303.08,47.9 303.304,47.76 303.78,47.76 C304.844,47.76 305.572,48.908 305.572,49.888 C305.572,51.008 304.788,51.372 303.36,51.876 C300.7,52.8 299.636,53.052 298.04,53.444 Z M298.04,66.576 L298.04,68.676 C298.04,69.572 298.376,69.572 300.112,69.572 C301.904,69.572 301.988,69.544 302.156,68.116 C302.352,66.632 302.464,65.764 304.116,65.764 C304.34,65.764 306.356,65.764 306.356,67.444 C306.356,67.808 306.104,71.336 305.152,72.456 C304.48,73.212 303.5,73.38 299.972,73.38 C298.964,73.38 296.36,73.352 295.548,73.072 C293.868,72.54 293.868,71 293.868,70.076 L293.868,61.9 C293.868,61.032 294.064,59.856 295.8,59.856 C297.172,59.856 298.04,60.22 298.04,61.844 L298.04,62.992 C299.3,62.516 300.42,62.096 301.624,61.396 C302.996,60.612 303.164,60.528 303.696,60.528 C304.872,60.528 305.544,61.872 305.544,62.656 C305.544,63.468 305.208,63.916 303.136,64.784 C301.596,65.456 299.86,65.988 298.04,66.576 Z M324.7,60.192 L322.768,57.336 C321.984,56.188 321.592,55.74 321.088,55.74 C320.472,55.74 320.248,55.964 318.904,58.288 C316.804,61.844 316.44,62.46 316.132,62.964 C315.432,64.056 314.9,64.728 313.836,64.728 C312.688,64.728 311.064,63.86 311.064,62.32 C311.064,61.424 311.624,60.696 312.212,59.94 C313.528,58.26 315.264,55.656 316.804,53.248 C318.12,51.204 319.072,50.196 320.892,50.196 C323.216,50.196 323.888,51.092 326.8,55.348 C330.356,60.584 332.792,63.272 335.284,65.708 C336.516,66.884 337.048,67.5 337.048,68.452 C337.048,69.768 335.928,71.084 334.472,71.084 C333.352,71.084 332.652,70.44 331.42,68.984 C328.06,65.008 327.528,64.364 324.7,60.192 Z M357.352,52.856 C356.764,57.588 355.224,63.664 353.236,66.744 C351.752,69.068 350.1,70.188 347.972,70.188 C343.912,70.188 342.176,66.072 342.176,61.9 C342.176,52.856 348.952,48.628 355.728,48.628 C363.96,48.628 367.796,53.808 367.796,60.36 C367.796,70.832 358.08,72.372 355.896,72.372 C353.712,72.372 353.656,70.384 353.656,70.076 C353.656,68.284 354.916,68.088 355.84,67.948 C358.192,67.584 363.12,66.856 363.12,60.108 C363.12,55.292 360.348,53.136 357.352,52.856 Z M352.984,52.968 C346.992,54.592 346.488,60.052 346.488,61.928 C346.488,64.224 347.356,65.372 348.224,65.372 C349.372,65.372 350.184,63.608 350.8,61.928 C352.2,58.064 352.648,55.264 352.984,52.968 Z M387.344,53.164 C384.712,53.388 381.156,53.584 378.468,53.584 C377.908,53.584 376.088,53.584 376.088,51.428 C376.088,49.244 377.684,49.244 378.72,49.244 C379.056,49.244 382.528,49.328 383.256,49.328 C384.768,49.328 392.384,49.16 392.776,49.16 C393.98,49.16 395.492,49.3 395.492,51.232 C395.492,52.604 394.932,52.968 393.084,54.172 C392.384,54.648 389.276,56.804 388.632,57.168 C388.212,57.392 387.68,57.672 387.064,57.672 C385.888,57.672 384.852,56.72 384.852,55.6 C384.852,54.928 385.244,54.48 386.084,53.892 C386.28,53.752 387.176,53.304 387.344,53.164 Z M397.956,68.984 C397.956,70.44 397.396,71 395.996,71.392 C394.792,71.728 391.572,72.176 387.26,72.176 C386.308,72.176 382.22,72.148 379.476,71.336 C378.468,71.028 374.52,69.88 374.52,65.876 C374.52,62.096 378.16,59.268 379.588,59.268 C381.1,59.268 381.912,60.5 381.912,61.368 C381.912,62.04 381.408,62.6 380.596,63.3 C379.224,64.476 379.168,65.008 379.168,65.456 C379.168,67.752 383.9,67.864 386.364,67.864 C387.792,67.864 390.872,67.808 393.868,67.22 C395.352,66.912 395.548,66.912 395.828,66.912 C397.34,66.912 397.956,67.724 397.956,68.984 Z M392.076,58.568 C391.992,58.372 391.516,57.532 391.432,57.364 C391.32,57.168 391.292,56.916 391.292,56.72 C391.292,56.188 391.964,55.852 392.412,55.852 C392.86,55.852 393.168,56.16 393.672,57.112 C393.84,57.42 394.624,58.904 394.624,59.576 C394.624,60.304 393.84,60.5 393.504,60.5 C393.364,60.5 393,60.5 392.692,59.912 C392.58,59.688 392.16,58.764 392.076,58.568 Z M395.016,57.252 C394.932,57.056 394.4,56.104 394.316,55.908 C394.232,55.684 394.204,55.488 394.204,55.404 C394.204,54.844 394.904,54.536 395.324,54.536 C395.8,54.536 396.08,54.844 396.64,55.852 C396.696,55.964 397.536,57.532 397.536,58.232 C397.536,58.848 396.864,59.156 396.416,59.156 C396.276,59.156 395.912,59.156 395.604,58.568 C395.492,58.372 395.128,57.504 395.016,57.252 Z M414.284,65.372 L410,65.372 C407.116,65.372 406.556,64.84 406.556,61.9 L406.556,60.192 C406.556,57.308 407.088,56.748 410,56.748 L423.944,56.748 C426.828,56.748 427.416,57.252 427.416,60.192 L427.416,61.9 C427.416,64.812 426.884,65.372 423.944,65.372 L418.736,65.372 C419.8,65.96 420.332,66.268 420.332,67.08 C420.332,67.92 419.688,69.18 418.456,69.18 C418.064,69.18 417.924,69.096 416.748,68.368 C416.44,68.172 415.096,67.416 414.816,67.248 C414.144,66.8 414.116,66.324 414.116,66.128 C414.116,65.876 414.172,65.624 414.284,65.372 Z M410.7,60.052 L423.188,60.052 L423.188,59.604 C423.188,59.268 423.048,59.072 422.684,59.072 L411.204,59.072 C410.868,59.072 410.7,59.268 410.7,59.604 L410.7,60.052 Z M423.188,62.46 L423.188,62.012 L410.7,62.012 L410.7,62.46 C410.7,62.796 410.868,62.992 411.204,62.992 L422.684,62.992 C423.048,62.992 423.188,62.768 423.188,62.46 Z M419.044,48.656 L427.052,48.656 C427.528,48.656 428.732,48.656 428.732,50.14 C428.732,51.652 427.556,51.652 427.052,51.652 L424.756,51.652 C424.672,52.1 424.56,52.492 424.364,52.94 L428.564,52.94 C429.068,52.94 430.272,52.94 430.272,54.452 C430.272,55.936 429.208,55.992 428.564,55.992 L405.38,55.992 C404.848,55.992 403.672,55.992 403.672,54.48 C403.672,52.996 404.764,52.94 405.38,52.94 L409.776,52.94 C409.692,52.52 409.552,52.044 409.384,51.652 L406.976,51.652 C406.528,51.652 405.268,51.652 405.268,50.168 C405.268,48.656 406.5,48.656 406.976,48.656 L414.788,48.656 C414.788,47.872 414.788,46.948 416.636,46.948 C417.252,46.948 418.232,47.032 418.512,47.228 C419.044,47.592 419.044,48.124 419.044,48.656 Z M414.2,52.94 L419.856,52.94 C420.052,52.492 420.164,52.1 420.248,51.652 L413.724,51.652 C413.948,52.156 414.004,52.324 414.2,52.94 Z M407.144,65.372 C407.76,65.372 409.384,65.624 409.384,66.996 C409.384,67.864 408.712,70.02 408.152,71.308 C407.452,72.876 406.836,73.044 406.136,73.044 C405.156,73.044 403.784,72.428 403.784,71.112 C403.784,70.636 403.952,70.356 404.4,69.516 C404.708,68.928 404.792,68.732 405.436,66.968 C405.688,66.268 405.996,65.4 407.144,65.372 Z M414.256,67.808 L414.256,69.096 C414.256,69.376 414.34,69.74 414.648,69.824 C414.872,69.88 416.132,69.88 417.028,69.88 L418.008,69.88 C419.968,69.88 420.108,69.88 420.248,68.956 C420.444,67.696 421.088,67.5 421.928,67.5 C422.852,67.5 423.524,67.78 423.86,68.172 C424.168,68.508 424.224,68.928 424.224,69.32 C424.224,70.188 423.888,71.924 423.188,72.624 C422.432,73.352 421.844,73.408 417.168,73.408 C412.66,73.408 412.52,73.38 411.988,73.268 C410.728,72.988 410.196,71.756 410.196,70.72 L410.196,67.92 C410.196,67.388 410.196,66.128 412.212,66.128 C413.556,66.128 414.256,66.632 414.256,67.808 Z M426.436,65.484 C426.996,65.568 427.5,65.82 428.76,67.808 C429.936,69.628 430.02,70.16 430.02,70.664 C430.02,72.176 428.452,72.764 427.584,72.764 C426.52,72.792 426.268,72.288 425.204,70.132 C425.036,69.824 424.252,68.564 424.084,68.256 C423.916,67.948 423.86,67.584 423.86,67.304 C423.86,65.988 425.288,65.288 426.436,65.484 Z M453.04,65.092 L453.04,68.592 C453.04,69.516 453.264,69.516 454.944,69.516 C456.988,69.516 456.988,69.348 457.044,68.48 C457.156,66.66 457.184,66.436 457.352,66.128 C457.492,65.904 457.8,65.4 459.032,65.4 C460.964,65.4 461.216,66.492 461.216,67.78 C461.216,71.504 460.488,72.848 458.92,73.184 C458.388,73.296 457.968,73.38 453.936,73.38 C452.732,73.38 450.744,73.408 449.932,72.848 C448.868,72.12 448.868,70.86 448.868,69.824 L448.868,65.092 L446.068,65.092 C445.816,71.504 438.676,73.688 436.996,73.688 C435.484,73.688 434.784,72.568 434.784,71.252 C434.784,69.936 435.512,69.684 436.464,69.46 C441.336,68.368 441.784,66.212 441.98,65.092 L441.084,65.092 C438.676,65.092 437.36,64.252 437.36,61.368 L437.36,51.568 C437.36,48.572 438.816,47.844 441.084,47.844 L454.86,47.844 C457.212,47.844 458.612,48.628 458.612,51.568 L458.612,61.368 C458.612,64.168 457.352,65.092 454.86,65.092 L453.04,65.092 Z M454.356,57.308 L454.356,55.768 L441.504,55.768 L441.504,57.308 L454.356,57.308 Z M441.504,52.772 L454.356,52.772 L454.356,51.876 C454.356,51.512 454.188,51.288 453.796,51.288 L442.092,51.288 C441.672,51.288 441.504,51.512 441.504,51.876 L441.504,52.772 Z M454.356,61.228 L454.356,60.192 L441.504,60.192 L441.504,61.228 C441.504,61.564 441.672,61.816 442.092,61.816 L453.796,61.816 C454.216,61.816 454.356,61.536 454.356,61.228 Z M475.808,57.7 C477.936,66.464 478.244,67.612 478.692,69.992 C478.748,70.216 478.804,70.608 478.804,71.028 C478.804,72.904 476.816,73.016 476.284,73.016 C474.464,73.016 474.212,71.784 474.016,70.58 C473.512,67.36 473.344,66.688 471.608,59.436 C471.328,59.548 470.068,60.136 469.816,60.248 C469.228,60.528 468.808,60.668 468.332,60.668 C466.848,60.668 466.316,59.24 466.316,58.316 C466.316,56.888 467.016,56.608 470.572,55.264 C470.376,54.508 470.152,53.752 469.928,53.052 C469.396,51.4 469.368,51.12 469.368,50.756 C469.368,48.824 471.58,48.796 471.804,48.796 C472.952,48.796 473.372,49.3 473.708,49.944 C473.932,50.392 474.072,50.896 474.8,53.752 C475.948,53.36 477.208,52.94 478.216,52.632 C478.104,52.324 477.908,51.792 477.572,51.092 C477.152,50.168 477.096,49.916 477.096,49.636 C477.096,48.152 478.776,47.844 479.392,47.844 C480.932,47.844 481.324,48.852 482.444,51.652 C482.724,51.596 483.592,51.512 484.488,51.512 C489.528,51.512 491.684,54.984 491.684,58.792 C491.684,60.164 491.404,63.468 488.912,65.456 C487.148,66.856 484.796,67.052 483.508,67.052 C482.416,67.052 480.12,66.996 480.12,64.672 C480.12,63.328 480.904,62.684 481.912,62.684 C482.164,62.684 483.34,62.796 483.592,62.796 C486.028,62.796 487.316,61.116 487.316,58.876 C487.316,57.084 486.812,55.32 483.788,55.432 C484.152,56.72 484.292,57.364 484.292,57.868 C484.292,59.072 483.312,59.828 481.912,59.828 C480.624,59.828 480.316,59.24 480.064,58.596 C479.952,58.26 479.532,56.72 479.42,56.412 C479,56.552 476.564,57.42 475.808,57.7 Z M511.344,53.164 C508.712,53.388 505.156,53.584 502.468,53.584 C501.908,53.584 500.088,53.584 500.088,51.428 C500.088,49.244 501.684,49.244 502.72,49.244 C503.056,49.244 506.528,49.328 507.256,49.328 C508.768,49.328 516.384,49.16 516.776,49.16 C517.98,49.16 519.492,49.3 519.492,51.232 C519.492,52.604 518.932,52.968 517.084,54.172 C516.384,54.648 513.276,56.804 512.632,57.168 C512.212,57.392 511.68,57.672 511.064,57.672 C509.888,57.672 508.852,56.72 508.852,55.6 C508.852,54.928 509.244,54.48 510.084,53.892 C510.28,53.752 511.176,53.304 511.344,53.164 Z M521.956,68.984 C521.956,70.44 521.396,71 519.996,71.392 C518.792,71.728 515.572,72.176 511.26,72.176 C510.308,72.176 506.22,72.148 503.476,71.336 C502.468,71.028 498.52,69.88 498.52,65.876 C498.52,62.096 502.16,59.268 503.588,59.268 C505.1,59.268 505.912,60.5 505.912,61.368 C505.912,62.04 505.408,62.6 504.596,63.3 C503.224,64.476 503.168,65.008 503.168,65.456 C503.168,67.752 507.9,67.864 510.364,67.864 C511.792,67.864 514.872,67.808 517.868,67.22 C519.352,66.912 519.548,66.912 519.828,66.912 C521.34,66.912 521.956,67.724 521.956,68.984 Z M516.076,58.568 C515.992,58.372 515.516,57.532 515.432,57.364 C515.32,57.168 515.292,56.916 515.292,56.72 C515.292,56.188 515.964,55.852 516.412,55.852 C516.86,55.852 517.168,56.16 517.672,57.112 C517.84,57.42 518.624,58.904 518.624,59.576 C518.624,60.304 517.84,60.5 517.504,60.5 C517.364,60.5 517,60.5 516.692,59.912 C516.58,59.688 516.16,58.764 516.076,58.568 Z M519.016,57.252 C518.932,57.056 518.4,56.104 518.316,55.908 C518.232,55.684 518.204,55.488 518.204,55.404 C518.204,54.844 518.904,54.536 519.324,54.536 C519.8,54.536 520.08,54.844 520.64,55.852 C520.696,55.964 521.536,57.532 521.536,58.232 C521.536,58.848 520.864,59.156 520.416,59.156 C520.276,59.156 519.912,59.156 519.604,58.568 C519.492,58.372 519.128,57.504 519.016,57.252 Z M540.048,61.62 L552.62,61.62 C553.124,61.62 554.384,61.62 554.384,63.44 C554.384,65.12 553.376,65.26 552.62,65.26 L549.568,65.26 C549.148,66.072 548.644,66.968 547.552,68.116 C549.4,68.564 550.968,68.956 551.92,69.32 C552.508,69.544 553.32,69.88 553.32,70.972 C553.32,72.316 552.256,73.52 551.024,73.52 C550.492,73.52 549.988,73.324 549.176,73.016 C545.984,71.756 545.452,71.56 543.8,71.028 C539.096,73.464 531.368,73.604 530.696,73.604 C529.8,73.604 529.212,73.604 528.764,73.1 C528.344,72.652 528.232,72.064 528.232,71.56 C528.232,69.88 529.548,69.768 530.164,69.768 C532.796,69.768 535.708,69.768 538.032,69.32 C537.332,69.152 534.224,68.452 533.58,68.312 C532.88,68.144 531.928,67.92 531.928,66.8 C531.928,66.296 532.18,65.932 532.656,65.26 L529.408,65.26 C528.904,65.26 527.616,65.26 527.616,63.468 C527.616,61.648 528.848,61.62 529.408,61.62 L535.036,61.62 C535.428,60.892 535.512,60.78 535.736,60.276 L532.124,60.276 C529.464,60.276 528.96,59.8 528.96,57.112 L528.96,56.02 C528.96,53.36 529.436,52.856 532.124,52.856 L535.848,52.856 L535.848,51.596 L529.66,51.596 C529.156,51.596 527.896,51.596 527.896,49.776 C527.896,47.984 529.1,47.956 529.66,47.956 L552.452,47.956 C552.928,47.956 554.216,47.956 554.216,49.664 C554.216,51.176 553.572,51.596 552.452,51.596 L546.236,51.596 L546.236,52.856 L550.016,52.856 C552.676,52.856 553.18,53.332 553.18,56.02 L553.18,57.112 C553.18,59.772 552.704,60.276 550.016,60.276 L540.776,60.276 C540.608,60.612 540.468,60.92 540.048,61.62 Z M542.344,55.712 L539.628,55.712 L539.628,57.336 L542.344,57.336 L542.344,55.712 Z M539.628,52.856 L542.344,52.856 L542.344,51.596 L539.628,51.596 L539.628,52.856 Z M533.524,57.336 L535.848,57.336 L535.848,55.712 L533.524,55.712 C533.188,55.712 533.02,55.908 533.02,56.244 L533.02,56.832 C533.02,57.168 533.188,57.336 533.524,57.336 Z M546.236,55.712 L546.236,57.336 L548.56,57.336 C548.924,57.336 549.064,57.14 549.064,56.832 L549.064,56.244 C549.064,55.936 548.896,55.712 548.56,55.712 L546.236,55.712 Z M544.78,65.26 L537.696,65.26 C537.668,65.316 537.64,65.372 537.584,65.428 C537.416,65.708 537.304,65.848 537.304,65.96 C537.304,66.296 537.752,66.352 538.032,66.38 C540.384,66.688 540.776,66.716 542.988,67.136 C543.548,66.66 543.968,66.212 544.78,65.26 Z M575.78,47.704 L581.968,47.704 C584.6,47.704 584.6,49.832 584.6,50.84 C584.6,51.372 584.516,56.216 584.04,58.288 C583.48,60.864 581.268,60.864 580.092,60.864 C578.048,60.864 577.936,60.836 577.544,60.78 C576.788,60.64 576.452,60.108 576.452,59.268 C576.452,58.708 576.592,57.756 577.74,57.756 L579.14,57.756 C580.064,57.756 580.26,57.616 580.428,56.692 L576.172,56.692 C575.836,57.84 575.388,59.016 574.828,60.024 C574.464,60.724 573.988,61.172 573.064,61.172 C572.056,61.172 570.824,60.612 570.824,59.38 C570.824,58.82 571.048,58.456 571.384,57.896 C572.672,55.684 573.064,54.004 573.176,50.728 C573.204,49.692 573.288,47.704 575.78,47.704 Z M576.62,54.704 L580.624,54.704 C580.624,54.564 580.68,53.864 580.68,53.724 L576.76,53.724 C576.704,54.004 576.676,54.228 576.62,54.704 Z M580.092,50.756 L577.516,50.756 C576.984,50.756 576.956,51.008 576.928,51.736 L580.736,51.736 C580.764,50.952 580.764,50.756 580.092,50.756 Z M564.944,52.772 L564.944,55.348 C564.944,56.412 565.252,56.468 566.12,56.468 L568.724,56.468 C569.284,56.468 570.824,56.496 570.824,58.512 C570.824,60.36 569.62,60.556 568.724,60.556 L564.048,60.556 C561.052,60.556 560.492,59.996 560.492,57.028 L560.492,52.772 C559.876,52.772 558.56,52.772 558.56,50.952 C558.56,49.104 559.876,49.104 560.352,49.104 L563.852,49.104 L563.852,48.544 C563.852,47.564 564.3,46.892 565.728,46.892 C567.156,46.892 567.968,47.2 567.968,48.544 L567.968,49.104 L570.796,49.104 C571.272,49.104 572.588,49.104 572.588,50.924 C572.588,52.772 571.272,52.772 570.796,52.772 L564.944,52.772 Z M573.988,64.504 L573.988,65.456 L581.184,65.456 C581.968,65.456 582.724,65.624 582.724,66.828 C582.724,67.752 582.528,68.368 581.184,68.368 L573.988,68.368 L573.988,69.376 L583.536,69.376 C584.236,69.376 585.272,69.46 585.272,71 C585.272,72.232 584.908,72.848 583.536,72.848 L560.436,72.848 C559.736,72.848 558.7,72.736 558.7,71.196 C558.7,69.964 559.064,69.376 560.436,69.376 L569.816,69.376 L569.816,68.368 L562.76,68.368 C562.228,68.368 561.248,68.312 561.248,67.024 C561.248,66.156 561.416,65.456 562.76,65.456 L569.816,65.456 L569.816,64.504 L561.752,64.504 C561.024,64.504 560.072,64.392 560.072,63.02 C560.072,61.704 560.856,61.48 561.752,61.48 L582.192,61.48 C582.92,61.48 583.872,61.62 583.872,62.992 C583.872,64.28 583.116,64.504 582.192,64.504 L573.988,64.504 Z M598.968,50.532 C599.192,50 599.472,49.16 599.724,48.628 C599.892,48.236 600.284,47.592 601.74,47.592 C602.748,47.592 604.008,47.956 604.008,49.244 C604.008,49.692 603.784,50.224 603.7,50.42 C606.528,50.336 611.54,50.14 612.156,50.14 C613.192,50.14 614.312,50.588 614.312,52.156 C614.312,53.864 613.052,54.06 612.632,54.116 C611.96,54.228 604.372,54.452 601.404,54.508 C600.62,55.74 600.592,55.796 600.116,56.608 C601.824,55.656 603.28,55.628 603.672,55.628 C604.26,55.628 605.268,55.74 606.136,56.244 C607.172,56.86 607.648,57.728 607.816,58.036 C609.468,57.448 612.268,56.58 613.332,56.58 C615.236,56.58 615.32,58.484 615.32,58.848 C615.32,60.556 614.116,60.836 613.052,61.06 C610,61.732 609.916,61.76 608.628,62.124 C608.712,63.216 608.768,64.336 608.768,64.896 C608.768,66.184 608.768,67.752 606.64,67.752 C604.568,67.752 604.512,66.24 604.484,65.792 C604.456,65.204 604.484,64.224 604.484,63.636 C602.048,64.7 600.34,65.68 600.34,67.276 C600.34,68.536 602.16,68.844 605.044,68.844 C607.004,68.844 608.936,68.592 610.868,68.312 C611.344,68.228 611.736,68.228 611.932,68.228 C613.388,68.228 613.808,69.208 613.808,70.244 C613.808,71.784 612.828,72.064 612.464,72.176 C610.336,72.82 606.752,72.82 605.94,72.82 C601.74,72.82 600.06,72.512 598.548,71.896 C596.84,71.224 595.636,69.768 595.636,67.892 C595.636,63.692 600.396,61.172 603.672,59.688 C603.252,59.268 602.692,59.072 602.104,59.072 C598.968,59.072 596.672,61.984 595.972,62.88 C595.72,63.188 594.712,64.532 594.488,64.812 C594.124,65.232 593.592,65.652 592.752,65.652 C591.492,65.652 590.624,64.532 590.624,63.496 C590.624,62.6 591.1,62.068 592.612,60.416 C594.04,58.848 594.908,57.728 596.924,54.592 C596.42,54.592 594.208,54.62 593.76,54.62 C593.144,54.62 591.436,54.62 591.436,52.576 C591.436,50.616 593.06,50.588 593.676,50.588 C596.952,50.56 597.316,50.56 598.968,50.532 Z M633.58,55.096 L633.58,57.112 C634.084,57.056 634.868,56.944 635.988,56.944 C637.556,56.944 641.476,57.196 643.828,59.212 C645.536,60.64 646.18,62.796 646.18,64.728 C646.18,69.544 642.624,72.68 636.436,72.68 C635.54,72.68 633.748,72.68 633.748,70.524 C633.748,68.704 635.288,68.704 636.184,68.704 C637.388,68.704 641.448,68.704 641.448,64.784 C641.448,61.312 638.368,60.808 635.764,60.808 C634.7,60.808 634.252,60.864 633.58,60.976 L633.58,65.316 C633.58,67.78 633.58,72.568 628.148,72.568 C624.032,72.568 621.848,69.572 621.848,66.38 C621.848,60.864 627.364,58.764 629.324,58.036 L629.324,55.264 C628.68,55.292 625.964,55.348 625.404,55.348 L624.312,55.348 C623.612,55.348 622.044,55.348 622.044,53.304 C622.044,51.82 622.912,51.456 623.64,51.344 C623.864,51.316 628.036,51.232 629.324,51.204 L629.324,49.888 C629.324,48.908 629.38,47.62 631.452,47.62 C633.524,47.62 633.58,48.964 633.58,49.86 L633.58,51.008 C634.924,50.952 635.4,50.924 635.764,50.924 C636.38,50.924 637.92,50.924 637.92,52.968 C637.92,54.424 637.052,54.76 636.8,54.844 C636.352,54.956 636.072,54.984 633.58,55.096 Z M629.38,65.148 L629.38,62.096 C628.4,62.544 625.964,63.692 625.964,66.128 C625.964,67.388 626.72,68.452 627.84,68.452 C629.044,68.452 629.38,67.164 629.38,65.148 Z M638.368,49.3 C638.536,49.16 639.152,48.628 639.936,48.628 C641.308,48.628 643.632,50.616 644.92,51.988 C646.04,53.164 646.684,54.06 646.684,54.984 C646.684,56.3 645.452,57.196 644.332,57.196 C643.408,57.196 643.016,56.636 642.4,55.796 C641,53.864 640.384,53.388 638.564,52.016 C637.78,51.428 637.78,50.644 637.78,50.56 C637.78,49.972 638.284,49.356 638.368,49.3 Z M660.8,56.16 L656.656,56.16 C656.264,56.16 655.2,56.16 654.976,55.012 C654.836,55.04 654.64,55.068 654.332,55.068 C652.988,55.068 652.26,54.508 652.26,52.996 L652.26,52.24 C652.26,49.3 652.82,48.712 655.816,48.712 L662.872,48.712 C662.872,48.04 662.872,46.92 664.776,46.92 C666.96,46.92 667.1,47.648 667.1,48.712 L674.24,48.712 C677.18,48.712 677.768,49.272 677.768,52.24 L677.768,52.996 C677.768,54.34 677.264,55.264 675.164,55.04 C674.912,56.132 673.988,56.16 673.484,56.16 L669.088,56.16 C670.992,57.392 672.98,57.728 675.136,57.896 C675.836,57.952 676.872,58.036 676.872,59.352 C676.872,59.66 676.788,59.94 676.676,60.22 C677.236,60.22 678.496,60.22 678.496,61.872 C678.496,63.16 678.02,63.72 676.76,63.72 L675.64,63.72 L675.64,70.02 C675.64,73.604 674.884,73.604 669.844,73.604 C667.604,73.604 666.456,73.52 666.26,71.84 C665.868,71.868 665.812,71.868 665.588,71.868 L657.272,71.868 C654.584,71.868 654.08,71.364 654.08,68.676 L654.08,67.724 C654.08,65.092 654.556,64.56 657.272,64.56 L665.588,64.56 C668.276,64.56 668.78,65.064 668.78,67.724 L668.78,68.676 C668.78,69.264 668.752,69.404 668.752,69.628 C669.06,69.628 670.656,69.684 670.852,69.656 C671.44,69.6 671.44,69.124 671.468,68.844 L671.468,63.72 L653.352,63.72 C652.708,63.72 651.532,63.636 651.532,61.984 C651.532,60.22 652.764,60.22 653.632,60.22 C653.352,59.744 653.352,59.352 653.352,59.156 C653.352,57.812 654.276,57.728 655.704,57.588 C657.412,57.42 659.568,57.084 660.8,56.16 Z M659.68,60.22 L670.544,60.22 C667.688,59.324 666.26,58.428 664.972,57.056 C664.132,58.176 663.04,59.296 659.68,60.22 Z M672.98,51.876 L666.54,51.876 C666.624,52.016 666.792,52.184 666.792,52.576 C666.792,52.716 666.764,52.884 666.736,53.052 L673.568,53.052 L673.568,52.464 C673.568,52.072 673.372,51.876 672.98,51.876 Z M663.152,51.876 L657.02,51.876 C656.656,51.876 656.46,52.072 656.46,52.464 L656.46,53.052 L662.76,53.052 C662.928,52.24 662.956,52.128 663.152,51.876 Z M664.72,68.452 L664.72,67.836 C664.72,67.5 664.552,67.304 664.188,67.304 L658.812,67.304 C658.476,67.304 658.308,67.472 658.308,67.836 L658.308,68.452 C658.308,68.76 658.476,68.956 658.812,68.956 L664.188,68.956 C664.524,68.956 664.72,68.788 664.72,68.452 Z M691.744,57.896 L691.688,63.608 C691.66,67.164 691.996,68.116 697.12,68.116 C699.528,68.116 701.348,67.92 702.412,67.752 C702.636,67.724 703.644,67.584 704.428,67.584 C705.856,67.584 706.36,68.704 706.36,69.684 C706.36,71.364 705.24,71.644 704.736,71.784 C703.504,72.12 699.892,72.288 697.848,72.288 C692.248,72.288 687.936,71.644 687.516,66.464 C687.376,64.728 687.376,64.56 687.376,63.888 L687.376,58.036 C687.04,58.036 685.472,58.12 685.164,58.12 C684.576,58.12 683.008,58.036 683.008,56.02 C683.008,54.564 683.876,54.172 684.156,54.088 C684.632,53.948 684.688,53.948 687.376,53.864 L687.376,50.476 C687.376,49.412 687.6,48.152 689.588,48.152 C691.38,48.152 691.8,49.132 691.8,50.476 L691.772,53.724 C695.328,53.612 695.776,53.584 699.864,53.5 C699.808,52.38 699.752,50.84 699.752,50.168 C699.752,49.328 699.752,47.704 701.964,47.704 C703.42,47.704 704.204,48.124 704.26,49.972 C704.288,50.588 704.288,51.064 704.344,53.388 C705.716,53.36 706.22,53.36 706.724,53.36 C707.592,53.36 709.02,53.36 709.02,55.432 C709.02,56.72 708.376,57.224 707.872,57.364 C707.34,57.532 707.032,57.504 704.4,57.56 C704.288,63.16 704.232,65.848 699.332,65.848 C698.66,65.848 693.9,65.652 693.9,63.076 C693.9,61.872 694.712,61.032 695.72,61.032 C696.196,61.032 696.56,61.172 697.148,61.368 C697.708,61.564 698.156,61.704 698.66,61.704 C699.64,61.704 699.808,60.948 699.864,60.22 C699.864,60.024 699.892,58.064 699.892,57.672 C696.056,57.756 695.636,57.784 691.744,57.896 Z M715.688,60.388 C715.688,58.568 717.032,57.784 717.928,57.28 C727.14,51.96 728.26,51.316 731.34,48.796 C731.984,48.264 732.6,47.788 733.496,47.788 C734.644,47.788 736.016,48.544 736.016,50 C736.016,50.812 735.764,51.456 733.832,52.772 C730.388,55.124 726.72,57.084 722.968,58.96 C721.708,59.604 721.344,59.828 721.344,60.248 C721.344,60.612 721.624,60.864 722.576,61.284 C725.46,62.572 730.332,64.728 734.952,67.668 C736.352,68.564 737.276,69.152 737.276,70.468 C737.276,71.532 736.296,72.904 734.84,72.904 C733.972,72.904 733.3,72.54 732.544,72.008 C728.204,68.928 726.832,67.92 722.296,65.624 C721.568,65.26 718.404,63.776 717.788,63.44 C717.144,63.104 715.688,62.292 715.688,60.388 Z M751.168,51.316 C751.532,48.992 751.56,48.768 751.868,48.376 C752.288,47.816 752.932,47.676 753.548,47.676 C754.64,47.676 755.928,48.012 755.928,49.552 C755.928,50 755.844,50.42 755.704,51.204 C756.88,51.176 758.728,51.12 759.904,51.092 C760.52,51.064 763.348,50.924 763.908,50.924 C764.496,50.924 766.12,50.952 766.12,53.024 C766.12,54.928 764.692,55.068 763.852,55.096 C763.628,55.096 758.644,55.32 754.892,55.404 C754.612,56.776 752.904,63.832 750.468,70.524 C750.048,71.672 749.6,72.736 748.2,72.736 C747.416,72.736 745.624,72.316 745.624,70.72 C745.624,70.104 746.072,69.096 746.352,68.508 C747.668,65.596 749.516,59.912 750.412,55.488 C747.808,55.488 747.444,55.488 746.968,55.348 C746.492,55.236 745.792,54.732 745.792,53.416 C745.792,51.96 746.408,51.288 748.06,51.288 C748.564,51.288 750.72,51.316 751.168,51.316 Z M769.2,49.244 C769.116,49.02 768.752,48.152 768.696,47.928 C768.64,47.76 768.612,47.592 768.612,47.48 C768.612,46.584 769.62,46.556 769.704,46.556 C770.236,46.556 770.516,46.892 770.88,47.788 C771.048,48.236 771.58,49.692 771.58,50.336 C771.58,51.232 770.684,51.288 770.516,51.288 C770.292,51.288 769.844,51.26 769.62,50.588 C769.536,50.392 769.256,49.44 769.2,49.244 Z M769.508,59.772 C769.508,60.192 769.312,60.948 768.808,61.34 C768.444,61.648 768.052,61.704 767.408,61.704 C766.932,61.704 764.832,61.592 764.412,61.592 C762.648,61.592 761.752,61.676 759.232,61.844 C759.064,61.844 758.644,61.9 758.224,61.9 C756.376,61.9 756.376,60.08 756.376,59.8 C756.376,58.932 756.74,58.12 758.056,57.812 C759.82,57.42 763.096,57.336 764.972,57.336 C769.2,57.336 769.508,58.036 769.508,59.772 Z M770.292,70.048 C770.292,72.036 769.312,72.512 764.3,72.512 C757.664,72.512 754.752,71.448 754.752,67.78 C754.752,67.416 754.78,64.364 757.524,64.364 C758.532,64.364 759.624,64.784 759.624,65.792 C759.624,66.072 759.54,66.296 759.484,66.436 C759.316,66.884 759.288,66.996 759.288,67.248 C759.288,67.752 759.596,68.088 760.604,68.256 C761.36,68.396 762.312,68.424 762.956,68.424 C763.74,68.424 765.224,68.368 767.072,68.144 C767.408,68.116 768.024,68.032 768.332,68.032 C769.592,68.032 770.292,68.732 770.292,70.048 Z M765.924,49.664 C765.784,49.3 765.56,48.74 765.42,48.376 C765.336,48.124 765.336,47.9 765.336,47.872 C765.336,47.144 766.12,46.976 766.456,46.976 C767.016,46.976 767.268,47.424 767.548,48.124 C767.772,48.656 768.332,50.028 768.332,50.756 C768.332,51.68 767.408,51.736 767.24,51.736 C766.82,51.736 766.568,51.54 766.4,51.176 C766.288,50.952 766.036,49.972 765.924,49.664 Z M788.048,51.792 C787.656,50.56 787.488,50.028 787.488,49.468 C787.488,47.676 789.532,47.592 789.98,47.592 C790.764,47.592 791.436,47.844 791.856,48.852 C792.024,49.272 792.5,51.176 792.612,51.54 C794.264,51.456 795.44,51.344 797.484,51.092 C797.904,51.036 798.688,50.924 799.08,50.924 C799.948,50.924 801.18,51.232 801.18,53.136 C801.18,54.256 800.648,54.676 800.172,54.872 C799.304,55.236 798.856,55.264 794.404,55.628 C795.496,57.588 796.84,59.352 797.736,60.332 C798.632,61.34 798.884,61.788 798.884,62.488 C798.884,63.608 797.932,64.616 796.672,64.616 C796.168,64.616 795.944,64.504 794.348,63.888 C792.136,63.02 789.812,62.544 787.46,62.544 C784.632,62.544 782.28,63.58 782.28,65.68 C782.28,68.2 786.116,68.34 788.608,68.34 C792.024,68.34 793.676,68.004 796.28,67.472 C796.84,67.36 797.036,67.332 797.316,67.332 C799.304,67.332 799.332,69.012 799.332,69.432 C799.332,70.132 799.08,70.944 798.1,71.336 C796.728,71.896 793.088,72.484 789.308,72.484 C784.352,72.484 782.224,71.644 780.768,70.832 C778.948,69.796 777.856,67.808 777.856,65.596 C777.856,62.852 779.592,58.904 786.816,58.904 C789.42,58.904 791.1,59.38 792.136,59.66 C791.52,58.82 790.484,57.364 789.728,55.88 C786.928,55.992 784.1,56.048 781.272,56.048 C778.528,56.048 777.016,56.048 777.016,53.892 C777.016,51.82 778.668,51.82 779.284,51.82 C779.592,51.82 780.124,51.848 780.432,51.848 C782.112,51.904 782.98,51.876 783.96,51.876 C785.556,51.876 786.704,51.82 788.048,51.792 Z M810.62,48.824 C812.636,48.824 812.636,50.504 812.636,50.896 C812.636,51.232 812.468,52.8 812.44,53.108 C812.356,54.116 812.188,56.412 812.188,58.484 C812.188,62.488 812.776,65.148 813.42,66.24 C813.644,66.604 814.092,66.996 814.736,66.996 C815.968,66.996 816.724,65.708 817.256,64.056 C817.732,62.516 817.928,61.9 819.272,61.9 C820.56,61.9 821.652,62.628 821.652,63.944 C821.652,65.82 820.196,68.424 819.384,69.488 C818.796,70.244 817.312,72.148 814.512,72.148 C807.792,72.148 807.792,60.808 807.792,57.532 C807.792,56.048 807.904,51.4 808.212,50.336 C808.604,48.908 809.556,48.824 810.62,48.824 Z M830.136,70.188 C827.728,70.188 827.728,68.564 827.728,67.584 C827.728,62.208 827.728,55.88 824.648,54.844 C824.368,54.76 823.052,54.564 822.772,54.508 C822.128,54.34 821.456,53.92 821.456,52.464 C821.456,51.4 821.904,50.224 823.752,50.224 C825.236,50.224 828.456,50.868 830.248,53.808 C832.04,56.748 832.488,62.712 832.488,67.388 C832.488,68.424 832.404,70.188 830.136,70.188 Z" fill="#252525"></path>
</svg>
