<svg viewBox="0 0 145 22" version="1.1" xmlns="http://www.w3.org/2000/svg">
  <path d="M8.35,6.812 L8.086,9.232 C8.724,9.232 10.704,9.188 11.804,9.122 C12.002,9.1 12.354,9.078 12.53,9.078 C12.86,9.078 14.224,9.078 14.224,10.662 C14.224,12.158 13.146,12.224 12.09,12.29 C11.408,12.334 8.394,12.4 7.778,12.422 C7.734,12.972 7.712,13.478 7.712,14.138 C7.712,15.722 8.064,16.976 11.562,16.976 C14.84,16.976 15.984,15.942 15.984,13.412 C15.984,12.906 15.94,12.312 15.654,11.344 C15.346,10.288 15.324,10.244 15.324,10.002 C15.324,9.012 16.358,8.594 17.15,8.594 C18.184,8.594 18.624,9.122 18.954,9.76 C19.394,10.574 19.68,11.938 19.68,13.61 C19.68,19.088 16.424,20.364 11.518,20.364 C6.656,20.364 4.148,18.714 4.148,14.072 C4.148,13.808 4.17,13.522 4.236,12.422 C3.356,12.422 2.102,12.4 1.64,12.356 C1.332,12.312 0.32,12.18 0.32,10.794 C0.32,9.474 1.288,9.21 2.036,9.21 C2.432,9.21 4.126,9.232 4.478,9.232 L4.698,6.812 C4.038,6.812 2.102,6.79 1.684,6.702 C1.156,6.57 0.694,6.02 0.694,5.184 C0.694,3.688 1.948,3.6 2.476,3.6 C2.498,3.6 4.852,3.644 4.962,3.644 L5.05,2.5 C5.116,1.708 5.204,0.674 6.898,0.674 C7.998,0.674 8.944,1.114 8.79,2.588 L8.68,3.644 C9.01,3.644 11.474,3.6 13.762,3.512 C14.048,3.49 15.302,3.446 15.566,3.446 C15.918,3.446 17.282,3.446 17.282,5.03 C17.282,6.526 16.094,6.614 15.5,6.636 C12.618,6.79 10.946,6.79 8.35,6.812 Z M29.082,18.164 C29.082,17.35 29.39,16.514 30.732,16.514 C30.93,16.514 31.546,16.558 31.788,16.58 C32.228,16.624 32.646,16.624 33.064,16.624 C35.484,16.624 39.488,16.338 39.488,12.312 C39.488,9.738 37.75,8.836 35.814,8.836 C33.79,8.836 31.634,9.43 30.534,9.782 C28.532,10.442 28.29,10.508 27.916,10.508 C26.684,10.508 26.354,9.364 26.354,8.704 C26.354,7.516 27.08,7.23 28.092,6.922 C31.876,5.822 34.78,5.712 35.836,5.712 C36.804,5.712 39.422,5.712 41.27,7.626 C42.678,9.1 42.92,11.08 42.92,12.268 C42.92,14.336 42.26,16.734 39.862,18.318 C37.662,19.77 33.9,19.858 32.558,19.858 C30.578,19.858 29.082,19.792 29.082,18.164 Z M60.44,6.284 C62.442,5.514 66.38,4.414 67.37,4.414 C69.152,4.414 69.152,6.108 69.152,6.284 C69.152,7.604 68.25,7.868 66.82,8.132 C62.64,8.88 59.516,9.958 57.866,10.794 C57.118,11.168 54.764,12.356 54.764,14.336 C54.764,16.096 56.128,16.756 60.088,16.756 C61.452,16.756 63.102,16.668 65.544,16.272 C65.962,16.206 66.71,16.074 67.106,16.074 C68.272,16.074 68.866,16.69 68.866,17.878 C68.866,19.066 68.206,19.418 67.304,19.638 C65.764,20.012 62.464,20.166 60.638,20.166 C57.052,20.166 50.98,19.88 50.98,14.666 C50.98,12.356 52.3,10.508 53.73,9.496 C54.918,8.638 55.996,8.11 57.14,7.56 C57.074,7.032 56.986,6.526 56.26,3.732 C55.864,2.258 55.82,2.104 55.82,1.84 C55.82,0.718 56.832,0.3 57.778,0.3 C59.34,0.3 59.472,0.96 59.912,3.182 C59.934,3.314 60.418,6.064 60.44,6.284 Z M83.328,11.828 L83.328,11.014 C81.392,11.014 80.358,10.992 80.358,8.594 C80.204,9.056 79.632,9.408 78.994,9.782 C78.18,10.266 76.684,11.08 75.914,11.08 C74.77,11.08 74.44,9.716 74.44,9.232 C74.44,8.682 74.682,8.308 75.188,8.044 C75.408,7.912 76.508,7.384 76.75,7.252 C78.378,6.438 78.554,6.35 78.972,6.35 C79.742,6.35 80.16,6.9 80.358,7.626 L80.358,4.084 C80.358,2.588 80.402,1.4 82.58,1.4 L82.888,1.4 C83.064,0.19 83.834,-0.008 84.846,-0.008 C85.726,-0.008 86.54,0.102 86.54,0.784 C86.54,0.96 86.496,1.07 86.386,1.4 L86.936,1.4 C89.224,1.4 89.642,1.818 89.642,4.084 L89.642,7.912 C89.73,7.296 90.236,6.328 91.314,6.328 C91.6,6.328 91.886,6.328 93.536,7.318 C95.384,8.44 95.494,8.748 95.494,9.364 C95.494,10.288 94.702,11.168 93.866,11.168 C93.426,11.168 93.14,11.036 92.854,10.86 C92.59,10.706 91.358,9.914 91.094,9.738 C89.862,8.99 89.73,8.924 89.642,8.286 C89.642,10.574 89.224,11.014 86.936,11.014 L86.562,11.014 L86.562,11.828 L93.778,11.828 C95.054,11.828 95.362,12.422 95.362,13.5 C95.362,14.754 94.482,14.908 93.778,14.908 L89.07,14.908 C90.522,15.942 91.996,16.514 94.262,17.372 C94.746,17.57 95.23,17.878 95.23,18.582 C95.23,19.484 94.57,20.54 93.646,20.54 C92.634,20.54 89.268,18.978 86.562,16.206 L86.562,19.55 C86.562,20.826 85.968,21.156 84.802,21.156 C83.46,21.156 83.328,20.232 83.328,19.55 L83.328,16.294 C80.688,18.868 77.41,20.54 76.244,20.54 C75.298,20.54 74.704,19.55 74.704,18.714 C74.704,17.79 75.342,17.46 75.958,17.24 C78.07,16.514 79.214,16.118 80.93,14.908 L76.112,14.908 C74.902,14.908 74.506,14.38 74.506,13.28 C74.506,11.85 75.65,11.828 76.112,11.828 L83.328,11.828 Z M83.46,5.03 L86.54,5.03 L86.54,4.282 C86.54,4.018 86.386,3.864 86.122,3.864 L83.878,3.864 C83.57,3.864 83.46,4.04 83.46,4.282 L83.46,5.03 Z M86.54,7.12 L83.46,7.12 L83.46,7.934 C83.46,8.176 83.57,8.352 83.878,8.352 L86.122,8.352 C86.408,8.352 86.54,8.198 86.54,7.934 L86.54,7.12 Z M76.398,1.092 C77.014,1.092 77.96,1.708 78.554,2.126 C79.918,3.116 80.138,3.27 80.138,3.952 C80.138,4.656 79.544,5.8 78.444,5.8 C77.894,5.8 77.586,5.558 76.464,4.7 C76.244,4.546 75.276,3.886 75.1,3.71 C74.88,3.49 74.77,3.16 74.77,2.874 C74.77,2.038 75.452,1.092 76.398,1.092 Z M95.23,2.698 C95.23,3.49 94.218,4.282 92.986,5.294 C92.238,5.888 91.952,5.998 91.578,5.998 C90.654,5.998 89.862,5.008 89.862,4.216 C89.862,3.556 90.148,3.336 91.204,2.478 C91.358,2.368 91.468,2.302 92.216,1.664 C92.942,1.07 93.25,1.026 93.558,1.026 C94.416,1.026 95.23,1.84 95.23,2.698 Z M104.17,0.762 C105.974,0.762 105.974,2.126 105.974,2.632 C105.974,2.852 105.842,5.756 105.82,6.196 C105.666,9.21 105.622,10.112 105.622,12.642 C105.622,14.842 105.776,16.932 109.494,16.932 C113.344,16.932 115.192,15.282 115.808,11.894 C116.05,10.574 116.226,9.65 117.678,9.65 C118.008,9.65 119.658,9.672 119.658,11.256 C119.658,12.224 119.262,14.71 117.59,16.954 C115.83,19.308 113.08,20.298 109.604,20.298 C106.326,20.298 104.346,19.484 103.114,17.812 C102.52,17.02 102.036,15.986 102.036,11.894 C102.036,10.376 102.19,2.588 102.212,2.412 C102.3,1.488 102.608,0.762 104.17,0.762 Z M133.9,6.856 L133.68,9.87 C133.526,12.048 133.394,14.16 133.394,14.402 C133.394,16.074 133.548,16.954 136.694,16.954 C140.478,16.954 140.588,15.414 140.588,14.27 C140.588,13.72 140.544,13.016 140.148,12.048 C139.796,11.19 139.752,11.102 139.752,10.816 C139.752,10.068 140.456,9.474 141.556,9.474 C143.91,9.474 144.24,12.642 144.24,14.402 C144.24,17.548 142.458,18.78 142.172,18.978 C141.138,19.682 139.752,20.232 136.65,20.232 C131.436,20.232 130.71,18.802 130.49,17.262 C130.072,17.526 129.522,17.878 128.554,17.878 C126.244,17.878 125.144,15.744 125.144,13.5 C125.144,9.87 127.344,8.176 129.28,8.176 C129.478,8.176 129.764,8.176 130.556,8.374 L130.6,6.922 C130.138,6.922 128.114,6.944 127.696,6.944 C126.772,6.922 126.332,6.878 125.98,6.548 C125.606,6.196 125.496,5.69 125.496,5.294 C125.496,3.864 126.596,3.666 127.322,3.666 C128.268,3.666 129.61,3.666 130.732,3.644 L130.798,2.258 C130.82,1.774 130.908,0.718 132.47,0.718 C133.372,0.718 134.274,1.092 134.208,2.258 L134.12,3.6 C134.318,3.578 135.22,3.556 135.396,3.556 C135.814,3.556 137.2,3.556 137.2,5.184 C137.2,6.592 136.144,6.724 135.88,6.768 C135.462,6.812 134.89,6.856 133.9,6.856 Z M129.324,10.794 C128.51,10.794 127.696,11.74 127.696,13.126 C127.696,14.248 128.29,14.842 128.972,14.842 C130.534,14.842 130.534,12.466 130.534,12.334 C130.534,11.564 130.292,10.794 129.324,10.794 Z M137.772,2.17 C138.036,1.862 138.476,1.532 139.004,1.532 C139.708,1.532 140.478,1.972 142.37,3.402 C144.636,5.14 144.834,5.602 144.834,6.284 C144.834,7.296 143.932,8.132 143.03,8.132 C142.436,8.132 142.106,7.824 141.336,7.076 C140.412,6.196 139.752,5.668 138.08,4.48 C137.706,4.216 137.332,3.93 137.332,3.248 C137.332,2.786 137.596,2.368 137.772,2.17 Z" fill="#252525"></path>
</svg>
