<svg viewBox="0 0 553 122" version="1.1" xmlns="http://www.w3.org/2000/svg">
  <path d="M264.519004,104.515809 L253.870782,110.74065 C252.626827,111.748005 250.980871,112.133188 249.383799,111.76864 C247.644578,111.372826 246.256547,110.156622 245.672519,108.515215 L245.282738,107.420318 L238.707275,111.528525 C238.195929,111.848053 237.624122,112 237.058103,112 C236.053421,112 235.068677,111.518521 234.485292,110.634975 C233.573231,109.255567 233.984237,107.417817 235.403786,106.531144 L242.491238,102.103409 C243.753845,101.098556 245.422956,100.73088 247.018742,101.11794 C248.722586,101.531887 250.08296,102.741213 250.65734,104.354482 L251.050337,105.458758 L261.369883,99.4246329 C262.81516,98.5804807 264.692669,99.0338217 265.562922,100.439492 C266.431889,101.845161 265.964924,103.670406 264.519004,104.515809 Z M252.004198,96.9935653 C248.678001,96.9877742 245.203877,95.3527294 245.060318,90.5402541 C244.989163,87.8010233 244.997277,83.1365449 245.004767,78.547352 C245.012881,74.0315141 245.019747,69.5896747 245.09964,67.2944347 C245.258179,62.8525953 248.05945,60.1185122 252.293188,60.0522353 C254.409745,60.0560961 260.230121,59.9923931 264.841482,60.0007581 C267.184612,60.0046189 269.15012,60.0084797 270.208087,60.0837651 C272.098071,60.1616244 273.002492,61.6435244 272.999995,63.1241376 C272.997498,64.7533912 271.936411,66.3794274 269.744329,66.4495651 L263.394034,66.4386262 L263.387168,70.5104732 L267.84748,70.5188382 C269.964037,70.5220556 271.020131,71.9306006 271.017634,73.3372153 C271.015137,74.8178284 269.954674,76.2225127 267.837493,76.2186519 L263.377806,76.2109303 L263.370315,80.5781278 L267.830627,80.5864928 C269.947184,80.5903536 271.003278,81.9988987 271.000782,83.4048699 C270.998285,84.8114845 269.937822,86.2168122 267.821265,86.2129515 L263.360953,86.2052299 L263.353463,90.6470693 L265.290259,90.652217 C267.046671,90.652217 268.192021,91.435314 268.192021,93.8734032 C268.192021,96.3443091 266.734586,97 264.88767,97 C264.558733,97 261.133294,96.861655 259.41246,96.8584377 C256.993805,96.8539334 254.423477,96.9240711 252.231395,96.9942088 L252.004198,96.9935653 Z M252.114676,76.1909829 L252.107186,80.5588238 L256.94512,80.5671889 L256.95261,76.1993479 L252.114676,76.1909829 Z M252.203308,68.4172813 L252.199563,70.4905258 L256.961972,70.4988908 L256.968838,66.3530453 C255.60815,66.3504715 254.474659,66.4225396 253.945364,66.4218961 C252.886773,66.4939642 252.281329,67.1593071 252.203308,68.4172813 Z M256.928267,90.6354869 L256.935757,86.1936475 L252.173348,86.1852825 L252.168979,88.7758729 C252.16773,89.6644981 252.846202,90.6284088 254.207515,90.6309827 L256.928267,90.6354869 Z M269.785914,109.308505 C271.926653,110.285103 272.199818,112.443218 271.897766,113.595198 C270.162066,118.372344 266.693806,122.011664 259.751006,121.999972 C252.601604,121.987664 251.996872,119.862779 252.000012,117.950813 C252.003152,116.251766 253.147307,114.483798 255.276743,114.48749 C255.580678,114.488105 255.885242,114.559489 256.265162,114.630872 C257.78547,114.987173 259.077825,115.131171 260.142857,115.133017 C263.18724,115.13794 264.572534,112.777366 265.229388,110.469715 C265.743692,109.125739 268.268119,108.616209 269.785914,109.308505 Z M302.461021,82.6431923 C307.035206,82.6431923 310.756415,86.3582163 310.756415,90.924798 L310.756415,102.60883 C310.756415,107.174778 307.035206,110.890436 302.461021,110.890436 L300.542303,110.890436 C301.408616,111.950603 302.290807,112.979067 302.892273,113.549097 C303.869733,114.474207 305.873559,115.470333 306.90691,115.881212 C308.534741,116.527964 309.332461,118.369308 308.687172,119.995701 C308.193043,121.240383 306.999004,121.999366 305.735101,121.999366 C305.347674,121.999366 304.953895,121.92835 304.571548,121.777441 C304.182216,121.623996 300.709341,120.220796 298.521328,118.149285 C296.591812,116.321891 293.332976,111.999427 292.967778,111.51246 C292.819793,111.315264 292.70547,111.105386 292.610201,110.890436 L289.739427,110.890436 C289.644158,111.105386 289.5292,111.315264 289.38185,111.511826 C289.016652,111.999427 285.757816,116.321891 283.8283,118.149285 C281.640287,120.220796 278.166777,121.623996 277.77808,121.777441 C277.395733,121.92835 277.001319,122 276.613257,122 C275.347449,122 274.151504,121.239114 273.658646,119.99253 C273.015262,118.365503 273.813617,116.525428 275.442083,115.881212 C276.476069,115.470333 278.479895,114.474207 279.457356,113.549097 C280.059456,112.978433 280.942283,111.949969 281.807326,110.890436 L279.819378,110.890436 C275.245193,110.890436 271.523984,107.174778 271.523984,102.60883 L271.523984,90.924798 C271.523984,86.3582163 275.245193,82.6431923 279.819378,82.6431923 L287.273229,82.6431923 L287.226864,79.8792754 L282.534546,79.8716665 C281.149969,79.8691302 280.30525,79.138046 279.922269,78.1165571 C277.533556,80.6655238 276.301409,81.3205195 274.916832,81.3179832 C272.839967,81.3148129 270.996828,79.5597034 271.000004,77.7354802 C271.001909,76.8610958 271.388067,75.9860774 272.389662,75.1852453 C276.85651,71.6915122 280.634246,66.8104311 284.02773,61.636409 C285.724154,59.0861741 288.033476,57.9962055 290.340892,58.0000099 C292.725794,58.0038144 295.185006,59.1755782 297.10436,61.2940105 C301.096768,65.7508979 305.550914,69.9167466 310.390582,73.5728019 C311.542703,74.4503566 312.001899,75.5453978 311.999994,76.6391709 C311.996183,78.8279851 310.069843,81.0129949 307.685576,81.0091905 C306.147299,81.0066542 305.763047,80.7137132 302.15362,77.2789488 C301.920528,78.6643947 300.995148,79.9033701 299.226319,79.9001997 L294.764552,79.8925909 L294.760741,82.6431923 L302.461021,82.6431923 Z M306.310526,102.60883 L306.310526,90.924798 C306.310526,88.8050975 304.583616,87.0816916 302.461021,87.0816916 L279.819378,87.0816916 C277.696783,87.0816916 275.969873,88.8050975 275.969873,90.924798 L275.969873,102.60883 C275.969873,104.727897 277.696783,106.451937 279.819378,106.451937 L286.855315,106.451937 C286.918193,106.451937 286.9798,106.448132 287.043313,106.451937 L295.310761,106.451937 C295.367923,106.448132 295.423814,106.452571 295.480975,106.451937 L302.461021,106.451937 C304.583616,106.451937 306.310526,104.727897 306.310526,102.60883 Z M284.007406,73.5277828 L298.544828,73.5525116 C295.934456,70.702995 293.400934,67.8534784 291.482216,65.6614938 C291.251664,65.4421052 290.867413,65.2956347 290.559376,65.2950006 C290.251974,65.2943665 290.020788,65.3672848 289.866452,65.5860394 C288.015692,68.4279471 286.011231,71.0511002 284.007406,73.5277828 Z M291.540088,99.2594385 L293.861612,102.037754 C294.17012,102.407551 293.929246,103 293.470044,103 L288.529761,103 C288.070559,103 287.829685,102.407551 288.138787,102.037754 L290.459717,99.2594385 C290.74924,98.9135205 291.250565,98.9135205 291.540088,99.2594385 Z M298.500326,92 C299.880987,92 301,93.1190134 301,94.4996738 C301,95.8803341 299.880987,97 298.500326,97 C297.119666,97 296,95.8803341 296,94.4996738 C296,93.1190134 297.119666,92 298.500326,92 Z M283.499674,94 C284.880334,94 286,95.1191595 286,96.5006526 C286,97.8808405 284.880334,99 283.499674,99 C282.119013,99 281,97.8808405 281,96.5 C281,95.1191595 282.119013,94 283.499674,94 Z M17.9,12.484 C17.928,11.756 17.844,8.48 17.984,7.836 C18.124,7.22 18.488,6.324 20.196,6.324 C22.352,6.324 22.632,7.64 22.632,9.208 C22.632,10.692 22.464,12.736 22.352,14.164 C24.424,15.116 25.796,15.76 25.796,17.216 C25.796,18.168 24.984,19.708 23.668,19.708 C22.996,19.708 22.632,19.484 21.568,18.896 C20.392,23.32 16.836,26.876 14.232,26.876 C13.112,26.876 11.992,25.784 11.992,24.58 C11.992,23.488 12.384,23.236 14.932,21.584 C15.576,21.164 17.032,19.904 17.508,16.936 C15.52,16.068 14.344,15.704 12.552,15.396 C12.272,16.488 11.628,19.064 10.2,22.032 C9.388,23.684 8.24,25.392 6,25.392 C3.424,25.392 0.372,23.124 0.372,19.036 C0.372,16.46 1.632,13.352 5.552,11.952 C7.26,11.336 8.716,11.252 9.36,11.224 C9.444,10.86 9.864,9.292 9.892,9.04 C9.948,8.648 10.172,7.5 10.172,7.276 C10.172,6.688 9.808,6.604 9.36,6.604 C8.576,6.604 5.188,6.856 4.488,6.856 C3.9,6.856 2.248,6.856 2.248,4.728 C2.248,2.572 3.872,2.572 4.88,2.572 L6.448,2.572 C7.26,2.572 11.516,2.432 11.628,2.432 C12.412,2.432 14.792,2.432 14.792,4.868 C14.792,5.848 14.4,7.724 14.316,8.144 C14.232,8.676 13.644,10.944 13.532,11.42 C15.548,11.812 16.528,12.092 17.9,12.484 Z M8.38,15.088 C7.68,15.228 7.204,15.312 6.616,15.536 C5.216,16.124 4.124,17.272 4.124,19.12 C4.124,20.744 5.16,21.136 5.496,21.136 C6.084,21.136 6.532,20.436 7.036,19.204 C7.96,16.908 8.24,15.76 8.38,15.088 Z M46.772,15.704 L46.492,11.812 C46.352,10.048 47.948,9.824 48.676,9.824 C49.516,9.824 50.748,10.048 50.832,11.644 L51.084,17.048 C52.512,17.776 53.856,18.672 55.032,19.764 C55.76,20.408 55.984,20.968 55.984,21.584 C55.984,22.76 55.116,23.936 53.772,23.936 C53.38,23.936 52.932,23.824 52.624,23.544 C51.504,22.564 51.28,22.368 50.748,21.864 C50.692,22.704 50.636,23.404 50.16,24.272 C48.872,26.512 46.044,26.764 44.616,26.764 C39.744,26.764 37.672,24.16 37.672,21.276 C37.672,18.588 39.632,15.592 44.98,15.592 C45.708,15.592 46.24,15.648 46.772,15.704 Z M46.912,19.624 C46.352,19.372 45.904,19.176 44.728,19.176 C43.832,19.176 41.48,19.344 41.48,21.192 C41.48,23.068 43.888,23.068 44.28,23.068 C46.464,23.068 46.94,22.004 46.912,19.624 Z M40.444,9.6 C39.8,11.728 38.372,16.292 36.02,20.52 C35.6,21.248 35.124,21.948 33.948,21.948 C32.772,21.948 31.512,21.136 31.512,19.932 C31.512,19.176 31.736,18.84 33.36,15.956 C34.648,13.688 35.544,10.86 35.908,9.768 C33.892,9.796 33.388,9.824 32.828,9.684 C32.128,9.516 31.568,8.816 31.568,7.668 C31.568,5.904 32.8,5.736 33.248,5.652 C33.444,5.624 36.608,5.54 37.084,5.54 C37.168,5.12 37.504,3.272 37.616,2.908 C37.868,2.068 38.596,1.704 39.548,1.704 C40.108,1.704 41.984,1.816 41.984,3.468 C41.984,4.112 41.816,4.756 41.676,5.372 C41.984,5.372 43.328,5.288 43.608,5.288 C44.252,5.288 45.764,5.344 45.764,7.388 C45.764,9.348 44.336,9.432 43.496,9.488 C42.964,9.516 42.712,9.516 40.444,9.6 Z M46.688,4.028 C46.912,3.748 47.528,3.048 48.48,3.048 C49.74,3.048 53.044,5.008 54.976,6.52 C55.956,7.304 56.292,7.892 56.292,8.62 C56.292,9.936 55.116,10.888 54.052,10.888 C53.324,10.888 52.82,10.524 52.232,10.02 C50.692,8.704 50.188,8.284 47.612,6.856 C47.08,6.576 46.324,6.156 46.324,5.148 C46.324,4.616 46.604,4.168 46.688,4.028 Z M74.048,5.792 C73.656,4.56 73.488,4.028 73.488,3.468 C73.488,1.676 75.532,1.592 75.98,1.592 C76.764,1.592 77.436,1.844 77.856,2.852 C78.024,3.272 78.5,5.176 78.612,5.54 C80.264,5.456 81.44,5.344 83.484,5.092 C83.904,5.036 84.688,4.924 85.08,4.924 C85.948,4.924 87.18,5.232 87.18,7.136 C87.18,8.256 86.648,8.676 86.172,8.872 C85.304,9.236 84.856,9.264 80.404,9.628 C81.496,11.588 82.84,13.352 83.736,14.332 C84.632,15.34 84.884,15.788 84.884,16.488 C84.884,17.608 83.932,18.616 82.672,18.616 C82.168,18.616 81.944,18.504 80.348,17.888 C78.136,17.02 75.812,16.544 73.46,16.544 C70.632,16.544 68.28,17.58 68.28,19.68 C68.28,22.2 72.116,22.34 74.608,22.34 C78.024,22.34 79.676,22.004 82.28,21.472 C82.84,21.36 83.036,21.332 83.316,21.332 C85.304,21.332 85.332,23.012 85.332,23.432 C85.332,24.132 85.08,24.944 84.1,25.336 C82.728,25.896 79.088,26.484 75.308,26.484 C70.352,26.484 68.224,25.644 66.768,24.832 C64.948,23.796 63.856,21.808 63.856,19.596 C63.856,16.852 65.592,12.904 72.816,12.904 C75.42,12.904 77.1,13.38 78.136,13.66 C77.52,12.82 76.484,11.364 75.728,9.88 C72.928,9.992 70.1,10.048 67.272,10.048 C64.528,10.048 63.016,10.048 63.016,7.892 C63.016,5.82 64.668,5.82 65.284,5.82 C65.592,5.82 66.124,5.848 66.432,5.848 C68.112,5.904 68.98,5.876 69.96,5.876 C71.556,5.876 72.704,5.82 74.048,5.792 Z M101.352,13.016 C102.36,12.344 103.284,11.728 104.964,11.728 C108.1,11.728 109.36,13.716 109.36,16.544 C109.36,17.132 109.164,19.764 109.164,20.296 C109.164,20.744 109.192,21.472 109.808,21.92 C110.144,22.144 110.48,22.172 110.676,22.172 C112.692,22.172 113.28,19.568 113.588,17.72 C113.672,17.104 113.784,14.36 113.868,13.8 C113.952,13.352 114.12,12.148 116.052,12.148 C118.404,12.148 118.404,13.856 118.404,14.668 C118.404,16.824 117.984,19.736 117.256,21.752 C116.976,22.536 115.772,25.588 112.468,26.4 C111.432,26.652 110.62,26.652 110.34,26.652 C109.052,26.652 106.868,26.372 105.776,24.664 C104.908,23.292 104.908,22.06 104.908,21.164 C104.908,20.604 105.048,18.196 105.048,17.692 C105.048,16.992 105.048,15.9 103.424,15.9 C102.752,15.9 100.596,16.264 99.224,20.38 C99.084,20.828 98.748,21.864 98.328,23.768 C97.992,25.364 97.684,26.372 96.004,26.372 C94.912,26.372 93.624,25.7 93.624,24.3 C93.624,23.796 93.708,23.432 94.1,22.116 C95.612,16.908 97.208,11.728 98.972,6.576 C99.224,5.848 100.12,3.216 100.344,2.768 C100.484,2.488 100.988,1.732 102.192,1.732 C102.752,1.732 104.684,2.012 104.684,3.664 C104.684,4.308 104.516,4.728 103.536,7.248 C102.22,10.664 102.08,11.056 101.8,11.812 C101.688,12.092 101.576,12.344 101.352,13.016 Z M139.352,6.856 C138.764,11.588 137.224,17.664 135.236,20.744 C133.752,23.068 132.1,24.188 129.972,24.188 C125.912,24.188 124.176,20.072 124.176,15.9 C124.176,6.856 130.952,2.628 137.728,2.628 C145.96,2.628 149.796,7.808 149.796,14.36 C149.796,24.832 140.08,26.372 137.896,26.372 C135.712,26.372 135.656,24.384 135.656,24.076 C135.656,22.284 136.916,22.088 137.84,21.948 C140.192,21.584 145.12,20.856 145.12,14.108 C145.12,9.292 142.348,7.136 139.352,6.856 Z M134.984,6.968 C128.992,8.592 128.488,14.052 128.488,15.928 C128.488,18.224 129.356,19.372 130.224,19.372 C131.372,19.372 132.184,17.608 132.8,15.928 C134.2,12.064 134.648,9.264 134.984,6.968 Z M169.344,7.164 C166.712,7.388 163.156,7.584 160.468,7.584 C159.908,7.584 158.088,7.584 158.088,5.428 C158.088,3.244 159.684,3.244 160.72,3.244 C161.056,3.244 164.528,3.328 165.256,3.328 C166.768,3.328 174.384,3.16 174.776,3.16 C175.98,3.16 177.492,3.3 177.492,5.232 C177.492,6.604 176.932,6.968 175.084,8.172 C174.384,8.648 171.276,10.804 170.632,11.168 C170.212,11.392 169.68,11.672 169.064,11.672 C167.888,11.672 166.852,10.72 166.852,9.6 C166.852,8.928 167.244,8.48 168.084,7.892 C168.28,7.752 169.176,7.304 169.344,7.164 Z M179.956,22.984 C179.956,24.44 179.396,25 177.996,25.392 C176.792,25.728 173.572,26.176 169.26,26.176 C168.308,26.176 164.22,26.148 161.476,25.336 C160.468,25.028 156.52,23.88 156.52,19.876 C156.52,16.096 160.16,13.268 161.588,13.268 C163.1,13.268 163.912,14.5 163.912,15.368 C163.912,16.04 163.408,16.6 162.596,17.3 C161.224,18.476 161.168,19.008 161.168,19.456 C161.168,21.752 165.9,21.864 168.364,21.864 C169.792,21.864 172.872,21.808 175.868,21.22 C177.352,20.912 177.548,20.912 177.828,20.912 C179.34,20.912 179.956,21.724 179.956,22.984 Z M174.076,12.568 C173.992,12.372 173.516,11.532 173.432,11.364 C173.32,11.168 173.292,10.916 173.292,10.72 C173.292,10.188 173.964,9.852 174.412,9.852 C174.86,9.852 175.168,10.16 175.672,11.112 C175.84,11.42 176.624,12.904 176.624,13.576 C176.624,14.304 175.84,14.5 175.504,14.5 C175.364,14.5 175,14.5 174.692,13.912 C174.58,13.688 174.16,12.764 174.076,12.568 Z M177.016,11.252 C176.932,11.056 176.4,10.104 176.316,9.908 C176.232,9.684 176.204,9.488 176.204,9.404 C176.204,8.844 176.904,8.536 177.324,8.536 C177.8,8.536 178.08,8.844 178.64,9.852 C178.696,9.964 179.536,11.532 179.536,12.232 C179.536,12.848 178.864,13.156 178.416,13.156 C178.276,13.156 177.912,13.156 177.604,12.568 C177.492,12.372 177.128,11.504 177.016,11.252 Z M187.828,9.152 L195.108,9.152 C195.388,8.816 195.556,8.508 195.78,8.088 C193.848,8.144 190.432,8.2 188.472,8.2 C187.66,8.2 186.428,8.2 186.428,6.464 C186.428,4.84 187.772,4.784 188.192,4.784 C189.088,4.756 190.124,4.784 191.02,4.756 C191.44,4.112 191.664,3.804 192.476,2.488 C193.176,1.396 193.596,0.752 194.772,0.752 C195.584,0.752 197.264,1.06 197.264,2.32 C197.264,2.684 197.236,3.02 195.724,4.84 L196.816,4.84 C198.888,4.84 200.96,4.784 203.004,4.756 C202.08,3.944 201.856,3.748 201.856,3.188 C201.856,2.18 202.976,1.256 204.124,1.256 C204.432,1.256 204.796,1.312 205.524,1.788 C205.972,2.096 206.84,2.712 208.184,3.776 C210.368,5.512 210.872,5.988 210.872,6.884 C210.872,7.808 210.004,8.956 208.688,8.956 C208.016,8.956 207.96,8.928 206.448,7.612 C204.096,7.808 203.116,7.836 199.756,7.976 C199.476,8.536 199.336,8.788 199.14,9.152 L210.228,9.152 C210.648,9.152 212.3,9.152 212.3,10.916 C212.3,12.652 210.62,12.652 210.228,12.652 L206.252,12.652 C206.588,12.876 206.672,12.932 207.4,13.436 C207.96,13.856 209.388,14.5 210.004,14.752 C211.656,15.396 212.216,15.62 212.216,16.824 C212.216,18.028 211.404,19.12 210.34,19.12 C209.248,19.12 207.344,17.888 206.196,17.104 C203.648,15.368 202.304,13.856 201.296,12.652 L196.732,12.652 C196.032,13.492 194.884,14.64 193.036,16.096 C194.408,15.76 195.752,15.424 197.768,14.332 C199.392,13.464 199.476,13.408 199.896,13.408 C200.708,13.408 201.436,14.22 201.436,15.088 C201.436,15.676 201.324,16.012 199.028,17.132 C196.032,18.616 192.616,19.26 191.832,19.26 C190.964,19.26 190.6,18.504 190.516,17.832 C189.06,18.672 188.276,18.952 187.632,18.952 C186.68,18.952 185.756,18.056 185.756,16.712 C185.756,15.76 186.148,15.452 187.352,14.948 C189.48,14.024 190.796,13.128 191.44,12.652 L187.828,12.652 C187.352,12.652 185.784,12.624 185.784,10.888 C185.784,9.152 187.436,9.152 187.828,9.152 Z M207.036,19.064 C208.016,19.064 208.94,20.072 208.94,21.052 C208.94,21.724 208.688,22.452 205.86,23.88 C198.552,27.604 190.796,27.66 190.348,27.66 C188.556,27.66 188.444,26.288 188.444,25.84 C188.444,24.356 189.592,24.244 190.796,24.132 C197.712,23.516 202.108,22.06 205.524,19.68 C206.112,19.288 206.504,19.064 207.036,19.064 Z M203.284,16.236 C204.292,16.236 204.88,17.328 204.88,17.916 C204.88,18.644 204.32,19.12 202.864,19.876 C198.3,22.256 191.776,23.376 189.844,23.376 C188.388,23.376 188.388,21.92 188.388,21.78 C188.388,20.688 189.2,20.464 190.124,20.352 C195.444,19.708 198.804,18.672 202.136,16.684 C202.64,16.376 202.976,16.236 203.284,16.236 Z M220.172,9.908 L218.744,9.908 C217.792,9.908 216.7,9.684 216.7,8.004 C216.7,6.464 217.12,5.736 218.744,5.736 L220.172,5.736 L220.172,3.048 C220.172,2.32 220.284,0.976 222.048,0.976 C223.532,0.976 224.26,1.452 224.26,3.048 L224.26,5.736 L226.164,5.736 C227.62,5.736 228.656,5.736 229.44,6.632 C230.084,7.36 230.112,8.032 230.112,10.3 C230.112,12.316 229.972,18.476 229.832,20.632 C229.44,26.736 228.88,27.632 225.1,27.632 C224.456,27.632 223.308,27.632 222.832,27.324 C222.412,27.072 221.936,26.316 221.936,25.224 C221.936,24.804 222.02,23.796 222.72,23.376 C222.944,23.236 223.224,23.152 223.672,23.152 C224.764,23.152 224.988,23.152 225.268,22.48 C225.8,21.22 225.94,13.38 225.94,10.776 C225.94,9.992 225.828,9.908 225.128,9.908 L224.26,9.908 C224.092,18.084 222.748,21.808 221.852,24.02 C220.704,26.82 219.92,27.38 219.024,27.38 C217.792,27.38 216.476,26.344 216.476,25.224 C216.476,24.58 216.784,24.048 217.26,23.208 C218.296,21.388 220.172,18.028 220.172,9.908 Z M242.292,6.016 L242.292,23.32 C242.292,26.26 240.948,27.072 238.568,27.072 L235.264,27.072 C232.968,27.072 231.512,26.316 231.512,23.32 L231.512,6.016 C231.512,3.076 232.884,2.292 235.264,2.292 L238.568,2.292 C240.976,2.292 242.292,3.132 242.292,6.016 Z M238.26,22.088 L238.26,7.276 C238.26,6.716 237.952,6.38 237.392,6.38 L236.412,6.38 C235.852,6.38 235.544,6.716 235.544,7.276 L235.544,22.088 C235.544,22.648 235.852,22.956 236.412,22.956 L237.392,22.956 C237.924,22.956 238.26,22.704 238.26,22.088 Z M256.968,4.532 C257.192,4 257.472,3.16 257.724,2.628 C257.892,2.236 258.284,1.592 259.74,1.592 C260.748,1.592 262.008,1.956 262.008,3.244 C262.008,3.692 261.784,4.224 261.7,4.42 C264.528,4.336 269.54,4.14 270.156,4.14 C271.192,4.14 272.312,4.588 272.312,6.156 C272.312,7.864 271.052,8.06 270.632,8.116 C269.96,8.228 262.372,8.452 259.404,8.508 C258.62,9.74 258.592,9.796 258.116,10.608 C259.824,9.656 261.28,9.628 261.672,9.628 C262.26,9.628 263.268,9.74 264.136,10.244 C265.172,10.86 265.648,11.728 265.816,12.036 C267.468,11.448 270.268,10.58 271.332,10.58 C273.236,10.58 273.32,12.484 273.32,12.848 C273.32,14.556 272.116,14.836 271.052,15.06 C268,15.732 267.916,15.76 266.628,16.124 C266.712,17.216 266.768,18.336 266.768,18.896 C266.768,20.184 266.768,21.752 264.64,21.752 C262.568,21.752 262.512,20.24 262.484,19.792 C262.456,19.204 262.484,18.224 262.484,17.636 C260.048,18.7 258.34,19.68 258.34,21.276 C258.34,22.536 260.16,22.844 263.044,22.844 C265.004,22.844 266.936,22.592 268.868,22.312 C269.344,22.228 269.736,22.228 269.932,22.228 C271.388,22.228 271.808,23.208 271.808,24.244 C271.808,25.784 270.828,26.064 270.464,26.176 C268.336,26.82 264.752,26.82 263.94,26.82 C259.74,26.82 258.06,26.512 256.548,25.896 C254.84,25.224 253.636,23.768 253.636,21.892 C253.636,17.692 258.396,15.172 261.672,13.688 C261.252,13.268 260.692,13.072 260.104,13.072 C256.968,13.072 254.672,15.984 253.972,16.88 C253.72,17.188 252.712,18.532 252.488,18.812 C252.124,19.232 251.592,19.652 250.752,19.652 C249.492,19.652 248.624,18.532 248.624,17.496 C248.624,16.6 249.1,16.068 250.612,14.416 C252.04,12.848 252.908,11.728 254.924,8.592 C254.42,8.592 252.208,8.62 251.76,8.62 C251.144,8.62 249.436,8.62 249.436,6.576 C249.436,4.616 251.06,4.588 251.676,4.588 C254.952,4.56 255.316,4.56 256.968,4.532 Z M291.58,9.096 L291.58,11.112 C292.084,11.056 292.868,10.944 293.988,10.944 C295.556,10.944 299.476,11.196 301.828,13.212 C303.536,14.64 304.18,16.796 304.18,18.728 C304.18,23.544 300.624,26.68 294.436,26.68 C293.54,26.68 291.748,26.68 291.748,24.524 C291.748,22.704 293.288,22.704 294.184,22.704 C295.388,22.704 299.448,22.704 299.448,18.784 C299.448,15.312 296.368,14.808 293.764,14.808 C292.7,14.808 292.252,14.864 291.58,14.976 L291.58,19.316 C291.58,21.78 291.58,26.568 286.148,26.568 C282.032,26.568 279.848,23.572 279.848,20.38 C279.848,14.864 285.364,12.764 287.324,12.036 L287.324,9.264 C286.68,9.292 283.964,9.348 283.404,9.348 L282.312,9.348 C281.612,9.348 280.044,9.348 280.044,7.304 C280.044,5.82 280.912,5.456 281.64,5.344 C281.864,5.316 286.036,5.232 287.324,5.204 L287.324,3.888 C287.324,2.908 287.38,1.62 289.452,1.62 C291.524,1.62 291.58,2.964 291.58,3.86 L291.58,5.008 C292.924,4.952 293.4,4.924 293.764,4.924 C294.38,4.924 295.92,4.924 295.92,6.968 C295.92,8.424 295.052,8.76 294.8,8.844 C294.352,8.956 294.072,8.984 291.58,9.096 Z M287.38,19.148 L287.38,16.096 C286.4,16.544 283.964,17.692 283.964,20.128 C283.964,21.388 284.72,22.452 285.84,22.452 C287.044,22.452 287.38,21.164 287.38,19.148 Z M296.368,3.3 C296.536,3.16 297.152,2.628 297.936,2.628 C299.308,2.628 301.632,4.616 302.92,5.988 C304.04,7.164 304.684,8.06 304.684,8.984 C304.684,10.3 303.452,11.196 302.332,11.196 C301.408,11.196 301.016,10.636 300.4,9.796 C299,7.864 298.384,7.388 296.564,6.016 C295.78,5.428 295.78,4.644 295.78,4.56 C295.78,3.972 296.284,3.356 296.368,3.3 Z M328.908,13.016 L319.528,13.016 C318.884,13.016 318.156,12.96 317.848,11.924 C317.568,12.316 317.288,12.68 316.784,13.268 L316.784,25.672 C316.784,27.184 316.14,27.716 314.572,27.716 C312.836,27.716 312.64,26.54 312.64,25.672 L312.64,17.328 C312.276,17.58 311.884,17.748 311.436,17.748 C310.372,17.748 309.364,16.656 309.364,15.34 C309.364,14.136 310.036,13.604 311.24,12.596 C312.696,11.392 313.732,10.132 314.124,9.6 C315.804,7.388 315.972,7.164 316.952,7.164 C318.016,7.164 318.996,7.92 319.108,9.068 C319.248,9.068 319.332,9.04 319.528,9.04 L324.596,9.04 L324.596,7.192 L320.312,7.192 C319.808,7.192 318.548,7.192 318.548,5.316 C318.548,3.468 319.864,3.468 320.312,3.468 L324.596,3.468 L324.596,2.6 C324.596,1.312 325.436,0.948 326.78,0.948 C327.928,0.948 328.712,1.396 328.712,2.6 L328.712,3.468 L333.528,3.468 C334.06,3.468 335.32,3.468 335.32,5.344 C335.32,7.192 334.004,7.192 333.528,7.192 L328.712,7.192 L328.712,9.04 L334.508,9.04 C335.068,9.04 336.328,9.04 336.328,11.056 C336.328,13.016 335.04,13.016 334.508,13.016 L333.052,13.016 L333.052,14.752 L334.284,14.752 C334.844,14.752 336.104,14.752 336.104,16.768 C336.104,18.756 334.816,18.756 334.284,18.756 L333.052,18.756 L333.052,24.216 C333.052,27.632 331.092,27.632 328.264,27.632 C325.352,27.632 324.148,27.632 324.148,25.616 C324.148,25.252 324.204,24.86 324.344,24.552 C323.98,24.776 323.588,24.888 323.196,24.888 C322.384,24.888 322.16,24.664 320.76,23.04 C319.332,21.416 319.164,21.248 319.164,20.688 C319.164,20.128 319.472,19.26 320.536,18.756 L319.64,18.756 C319.08,18.756 317.82,18.756 317.82,16.74 C317.82,14.752 319.108,14.752 319.64,14.752 L328.908,14.752 L328.908,13.016 Z M328.908,18.756 L321.992,18.756 C322.692,19.064 323.28,19.708 323.896,20.38 C325.212,21.752 325.408,22.144 325.408,22.704 C325.408,23.18 325.268,23.488 325.156,23.656 C325.576,23.46 326.024,23.46 326.192,23.46 C326.444,23.46 327.76,23.516 328.04,23.516 C328.88,23.516 328.908,23.096 328.908,22.424 L328.908,18.756 Z M316.252,1.116 C317.4,1.116 318.464,2.096 318.464,3.076 C318.464,4.308 316.7,5.988 315.468,7.08 C314.432,7.976 312.92,9.292 311.912,9.292 C310.68,9.292 309.672,8.172 309.672,6.856 C309.672,6.296 309.784,5.708 310.568,5.176 C312.752,3.692 312.948,3.496 314.712,1.816 C315.104,1.452 315.468,1.116 316.252,1.116 Z M351.256,9.208 C350.332,11.588 350.276,11.756 349.772,12.68 C351.228,11.98 353.104,11.14 356.156,11.14 C358.06,11.14 359.964,11.392 361.7,12.148 C364.416,13.296 365.508,16.04 365.508,18.392 C365.508,22.592 362.988,24.356 361.672,24.972 C359.936,25.756 357.472,26.54 352.796,26.54 C350.164,26.54 347.084,26.232 345.936,25.7 C345.544,25.532 344.76,25.112 344.76,23.852 C344.76,22.9 345.292,21.696 346.524,21.696 C346.972,21.696 347.14,21.724 348.624,22.032 C349.1,22.116 350.976,22.424 353.356,22.424 C356.492,22.424 360.804,21.836 360.804,18.364 C360.804,15.284 357.192,15.004 355.736,15.004 C353.328,15.004 350.388,15.508 348.176,17.58 C347.476,18.224 347.084,18.56 346.16,18.56 C344.872,18.56 343.64,17.748 343.64,16.656 C343.64,16.012 343.808,15.648 344.34,14.668 C345.376,12.708 346.356,10.048 346.608,9.264 C345.964,9.264 343.92,9.292 343.472,9.236 C343.08,9.208 341.736,9.04 341.736,7.164 C341.736,5.092 343.276,5.092 344.704,5.092 C345.376,5.092 346.748,5.064 347.784,5.064 C347.868,4.728 348.204,3.132 348.316,2.824 C348.708,1.676 349.912,1.648 350.416,1.648 C352.376,1.648 352.88,2.46 352.88,3.496 C352.88,3.804 352.852,4.112 352.628,5.008 C356.24,4.924 358.592,4.868 361.056,4.784 C361.532,4.756 363.52,4.672 363.94,4.672 C364.668,4.672 366.208,4.728 366.208,6.772 C366.208,8.732 364.78,8.816 363.912,8.844 C359.964,9.04 355.036,9.124 351.256,9.208 Z M377.58,1.788 C379.876,1.788 379.876,3.524 379.876,4.168 C379.876,4.448 379.708,8.144 379.68,8.704 C379.484,12.54 379.428,13.688 379.428,16.908 C379.428,19.708 379.624,22.368 384.356,22.368 C389.256,22.368 391.608,20.268 392.392,15.956 C392.7,14.276 392.924,13.1 394.772,13.1 C395.192,13.1 397.292,13.128 397.292,15.144 C397.292,16.376 396.788,19.54 394.66,22.396 C392.42,25.392 388.92,26.652 384.496,26.652 C380.324,26.652 377.804,25.616 376.236,23.488 C375.48,22.48 374.864,21.164 374.864,15.956 C374.864,14.024 375.06,4.112 375.088,3.888 C375.2,2.712 375.592,1.788 377.58,1.788 Z M415.748,7.668 C414.264,7.78 406.256,8.396 405.528,8.396 C404.072,8.396 403.4,7.388 403.4,6.072 C403.4,4.868 403.82,3.888 405.416,3.72 C406.592,3.608 419.892,3.104 425.324,3.104 C426.864,3.104 428.46,3.104 428.46,5.232 C428.46,7.5 426.948,7.556 425.352,7.556 C423.672,7.584 421.964,7.892 419.444,9.32 C416.56,10.972 413.704,14.08 413.704,17.356 C413.704,20.856 416.588,21.64 421.292,21.64 L423.7,21.64 C424.736,21.64 425.856,22.06 425.856,23.74 C425.856,26.372 423.812,26.372 421.796,26.372 C420.984,26.372 418.408,26.344 415.58,25.616 C414.068,25.224 409.056,23.936 409.056,17.888 C409.056,14.724 410.484,12.428 412.08,10.664 C413.508,9.068 414.684,8.34 415.748,7.668 Z M446.58,9.096 L446.58,11.112 C447.084,11.056 447.868,10.944 448.988,10.944 C450.556,10.944 454.476,11.196 456.828,13.212 C458.536,14.64 459.18,16.796 459.18,18.728 C459.18,23.544 455.624,26.68 449.436,26.68 C448.54,26.68 446.748,26.68 446.748,24.524 C446.748,22.704 448.288,22.704 449.184,22.704 C450.388,22.704 454.448,22.704 454.448,18.784 C454.448,15.312 451.368,14.808 448.764,14.808 C447.7,14.808 447.252,14.864 446.58,14.976 L446.58,19.316 C446.58,21.78 446.58,26.568 441.148,26.568 C437.032,26.568 434.848,23.572 434.848,20.38 C434.848,14.864 440.364,12.764 442.324,12.036 L442.324,9.264 C441.68,9.292 438.964,9.348 438.404,9.348 L437.312,9.348 C436.612,9.348 435.044,9.348 435.044,7.304 C435.044,5.82 435.912,5.456 436.64,5.344 C436.864,5.316 441.036,5.232 442.324,5.204 L442.324,3.888 C442.324,2.908 442.38,1.62 444.452,1.62 C446.524,1.62 446.58,2.964 446.58,3.86 L446.58,5.008 C447.924,4.952 448.4,4.924 448.764,4.924 C449.38,4.924 450.92,4.924 450.92,6.968 C450.92,8.424 450.052,8.76 449.8,8.844 C449.352,8.956 449.072,8.984 446.58,9.096 Z M442.38,19.148 L442.38,16.096 C441.4,16.544 438.964,17.692 438.964,20.128 C438.964,21.388 439.72,22.452 440.84,22.452 C442.044,22.452 442.38,21.164 442.38,19.148 Z M451.368,3.3 C451.536,3.16 452.152,2.628 452.936,2.628 C454.308,2.628 456.632,4.616 457.92,5.988 C459.04,7.164 459.684,8.06 459.684,8.984 C459.684,10.3 458.452,11.196 457.332,11.196 C456.408,11.196 456.016,10.636 455.4,9.796 C454,7.864 453.384,7.388 451.564,6.016 C450.78,5.428 450.78,4.644 450.78,4.56 C450.78,3.972 451.284,3.356 451.368,3.3 Z M472.876,6.968 C473.604,5.82 474.36,4.644 476.208,3.44 C477.664,2.488 479.148,2.208 480.352,2.208 C482.956,2.208 484.944,3.524 485.98,4.98 C487.772,7.472 488.192,10.972 488.192,13.996 C488.192,20.856 485.952,24.132 481.388,25.756 C479.008,26.596 476.544,26.848 474.276,26.848 C472.624,26.848 470.776,26.848 470.776,24.608 C470.776,22.536 472.512,22.536 473.1,22.536 C473.464,22.536 475.06,22.564 475.368,22.536 C481.92,22.2 483.488,19.176 483.488,13.996 C483.488,10.608 482.984,6.324 479.736,6.324 C476.152,6.324 472.484,11.252 472.484,15.564 C472.484,15.984 472.596,17.748 472.596,18.112 C472.596,18.784 472.596,20.296 470.384,20.296 C469.908,20.296 468.676,20.24 468.34,19.064 C468.144,18.364 467.976,16.488 467.976,14.976 C467.976,9.264 468.48,4.364 468.844,3.132 C469.068,2.348 469.516,1.592 471.084,1.592 C471.784,1.592 473.464,1.676 473.464,3.44 C473.464,3.664 473.408,4.028 473.352,4.308 C472.988,5.904 472.988,6.072 472.876,6.968 Z M511.772,8.424 L511.828,10.412 C512.752,10.384 516.924,10.3 517.764,10.244 C517.876,10.244 518.352,10.216 518.548,10.216 C519.556,10.216 520.508,10.608 520.508,12.12 C520.508,13.94 519.276,14.024 517.68,14.052 C516.784,14.08 512.724,14.164 511.884,14.192 L511.94,16.908 C514.908,17.86 518.184,19.988 519.78,21.304 C520.648,22.032 520.788,22.676 520.788,23.124 C520.788,24.356 519.808,25.672 518.464,25.672 C517.792,25.672 517.4,25.476 516.448,24.636 C515.972,24.216 514.768,23.264 513.536,22.396 C512.808,21.892 512.388,21.696 511.94,21.444 C511.828,23.096 511.604,26.68 505.444,26.68 C500.18,26.68 497.324,24.412 497.324,21.276 C497.324,18.196 500.152,15.844 505.332,15.844 C506.34,15.844 507.012,15.928 507.46,15.984 L507.432,14.276 C506.312,14.276 501.468,14.332 500.46,14.332 C499.144,14.332 498.528,14.332 498.08,14.08 C497.604,13.8 497.296,13.212 497.296,12.4 C497.296,11.028 498.136,10.524 499.284,10.524 C501.524,10.524 505.108,10.496 507.348,10.496 L507.292,8.508 C506.256,8.508 501.72,8.564 500.768,8.564 L500.096,8.564 C498.892,8.564 498.276,8.564 497.856,8.312 C497.324,8.004 497.044,7.36 497.044,6.632 C497.044,4.7 498.556,4.7 499.34,4.7 C499.592,4.7 500.656,4.728 500.88,4.728 C501.888,4.7 506.312,4.672 507.236,4.672 L507.208,3.608 C507.152,1.872 508.608,1.648 509.42,1.648 C510.568,1.648 511.632,2.012 511.688,3.608 L511.716,4.588 C512.696,4.56 517.092,4.476 517.988,4.42 C518.044,4.42 518.604,4.392 518.8,4.392 C519.64,4.392 520.76,4.672 520.76,6.324 C520.76,8.144 519.556,8.2 518.408,8.256 C517.372,8.312 512.724,8.396 511.772,8.424 Z M507.488,19.68 C507.012,19.512 506.284,19.26 505.052,19.26 C504.296,19.26 501.524,19.372 501.524,21.136 C501.524,22.312 502.84,22.9 504.856,22.9 C505.696,22.9 506.76,22.788 507.208,22.06 C507.46,21.612 507.488,21.164 507.488,19.68 Z M546.356,8.508 L546.356,14.444 C546.608,15.2 546.972,16.292 546.972,18 C546.972,22.956 543.976,25.7 538.796,26.512 C536.724,26.848 534.932,26.904 534.54,26.904 C534.008,26.904 532.048,26.904 532.048,24.72 C532.048,22.9 533.336,22.9 534.764,22.9 C536.388,22.872 538.796,22.76 540.532,21.864 C541.932,21.136 542.268,20.1 542.408,19.652 C541.54,20.296 540.672,20.968 538.208,20.968 C534.204,20.968 531.32,18.784 531.32,15.368 C531.32,12.372 533.728,9.796 538.32,9.796 C539.3,9.796 540.616,9.88 541.96,10.384 L541.932,8.62 C536.976,8.704 535.212,8.76 532.16,8.76 C529.332,8.76 529.08,8.732 528.66,8.62 C528.24,8.508 527.456,8.144 527.456,6.716 C527.456,4.728 528.968,4.7 529.976,4.7 C530.704,4.7 533.896,4.728 534.568,4.728 C537.592,4.7 538.824,4.672 541.848,4.616 L541.82,3.86 C541.792,3.272 541.764,1.564 544.06,1.564 C546.356,1.564 546.356,3.216 546.356,3.804 L546.356,4.504 C546.972,4.504 549.744,4.392 550.332,4.392 C551.256,4.392 552.516,4.588 552.516,6.38 C552.516,8.256 551.228,8.396 550.276,8.424 C549.716,8.452 549.38,8.452 546.356,8.508 Z M538.796,17.608 C540.364,17.608 541.96,16.964 541.96,15.368 C541.96,13.212 539.328,13.128 538.88,13.128 C537.62,13.128 535.66,13.66 535.66,15.368 C535.66,17.384 538.096,17.608 538.796,17.608 Z" fill="#252525"></path>
</svg>
