<svg viewBox="0 0 326 200" version="1.1" xmlns="http://www.w3.org/2000/svg">
  <polygon fill="#C6C6C6" points="78 82.4469333 193.565282 82.4469333 193.565282 -1 78 -1"></polygon>
  <path d="M207,112 L207,100 L230.601886,100 C227.11826,96.2847046 225,91.3784811 225,86 C225,74.4020203 234.849736,65 247,65 C259.150264,65 269,74.4020203 269,86 C269,91.8991033 266.45181,97.2300976 262.348802,101.044764 C272.765529,101.738435 281,110.407586 281,121 L281,129 L242,129 L242,134 L207,134 L207,128 L201,128 L201,112 L207,112 Z M45,98 L80,98 L80,134 L45,134 L45,98 Z M99,98 L134,98 L134,134 L99,134 L99,98 Z M154,98 L189,98 L189,134 L154,134 L154,98 Z" fill="#FFFFFF"></path>
  <path d="M59.4033333,189.418677 L59.4033333,182.180677 C59.4033333,180.838677 59.4033333,180.046677 61.6473333,179.782677 C64.6393333,179.452677 64.6833333,179.452677 65.9153333,179.188677 C67.0813333,178.924677 67.2793333,178.880677 67.5433333,178.880677 C68.4673333,178.880677 69.0613333,179.716677 69.0613333,180.618677 C69.0613333,182.092677 68.0933333,182.334677 63.6493333,182.774677 C62.6813333,182.862677 62.4833333,183.038677 62.4833333,183.566677 L62.4833333,185.128677 L67.7633333,185.128677 C68.5773333,185.128677 69.3913333,185.348677 69.3913333,186.624677 C69.3913333,187.746677 69.0613333,188.362677 67.7633333,188.362677 L67.3893333,188.362677 L67.3893333,197.998677 C67.3893333,198.790677 67.1473333,199.582677 65.9593333,199.582677 C64.8373333,199.582677 64.2213333,199.296677 64.2213333,197.998677 L64.2213333,188.362677 L62.4833333,188.362677 L62.4833333,189.462677 C62.4833333,192.982677 61.7793333,196.106677 60.8773333,197.800677 C60.1953333,199.076677 59.7333333,199.362677 59.0073333,199.362677 C57.9953333,199.362677 57.2033333,198.658677 57.2033333,197.778677 C57.2033333,197.338677 57.2693333,197.228677 57.9293333,196.216677 C57.4893333,196.590677 57.0933333,196.590677 57.0053333,196.590677 C56.4553333,196.590677 56.1473333,196.282677 55.4433333,195.292677 L55.4433333,197.998677 C55.4433333,198.548677 55.3553333,199.604677 54.0573333,199.604677 C53.0453333,199.604677 52.4513333,199.274677 52.4513333,197.998677 L52.4513333,195.754677 C50.7793333,197.800677 50.4053333,197.800677 49.9873333,197.800677 C48.9973333,197.800677 48.2273333,197.008677 48.2273333,195.996677 C48.2273333,195.248677 48.4913333,195.050677 49.9433333,193.972677 C50.4493333,193.598677 51.2193333,192.872677 51.9013333,192.058677 L50.1193333,192.058677 C49.7673333,192.058677 48.5353333,192.058677 48.5353333,190.694677 C48.5353333,189.704677 48.9313333,189.198677 50.1193333,189.198677 L52.4513333,189.198677 L52.4513333,188.076677 L49.9433333,188.076677 C49.3713333,188.076677 48.3373333,188.076677 48.3373333,186.712677 C48.3373333,185.304677 49.0853333,185.172677 49.9213333,185.172677 L50.5593333,185.172677 C50.4493333,184.512677 50.2733333,183.742677 50.1193333,183.060677 C49.6793333,183.060677 48.7333333,183.060677 48.7333333,181.718677 C48.7333333,180.486677 49.2393333,180.156677 50.2293333,180.156677 L52.4513333,180.156677 L52.4513333,179.760677 C52.4513333,178.902677 53.1553333,178.572677 53.9033333,178.572677 C54.4313333,178.572677 55.5533333,178.638677 55.5533333,179.760677 L55.5533333,180.156677 L57.6653333,180.156677 C58.0833333,180.156677 59.1613333,180.156677 59.1613333,181.586677 C59.1613333,182.862677 58.5893333,183.060677 57.7313333,183.060677 C57.6653333,183.390677 57.2913333,184.886677 57.2473333,185.172677 L57.6873333,185.172677 C58.1273333,185.172677 59.1613333,185.172677 59.1613333,186.580677 C59.1613333,188.032677 58.3473333,188.076677 57.5773333,188.076677 L55.4433333,188.076677 L55.4433333,189.198677 L57.3573333,189.198677 C57.7093333,189.198677 58.9413333,189.198677 58.9413333,190.562677 C58.9413333,191.596677 58.4573333,192.058677 57.3573333,192.058677 L56.0593333,192.058677 C56.7853333,192.894677 56.9613333,193.070677 57.9073333,193.928677 C58.1713333,194.170677 58.5673333,194.522677 58.5013333,195.116677 C58.7213333,194.610677 59.4033333,192.718677 59.4033333,189.418677 Z M53.3313333,185.172677 L54.4753333,185.172677 C54.7173333,184.116677 54.7833333,183.786677 54.8713333,183.060677 L52.9353333,183.060677 C53.2213333,184.490677 53.2433333,184.644677 53.3313333,185.172677 Z M86.3193333,188.934677 L87.6833333,188.934677 C87.6613333,188.890677 87.6173333,188.824677 87.5733333,188.758677 C87.1773333,188.120677 87.1333333,188.054677 87.0893333,187.856677 C86.9133333,187.878677 86.4953333,187.922677 86.2093333,187.944677 C86.2313333,188.252677 86.2753333,188.472677 86.3193333,188.934677 Z M76.6393333,185.568677 L76.6393333,186.602677 C76.8373333,186.932677 76.9473333,187.042677 77.0573333,187.174677 C77.0353333,186.404677 77.3653333,186.338677 77.6293333,186.272677 C77.8713333,185.964677 78.9933333,184.468677 79.2573333,184.116677 C78.8613333,183.676677 78.7513333,183.566677 77.7613333,182.686677 C77.4973333,182.466677 77.3653333,182.158677 77.3653333,181.828677 C77.3653333,181.520677 77.6293333,180.420677 78.6413333,180.464677 C78.9493333,179.980677 79.1253333,179.738677 79.4553333,179.188677 C79.6093333,178.946677 79.7853333,178.726677 80.2253333,178.726677 C80.8413333,178.726677 81.4133333,179.166677 81.4133333,179.650677 C81.4133333,180.112677 80.5993333,181.168677 80.2253333,181.652677 C80.3573333,181.806677 80.4673333,181.916677 80.6873333,182.158677 C80.8853333,181.872677 81.1933333,181.410677 81.4133333,181.124677 C81.6553333,180.794677 81.7873333,180.662677 82.1393333,180.662677 C82.5353333,180.662677 82.7773333,180.816677 82.9313333,180.926677 C82.8873333,179.408677 82.8653333,178.550677 84.3173333,178.550677 C84.7353333,178.550677 85.3953333,178.682677 85.6593333,179.210677 C85.7693333,179.452677 85.8133333,179.760677 85.8133333,180.772677 C85.9233333,180.618677 86.1873333,180.288677 86.8033333,180.354677 C86.9133333,180.178677 87.4193333,179.298677 87.5953333,179.100677 C87.7933333,178.858677 87.9253333,178.682677 88.3433333,178.682677 C88.9153333,178.682677 89.5313333,179.078677 89.5313333,179.584677 C89.5313333,180.046677 88.6513333,181.212677 88.2993333,181.718677 C88.3433333,181.784677 88.5853333,182.070677 88.7393333,182.268677 C89.0253333,181.828677 89.4653333,181.190677 89.7073333,180.904677 C89.8613333,180.728677 90.0153333,180.574677 90.3453333,180.574677 C90.9173333,180.574677 91.6653333,181.124677 91.6653333,181.674677 C91.6653333,182.092677 91.0713333,182.796677 90.8293333,183.104677 C90.4113333,183.588677 89.2453333,184.952677 88.5633333,185.656677 C88.8933333,185.634677 89.0033333,185.634677 89.8833333,185.546677 C89.8173333,185.260677 89.7513333,185.040677 89.7513333,184.908677 C89.7513333,184.270677 90.4333333,184.072677 90.8293333,184.072677 C91.4013333,184.072677 91.5553333,184.446677 91.6873333,184.886677 C92.0613333,186.118677 92.1933333,187.196677 92.1933333,187.416677 C92.1933333,188.164677 91.4673333,188.362677 91.1373333,188.362677 C90.4113333,188.362677 90.2793333,187.768677 90.2573333,187.526677 C89.7733333,187.614677 89.5973333,187.636677 89.3553333,187.658677 C89.7293333,188.186677 89.9933333,188.560677 90.0593333,188.934677 L90.6973333,188.934677 C91.8413333,188.934677 92.3033333,189.440677 92.3033333,190.342677 C92.3033333,191.398677 91.6213333,191.706677 90.6973333,191.706677 L89.0913333,191.706677 C89.7513333,191.860677 90.3013333,192.388677 90.3013333,192.960677 C90.3013333,193.664677 88.9813333,195.050677 88.2773333,195.754677 C88.4973333,195.996677 88.8273333,196.326677 89.1353333,196.326677 C89.5313333,196.326677 89.6633333,196.040677 89.8833333,195.622677 C90.1473333,195.094677 90.3233333,194.808677 90.9173333,194.808677 C91.9073333,194.808677 92.4133333,195.468677 92.4133333,196.150677 C92.4133333,197.162677 91.2693333,199.626677 89.0913333,199.626677 C87.6173333,199.626677 86.7813333,198.812677 85.9673333,197.668677 C84.7353333,198.504677 83.1733333,199.340677 82.5353333,199.340677 C81.6553333,199.340677 81.2153333,198.394677 81.2153333,197.778677 C81.2153333,197.074677 81.7213333,196.854677 82.1393333,196.678677 C83.4153333,196.150677 83.9873333,195.842677 84.7793333,195.314677 C84.5153333,194.588677 84.2073333,193.730677 83.7893333,191.706677 L81.3033333,191.706677 C81.3033333,191.816677 81.2813333,192.366677 81.2813333,192.476677 C83.7233333,193.246677 83.8993333,193.554677 83.8993333,194.346677 C83.8993333,194.830677 83.6793333,195.842677 82.7553333,195.842677 C82.5133333,195.842677 82.3153333,195.776677 81.9633333,195.622677 C81.4353333,195.380677 81.4133333,195.380677 81.0613333,195.248677 C80.7313333,197.294677 80.2473333,198.328677 80.0493333,198.702677 C79.6753333,199.362677 78.9713333,199.494677 78.6413333,199.494677 C78.2013333,199.494677 77.0353333,199.208677 77.0353333,198.218677 C77.0353333,197.888677 77.1013333,197.778677 77.4973333,196.788677 C78.3333333,194.720677 78.4213333,192.432677 78.4213333,191.662677 C78.0473333,191.596677 77.6073333,191.420677 77.4313333,190.892677 C77.0573333,190.936677 76.8813333,190.804677 76.6393333,190.562677 L76.6393333,197.998677 C76.6393333,198.878677 76.4633333,199.626677 75.1433333,199.626677 C73.8233333,199.626677 73.8233333,198.460677 73.8233333,197.998677 L73.8233333,192.872677 C73.4713333,193.730677 73.3173333,194.192677 72.6133333,194.192677 C71.7773333,194.192677 71.1393333,193.180677 71.1393333,192.498677 C71.1393333,192.234677 71.2273333,191.970677 71.3373333,191.728677 C72.3053333,189.858677 73.3613333,187.790677 73.8013333,185.568677 L73.0533333,185.568677 C71.8873333,185.568677 71.5133333,184.952677 71.5133333,184.006677 C71.5133333,183.082677 72.0633333,182.598677 73.0533333,182.598677 L73.8233333,182.598677 L73.8233333,180.200677 C73.8233333,179.496677 73.8673333,178.616677 75.2973333,178.616677 C76.6393333,178.616677 76.6393333,179.716677 76.6393333,180.200677 L76.6393333,182.598677 C77.2553333,182.598677 78.3333333,182.598677 78.3333333,184.094677 C78.3333333,185.568677 77.2553333,185.568677 76.6393333,185.568677 Z M78.9273333,188.934677 L83.3713333,188.934677 C83.3053333,188.450677 83.2833333,188.384677 83.2833333,188.164677 C82.9973333,188.494677 82.6013333,188.494677 82.5353333,188.494677 C81.9413333,188.494677 81.8093333,188.032677 81.7653333,187.878677 C81.3033333,187.944677 78.9933333,188.274677 78.2453333,188.296677 C78.3773333,188.516677 78.4433333,188.670677 78.4433333,188.978677 C78.6193333,188.956677 78.7073333,188.934677 78.9273333,188.934677 Z M88.7173333,191.706677 L86.7593333,191.706677 C86.9353333,192.608677 87.0233333,192.894677 87.1333333,193.290677 C87.2873333,193.114677 87.9473333,192.278677 88.1233333,192.080677 C88.1893333,191.992677 88.3653333,191.794677 88.7173333,191.706677 Z M80.0713333,186.228677 C80.9293333,186.184677 81.0393333,186.162677 81.3473333,186.162677 C81.1933333,185.546677 81.1713333,185.480677 81.1713333,185.326677 C81.1713333,184.798677 81.6333333,184.578677 82.0293333,184.578677 C82.6453333,184.578677 82.7333333,184.842677 83.1073333,186.206677 C83.0853333,185.678677 82.9753333,183.148677 82.9533333,182.686677 C82.3593333,183.544677 81.1493333,185.106677 80.0713333,186.228677 Z M86.0333333,185.788677 C86.3853333,185.326677 87.0673333,184.446677 87.3313333,184.116677 C87.1333333,183.874677 86.0993333,182.774677 85.8573333,182.532677 C85.9013333,183.478677 85.9673333,185.128677 86.0333333,185.788677 Z M101.201333,194.896677 L98.3413333,194.896677 L98.3413333,197.998677 C98.3413333,198.504677 98.2753333,199.604677 96.8673333,199.604677 C95.7673333,199.604677 95.2173333,199.230677 95.2173333,197.998677 L95.2173333,188.494677 C95.2173333,186.206677 95.6353333,185.766677 97.9233333,185.766677 L101.509333,185.766677 C103.775333,185.766677 104.237333,186.184677 104.237333,188.494677 L104.237333,196.788677 C104.237333,198.988677 103.819333,199.516677 101.465333,199.516677 C101.135333,199.516677 100.365333,199.516677 99.9693333,199.406677 C99.3533333,199.208677 99.2213333,198.416677 99.2213333,197.976677 C99.2213333,196.634677 100.013333,196.612677 100.475333,196.612677 C101.025333,196.590677 101.201333,196.590677 101.201333,196.084677 L101.201333,194.896677 Z M98.3413333,188.670677 L98.3413333,189.396677 L101.201333,189.396677 L101.201333,188.670677 C101.201333,188.406677 101.091333,188.252677 100.783333,188.252677 L98.7593333,188.252677 C98.4733333,188.252677 98.3413333,188.428677 98.3413333,188.670677 Z M101.201333,192.674677 L101.201333,191.464677 L98.3413333,191.464677 L98.3413333,192.674677 L101.201333,192.674677 Z M95.5693333,182.334677 C95.6133333,182.224677 96.0973333,181.102677 96.4273333,180.288677 C96.9773333,178.946677 97.1093333,178.594677 98.0553333,178.594677 C98.8253333,178.594677 99.7713333,178.968677 99.7713333,179.804677 C99.7713333,180.134677 99.6393333,180.420677 99.3533333,180.948677 C99.1333333,181.322677 98.8693333,181.762677 98.6053333,182.224677 C99.3973333,182.180677 100.387333,182.136677 101.157333,182.070677 C100.805333,181.410677 100.629333,180.992677 100.629333,180.640677 C100.629333,179.870677 101.487333,179.452677 102.147333,179.452677 C102.917333,179.452677 103.181333,179.760677 104.237333,181.762677 C105.051333,183.280677 105.249333,183.654677 105.249333,184.138677 C105.249333,185.084677 104.259333,185.590677 103.621333,185.590677 C102.785333,185.590677 102.543333,185.040677 102.279333,184.446677 C100.123333,184.776677 96.2953333,185.128677 95.4373333,185.128677 C95.2173333,185.128677 94.8213333,185.128677 94.5573333,184.776677 C94.2713333,184.402677 94.2273333,183.896677 94.2273333,183.654677 C94.2273333,182.422677 95.0193333,182.356677 95.5693333,182.334677 Z M108.791333,183.698677 L108.791333,184.996677 C108.791333,185.678677 109.121333,185.678677 109.847333,185.678677 C110.155333,185.678677 111.475333,185.678677 111.651333,185.590677 C111.959333,185.480677 112.003333,185.304677 112.179333,184.358677 C112.355333,183.478677 112.443333,182.906677 113.631333,182.906677 C113.939333,182.906677 114.379333,182.972677 114.797333,183.192677 C115.325333,183.500677 115.369333,183.918677 115.369333,184.270677 C115.369333,184.622677 115.193333,187.020677 114.467333,187.856677 C113.873333,188.538677 113.257333,188.538677 110.595333,188.538677 C109.891333,188.538677 107.933333,188.538677 107.427333,188.494677 C105.491333,188.274677 105.491333,186.624677 105.491333,186.096677 L105.491333,180.222677 C105.491333,179.540677 105.645333,178.594677 107.009333,178.594677 C108.219333,178.594677 108.791333,178.946677 108.791333,180.222677 L108.791333,180.970677 C109.759333,180.706677 110.661333,180.332677 111.629333,179.870677 C112.751333,179.342677 112.927333,179.232677 113.301333,179.232677 C114.137333,179.232677 114.709333,180.134677 114.709333,180.904677 C114.709333,181.784677 114.093333,182.070677 112.971333,182.466677 C110.881333,183.192677 110.045333,183.390677 108.791333,183.698677 Z M108.791333,194.016677 L108.791333,195.666677 C108.791333,196.370677 109.055333,196.370677 110.419333,196.370677 C111.827333,196.370677 111.893333,196.348677 112.025333,195.226677 C112.179333,194.060677 112.267333,193.378677 113.565333,193.378677 C113.741333,193.378677 115.325333,193.378677 115.325333,194.698677 C115.325333,194.984677 115.127333,197.756677 114.379333,198.636677 C113.851333,199.230677 113.081333,199.362677 110.309333,199.362677 C109.517333,199.362677 107.471333,199.340677 106.833333,199.120677 C105.513333,198.702677 105.513333,197.492677 105.513333,196.766677 L105.513333,190.342677 C105.513333,189.660677 105.667333,188.736677 107.031333,188.736677 C108.109333,188.736677 108.791333,189.022677 108.791333,190.298677 L108.791333,191.200677 C109.781333,190.826677 110.661333,190.496677 111.607333,189.946677 C112.685333,189.330677 112.817333,189.264677 113.235333,189.264677 C114.159333,189.264677 114.687333,190.320677 114.687333,190.936677 C114.687333,191.574677 114.423333,191.926677 112.795333,192.608677 C111.585333,193.136677 110.221333,193.554677 108.791333,194.016677 Z M124.663333,181.410677 C124.839333,180.992677 125.059333,180.332677 125.257333,179.914677 C125.389333,179.606677 125.697333,179.100677 126.841333,179.100677 C127.633333,179.100677 128.623333,179.386677 128.623333,180.398677 C128.623333,180.750677 128.447333,181.168677 128.381333,181.322677 C130.603333,181.256677 134.541333,181.102677 135.025333,181.102677 C135.839333,181.102677 136.719333,181.454677 136.719333,182.686677 C136.719333,184.028677 135.729333,184.182677 135.399333,184.226677 C134.871333,184.314677 128.909333,184.490677 126.577333,184.534677 C125.961333,185.502677 125.939333,185.546677 125.565333,186.184677 C126.907333,185.436677 128.051333,185.414677 128.359333,185.414677 C128.821333,185.414677 129.613333,185.502677 130.295333,185.898677 C131.109333,186.382677 131.483333,187.064677 131.615333,187.306677 C132.913333,186.844677 135.113333,186.162677 135.949333,186.162677 C137.445333,186.162677 137.511333,187.658677 137.511333,187.944677 C137.511333,189.286677 136.565333,189.506677 135.729333,189.682677 C133.331333,190.210677 133.265333,190.232677 132.253333,190.518677 C132.319333,191.376677 132.363333,192.256677 132.363333,192.696677 C132.363333,193.708677 132.363333,194.940677 130.691333,194.940677 C129.063333,194.940677 129.019333,193.752677 128.997333,193.400677 C128.975333,192.938677 128.997333,192.168677 128.997333,191.706677 C127.083333,192.542677 125.741333,193.312677 125.741333,194.566677 C125.741333,195.556677 127.171333,195.798677 129.437333,195.798677 C130.977333,195.798677 132.495333,195.600677 134.013333,195.380677 C134.387333,195.314677 134.695333,195.314677 134.849333,195.314677 C135.993333,195.314677 136.323333,196.084677 136.323333,196.898677 C136.323333,198.108677 135.553333,198.328677 135.267333,198.416677 C133.595333,198.922677 130.779333,198.922677 130.141333,198.922677 C126.841333,198.922677 125.521333,198.680677 124.333333,198.196677 C122.991333,197.668677 122.045333,196.524677 122.045333,195.050677 C122.045333,191.750677 125.785333,189.770677 128.359333,188.604677 C128.029333,188.274677 127.589333,188.120677 127.127333,188.120677 C124.663333,188.120677 122.859333,190.408677 122.309333,191.112677 C122.111333,191.354677 121.319333,192.410677 121.143333,192.630677 C120.857333,192.960677 120.439333,193.290677 119.779333,193.290677 C118.789333,193.290677 118.107333,192.410677 118.107333,191.596677 C118.107333,190.892677 118.481333,190.474677 119.669333,189.176677 C120.791333,187.944677 121.473333,187.064677 123.057333,184.600677 C122.661333,184.600677 120.923333,184.622677 120.571333,184.622677 C120.087333,184.622677 118.745333,184.622677 118.745333,183.016677 C118.745333,181.476677 120.021333,181.454677 120.505333,181.454677 C123.079333,181.432677 123.365333,181.432677 124.663333,181.410677 Z M150.369333,189.022677 L151.953333,189.022677 C151.997333,187.878677 151.997333,187.394677 151.997333,187.108677 L150.369333,187.108677 C150.083333,187.108677 149.797333,187.218677 149.797333,187.680677 L149.797333,188.450677 C149.797333,188.846677 149.995333,189.022677 150.369333,189.022677 Z M147.751333,180.464677 L151.997333,180.464677 L151.997333,180.046677 C151.997333,179.584677 152.063333,178.616677 153.537333,178.616677 C154.769333,178.616677 155.231333,179.100677 155.231333,180.046677 L155.231333,180.464677 L159.653333,180.464677 C160.071333,180.464677 161.259333,180.464677 161.259333,181.938677 C161.259333,183.214677 160.445333,183.456677 159.653333,183.456677 L155.231333,183.456677 L155.231333,184.402677 L157.849333,184.402677 C159.521333,184.402677 160.511333,184.952677 160.511333,187.064677 L160.511333,189.088677 C160.511333,191.156677 159.565333,191.772677 157.849333,191.772677 L154.945333,191.772677 C154.857333,192.432677 154.681333,193.444677 154.131333,194.676677 C156.133333,195.490677 157.123333,195.666677 159.895333,196.150677 C160.973333,196.326677 161.193333,196.964677 161.193333,197.602677 C161.193333,198.108677 160.995333,199.560677 159.521333,199.560677 C158.619333,199.560677 155.143333,198.944677 152.063333,197.360677 C150.479333,198.790677 148.587333,199.516677 147.531333,199.516677 C146.563333,199.516677 145.903333,198.790677 145.903333,197.778677 C145.903333,196.810677 146.409333,196.502677 146.871333,196.348677 C148.565333,195.732677 148.763333,195.666677 149.115333,195.468677 C147.267333,193.906677 147.267333,193.488677 147.267333,193.092677 C147.267333,192.630677 147.531333,191.904677 148.279333,191.640677 C146.739333,191.244677 146.739333,189.704677 146.739333,189.088677 L146.739333,187.064677 C146.739333,184.974677 147.707333,184.402677 149.423333,184.402677 L151.997333,184.402677 L151.997333,183.456677 L147.751333,183.456677 C146.849333,183.456677 146.453333,183.170677 146.321333,182.400677 C146.145333,182.994677 146.013333,183.456677 145.771333,184.138677 L145.771333,198.020677 C145.771333,198.372677 145.771333,199.648677 144.209333,199.648677 C142.801333,199.648677 142.515333,198.900677 142.515333,198.020677 L142.515333,189.880677 C142.383333,189.968677 142.207333,190.056677 141.855333,190.056677 C140.909333,190.056677 140.139333,189.154677 140.139333,188.054677 C140.139333,187.460677 140.161333,187.438677 141.459333,185.414677 C142.075333,184.468677 142.911333,182.532677 143.219333,181.322677 C143.747333,179.342677 143.747333,179.276677 144.033333,178.990677 C144.275333,178.770677 144.627333,178.660677 145.089333,178.660677 C145.859333,178.660677 146.827333,178.968677 146.827333,180.002677 C146.827333,180.288677 146.761333,180.552677 146.739333,180.706677 C146.981333,180.530677 147.289333,180.464677 147.751333,180.464677 Z M156.837333,187.108677 L155.209333,187.108677 C155.231333,187.438677 155.209333,187.922677 155.187333,189.022677 L156.837333,189.022677 C157.123333,189.022677 157.409333,188.912677 157.409333,188.450677 L157.409333,187.680677 C157.409333,187.262677 157.211333,187.108677 156.837333,187.108677 Z M151.667333,191.772677 L149.621333,191.772677 C149.709333,191.816677 149.775333,191.860677 150.039333,192.102677 C150.611333,192.630677 151.007333,192.916677 151.249333,193.092677 C151.381333,192.762677 151.535333,192.366677 151.667333,191.772677 Z M167.913333,196.656677 C167.913333,195.842677 168.221333,195.006677 169.563333,195.006677 C169.761333,195.006677 170.377333,195.050677 170.619333,195.072677 C171.059333,195.116677 171.477333,195.116677 171.895333,195.116677 C174.315333,195.116677 178.319333,194.830677 178.319333,190.804677 C178.319333,188.230677 176.581333,187.328677 174.645333,187.328677 C172.621333,187.328677 170.465333,187.922677 169.365333,188.274677 C167.363333,188.934677 167.121333,189.000677 166.747333,189.000677 C165.515333,189.000677 165.185333,187.856677 165.185333,187.196677 C165.185333,186.008677 165.911333,185.722677 166.923333,185.414677 C170.707333,184.314677 173.611333,184.204677 174.667333,184.204677 C175.635333,184.204677 178.253333,184.204677 180.101333,186.118677 C181.509333,187.592677 181.751333,189.572677 181.751333,190.760677 C181.751333,192.828677 181.091333,195.226677 178.693333,196.810677 C176.493333,198.262677 172.731333,198.350677 171.389333,198.350677 C169.409333,198.350677 167.913333,198.284677 167.913333,196.656677 Z M196.633333,183.874677 C195.467333,183.962677 189.175333,184.446677 188.603333,184.446677 C187.459333,184.446677 186.931333,183.654677 186.931333,182.620677 C186.931333,181.674677 187.261333,180.904677 188.515333,180.772677 C189.439333,180.684677 199.889333,180.288677 204.157333,180.288677 C205.367333,180.288677 206.621333,180.288677 206.621333,181.960677 C206.621333,183.742677 205.433333,183.786677 204.179333,183.786677 C202.859333,183.808677 201.517333,184.050677 199.537333,185.172677 C197.271333,186.470677 195.027333,188.912677 195.027333,191.486677 C195.027333,194.236677 197.293333,194.852677 200.989333,194.852677 L202.881333,194.852677 C203.695333,194.852677 204.575333,195.182677 204.575333,196.502677 C204.575333,198.570677 202.969333,198.570677 201.385333,198.570677 C200.747333,198.570677 198.723333,198.548677 196.501333,197.976677 C195.313333,197.668677 191.375333,196.656677 191.375333,191.904677 C191.375333,189.418677 192.497333,187.614677 193.751333,186.228677 C194.873333,184.974677 195.797333,184.402677 196.633333,183.874677 Z M223.681333,187.658677 C223.703333,187.086677 223.637333,184.512677 223.747333,184.006677 C223.857333,183.522677 224.143333,182.818677 225.485333,182.818677 C227.179333,182.818677 227.399333,183.852677 227.399333,185.084677 C227.399333,186.250677 227.267333,187.856677 227.179333,188.978677 C228.807333,189.726677 229.885333,190.232677 229.885333,191.376677 C229.885333,192.124677 229.247333,193.334677 228.213333,193.334677 C227.685333,193.334677 227.399333,193.158677 226.563333,192.696677 C225.639333,196.172677 222.845333,198.966677 220.799333,198.966677 C219.919333,198.966677 219.039333,198.108677 219.039333,197.162677 C219.039333,196.304677 219.347333,196.106677 221.349333,194.808677 C221.855333,194.478677 222.999333,193.488677 223.373333,191.156677 C221.811333,190.474677 220.887333,190.188677 219.479333,189.946677 C219.259333,190.804677 218.753333,192.828677 217.631333,195.160677 C216.993333,196.458677 216.091333,197.800677 214.331333,197.800677 C212.307333,197.800677 209.909333,196.018677 209.909333,192.806677 C209.909333,190.782677 210.899333,188.340677 213.979333,187.240677 C215.321333,186.756677 216.465333,186.690677 216.971333,186.668677 C217.037333,186.382677 217.367333,185.150677 217.389333,184.952677 C217.433333,184.644677 217.609333,183.742677 217.609333,183.566677 C217.609333,183.104677 217.323333,183.038677 216.971333,183.038677 C216.355333,183.038677 213.693333,183.236677 213.143333,183.236677 C212.681333,183.236677 211.383333,183.236677 211.383333,181.564677 C211.383333,179.870677 212.659333,179.870677 213.451333,179.870677 L214.683333,179.870677 C215.321333,179.870677 218.665333,179.760677 218.753333,179.760677 C219.369333,179.760677 221.239333,179.760677 221.239333,181.674677 C221.239333,182.444677 220.931333,183.918677 220.865333,184.248677 C220.799333,184.666677 220.337333,186.448677 220.249333,186.822677 C221.833333,187.130677 222.603333,187.350677 223.681333,187.658677 Z M216.201333,189.704677 C215.651333,189.814677 215.277333,189.880677 214.815333,190.056677 C213.715333,190.518677 212.857333,191.420677 212.857333,192.872677 C212.857333,194.148677 213.671333,194.456677 213.935333,194.456677 C214.397333,194.456677 214.749333,193.906677 215.145333,192.938677 C215.871333,191.134677 216.091333,190.232677 216.201333,189.704677 Z M244.701333,186.140677 L244.811333,189.990677 C245.823333,190.364677 249.167333,191.574677 251.609333,193.730677 C252.225333,194.280677 252.577333,194.676677 252.577333,195.380677 C252.577333,196.568677 251.631333,197.624677 250.575333,197.624677 C249.761333,197.624677 249.211333,197.074677 248.199333,196.062677 C247.187333,195.028677 245.999333,194.170677 244.679333,193.576677 C244.723333,195.468677 244.789333,198.790677 239.377333,198.790677 C236.121333,198.790677 233.129333,197.492677 233.129333,194.082677 C233.129333,191.002677 235.835333,189.198677 239.861333,189.198677 C240.455333,189.198677 240.807333,189.220677 241.159333,189.264677 L240.895333,181.102677 C240.851333,180.002677 241.313333,179.232677 242.699333,179.232677 C244.129333,179.232677 244.635333,179.848677 244.635333,181.102677 L244.635333,182.664677 C245.361333,182.664677 246.417333,182.686677 248.705333,182.576677 C248.925333,182.576677 250.223333,182.510677 250.289333,182.510677 C251.851333,182.510677 251.917333,183.808677 251.917333,184.248677 C251.917333,185.920677 250.685333,185.964677 250.091333,186.008677 C249.607333,186.030677 247.473333,186.140677 244.701333,186.140677 Z M241.181333,192.454677 C240.675333,192.344677 240.345333,192.278677 239.685333,192.278677 C238.937333,192.278677 236.605333,192.388677 236.605333,194.060677 C236.605333,195.446677 238.145333,195.666677 239.025333,195.666677 C239.553333,195.666677 240.587333,195.622677 240.939333,194.940677 C241.159333,194.500677 241.181333,194.280677 241.181333,192.454677 Z M259.231333,180.772677 C259.385333,179.562677 260.045333,179.188677 260.815333,179.188677 C261.167333,179.188677 262.641333,179.496677 262.949333,179.540677 C264.247333,179.760677 267.019333,180.046677 269.901333,180.200677 C270.869333,180.244677 272.211333,180.310677 272.211333,181.916677 C272.211333,182.488677 271.969333,183.126677 271.617333,183.412677 C271.287333,183.676677 270.869333,183.720677 270.341333,183.720677 C268.889333,183.720677 262.927333,183.104677 260.551333,182.554677 C259.605333,182.334677 259.121333,181.718677 259.231333,180.772677 Z M274.653333,190.760677 C274.653333,198.020677 266.777333,198.988677 262.751333,198.988677 C262.003333,198.988677 261.519333,198.922677 261.123333,198.526677 C260.815333,198.218677 260.595333,197.734677 260.595333,197.184677 C260.595333,195.732677 261.673333,195.666677 262.355333,195.644677 C264.973333,195.512677 267.503333,195.446677 269.285333,194.038677 C270.671333,192.938677 270.891333,191.464677 270.891333,190.826677 C270.891333,189.880677 270.473333,189.044677 269.945333,188.626677 C269.241333,188.076677 268.251333,187.966677 267.481333,187.966677 C266.821333,187.966677 264.159333,188.142677 261.101333,189.660677 C260.749333,189.836677 259.275333,190.628677 258.945333,190.760677 C258.483333,190.936677 258.241333,190.958677 258.065333,190.958677 C256.745333,190.958677 256.239333,189.682677 256.239333,188.978677 C256.239333,187.856677 256.943333,187.504677 259.451333,186.470677 C262.157333,185.370677 265.765333,184.754677 267.437333,184.754677 C268.889333,184.754677 271.265333,185.040677 272.739333,186.294677 C274.389333,187.724677 274.653333,189.748677 274.653333,190.760677 Z M241.298731,83.24797 C241.298731,85.0731367 239.822218,86.55207 238.000038,86.55207 C236.179423,86.55207 234.701346,85.0731367 234.701346,83.24797 C234.701346,81.4228033 236.179423,79.94387 238.000038,79.94387 C239.822218,79.94387 241.298731,81.4228033 241.298731,83.24797 Z M259.530223,83.24797 C259.530223,85.0731367 258.05371,86.55207 256.231531,86.55207 C254.410915,86.55207 252.932838,85.0731367 252.932838,83.24797 C252.932838,81.4228033 254.410915,79.94387 256.231531,79.94387 C258.05371,79.94387 259.530223,81.4228033 259.530223,83.24797 Z M284.077874,109.64411 C284.569003,111.080743 284.817695,112.522077 284.817695,113.93051 L284.817695,125.51601 C284.817695,127.300443 283.375592,128.74491 281.594079,128.74491 L280.877721,128.74491 C279.096208,128.74491 277.654105,127.300443 277.654105,125.51601 L277.654105,113.93051 C277.654105,113.29131 277.532105,112.63331 277.283413,111.91891 L277.223977,111.73091 C275.910131,107.18131 271.708951,104.00411 267.005695,104.00411 L260.788387,104.00411 L263.742977,98.61791 C265.305515,95.9169767 266.132926,92.86511 266.132926,89.7944433 L266.132926,84.0729767 C266.132926,74.28131 258.209182,66.34301 248.433541,66.34301 L246.669233,66.34301 C236.893592,66.34301 228.971413,74.2797433 228.971413,84.0698433 L228.971413,89.7944433 C228.971413,91.97211 227.030362,93.6985767 224.787438,93.3319767 C223.026259,93.0452767 221.806259,91.38931 221.806259,89.6017433 L221.806259,84.0729767 C221.806259,70.3176433 232.939541,59.1676767 246.670797,59.1676767 L248.435105,59.1676767 C262.166362,59.1676767 273.296515,70.3160767 273.296515,84.0698433 L273.296515,89.7944433 C273.296515,92.4405433 272.863259,95.07411 272.026464,97.58861 C277.744823,99.3009767 282.351105,103.784777 284.077874,109.64411 Z M81.2026667,94.48003 C83.6082564,94.48003 85.5586923,96.4336633 85.5586923,98.8431967 L85.5586923,133.746963 C85.5586923,136.158063 83.6082564,138.11013 81.2026667,138.11013 L46.3560256,138.11013 C43.9504359,138.11013 42,136.158063 42,133.746963 L42,98.8431967 C42,96.4336633 43.9504359,94.48003 46.3560256,94.48003 L81.2026667,94.48003 Z M48.2282564,131.871663 L79.3304359,131.871663 L79.3304359,100.718497 L48.2282564,100.718497 L48.2282564,131.871663 Z M62.1188949,107.90229 C62.4770744,107.302257 63.1042795,106.937223 63.7799718,106.937223 C64.4541,106.937223 65.0813051,107.302257 65.4394846,107.90229 C67.7074333,111.712423 71.7678436,118.525857 74.1421513,122.511457 C74.5206641,123.14439 74.5394333,123.94339 74.1953308,124.595123 C73.8496641,125.248423 73.1943051,125.65419 72.4826385,125.65419 L55.075741,125.65419 C54.3640744,125.65419 53.7071513,125.248423 53.3630487,124.595123 C53.0189462,123.94339 53.0377154,123.14439 53.4162282,122.511457 C55.7905359,118.525857 59.8493821,111.712423 62.1188949,107.90229 Z M135.171869,94.48003 C137.577459,94.48003 139.526331,96.4336633 139.526331,98.8431967 L139.526331,133.746963 C139.526331,136.158063 137.577459,138.11013 135.171869,138.11013 L100.325228,138.11013 C97.9196385,138.11013 95.9692026,136.158063 95.9692026,133.746963 L95.9692026,98.8431967 C95.9692026,96.4336633 97.9196385,94.48003 100.325228,94.48003 L135.171869,94.48003 Z M102.197459,131.871663 L133.298074,131.871663 L133.298074,100.718497 L102.197459,100.718497 L102.197459,131.871663 Z M123.977274,125.654347 L111.519197,125.654347 C109.800249,125.654347 108.405069,124.25688 108.405069,122.535113 L108.405069,110.056613 C108.405069,108.33328 109.800249,106.93738 111.519197,106.93738 L123.977274,106.93738 C125.697787,106.93738 127.091403,108.33328 127.091403,110.056613 L127.091403,122.535113 C127.091403,124.25688 125.697787,125.654347 123.977274,125.654347 Z M189.141072,94.48003 C191.546662,94.48003 193.495533,96.4336633 193.495533,98.8431967 L193.495533,133.746963 C193.495533,136.158063 191.546662,138.11013 189.141072,138.11013 L154.294431,138.11013 C151.888841,138.11013 149.938405,136.158063 149.938405,133.746963 L149.938405,98.8431967 C149.938405,96.4336633 151.888841,94.48003 154.294431,94.48003 L189.141072,94.48003 Z M156.166662,131.871663 L187.267277,131.871663 L187.267277,100.718497 L156.166662,100.718497 L156.166662,131.871663 Z M179.502915,113.176003 C181.223428,113.176003 182.617044,114.57347 182.617044,116.295237 C182.617044,118.01857 181.223428,119.41447 179.502915,119.41447 L174.832505,119.41447 L174.832505,124.094103 C174.832505,125.817437 173.437326,127.213337 171.716813,127.213337 C169.997864,127.213337 168.602685,125.817437 168.602685,124.094103 L168.602685,119.41447 L163.93071,119.41447 C162.210197,119.41447 160.816582,118.01857 160.816582,116.295237 C160.816582,114.57347 162.210197,113.176003 163.93071,113.176003 L168.602685,113.176003 L168.602685,108.49637 C168.602685,106.774603 169.997864,105.377137 171.716813,105.377137 C173.437326,105.377137 174.832505,106.774603 174.832505,108.49637 L174.832505,113.176003 L179.502915,113.176003 Z M255.311369,89.8267167 C256.288933,90.8058833 256.288933,92.3944833 255.311369,93.37365 L248.8876,99.8095167 C248.579472,100.115017 248.199395,100.32495 247.7896,100.439317 L247.7896,133.942483 C247.7896,136.352017 245.839164,138.304083 243.433574,138.304083 L208.586933,138.304083 C206.181344,138.304083 204.230908,136.352017 204.230908,133.942483 L204.230908,132.432217 C201.207497,131.50005 198.988036,128.70825 198.988036,125.377517 L198.988036,116.240717 C198.988036,112.877083 201.199677,110.04925 204.230908,109.055983 L204.230908,99.03715 C204.230908,96.6276167 206.181344,94.6739833 208.586933,94.6739833 L240.219344,94.6739833 L238.921138,93.37365 C237.94201,92.3944833 237.94201,90.8058833 238.921138,89.8267167 C239.898703,88.8459833 241.483138,88.8459833 242.462267,89.8267167 L247.115472,94.48755 L251.768677,89.8267167 C252.744677,88.8459833 254.332241,88.8459833 255.311369,89.8267167 Z M241.561344,132.065617 L241.561344,100.914017 L210.459164,100.914017 L210.459164,108.647083 L211.518062,108.647083 C213.689036,108.647083 215.456472,110.41585 215.456472,112.588817 L215.456472,128.847683 C215.456472,130.177783 214.790164,131.351217 213.779754,132.065617 L241.561344,132.065617 Z M235.35389,116.489973 C235.35389,121.658407 231.169915,125.847673 226.009941,125.847673 C220.851531,125.847673 216.667556,121.658407 216.667556,116.489973 C216.667556,111.32154 220.851531,107.130707 226.009941,107.130707 C231.169915,107.130707 235.35389,111.32154 235.35389,116.489973 Z M210.445087,127.77295 L210.445087,113.665117 L206.570805,113.665117 C205.153728,113.665117 203.997856,114.821317 203.997856,116.240717 L203.997856,125.377517 C203.997856,126.699783 205.070831,127.77295 206.389369,127.77295 L210.445087,127.77295 Z M125.575005,1.50666667 C125.575005,0.121733333 126.696467,-1 128.079133,-1 L193.496159,-1 L193.496159,82.4469333 L78.2624667,82.4469333 L78.2624667,-1 L103.521159,-1 C104.903826,-1 106.023723,0.121733333 106.023723,1.50666667 L106.023723,2.7318 C106.023723,4.11673333 104.903826,5.23846667 103.521159,5.23846667 L84.4907231,5.23846667 L84.4907231,76.2084667 L187.266338,76.2084667 L187.266338,5.23846667 L128.079133,5.23846667 C126.696467,5.23846667 125.575005,4.11673333 125.575005,2.7318 L125.575005,1.50666667 Z M120.882697,2.73211333 C120.882697,4.11704667 119.7628,5.23878 118.380133,5.23878 L113.220159,5.23878 C111.837492,5.23878 110.716031,4.11704667 110.716031,2.73211333 L110.716031,1.50698 C110.716031,0.122046667 111.837492,-0.999686667 113.220159,-0.999686667 L118.380133,-0.999686667 C119.7628,-0.999686667 120.882697,0.122046667 120.882697,1.50698 L120.882697,2.73211333 Z" fill="#252525"></path>
</svg>
