<svg viewBox="0 0 170 21" version="1.1" xmlns="http://www.w3.org/2000/svg">
  <path d="M13.85,9.166 C13.872,8.594 13.806,6.02 13.916,5.514 C14.026,5.03 14.312,4.326 15.654,4.326 C17.348,4.326 17.568,5.36 17.568,6.592 C17.568,7.758 17.436,9.364 17.348,10.486 C18.976,11.234 20.054,11.74 20.054,12.884 C20.054,13.632 19.416,14.842 18.382,14.842 C17.854,14.842 17.568,14.666 16.732,14.204 C15.808,17.68 13.014,20.474 10.968,20.474 C10.088,20.474 9.208,19.616 9.208,18.67 C9.208,17.812 9.516,17.614 11.518,16.316 C12.024,15.986 13.168,14.996 13.542,12.664 C11.98,11.982 11.056,11.696 9.648,11.454 C9.428,12.312 8.922,14.336 7.8,16.668 C7.162,17.966 6.26,19.308 4.5,19.308 C2.476,19.308 0.078,17.526 0.078,14.314 C0.078,12.29 1.068,9.848 4.148,8.748 C5.49,8.264 6.634,8.198 7.14,8.176 C7.206,7.89 7.536,6.658 7.558,6.46 C7.602,6.152 7.778,5.25 7.778,5.074 C7.778,4.612 7.492,4.546 7.14,4.546 C6.524,4.546 3.862,4.744 3.312,4.744 C2.85,4.744 1.552,4.744 1.552,3.072 C1.552,1.378 2.828,1.378 3.62,1.378 L4.852,1.378 C5.49,1.378 8.834,1.268 8.922,1.268 C9.538,1.268 11.408,1.268 11.408,3.182 C11.408,3.952 11.1,5.426 11.034,5.756 C10.968,6.174 10.506,7.956 10.418,8.33 C12.002,8.638 12.772,8.858 13.85,9.166 Z M6.37,11.212 C5.82,11.322 5.446,11.388 4.984,11.564 C3.884,12.026 3.026,12.928 3.026,14.38 C3.026,15.656 3.84,15.964 4.104,15.964 C4.566,15.964 4.918,15.414 5.314,14.446 C6.04,12.642 6.26,11.74 6.37,11.212 Z M31.348,9.584 C32.14,9.056 32.866,8.572 34.186,8.572 C36.65,8.572 37.64,10.134 37.64,12.356 C37.64,12.818 37.486,14.886 37.486,15.304 C37.486,15.656 37.508,16.228 37.992,16.58 C38.256,16.756 38.52,16.778 38.674,16.778 C40.258,16.778 40.72,14.732 40.962,13.28 C41.028,12.796 41.116,10.64 41.182,10.2 C41.248,9.848 41.38,8.902 42.898,8.902 C44.746,8.902 44.746,10.244 44.746,10.882 C44.746,12.576 44.416,14.864 43.844,16.448 C43.624,17.064 42.678,19.462 40.082,20.1 C39.268,20.298 38.63,20.298 38.41,20.298 C37.398,20.298 35.682,20.078 34.824,18.736 C34.142,17.658 34.142,16.69 34.142,15.986 C34.142,15.546 34.252,13.654 34.252,13.258 C34.252,12.708 34.252,11.85 32.976,11.85 C32.448,11.85 30.754,12.136 29.676,15.37 C29.566,15.722 29.302,16.536 28.972,18.032 C28.708,19.286 28.466,20.078 27.146,20.078 C26.288,20.078 25.276,19.55 25.276,18.45 C25.276,18.054 25.342,17.768 25.65,16.734 C26.838,12.642 28.092,8.572 29.478,4.524 C29.676,3.952 30.38,1.884 30.556,1.532 C30.666,1.312 31.062,0.718 32.008,0.718 C32.448,0.718 33.966,0.938 33.966,2.236 C33.966,2.742 33.834,3.072 33.064,5.052 C32.03,7.736 31.92,8.044 31.7,8.638 C31.612,8.858 31.524,9.056 31.348,9.584 Z M62.178,11.696 L61.958,8.638 C61.848,7.252 63.102,7.076 63.674,7.076 C64.334,7.076 65.302,7.252 65.368,8.506 L65.566,12.752 C66.688,13.324 67.744,14.028 68.668,14.886 C69.24,15.392 69.416,15.832 69.416,16.316 C69.416,17.24 68.734,18.164 67.678,18.164 C67.37,18.164 67.018,18.076 66.776,17.856 C65.896,17.086 65.72,16.932 65.302,16.536 C65.258,17.196 65.214,17.746 64.84,18.428 C63.828,20.188 61.606,20.386 60.484,20.386 C56.656,20.386 55.028,18.34 55.028,16.074 C55.028,13.962 56.568,11.608 60.77,11.608 C61.342,11.608 61.76,11.652 62.178,11.696 Z M62.288,14.776 C61.848,14.578 61.496,14.424 60.572,14.424 C59.868,14.424 58.02,14.556 58.02,16.008 C58.02,17.482 59.912,17.482 60.22,17.482 C61.936,17.482 62.31,16.646 62.288,14.776 Z M57.206,6.9 C56.7,8.572 55.578,12.158 53.73,15.48 C53.4,16.052 53.026,16.602 52.102,16.602 C51.178,16.602 50.188,15.964 50.188,15.018 C50.188,14.424 50.364,14.16 51.64,11.894 C52.652,10.112 53.356,7.89 53.642,7.032 C52.058,7.054 51.662,7.076 51.222,6.966 C50.672,6.834 50.232,6.284 50.232,5.382 C50.232,3.996 51.2,3.864 51.552,3.798 C51.706,3.776 54.192,3.71 54.566,3.71 C54.632,3.38 54.896,1.928 54.984,1.642 C55.182,0.982 55.754,0.696 56.502,0.696 C56.942,0.696 58.416,0.784 58.416,2.082 C58.416,2.588 58.284,3.094 58.174,3.578 C58.416,3.578 59.472,3.512 59.692,3.512 C60.198,3.512 61.386,3.556 61.386,5.162 C61.386,6.702 60.264,6.768 59.604,6.812 C59.186,6.834 58.988,6.834 57.206,6.9 Z M62.112,2.522 C62.288,2.302 62.772,1.752 63.52,1.752 C64.51,1.752 67.106,3.292 68.624,4.48 C69.394,5.096 69.658,5.558 69.658,6.13 C69.658,7.164 68.734,7.912 67.898,7.912 C67.326,7.912 66.93,7.626 66.468,7.23 C65.258,6.196 64.862,5.866 62.838,4.744 C62.42,4.524 61.826,4.194 61.826,3.402 C61.826,2.984 62.046,2.632 62.112,2.522 Z M84.802,5.382 C83.636,5.47 77.344,5.954 76.772,5.954 C75.628,5.954 75.1,5.162 75.1,4.128 C75.1,3.182 75.43,2.412 76.684,2.28 C77.608,2.192 88.058,1.796 92.326,1.796 C93.536,1.796 94.79,1.796 94.79,3.468 C94.79,5.25 93.602,5.294 92.348,5.294 C91.028,5.316 89.686,5.558 87.706,6.68 C85.44,7.978 83.196,10.42 83.196,12.994 C83.196,15.744 85.462,16.36 89.158,16.36 L91.05,16.36 C91.864,16.36 92.744,16.69 92.744,18.01 C92.744,20.078 91.138,20.078 89.554,20.078 C88.916,20.078 86.892,20.056 84.67,19.484 C83.482,19.176 79.544,18.164 79.544,13.412 C79.544,10.926 80.666,9.122 81.92,7.736 C83.042,6.482 83.966,5.91 84.802,5.382 Z M89.312,9.254 C89.224,9.1 88.85,8.44 88.784,8.286 C88.718,8.132 88.652,7.956 88.652,7.802 C88.652,7.362 89.202,7.098 89.532,7.098 C89.906,7.098 90.126,7.34 90.588,8.154 C90.742,8.44 91.292,9.562 91.292,10.002 C91.292,10.596 90.676,10.75 90.412,10.75 C90.302,10.75 90.016,10.75 89.796,10.288 C89.708,10.134 89.378,9.408 89.312,9.254 Z M91.6,8.22 C91.512,8.044 91.116,7.296 91.05,7.142 C90.984,6.988 90.962,6.834 90.962,6.746 C90.962,6.306 91.512,6.064 91.82,6.064 C92.26,6.064 92.48,6.416 92.876,7.142 C93.162,7.648 93.602,8.506 93.602,8.968 C93.602,9.452 93.096,9.694 92.722,9.694 C92.612,9.694 92.326,9.694 92.084,9.232 C91.996,9.078 91.666,8.352 91.6,8.22 Z M114.18,5.58 L117.766,5.58 C118.47,5.58 119.878,5.58 119.878,7.12 C119.878,7.868 119.548,8.682 117.744,9.694 L117.744,9.892 L119.152,9.892 C119.57,9.892 120.516,9.892 120.516,11.278 C120.516,12.62 119.636,12.664 119.152,12.664 L117.744,12.664 L117.744,14.248 C117.744,16.866 117.15,16.998 114.312,16.998 C113.19,16.998 112.266,16.998 112.266,15.612 C112.266,14.248 113.19,14.248 113.74,14.248 C114.4,14.248 114.708,14.248 114.708,13.852 L114.708,12.664 L113.278,12.664 C112.816,12.664 112.244,12.576 112.068,11.806 C111.782,16.734 111.54,16.954 109.406,16.954 C108.548,16.954 107.624,16.954 107.624,15.678 C107.338,16.228 107.074,16.624 106.348,16.624 C105.886,16.624 105.622,16.492 105.446,16.382 C106.15,17.152 107.25,17.46 108.482,17.46 L119.02,17.46 C120.054,17.46 120.516,18.076 120.516,18.978 C120.516,20.078 119.988,20.584 118.998,20.584 L108.636,20.584 C107.096,20.584 105.424,20.364 103.862,18.56 C103.708,18.802 103.488,19.132 102.85,19.88 C102.388,20.43 102.014,20.87 101.266,20.87 C100.298,20.87 99.396,19.88 99.396,18.846 C99.396,18.142 99.77,17.834 100.408,17.306 C101.2,16.668 101.288,16.58 101.706,16.162 L101.706,11.96 C101.706,11.74 101.706,11.388 101.332,11.388 L100.936,11.388 C100.32,11.388 99.506,11.08 99.506,9.87 C99.506,8.682 99.946,8.176 101.134,8.176 L102.168,8.176 C104.456,8.176 104.896,8.572 104.896,10.882 L104.896,14.754 C105.006,14.446 105.49,13.104 105.556,12.818 C105.908,11.388 106.018,10.266 106.018,8.572 L106.018,5.206 C105.622,5.206 104.984,5.184 104.742,4.458 C104.522,5.206 103.818,5.778 103.004,5.778 C102.256,5.778 102.102,5.602 100.98,4.15 C100.782,3.908 99.88,2.83 99.748,2.566 C99.616,2.368 99.594,2.148 99.594,1.994 C99.594,1.114 100.474,0.366 101.376,0.366 C102.014,0.366 102.366,0.696 103.312,1.686 C103.818,2.236 104.324,2.808 104.676,3.468 C104.808,2.478 105.49,2.39 105.996,2.39 L106.832,2.39 L106.832,1.444 C106.832,0.96 106.898,0.08 108.284,0.08 C109.472,0.08 110,0.41 110,1.444 L110,2.39 L110.748,2.39 C111.1,2.39 111.892,2.412 112.046,3.402 C112.42,2.896 113.014,1.972 113.3,1.422 C113.806,0.41 114.07,0.08 115.016,0.08 C115.984,0.08 116.512,0.63 116.512,1.18 C116.512,1.444 116.446,1.62 116.358,1.906 L119.064,1.906 C119.438,1.906 120.45,1.906 120.45,3.314 C120.45,4.722 119.504,4.744 119.064,4.744 L114.774,4.744 C114.51,5.162 114.444,5.228 114.18,5.58 Z M115.984,8.066 L113.916,8.066 C113.564,8.066 112.486,8.066 112.574,6.658 C111.65,6.592 111.122,5.932 111.078,5.184 C110.99,5.184 110.88,5.206 110.704,5.206 L108.768,5.206 L108.768,6.196 L109.868,6.196 C110.704,6.196 111.122,6.218 111.584,6.658 C112.112,7.12 112.178,7.626 112.178,9.078 C112.178,9.408 112.156,9.738 112.134,10.508 C112.398,9.98 112.816,9.892 113.278,9.892 L114.73,9.892 C114.73,9.342 114.73,8.968 115.566,8.836 C115.786,8.704 116.27,8.462 116.27,8.264 C116.27,8.066 116.072,8.066 115.984,8.066 Z M109.12,8.902 L108.768,8.902 C108.768,9.408 108.746,12.136 108.086,14.424 C108.174,14.358 108.24,14.292 108.504,14.292 C108.834,14.27 108.944,14.292 109.054,14.182 C109.494,13.742 109.538,9.672 109.538,9.32 C109.538,8.924 109.34,8.902 109.12,8.902 Z M132.558,2.676 C134.384,2.676 134.912,3.38 137.2,6.724 C140.016,10.882 141.908,12.95 143.866,14.864 C144.834,15.788 145.252,16.272 145.252,16.998 C145.252,18.054 144.35,19.088 143.228,19.088 C142.524,19.088 141.996,18.89 140.17,16.778 C138.366,14.688 136.804,12.356 134.274,8.572 C133.394,7.274 133.064,7.032 132.712,7.032 C132.228,7.032 131.986,7.296 130.996,9.034 C130.754,9.452 129.324,11.894 128.818,12.708 C128.202,13.698 127.784,14.116 127.014,14.116 C126.09,14.116 124.836,13.412 124.836,12.202 C124.836,11.498 125.276,10.926 125.738,10.31 C126.772,8.99 128.136,6.988 129.346,5.074 C130.38,3.468 131.128,2.676 132.558,2.676 Z M139.158,4.392 C139.07,4.216 138.674,3.49 138.586,3.292 C138.542,3.204 138.498,3.072 138.498,2.918 C138.498,2.434 139.092,2.214 139.378,2.214 C139.73,2.214 139.972,2.478 140.412,3.27 C140.588,3.556 141.16,4.656 141.16,5.14 C141.16,5.734 140.544,5.888 140.28,5.888 C139.928,5.888 139.774,5.69 139.62,5.404 C139.532,5.25 139.224,4.524 139.158,4.392 Z M141.688,3.952 C141.6,3.776 141.16,3.028 141.116,2.874 C141.072,2.764 141.028,2.61 141.028,2.478 C141.028,2.016 141.6,1.774 141.908,1.774 C142.238,1.774 142.458,1.972 142.92,2.764 C143.052,3.006 143.69,4.194 143.69,4.7 C143.69,5.184 143.206,5.426 142.81,5.426 C142.7,5.426 142.414,5.426 142.172,4.986 C142.084,4.832 141.754,4.084 141.688,3.952 Z M160.528,7.692 C161.056,7.516 161.694,7.384 162.596,7.384 C163.718,7.384 164.95,7.604 166.116,8.132 C168.25,9.078 169.262,11.278 169.262,13.478 C169.262,15.194 168.646,18.054 165.346,19.55 C163.74,20.276 161.98,20.474 160.242,20.474 C157.536,20.474 156.238,19.924 155.314,19.352 C154.346,18.736 153.774,17.68 153.774,16.536 C153.774,13.83 156.106,12.598 158.614,12.598 C160,12.598 163.08,12.972 163.08,16.316 C163.08,16.602 163.036,16.822 162.97,17.13 C165.346,16.492 165.588,14.468 165.588,13.786 C165.588,12.884 165.236,11.432 163.652,10.772 C162.794,10.398 161.76,10.376 161.188,10.376 C159.428,10.376 156.964,10.772 154.192,13.28 C152.74,14.622 152.608,14.71 152.036,14.71 C151.178,14.71 150.21,13.94 150.21,12.84 C150.21,12.092 150.474,11.894 152.036,10.75 C154.918,8.66 157.052,7.054 159.406,5.184 C159.67,4.986 159.846,4.832 160.154,4.546 C159.164,4.568 154.412,4.92 153.928,4.92 C153.4,4.92 152.168,4.876 152.168,3.226 C152.168,1.664 153.334,1.576 154.038,1.554 C159.736,1.466 160.242,1.466 162.992,1.356 C163.212,1.356 163.696,1.334 164.158,1.334 C164.818,1.334 166.204,1.356 166.204,2.874 C166.204,4.018 165.918,4.194 163.41,5.712 C162.068,6.526 161.1,7.274 160.528,7.692 Z M160.264,17.57 C160.374,17.108 160.374,16.932 160.374,16.822 C160.374,15.634 159.538,15.304 158.636,15.304 C157.646,15.304 156.854,15.744 156.854,16.448 C156.854,17.174 157.8,17.68 159.34,17.68 C159.67,17.68 159.89,17.636 160.264,17.57 Z" fill="#252525"></path>
</svg>
