<svg viewBox="0 0 326 200" version="1.1" xmlns="http://www.w3.org/2000/svg">
  <path d="M240.737255,72.869281 C240.737255,113.113725 208.113725,145.738562 167.869281,145.738562 C127.624837,145.738562 95,113.113725 95,72.869281 C95,32.6248366 127.624837,0 167.869281,0 C208.113725,0 240.737255,32.6248366 240.737255,72.869281" fill="#FFFFFF"></path>
  <path d="M217.528758,87.271682 L217.528758,69.9215686 C217.528758,61.0850126 210.365314,53.9215686 201.528758,53.9215686 L145.528758,53.9215686 C136.692202,53.9215686 129.528758,61.0850126 129.528758,69.9215686 L129.528758,102.921569 L209.918482,102.921569 C200.522286,116.036201 185.154482,124.581699 167.79085,124.581699 C139.188235,124.581699 116,101.393464 116,72.7908497 C116,44.1882353 139.188235,21 167.79085,21 C196.393464,21 219.580392,44.1882353 219.580392,72.7908497 C219.580392,77.8171429 218.864368,82.6762374 217.528758,87.271682 Z" fill="#C6C6C6"></path>
  <path d="M41.76,181.221608 L55.268,181.221608 C57.71,181.221608 57.754,182.673608 57.754,183.487608 C57.754,183.597608 57.6,188.305608 54.894,192.309608 C52.518,195.785608 49.064,197.589608 46.182,198.491608 C45.764,198.623608 44.708,198.953608 43.938,198.953608 C42.53,198.953608 42.222,197.523608 42.222,196.973608 C42.222,195.917608 43.014,195.675608 44.048,195.389608 C48.228,194.245608 51.22,192.067608 52.606,189.163608 C53.508,187.293608 53.772,185.555608 53.772,185.225608 C53.772,184.719608 53.464,184.697608 53.2,184.697608 L41.76,184.697608 C41.342,184.697608 40,184.697608 40,182.981608 C40,181.265608 41.254,181.221608 41.76,181.221608 Z M74.594,189.295608 L74.594,197.897608 C74.594,198.843608 74.154,199.481608 72.9,199.481608 C71.91,199.481608 71.184,199.107608 71.184,197.897608 L71.184,191.077608 C69.138,192.023608 66.454,193.013608 65.486,193.013608 C64.254,193.013608 63.902,191.803608 63.902,191.187608 C63.902,190.175608 64.584,189.977608 65.112,189.823608 C66.938,189.295608 70.172,188.349608 73.846,185.951608 C74.528,185.511608 74.748,185.313608 76.86,183.553608 C77.344,183.135608 77.674,183.091608 77.894,183.091608 C78.818,183.091608 79.72,183.905608 79.72,184.873608 C79.72,185.335608 79.566,185.687608 79.038,186.149608 C78.18,186.941608 77.058,187.777608 74.594,189.295608 Z M102.962,191.429608 L87.254,191.429608 C86.704,191.429608 85.318,191.429608 85.318,189.625608 C85.318,187.887608 86.484,187.777608 87.254,187.777608 L102.962,187.777608 C103.512,187.777608 104.898,187.777608 104.898,189.581608 C104.898,191.363608 103.666,191.429608 102.962,191.429608 Z M117.25,188.833608 L117.25,197.633608 C117.25,198.271608 117.206,199.459608 115.38,199.459608 C113.554,199.459608 113.488,198.337608 113.488,197.633608 L113.488,181.529608 C113.488,180.913608 113.532,179.703608 115.358,179.703608 C117.162,179.703608 117.25,180.825608 117.25,181.529608 L117.25,185.137608 C121.232,186.347608 124.598,188.019608 125.61,188.525608 C127.04,189.251608 127.458,189.669608 127.458,190.549608 C127.458,191.495608 126.798,192.727608 125.61,192.727608 C125.06,192.727608 124.598,192.507608 123.85,192.045608 C121.738,190.791608 119.56,189.647608 117.25,188.833608 Z M122.508,182.519608 C122.464,182.343608 122.222,181.683608 122.178,181.551608 C122.112,181.353608 122.112,181.177608 122.112,181.133608 C122.112,180.495608 122.816,180.429608 122.97,180.429608 C123.388,180.429608 123.608,180.737608 123.85,181.353608 C124.158,182.167608 124.378,183.025608 124.378,183.377608 C124.378,184.125608 123.63,184.147608 123.542,184.147608 C123.3,184.147608 123.014,184.081608 122.838,183.575608 C122.75,183.289608 122.596,182.805608 122.508,182.519608 Z M125.082,182.145608 C125.038,181.969608 124.752,181.287608 124.708,181.155608 C124.664,181.023608 124.664,180.869608 124.664,180.759608 C124.664,180.165608 125.324,180.055608 125.522,180.055608 C125.94,180.055608 126.138,180.341608 126.402,180.979608 C126.732,181.837608 126.952,182.607608 126.952,182.981608 C126.952,183.751608 126.16,183.751608 126.094,183.751608 C125.566,183.751608 125.522,183.597608 125.082,182.145608 Z M137.984,180.583608 C139.348,180.781608 139.458,181.595608 139.458,182.145608 C139.458,183.157608 138.776,190.395608 136.136,195.565608 C134.662,198.469608 133.98,198.667608 133.254,198.667608 C132.396,198.667608 131.274,197.787608 131.274,196.819608 C131.274,196.247608 131.494,195.895608 131.868,195.345608 C134.75,191.165608 135.388,186.809608 135.916,182.431608 C136.026,181.485608 136.158,180.539608 137.522,180.539608 C137.61,180.539608 137.764,180.539608 137.984,180.583608 Z M144.232,180.583608 C144.43,180.561608 144.606,180.539608 144.694,180.539608 C146.036,180.539608 146.146,181.485608 146.278,182.497608 C146.784,186.655608 147.378,191.033608 150.326,195.345608 C150.744,195.939608 150.92,196.291608 150.92,196.797608 C150.92,197.853608 149.754,198.667608 148.94,198.667608 C148.17,198.667608 147.466,198.315608 146.058,195.565608 C143.44,190.395608 142.736,183.135608 142.736,182.167608 C142.736,181.749608 142.736,180.825608 144.232,180.583608 Z M147.246,181.221608 C147.202,181.067608 146.96,180.407608 146.894,180.253608 C146.85,180.099608 146.828,179.945608 146.828,179.835608 C146.828,179.241608 147.51,179.153608 147.686,179.153608 C148.126,179.153608 148.324,179.439608 148.566,180.077608 C148.918,180.979608 149.116,181.771608 149.116,182.079608 C149.116,182.849608 148.346,182.849608 148.28,182.849608 C147.73,182.849608 147.708,182.739608 147.246,181.221608 Z M149.798,181.089608 C149.754,180.913608 149.49,180.231608 149.446,180.099608 C149.38,179.923608 149.38,179.747608 149.38,179.703608 C149.38,179.109608 150.04,178.999608 150.26,178.999608 C150.7,178.999608 150.876,179.307608 151.118,179.901608 C151.36,180.495608 151.668,181.485608 151.668,181.925608 C151.668,182.695608 150.876,182.695608 150.832,182.695608 C150.282,182.695608 150.238,182.497608 149.798,181.089608 Z M158.982,192.001608 C158.058,192.001608 157.794,191.121608 157.64,190.549608 C157.222,189.009608 157.09,188.701608 156.474,187.183608 C156.364,186.941608 156.276,186.677608 156.276,186.347608 C156.276,185.379608 157.288,184.939608 158.036,184.939608 C158.806,184.939608 159.158,185.313608 159.576,186.215608 C160.038,187.227608 160.984,189.845608 160.984,190.483608 C160.984,191.473608 160.06,192.001608 158.982,192.001608 Z M163.8,191.055608 C162.854,191.055608 162.634,190.021608 162.524,189.515608 C162.326,188.525608 162.084,187.557608 161.688,186.457608 C161.468,185.841608 161.402,185.621608 161.402,185.335608 C161.402,184.345608 162.392,183.949608 163.14,183.949608 C164.042,183.949608 164.372,184.411608 164.724,185.313608 C165.164,186.457608 165.868,188.987608 165.868,189.559608 C165.868,191.055608 164.196,191.055608 163.8,191.055608 Z M170.664,184.587608 C171.324,184.741608 171.896,185.159608 171.896,185.995608 C171.896,186.347608 171.302,190.373608 169.014,193.673608 C165.868,198.249608 160.72,199.217608 160.06,199.217608 C158.85,199.217608 158.52,198.007608 158.52,197.479608 C158.52,196.533608 159.114,196.357608 160.5,195.917608 C162.854,195.191608 166.902,193.783608 168.266,187.293608 C168.618,185.665608 168.662,185.489608 168.794,185.225608 C169.146,184.565608 169.74,184.499608 170.07,184.499608 C170.224,184.499608 170.422,184.521608 170.664,184.587608 Z M187.064,182.651608 L193.4,182.651608 C195.666,182.651608 195.732,184.081608 195.732,184.741608 C195.732,185.775608 194.852,191.825608 189.946,195.675608 C186.404,198.469608 181.586,199.349608 180.86,199.349608 C179.54,199.349608 179.144,198.227608 179.144,197.501608 C179.144,196.335608 179.65,196.225608 181.322,195.829608 C184.534,195.059608 188.45,193.827608 190.694,189.295608 C191.288,188.107608 191.75,186.589608 191.75,186.259608 C191.75,185.907608 191.552,185.907608 191.046,185.907608 L184.974,185.907608 C184.182,186.919608 181.388,190.241608 179.76,190.241608 C178.748,190.241608 178,189.295608 178,188.459608 C178,187.777608 178.11,187.689608 179.518,186.611608 C180.97,185.511608 182.686,183.465608 183.676,181.507608 C184.336,180.231608 184.6,179.725608 185.678,179.725608 C186.448,179.725608 187.592,180.143608 187.592,181.089608 C187.592,181.419608 187.526,181.771608 187.064,182.651608 Z M206.94,181.881608 C207.116,181.463608 207.336,180.803608 207.534,180.385608 C207.666,180.077608 207.974,179.571608 209.118,179.571608 C209.91,179.571608 210.9,179.857608 210.9,180.869608 C210.9,181.221608 210.724,181.639608 210.658,181.793608 C212.88,181.727608 216.818,181.573608 217.302,181.573608 C218.116,181.573608 218.996,181.925608 218.996,183.157608 C218.996,184.499608 218.006,184.653608 217.676,184.697608 C217.148,184.785608 211.186,184.961608 208.854,185.005608 C208.238,185.973608 208.216,186.017608 207.842,186.655608 C209.184,185.907608 210.328,185.885608 210.636,185.885608 C211.098,185.885608 211.89,185.973608 212.572,186.369608 C213.386,186.853608 213.76,187.535608 213.892,187.777608 C215.19,187.315608 217.39,186.633608 218.226,186.633608 C219.722,186.633608 219.788,188.129608 219.788,188.415608 C219.788,189.757608 218.842,189.977608 218.006,190.153608 C215.608,190.681608 215.542,190.703608 214.53,190.989608 C214.596,191.847608 214.64,192.727608 214.64,193.167608 C214.64,194.179608 214.64,195.411608 212.968,195.411608 C211.34,195.411608 211.296,194.223608 211.274,193.871608 C211.252,193.409608 211.274,192.639608 211.274,192.177608 C209.36,193.013608 208.018,193.783608 208.018,195.037608 C208.018,196.027608 209.448,196.269608 211.714,196.269608 C213.254,196.269608 214.772,196.071608 216.29,195.851608 C216.664,195.785608 216.972,195.785608 217.126,195.785608 C218.27,195.785608 218.6,196.555608 218.6,197.369608 C218.6,198.579608 217.83,198.799608 217.544,198.887608 C215.872,199.393608 213.056,199.393608 212.418,199.393608 C209.118,199.393608 207.798,199.151608 206.61,198.667608 C205.268,198.139608 204.322,196.995608 204.322,195.521608 C204.322,192.221608 208.062,190.241608 210.636,189.075608 C210.306,188.745608 209.866,188.591608 209.404,188.591608 C206.94,188.591608 205.136,190.879608 204.586,191.583608 C204.388,191.825608 203.596,192.881608 203.42,193.101608 C203.134,193.431608 202.716,193.761608 202.056,193.761608 C201.066,193.761608 200.384,192.881608 200.384,192.067608 C200.384,191.363608 200.758,190.945608 201.946,189.647608 C203.068,188.415608 203.75,187.535608 205.334,185.071608 C204.938,185.071608 203.2,185.093608 202.848,185.093608 C202.364,185.093608 201.022,185.093608 201.022,183.487608 C201.022,181.947608 202.298,181.925608 202.782,181.925608 C205.356,181.903608 205.642,181.903608 206.94,181.881608 Z M237.596,186.875608 L241.93,186.875608 C242.436,186.875608 243.536,186.919608 243.536,188.349608 C243.536,189.471608 243.14,189.999608 241.93,189.999608 L238.652,189.999608 C239.642,191.407608 240.06,191.649608 242.48,193.145608 C242.634,193.255608 243.052,193.629608 243.052,194.333608 C243.052,195.037608 242.634,196.181608 241.314,196.181608 C239.972,196.181608 237.508,194.619608 236.012,191.715608 C235.638,192.463608 235.088,193.563608 233.658,194.817608 C232.316,196.005608 231.678,196.115608 231.216,196.115608 C230.006,196.115608 229.346,195.147608 229.346,194.267608 C229.346,193.497608 229.5,193.387608 231.106,192.375608 C232.052,191.759608 232.888,190.989608 233.46,189.999608 L230.226,189.999608 C229.72,189.999608 228.62,189.955608 228.62,188.547608 C228.62,187.425608 229.016,186.875608 230.226,186.875608 L234.252,186.875608 L234.252,185.137608 L230.71,185.137608 C230.204,185.137608 229.126,185.115608 229.126,183.641608 C229.126,182.629608 229.478,181.991608 230.622,181.991608 L231.788,181.991608 C231.7,181.859608 231.37,181.287608 231.304,181.155608 C231.172,180.891608 231.062,180.627608 231.062,180.341608 C231.062,179.571608 231.986,179.021608 232.91,179.021608 C233.57,179.021608 233.878,179.241608 234.23,179.835608 C234.538,180.319608 234.978,181.133608 234.978,181.595608 C234.978,181.771608 234.912,181.903608 234.89,181.991608 L236.914,181.991608 C237.134,181.573608 237.398,181.089608 237.728,180.253608 C237.992,179.571608 238.212,179.021608 239.268,179.021608 C240.104,179.021608 241.138,179.351608 241.138,180.209608 C241.138,180.781608 240.786,181.331608 240.39,181.991608 L241.292,181.991608 C242.282,181.991608 242.854,182.431608 242.854,183.443608 C242.854,184.565608 242.502,185.137608 241.248,185.137608 L237.596,185.137608 L237.596,186.875608 Z M224.484,179.395608 C224.968,179.329608 225.584,179.439608 227.168,180.825608 C228.774,182.255608 228.862,182.563608 228.862,183.069608 C228.862,184.015608 228.026,184.939608 227.146,184.939608 C226.508,184.939608 226.398,184.829608 225.276,183.773608 C224.968,183.465608 223.516,182.255608 223.296,181.947608 C223.164,181.771608 223.054,181.441608 223.054,181.133608 C223.054,180.363608 223.714,179.527608 224.484,179.395608 Z M232.074,196.335608 L242.062,196.335608 C243.602,196.335608 243.668,197.589608 243.668,197.919608 C243.668,198.095608 243.668,199.525608 242.062,199.525608 L232.404,199.525608 C228.972,199.525608 227.916,198.161608 227.278,197.325608 C226.926,197.853608 226.75,198.117608 226.09,198.799608 C225.408,199.525608 225.078,199.833608 224.44,199.833608 C223.406,199.833608 222.57,198.843608 222.57,197.809608 C222.57,197.039608 222.856,196.841608 223.824,196.093608 C224.286,195.719608 224.88,195.257608 225.188,194.971608 L225.188,190.945608 C225.188,190.791608 225.188,190.373608 224.792,190.373608 L224.242,190.373608 C223.164,190.373608 222.724,189.713608 222.724,188.855608 C222.724,187.667608 223.164,187.139608 224.352,187.139608 L225.672,187.139608 C227.96,187.139608 228.4,187.579608 228.4,189.867608 L228.4,193.871608 C228.466,194.399608 228.598,195.103608 229.61,195.741608 C230.512,196.291608 231.656,196.335608 232.074,196.335608 Z M256.878,186.699608 C257.67,186.523608 257.978,186.479608 258.638,186.479608 C262.774,186.479608 265.172,188.657608 265.172,192.265608 C265.172,195.169608 263.588,196.929608 262.334,197.699608 C260.354,198.909608 258,199.239608 255.69,199.239608 C253.886,199.239608 252.104,199.019608 250.872,198.469608 C250.344,198.227608 249.772,197.809608 249.772,196.907608 C249.772,196.071608 250.322,195.279608 251.158,195.279608 C251.532,195.279608 252.214,195.433608 253.116,195.653608 C253.776,195.807608 254.92,195.917608 255.712,195.917608 C257.934,195.917608 259.056,195.543608 259.892,195.037608 C260.53,194.663608 261.388,193.827608 261.388,192.463608 C261.388,191.297608 260.816,190.395608 260.112,189.977608 C259.672,189.713608 258.99,189.427608 257.384,189.427608 C254.48,189.427608 252.742,190.307608 250.146,192.727608 C249.376,193.453608 249.024,193.739608 248.408,193.739608 C247.33,193.739608 246.516,192.661608 246.516,191.979608 C246.516,191.231608 246.78,190.857608 248.166,189.823608 C253.138,186.149608 255.316,184.543608 256.328,183.531608 C255.756,183.553608 250.96,183.795608 249.948,183.795608 C249.046,183.795608 248.166,183.465608 248.166,182.167608 C248.166,180.693608 248.87,180.429608 250.762,180.429608 C253.226,180.429608 255.712,180.407608 258.748,180.275608 C258.902,180.275608 259.452,180.253608 259.628,180.253608 C260.838,180.253608 261.74,180.583608 261.74,181.903608 C261.74,182.563608 261.432,183.179608 260.838,183.641608 C259.694,184.565608 259.474,184.697608 257.736,186.083608 C257.582,186.193608 257.164,186.479608 256.878,186.699608 Z M272.508,181.243608 C272.662,180.033608 273.322,179.659608 274.092,179.659608 C274.444,179.659608 275.918,179.967608 276.226,180.011608 C277.524,180.231608 280.296,180.517608 283.178,180.671608 C284.146,180.715608 285.488,180.781608 285.488,182.387608 C285.488,182.959608 285.246,183.597608 284.894,183.883608 C284.564,184.147608 284.146,184.191608 283.618,184.191608 C282.166,184.191608 276.204,183.575608 273.828,183.025608 C272.882,182.805608 272.398,182.189608 272.508,181.243608 Z M150.433464,108.881046 L126.662222,108.881046 L117.277647,108.881046 C115.895948,108.881046 114.776993,107.762092 114.776993,106.380392 C114.776993,104.998693 115.895948,103.879739 117.277647,103.879739 L126.662222,103.879739 L126.662222,73.2248366 C126.662222,73.2248366 126.662222,49.4535948 150.433464,49.4535948 C150.479008,49.4535948 150.524464,49.453682 150.569833,49.4538562 L181.088758,49.4538562 L181.088758,33.1014927 C181.088323,33.0776923 181.088105,33.053839 181.088105,33.0299346 L181.088105,25.7972549 C181.088105,23.6756863 182.807059,21.956732 184.928627,21.956732 L198.435817,21.956732 C200.556078,21.956732 202.27634,23.6756863 202.27634,25.7972549 L202.27634,33.0299346 C202.27634,35.1501961 200.556078,36.8691503 198.435817,36.8691503 L187.363268,36.8691503 L187.363268,49.4538562 L197.974641,49.4538562 C221.745882,49.4538562 221.745882,73.2237908 221.745882,73.2237908 L221.745882,85.7100654 C221.745882,87.1806536 220.553725,88.3728105 219.083137,88.3728105 L217.700131,88.3728105 C216.229542,88.3728105 215.037386,87.1806536 215.037386,85.7100654 L215.037386,81.667451 L174.204706,81.667451 L174.204706,102.171503 L197.974641,102.171503 L215.037386,102.171503 L215.037386,99.2133333 C215.037386,97.7518954 216.223007,96.5662745 217.684444,96.5662745 L219.097516,96.5662745 C220.561569,96.5662745 221.745882,97.7518954 221.745882,99.2133333 L221.745882,103.651242 C221.745882,106.538824 219.404706,108.881307 216.517124,108.881307 L197.974641,108.881307 L174.204706,108.881307 L168.076601,108.881307 L150.433464,108.881569 Z M166.076361,66.2920261 C165.796887,65.5391027 165.462479,64.7698107 165.062353,64.009281 C162.285882,58.7295425 157.500261,56.1622222 150.433595,56.1622222 C143.225752,56.1622222 138.385229,58.836732 135.634902,64.3386928 C133.467582,68.670719 133.37085,73.1805229 133.37085,73.2249673 L133.37085,102.171373 L150.433464,102.171373 L150.433464,79.1665359 C150.433464,66.2920261 162.911895,66.2920261 162.911895,66.2920261 L166.076361,66.2920261 Z M174.204706,76.6661438 L215.037386,76.6661438 L215.037386,73.2237908 C215.037386,73.2198693 214.948497,68.4643137 212.606013,64.0094118 C209.828235,58.7296732 205.042614,56.1623529 197.974641,56.1623529 L167.686931,56.1623529 C174.204706,63.1921586 174.204706,73.2248366 174.204706,73.2248366 L174.204706,76.6661438 Z M186.09085,136.588659 C213.938882,128.786397 234.421438,103.174244 234.421438,72.869281 C234.421438,36.3882353 204.741699,6.70849673 168.261961,6.70849673 C131.780915,6.70849673 102.101176,36.3882353 102.101176,72.869281 C102.101176,109.34902 131.780915,139.028758 168.261961,139.028758 C170.264587,139.028758 172.24672,138.939313 174.204575,138.764208 L174.204575,108.881569 L186.09085,108.881569 L186.09085,136.588659 Z M287.93,191.231608 C287.93,198.491608 280.054,199.459608 276.028,199.459608 C275.28,199.459608 274.796,199.393608 274.4,198.997608 C274.092,198.689608 273.872,198.205608 273.872,197.655608 C273.872,196.203608 274.95,196.137608 275.632,196.115608 C278.25,195.983608 280.78,195.917608 282.562,194.509608 C283.948,193.409608 284.168,191.935608 284.168,191.297608 C284.168,190.351608 283.75,189.515608 283.222,189.097608 C282.518,188.547608 281.528,188.437608 280.758,188.437608 C280.098,188.437608 277.436,188.613608 274.378,190.131608 C274.026,190.307608 272.552,191.099608 272.222,191.231608 C271.76,191.407608 271.518,191.429608 271.342,191.429608 C270.022,191.429608 269.516,190.153608 269.516,189.449608 C269.516,188.327608 270.22,187.975608 272.728,186.941608 C275.434,185.841608 279.042,185.225608 280.714,185.225608 C282.166,185.225608 284.542,185.511608 286.016,186.765608 C287.666,188.195608 287.93,190.219608 287.93,191.231608 Z M168.261961,0 C208.506405,0 241.129935,32.6248366 241.129935,72.869281 C241.129935,113.112418 208.506405,145.737255 168.261961,145.737255 C128.017516,145.737255 95.3926797,113.112418 95.3926797,72.869281 C95.3926797,32.6248366 128.017516,0 168.261961,0 Z M95.8380392,57.2898039 C95.8380392,59.4218301 94.1099346,61.1499346 91.9779085,61.1499346 C89.8471895,61.1499346 88.119085,59.4218301 88.119085,57.2898039 C88.119085,55.1577778 89.8471895,53.4296732 91.9779085,53.4296732 C94.1099346,53.4296732 95.8380392,55.1577778 95.8380392,57.2898039 Z M122.254379,67.0988235 C124.386405,67.0988235 126.11451,68.8269281 126.11451,70.9589542 C126.11451,73.0896732 124.386405,74.819085 122.254379,74.819085 C120.122353,74.819085 118.394248,73.0896732 118.394248,70.9589542 C118.394248,68.8269281 120.122353,67.0988235 122.254379,67.0988235 Z M111.315556,66.6763399 C111.315556,68.808366 109.587451,70.5364706 107.455425,70.5364706 C105.324706,70.5364706 103.596601,68.808366 103.596601,66.6763399 C103.596601,64.5443137 105.324706,62.8162092 107.455425,62.8162092 C109.587451,62.8162092 111.315556,64.5443137 111.315556,66.6763399 Z M79.7189542,42.2941176 L86.3594771,48.7555556 C86.3594771,48.7555556 84.1594771,50.9424837 81.869281,49.020915 C77.6797386,51.8575163 68.930719,55.7464052 60.1777778,46.9934641 C56.1058824,42.9215686 54.7764706,38.8522876 54.7973856,35.2392157 L54.7908497,35.2392157 C50.9294118,35.2392157 47.6653595,32.6849673 46.5947712,29.1738562 L42,29.1738562 C42,29.1738562 42.0156863,23.448366 47.2915033,22.5228758 C48.7542484,19.8849673 51.5620915,18.0980392 54.7908497,18.0980392 C59.2640523,18.0980392 62.930719,21.5254902 63.3228758,25.8980392 L64.0941176,26.669281 L89.0718954,26.669281 C89.0718954,26.669281 89.0666667,38.1071895 79.7189542,42.2941176 Z M57.2950327,26.6691503 C57.2950327,25.2861438 56.1747712,24.1645752 54.7904575,24.1645752 C53.407451,24.1645752 52.2858824,25.2861438 52.2858824,26.6691503 C52.2858824,28.0521569 53.407451,29.1737255 54.7904575,29.1737255 C56.1747712,29.1737255 57.2950327,28.0521569 57.2950327,26.6691503 Z" fill="#252525"></path>
</svg>
