<svg viewBox="0 0 572 49" version="1.1" xmlns="http://www.w3.org/2000/svg">
  <path d="M4.3,5.95 L35,5.95 C40.55,5.95 40.65,9.25 40.65,11.1 C40.65,11.35 40.3,22.05 34.15,31.15 C28.75,39.05 20.9,43.15 14.35,45.2 C13.4,45.5 11,46.25 9.25,46.25 C6.05,46.25 5.35,43 5.35,41.75 C5.35,39.35 7.15,38.8 9.5,38.15 C19,35.55 25.8,30.6 28.95,24 C31,19.75 31.6,15.8 31.6,15.05 C31.6,13.9 30.9,13.85 30.3,13.85 L4.3,13.85 C3.35,13.85 0.3,13.85 0.3,9.95 C0.3,6.05 3.15,5.95 4.3,5.95 Z M79.65,24.3 L79.65,43.85 C79.65,46 78.65,47.45 75.8,47.45 C73.55,47.45 71.9,46.6 71.9,43.85 L71.9,28.35 C67.25,30.5 61.15,32.75 58.95,32.75 C56.15,32.75 55.35,30 55.35,28.6 C55.35,26.3 56.9,25.85 58.1,25.5 C62.25,24.3 69.6,22.15 77.95,16.7 C79.5,15.7 80,15.25 84.8,11.25 C85.9,10.3 86.65,10.2 87.15,10.2 C89.25,10.2 91.3,12.05 91.3,14.25 C91.3,15.3 90.95,16.1 89.75,17.15 C87.8,18.95 85.25,20.85 79.65,24.3 Z M144.85,29.15 L109.15,29.15 C107.9,29.15 104.75,29.15 104.75,25.05 C104.75,21.1 107.4,20.85 109.15,20.85 L144.85,20.85 C146.1,20.85 149.25,20.85 149.25,24.95 C149.25,29 146.45,29.15 144.85,29.15 Z M178.05,23.25 L178.05,43.25 C178.05,44.7 177.95,47.4 173.8,47.4 C169.65,47.4 169.5,44.85 169.5,43.25 L169.5,6.65 C169.5,5.25 169.6,2.5 173.75,2.5 C177.85,2.5 178.05,5.05 178.05,6.65 L178.05,14.85 C187.1,17.6 194.75,21.4 197.05,22.55 C200.3,24.2 201.25,25.15 201.25,27.15 C201.25,29.3 199.75,32.1 197.05,32.1 C195.8,32.1 194.75,31.6 193.05,30.55 C188.25,27.7 183.3,25.1 178.05,23.25 Z M190,8.9 C189.9,8.5 189.35,7 189.25,6.7 C189.1,6.25 189.1,5.85 189.1,5.75 C189.1,4.3 190.7,4.15 191.05,4.15 C192,4.15 192.5,4.85 193.05,6.25 C193.75,8.1 194.25,10.05 194.25,10.85 C194.25,12.55 192.55,12.6 192.35,12.6 C191.8,12.6 191.15,12.45 190.75,11.3 C190.55,10.65 190.2,9.55 190,8.9 Z M195.85,8.05 C195.75,7.65 195.1,6.1 195,5.8 C194.9,5.5 194.9,5.15 194.9,4.9 C194.9,3.55 196.4,3.3 196.85,3.3 C197.8,3.3 198.25,3.95 198.85,5.4 C199.6,7.35 200.1,9.1 200.1,9.95 C200.1,11.7 198.3,11.7 198.15,11.7 C196.95,11.7 196.85,11.35 195.85,8.05 Z M225.9,4.5 C229,4.95 229.25,6.8 229.25,8.05 C229.25,10.35 227.7,26.8 221.7,38.55 C218.35,45.15 216.8,45.6 215.15,45.6 C213.2,45.6 210.65,43.6 210.65,41.4 C210.65,40.1 211.15,39.3 212,38.05 C218.55,28.55 220,18.65 221.2,8.7 C221.45,6.55 221.75,4.4 224.85,4.4 C225.05,4.4 225.4,4.4 225.9,4.5 Z M240.1,4.5 C240.55,4.45 240.95,4.4 241.15,4.4 C244.2,4.4 244.45,6.55 244.75,8.85 C245.9,18.3 247.25,28.25 253.95,38.05 C254.9,39.4 255.3,40.2 255.3,41.35 C255.3,43.75 252.65,45.6 250.8,45.6 C249.05,45.6 247.45,44.8 244.25,38.55 C238.3,26.8 236.7,10.3 236.7,8.1 C236.7,7.15 236.7,5.05 240.1,4.5 Z M246.95,5.95 C246.85,5.6 246.3,4.1 246.15,3.75 C246.05,3.4 246,3.05 246,2.8 C246,1.45 247.55,1.25 247.95,1.25 C248.95,1.25 249.4,1.9 249.95,3.35 C250.75,5.4 251.2,7.2 251.2,7.9 C251.2,9.65 249.45,9.65 249.3,9.65 C248.05,9.65 248,9.4 246.95,5.95 Z M252.75,5.65 C252.65,5.25 252.05,3.7 251.95,3.4 C251.8,3 251.8,2.6 251.8,2.5 C251.8,1.15 253.3,0.9 253.8,0.9 C254.8,0.9 255.2,1.6 255.75,2.95 C256.3,4.3 257,6.55 257,7.55 C257,9.3 255.2,9.3 255.1,9.3 C253.85,9.3 253.75,8.85 252.75,5.65 Z M274.35,30.45 C272.25,30.45 271.65,28.45 271.3,27.15 C270.35,23.65 270.05,22.95 268.65,19.5 C268.4,18.95 268.2,18.35 268.2,17.6 C268.2,15.4 270.5,14.4 272.2,14.4 C273.95,14.4 274.75,15.25 275.7,17.3 C276.75,19.6 278.9,25.55 278.9,27 C278.9,29.25 276.8,30.45 274.35,30.45 Z M285.3,28.3 C283.15,28.3 282.65,25.95 282.4,24.8 C281.95,22.55 281.4,20.35 280.5,17.85 C280,16.45 279.85,15.95 279.85,15.3 C279.85,13.05 282.1,12.15 283.8,12.15 C285.85,12.15 286.6,13.2 287.4,15.25 C288.4,17.85 290,23.6 290,24.9 C290,28.3 286.2,28.3 285.3,28.3 Z M300.9,13.6 C302.4,13.95 303.7,14.9 303.7,16.8 C303.7,17.6 302.35,26.75 297.15,34.25 C290,44.65 278.3,46.85 276.8,46.85 C274.05,46.85 273.3,44.1 273.3,42.9 C273.3,40.75 274.65,40.35 277.8,39.35 C283.15,37.7 292.35,34.5 295.45,19.75 C296.25,16.05 296.35,15.65 296.65,15.05 C297.45,13.55 298.8,13.4 299.55,13.4 C299.9,13.4 300.35,13.45 300.9,13.6 Z M338.9,9.2 L353.3,9.2 C358.45,9.2 358.6,12.45 358.6,13.95 C358.6,16.3 356.6,30.05 345.45,38.8 C337.4,45.15 326.45,47.15 324.8,47.15 C321.8,47.15 320.9,44.6 320.9,42.95 C320.9,40.3 322.05,40.05 325.85,39.15 C333.15,37.4 342.05,34.6 347.15,24.3 C348.5,21.6 349.55,18.15 349.55,17.4 C349.55,16.6 349.1,16.6 347.95,16.6 L334.15,16.6 C332.35,18.9 326,26.45 322.3,26.45 C320,26.45 318.3,24.3 318.3,22.4 C318.3,20.85 318.55,20.65 321.75,18.2 C325.05,15.7 328.95,11.05 331.2,6.6 C332.7,3.7 333.3,2.55 335.75,2.55 C337.5,2.55 340.1,3.5 340.1,5.65 C340.1,6.4 339.95,7.2 338.9,9.2 Z M384.8,7.45 C385.2,6.5 385.7,5 386.15,4.05 C386.45,3.35 387.15,2.2 389.75,2.2 C391.55,2.2 393.8,2.85 393.8,5.15 C393.8,5.95 393.4,6.9 393.25,7.25 C398.3,7.1 407.25,6.75 408.35,6.75 C410.2,6.75 412.2,7.55 412.2,10.35 C412.2,13.4 409.95,13.75 409.2,13.85 C408,14.05 394.45,14.45 389.15,14.55 C387.75,16.75 387.7,16.85 386.85,18.3 C389.9,16.6 392.5,16.55 393.2,16.55 C394.25,16.55 396.05,16.75 397.6,17.65 C399.45,18.75 400.3,20.3 400.6,20.85 C403.55,19.8 408.55,18.25 410.45,18.25 C413.85,18.25 414,21.65 414,22.3 C414,25.35 411.85,25.85 409.95,26.25 C404.5,27.45 404.35,27.5 402.05,28.15 C402.2,30.1 402.3,32.1 402.3,33.1 C402.3,35.4 402.3,38.2 398.5,38.2 C394.8,38.2 394.7,35.5 394.65,34.7 C394.6,33.65 394.65,31.9 394.65,30.85 C390.3,32.75 387.25,34.5 387.25,37.35 C387.25,39.6 390.5,40.15 395.65,40.15 C399.15,40.15 402.6,39.7 406.05,39.2 C406.9,39.05 407.6,39.05 407.95,39.05 C410.55,39.05 411.3,40.8 411.3,42.65 C411.3,45.4 409.55,45.9 408.9,46.1 C405.1,47.25 398.7,47.25 397.25,47.25 C389.75,47.25 386.75,46.7 384.05,45.6 C381,44.4 378.85,41.8 378.85,38.45 C378.85,30.95 387.35,26.45 393.2,23.8 C392.45,23.05 391.45,22.7 390.4,22.7 C384.8,22.7 380.7,27.9 379.45,29.5 C379,30.05 377.2,32.45 376.8,32.95 C376.15,33.7 375.2,34.45 373.7,34.45 C371.45,34.45 369.9,32.45 369.9,30.6 C369.9,29 370.75,28.05 373.45,25.1 C376,22.3 377.55,20.3 381.15,14.7 C380.25,14.7 376.3,14.75 375.5,14.75 C374.4,14.75 371.35,14.75 371.35,11.1 C371.35,7.6 374.25,7.55 375.35,7.55 C381.2,7.5 381.85,7.5 384.8,7.45 Z M455.2,18.8 L465.05,18.8 C466.2,18.8 468.7,18.9 468.7,22.15 C468.7,24.7 467.8,25.9 465.05,25.9 L457.6,25.9 C459.85,29.1 460.8,29.65 466.3,33.05 C466.65,33.3 467.6,34.15 467.6,35.75 C467.6,37.35 466.65,39.95 463.65,39.95 C460.6,39.95 455,36.4 451.6,29.8 C450.75,31.5 449.5,34 446.25,36.85 C443.2,39.55 441.75,39.8 440.7,39.8 C437.95,39.8 436.45,37.6 436.45,35.6 C436.45,33.85 436.8,33.6 440.45,31.3 C442.6,29.9 444.5,28.15 445.8,25.9 L438.45,25.9 C437.3,25.9 434.8,25.8 434.8,22.6 C434.8,20.05 435.7,18.8 438.45,18.8 L447.6,18.8 L447.6,14.85 L439.55,14.85 C438.4,14.85 435.95,14.8 435.95,11.45 C435.95,9.15 436.75,7.7 439.35,7.7 L442,7.7 C441.8,7.4 441.05,6.1 440.9,5.8 C440.6,5.2 440.35,4.6 440.35,3.95 C440.35,2.2 442.45,0.95 444.55,0.95 C446.05,0.95 446.75,1.45 447.55,2.8 C448.25,3.9 449.25,5.75 449.25,6.8 C449.25,7.2 449.1,7.5 449.05,7.7 L453.65,7.7 C454.15,6.75 454.75,5.65 455.5,3.75 C456.1,2.2 456.6,0.95 459,0.95 C460.9,0.95 463.25,1.7 463.25,3.65 C463.25,4.95 462.45,6.2 461.55,7.7 L463.6,7.7 C465.85,7.7 467.15,8.7 467.15,11 C467.15,13.55 466.35,14.85 463.5,14.85 L455.2,14.85 L455.2,18.8 Z M425.4,1.8 C426.5,1.65 427.9,1.9 431.5,5.05 C435.15,8.3 435.35,9 435.35,10.15 C435.35,12.3 433.45,14.4 431.45,14.4 C430,14.4 429.75,14.15 427.2,11.75 C426.5,11.05 423.2,8.3 422.7,7.6 C422.4,7.2 422.15,6.45 422.15,5.75 C422.15,4 423.65,2.1 425.4,1.8 Z M442.65,40.3 L465.35,40.3 C468.85,40.3 469,43.15 469,43.9 C469,44.3 469,47.55 465.35,47.55 L443.4,47.55 C435.6,47.55 433.2,44.45 431.75,42.55 C430.95,43.75 430.55,44.35 429.05,45.9 C427.5,47.55 426.75,48.25 425.3,48.25 C422.95,48.25 421.05,46 421.05,43.65 C421.05,41.9 421.7,41.45 423.9,39.75 C424.95,38.9 426.3,37.85 427,37.2 L427,28.05 C427,27.7 427,26.75 426.1,26.75 L424.85,26.75 C422.4,26.75 421.4,25.25 421.4,23.3 C421.4,20.6 422.4,19.4 425.1,19.4 L428.1,19.4 C433.3,19.4 434.3,20.4 434.3,25.6 L434.3,34.7 C434.45,35.9 434.75,37.5 437.05,38.95 C439.1,40.2 441.7,40.3 442.65,40.3 Z M499.75,18.4 C501.55,18 502.25,17.9 503.75,17.9 C513.15,17.9 518.6,22.85 518.6,31.05 C518.6,37.65 515,41.65 512.15,43.4 C507.65,46.15 502.3,46.9 497.05,46.9 C492.95,46.9 488.9,46.4 486.1,45.15 C484.9,44.6 483.6,43.65 483.6,41.6 C483.6,39.7 484.85,37.9 486.75,37.9 C487.6,37.9 489.15,38.25 491.2,38.75 C492.7,39.1 495.3,39.35 497.1,39.35 C502.15,39.35 504.7,38.5 506.6,37.35 C508.05,36.5 510,34.6 510,31.5 C510,28.85 508.7,26.8 507.1,25.85 C506.1,25.25 504.55,24.6 500.9,24.6 C494.3,24.6 490.35,26.6 484.45,32.1 C482.7,33.75 481.9,34.4 480.5,34.4 C478.05,34.4 476.2,31.95 476.2,30.4 C476.2,28.7 476.8,27.85 479.95,25.5 C491.25,17.15 496.2,13.5 498.5,11.2 C497.2,11.25 486.3,11.8 484,11.8 C481.95,11.8 479.95,11.05 479.95,8.1 C479.95,4.75 481.55,4.15 485.85,4.15 C491.45,4.15 497.1,4.1 504,3.8 C504.35,3.8 505.6,3.75 506,3.75 C508.75,3.75 510.8,4.5 510.8,7.5 C510.8,9 510.1,10.4 508.75,11.45 C506.15,13.55 505.65,13.85 501.7,17 C501.35,17.25 500.4,17.9 499.75,18.4 Z M536,6 C536.35,3.25 537.85,2.4 539.6,2.4 C540.4,2.4 543.75,3.1 544.45,3.2 C547.4,3.7 553.7,4.35 560.25,4.7 C562.45,4.8 565.5,4.95 565.5,8.6 C565.5,9.9 564.95,11.35 564.15,12 C563.4,12.6 562.45,12.7 561.25,12.7 C557.95,12.7 544.4,11.3 539,10.05 C536.85,9.55 535.75,8.15 536,6 Z M571.05,28.7 C571.05,45.2 553.15,47.4 544,47.4 C542.3,47.4 541.2,47.25 540.3,46.35 C539.6,45.65 539.1,44.55 539.1,43.3 C539.1,40 541.55,39.85 543.1,39.8 C549.05,39.5 554.8,39.35 558.85,36.15 C562,33.65 562.5,30.3 562.5,28.85 C562.5,26.7 561.55,24.8 560.35,23.85 C558.75,22.6 556.5,22.35 554.75,22.35 C553.25,22.35 547.2,22.75 540.25,26.2 C539.45,26.6 536.1,28.4 535.35,28.7 C534.3,29.1 533.75,29.15 533.35,29.15 C530.35,29.15 529.2,26.25 529.2,24.65 C529.2,22.1 530.8,21.3 536.5,18.95 C542.65,16.45 550.85,15.05 554.65,15.05 C557.95,15.05 563.35,15.7 566.7,18.55 C570.45,21.8 571.05,26.4 571.05,28.7 Z" fill="#252525"></path>
</svg>
