<svg viewBox="0 0 170 21" version="1.1" xmlns="http://www.w3.org/2000/svg">
  <path d="M13.85,9.166 C13.872,8.594 13.806,6.02 13.916,5.514 C14.026,5.03 14.312,4.326 15.654,4.326 C17.348,4.326 17.568,5.36 17.568,6.592 C17.568,7.758 17.436,9.364 17.348,10.486 C18.976,11.234 20.054,11.74 20.054,12.884 C20.054,13.632 19.416,14.842 18.382,14.842 C17.854,14.842 17.568,14.666 16.732,14.204 C15.808,17.68 13.014,20.474 10.968,20.474 C10.088,20.474 9.208,19.616 9.208,18.67 C9.208,17.812 9.516,17.614 11.518,16.316 C12.024,15.986 13.168,14.996 13.542,12.664 C11.98,11.982 11.056,11.696 9.648,11.454 C9.428,12.312 8.922,14.336 7.8,16.668 C7.162,17.966 6.26,19.308 4.5,19.308 C2.476,19.308 0.078,17.526 0.078,14.314 C0.078,12.29 1.068,9.848 4.148,8.748 C5.49,8.264 6.634,8.198 7.14,8.176 C7.206,7.89 7.536,6.658 7.558,6.46 C7.602,6.152 7.778,5.25 7.778,5.074 C7.778,4.612 7.492,4.546 7.14,4.546 C6.524,4.546 3.862,4.744 3.312,4.744 C2.85,4.744 1.552,4.744 1.552,3.072 C1.552,1.378 2.828,1.378 3.62,1.378 L4.852,1.378 C5.49,1.378 8.834,1.268 8.922,1.268 C9.538,1.268 11.408,1.268 11.408,3.182 C11.408,3.952 11.1,5.426 11.034,5.756 C10.968,6.174 10.506,7.956 10.418,8.33 C12.002,8.638 12.772,8.858 13.85,9.166 Z M6.37,11.212 C5.82,11.322 5.446,11.388 4.984,11.564 C3.884,12.026 3.026,12.928 3.026,14.38 C3.026,15.656 3.84,15.964 4.104,15.964 C4.566,15.964 4.918,15.414 5.314,14.446 C6.04,12.642 6.26,11.74 6.37,11.212 Z M31.348,9.584 C32.14,9.056 32.866,8.572 34.186,8.572 C36.65,8.572 37.64,10.134 37.64,12.356 C37.64,12.818 37.486,14.886 37.486,15.304 C37.486,15.656 37.508,16.228 37.992,16.58 C38.256,16.756 38.52,16.778 38.674,16.778 C40.258,16.778 40.72,14.732 40.962,13.28 C41.028,12.796 41.116,10.64 41.182,10.2 C41.248,9.848 41.38,8.902 42.898,8.902 C44.746,8.902 44.746,10.244 44.746,10.882 C44.746,12.576 44.416,14.864 43.844,16.448 C43.624,17.064 42.678,19.462 40.082,20.1 C39.268,20.298 38.63,20.298 38.41,20.298 C37.398,20.298 35.682,20.078 34.824,18.736 C34.142,17.658 34.142,16.69 34.142,15.986 C34.142,15.546 34.252,13.654 34.252,13.258 C34.252,12.708 34.252,11.85 32.976,11.85 C32.448,11.85 30.754,12.136 29.676,15.37 C29.566,15.722 29.302,16.536 28.972,18.032 C28.708,19.286 28.466,20.078 27.146,20.078 C26.288,20.078 25.276,19.55 25.276,18.45 C25.276,18.054 25.342,17.768 25.65,16.734 C26.838,12.642 28.092,8.572 29.478,4.524 C29.676,3.952 30.38,1.884 30.556,1.532 C30.666,1.312 31.062,0.718 32.008,0.718 C32.448,0.718 33.966,0.938 33.966,2.236 C33.966,2.742 33.834,3.072 33.064,5.052 C32.03,7.736 31.92,8.044 31.7,8.638 C31.612,8.858 31.524,9.056 31.348,9.584 Z M62.178,11.696 L61.958,8.638 C61.848,7.252 63.102,7.076 63.674,7.076 C64.334,7.076 65.302,7.252 65.368,8.506 L65.566,12.752 C66.688,13.324 67.744,14.028 68.668,14.886 C69.24,15.392 69.416,15.832 69.416,16.316 C69.416,17.24 68.734,18.164 67.678,18.164 C67.37,18.164 67.018,18.076 66.776,17.856 C65.896,17.086 65.72,16.932 65.302,16.536 C65.258,17.196 65.214,17.746 64.84,18.428 C63.828,20.188 61.606,20.386 60.484,20.386 C56.656,20.386 55.028,18.34 55.028,16.074 C55.028,13.962 56.568,11.608 60.77,11.608 C61.342,11.608 61.76,11.652 62.178,11.696 Z M62.288,14.776 C61.848,14.578 61.496,14.424 60.572,14.424 C59.868,14.424 58.02,14.556 58.02,16.008 C58.02,17.482 59.912,17.482 60.22,17.482 C61.936,17.482 62.31,16.646 62.288,14.776 Z M57.206,6.9 C56.7,8.572 55.578,12.158 53.73,15.48 C53.4,16.052 53.026,16.602 52.102,16.602 C51.178,16.602 50.188,15.964 50.188,15.018 C50.188,14.424 50.364,14.16 51.64,11.894 C52.652,10.112 53.356,7.89 53.642,7.032 C52.058,7.054 51.662,7.076 51.222,6.966 C50.672,6.834 50.232,6.284 50.232,5.382 C50.232,3.996 51.2,3.864 51.552,3.798 C51.706,3.776 54.192,3.71 54.566,3.71 C54.632,3.38 54.896,1.928 54.984,1.642 C55.182,0.982 55.754,0.696 56.502,0.696 C56.942,0.696 58.416,0.784 58.416,2.082 C58.416,2.588 58.284,3.094 58.174,3.578 C58.416,3.578 59.472,3.512 59.692,3.512 C60.198,3.512 61.386,3.556 61.386,5.162 C61.386,6.702 60.264,6.768 59.604,6.812 C59.186,6.834 58.988,6.834 57.206,6.9 Z M62.112,2.522 C62.288,2.302 62.772,1.752 63.52,1.752 C64.51,1.752 67.106,3.292 68.624,4.48 C69.394,5.096 69.658,5.558 69.658,6.13 C69.658,7.164 68.734,7.912 67.898,7.912 C67.326,7.912 66.93,7.626 66.468,7.23 C65.258,6.196 64.862,5.866 62.838,4.744 C62.42,4.524 61.826,4.194 61.826,3.402 C61.826,2.984 62.046,2.632 62.112,2.522 Z M84.802,5.382 C83.636,5.47 77.344,5.954 76.772,5.954 C75.628,5.954 75.1,5.162 75.1,4.128 C75.1,3.182 75.43,2.412 76.684,2.28 C77.608,2.192 88.058,1.796 92.326,1.796 C93.536,1.796 94.79,1.796 94.79,3.468 C94.79,5.25 93.602,5.294 92.348,5.294 C91.028,5.316 89.686,5.558 87.706,6.68 C85.44,7.978 83.196,10.42 83.196,12.994 C83.196,15.744 85.462,16.36 89.158,16.36 L91.05,16.36 C91.864,16.36 92.744,16.69 92.744,18.01 C92.744,20.078 91.138,20.078 89.554,20.078 C88.916,20.078 86.892,20.056 84.67,19.484 C83.482,19.176 79.544,18.164 79.544,13.412 C79.544,10.926 80.666,9.122 81.92,7.736 C83.042,6.482 83.966,5.91 84.802,5.382 Z M89.312,9.254 C89.224,9.1 88.85,8.44 88.784,8.286 C88.718,8.132 88.652,7.956 88.652,7.802 C88.652,7.362 89.202,7.098 89.532,7.098 C89.906,7.098 90.126,7.34 90.588,8.154 C90.742,8.44 91.292,9.562 91.292,10.002 C91.292,10.596 90.676,10.75 90.412,10.75 C90.302,10.75 90.016,10.75 89.796,10.288 C89.708,10.134 89.378,9.408 89.312,9.254 Z M91.6,8.22 C91.512,8.044 91.116,7.296 91.05,7.142 C90.984,6.988 90.962,6.834 90.962,6.746 C90.962,6.306 91.512,6.064 91.82,6.064 C92.26,6.064 92.48,6.416 92.876,7.142 C93.162,7.648 93.602,8.506 93.602,8.968 C93.602,9.452 93.096,9.694 92.722,9.694 C92.612,9.694 92.326,9.694 92.084,9.232 C91.996,9.078 91.666,8.352 91.6,8.22 Z M116.556,19.132 C112.288,19.814 105.468,20.452 105.094,20.452 C104.742,20.452 103.444,20.452 103.444,18.824 C103.444,17.394 104.434,17.306 105.534,17.218 C106.436,14.864 107.184,12.466 107.91,10.046 C108.02,9.672 108.482,7.846 108.592,7.45 C108.9,6.372 109.098,5.646 110.33,5.646 C110.572,5.646 112.178,5.646 112.178,6.966 C112.178,7.582 111.804,8.77 110.924,11.344 C109.846,14.578 109.802,14.71 108.834,16.976 C111.496,16.778 112.772,16.668 115.39,16.338 C114.862,15.172 114.752,14.93 113.564,12.554 C113.454,12.334 113.3,12.004 113.3,11.718 C113.3,10.838 114.202,10.266 115.016,10.266 C115.5,10.266 115.918,10.508 116.248,10.992 C116.908,11.982 118.228,14.622 119.196,16.712 C119.724,17.834 120.098,18.78 120.098,19.374 C120.098,20.54 118.998,20.936 118.36,20.936 C117.304,20.936 117.084,20.408 116.556,19.132 Z M108.592,1.928 L108.592,1.554 C108.592,0.564 109.01,0.014 110.264,0.014 C111.056,0.014 112.112,0.058 112.112,1.554 L112.112,1.928 L118.756,1.928 C119.328,1.928 120.362,2.016 120.362,3.402 C120.362,4.546 119.988,5.118 118.756,5.118 L105.028,5.118 C104.544,5.118 104.28,5.382 104.28,5.844 L104.28,10.464 C104.28,15.106 103.312,18.384 103.092,19.044 C102.718,20.232 102.3,20.936 101.244,20.936 C100.144,20.936 99.374,20.144 99.374,19.242 C99.374,18.846 99.396,18.802 100.122,16.712 C100.672,15.128 101.002,12.906 101.002,10.508 L101.002,4.92 C101.002,2.566 102.102,1.928 104.016,1.928 L108.592,1.928 Z M140.962,8.748 C141.028,10.904 141.028,11.146 141.028,11.806 C141.028,14.798 140.962,18.362 136.408,19.902 C135,20.386 133.526,20.518 133.064,20.518 C131.832,20.518 131.348,19.506 131.348,18.648 C131.348,17.702 131.81,17.35 132.668,17.218 C134.428,16.976 135.33,16.866 136.342,15.986 C137.2,15.238 137.442,14.028 137.442,11.41 C137.442,10.992 137.398,9.232 137.398,8.858 C136.694,8.88 133.614,8.946 132.976,8.946 C131.634,8.946 130.512,8.946 130.512,7.318 C130.512,5.932 131.304,5.668 132.272,5.668 C133.658,5.646 135.902,5.668 137.288,5.58 C137.288,5.118 137.2,2.808 137.2,2.654 C137.2,1.818 137.332,0.85 138.96,0.85 C140.17,0.85 140.742,1.268 140.786,2.5 C140.808,2.962 140.852,5.03 140.852,5.448 C141.424,5.426 142.92,5.36 143.096,5.36 C143.69,5.36 144.856,5.382 144.856,6.988 C144.856,7.23 144.856,8.286 143.954,8.55 C143.448,8.682 141.512,8.748 140.962,8.748 Z M128.246,0.982 C129.17,0.982 129.676,1.532 129.676,2.434 C129.676,2.83 129.412,4.612 129.368,4.986 C129.236,6.196 128.972,8.858 128.972,11.454 C128.972,13.522 129.126,15.48 129.346,17.218 C129.434,17.856 129.456,18.318 129.456,18.472 C129.456,19.858 128.136,19.924 127.674,19.924 C126.574,19.924 126.222,19.396 126.002,18.45 C125.76,17.46 125.562,14.754 125.562,11.828 C125.562,7.098 126.09,2.852 126.31,2.06 C126.618,0.982 127.256,0.982 128.246,0.982 Z M141.49,2.962 C141.424,2.698 141.182,2.016 141.16,1.928 C141.094,1.774 141.094,1.642 141.094,1.554 C141.094,0.938 141.776,0.85 141.952,0.85 C142.37,0.85 142.59,1.136 142.832,1.774 C143.096,2.478 143.338,3.424 143.338,3.842 C143.338,4.612 142.568,4.612 142.502,4.612 C141.952,4.612 141.886,4.392 141.49,2.962 Z M143.888,2.28 C143.844,2.126 143.58,1.422 143.536,1.268 C143.492,1.136 143.47,1.004 143.47,0.894 C143.47,0.256 144.174,0.19 144.328,0.19 C144.746,0.19 144.944,0.454 145.208,1.114 C145.45,1.774 145.736,2.742 145.736,3.182 C145.736,3.93 144.966,3.952 144.9,3.952 C144.35,3.952 144.306,3.798 143.888,2.28 Z M160.528,7.692 C161.056,7.516 161.694,7.384 162.596,7.384 C163.718,7.384 164.95,7.604 166.116,8.132 C168.25,9.078 169.262,11.278 169.262,13.478 C169.262,15.194 168.646,18.054 165.346,19.55 C163.74,20.276 161.98,20.474 160.242,20.474 C157.536,20.474 156.238,19.924 155.314,19.352 C154.346,18.736 153.774,17.68 153.774,16.536 C153.774,13.83 156.106,12.598 158.614,12.598 C160,12.598 163.08,12.972 163.08,16.316 C163.08,16.602 163.036,16.822 162.97,17.13 C165.346,16.492 165.588,14.468 165.588,13.786 C165.588,12.884 165.236,11.432 163.652,10.772 C162.794,10.398 161.76,10.376 161.188,10.376 C159.428,10.376 156.964,10.772 154.192,13.28 C152.74,14.622 152.608,14.71 152.036,14.71 C151.178,14.71 150.21,13.94 150.21,12.84 C150.21,12.092 150.474,11.894 152.036,10.75 C154.918,8.66 157.052,7.054 159.406,5.184 C159.67,4.986 159.846,4.832 160.154,4.546 C159.164,4.568 154.412,4.92 153.928,4.92 C153.4,4.92 152.168,4.876 152.168,3.226 C152.168,1.664 153.334,1.576 154.038,1.554 C159.736,1.466 160.242,1.466 162.992,1.356 C163.212,1.356 163.696,1.334 164.158,1.334 C164.818,1.334 166.204,1.356 166.204,2.874 C166.204,4.018 165.918,4.194 163.41,5.712 C162.068,6.526 161.1,7.274 160.528,7.692 Z M160.264,17.57 C160.374,17.108 160.374,16.932 160.374,16.822 C160.374,15.634 159.538,15.304 158.636,15.304 C157.646,15.304 156.854,15.744 156.854,16.448 C156.854,17.174 157.8,17.68 159.34,17.68 C159.67,17.68 159.89,17.636 160.264,17.57 Z" fill="#252525"></path>
</svg>
