<svg viewBox="0 0 653 265" version="1.1" xmlns="http://www.w3.org/2000/svg" xmlns:xlink="http://www.w3.org/1999/xlink">
    <path d="M24.6838674,14.4585204 C24.7191212,13.5504974 24.6133599,9.4643938 24.7896288,8.66114266 C24.9658977,7.89281549 25.4241968,6.7752487 27.5746773,6.7752487 C30.2892184,6.7752487 30.6417562,8.41667493 30.6417562,10.3724168 C30.6417562,12.2233868 30.4302335,14.7728361 30.2892184,16.5539582 C32.897998,17.7413729 34.6254332,18.544624 34.6254332,20.36067 C34.6254332,21.5480848 33.6030736,23.4689027 31.946146,23.4689027 C31.1000553,23.4689027 30.6417562,23.189511 29.3021125,22.4561078 C27.8214538,27.9740938 23.3442238,32.4094371 20.0656223,32.4094371 C18.6554712,32.4094371 17.24532,31.0474025 17.24532,29.5456721 C17.24532,28.1836376 17.7388729,27.869322 20.9469668,25.8088082 C21.7578037,25.2849487 23.5910003,23.7133704 24.1903145,20.0114304 C21.6872962,18.9287876 20.2066375,18.4747761 17.9503956,18.0906125 C17.5978578,19.452647 16.7870208,22.6656516 14.9890781,26.3675916 C13.9667185,28.4281053 12.5213135,30.5584671 9.70101119,30.5584671 C6.45766348,30.5584671 2.61500153,27.7296261 2.61500153,22.6307276 C2.61500153,19.4177231 4.2014216,15.5411632 9.13695072,13.7949651 C11.2874313,13.026638 13.1206278,12.9218661 13.9314647,12.8869421 C14.0372261,12.4329306 14.5660327,10.4771887 14.6012865,10.162873 C14.6717941,9.67393757 14.9538243,8.24205511 14.9538243,7.96266341 C14.9538243,7.22926021 14.4955252,7.12448832 13.9314647,7.12448832 C12.9443589,7.12448832 8.67865158,7.43880398 7.7973071,7.43880398 C7.05697773,7.43880398 4.97700475,7.43880398 4.97700475,4.78458284 C4.97700475,2.09543774 7.02172395,2.09543774 8.29086001,2.09543774 L10.2650717,2.09543774 C11.2874313,2.09543774 16.6460057,1.92081793 16.7870208,1.92081793 C17.7741267,1.92081793 20.7706979,1.92081793 20.7706979,4.95920265 C20.7706979,6.18154134 20.277145,8.52144681 20.1713837,9.04530625 C20.0656223,9.70886153 19.325293,12.5377025 19.1842778,13.1314098 C21.72255,13.6203453 22.9564322,13.9695849 24.6838674,14.4585204 Z M12.6975824,17.7064489 C11.816238,17.8810687 11.2169237,17.9858406 10.4765943,18.2652323 C8.71390536,18.9986355 7.33900797,20.430518 7.33900797,22.7354995 C7.33900797,24.7610893 8.6433978,25.2500248 9.06644316,25.2500248 C9.80677253,25.2500248 10.370833,24.3769257 11.005401,22.8402714 C12.1687757,19.9765065 12.5213135,18.544624 12.6975824,17.7064489 Z M53.6574377,15.1220757 C54.9265737,14.2839006 56.0899484,13.5155734 58.2051752,13.5155734 C62.1535985,13.5155734 63.7400186,15.9951748 63.7400186,19.522495 C63.7400186,20.2558982 63.4932421,23.5387506 63.4932421,24.2023059 C63.4932421,24.7610893 63.5284959,25.6691123 64.304079,26.2278957 C64.7271244,26.5072874 65.1501698,26.5422114 65.3969462,26.5422114 C67.9352183,26.5422114 68.6755477,23.2942829 69.0633393,20.9893014 C69.1691006,20.2209742 69.3101157,16.7984259 69.4158771,16.0999466 C69.5216384,15.5411632 69.7331611,14.0394329 72.1656719,14.0394329 C75.1269893,14.0394329 75.1269893,16.1697946 75.1269893,17.1825895 C75.1269893,19.8717346 74.5981826,23.5038267 73.6815844,26.0183519 C73.3290466,26.9962229 71.8131341,30.8029348 67.6531881,31.8157297 C66.3487983,32.1300454 65.3264386,32.1300454 64.9739009,32.1300454 C63.352227,32.1300454 60.6024322,31.7808057 59.2275348,29.650444 C58.1346676,27.9391699 58.1346676,26.4025155 58.1346676,25.2849487 C58.1346676,24.5864695 58.3109365,21.5830087 58.3109365,20.9543774 C58.3109365,20.0812783 58.3109365,18.7192438 56.2662173,18.7192438 C55.4201266,18.7192438 52.7055856,19.1732553 50.9781504,24.3070778 C50.8018815,24.8658612 50.3788362,26.1580478 49.8500295,28.5328772 C49.4269841,30.5235431 49.0391926,31.7808057 46.9239658,31.7808057 C45.5490684,31.7808057 43.9273945,30.9426306 43.9273945,29.1964325 C43.9273945,28.5678012 44.0331559,28.1137897 44.5267088,26.4723635 C46.4304129,19.9765065 48.4398783,13.5155734 50.6608664,7.08956436 C50.9781504,6.18154134 52.1062714,2.89868887 52.3883016,2.33990548 C52.5645705,1.99066585 53.1991385,1.04771887 54.715051,1.04771887 C55.4201266,1.04771887 57.8526374,1.39695849 57.8526374,3.45747227 C57.8526374,4.26072341 57.6411147,4.78458284 56.4072325,7.92773945 C54.7503048,12.1884629 54.5740359,12.6773983 54.2214981,13.6203453 C54.080483,13.9695849 53.9394679,14.2839006 53.6574377,15.1220757 Z M103.994798,18.4747761 L103.64226,13.6203453 C103.465992,11.4201357 105.475457,11.140744 106.392055,11.140744 C107.449669,11.140744 109.000835,11.4201357 109.106596,13.4108015 L109.42388,20.1511263 C111.221823,21.0591493 112.914004,22.1767161 114.394663,23.5387506 C115.311261,24.3420018 115.593292,25.040481 115.593292,25.8088082 C115.593292,27.2756146 114.500424,28.742421 112.808243,28.742421 C112.31469,28.742421 111.75063,28.6027252 111.362838,28.2534855 C109.952687,27.0311469 109.670657,26.7866791 109.000835,26.1580478 C108.930327,27.2057667 108.85982,28.0788657 108.260506,29.1615086 C106.638832,31.9554255 103.0782,32.2697412 101.280257,32.2697412 C95.1460996,32.2697412 92.5373199,29.0218127 92.5373199,25.4246446 C92.5373199,22.0719442 95.0050845,18.3350802 101.738556,18.3350802 C102.655155,18.3350802 103.324976,18.4049282 103.994798,18.4747761 Z M104.171067,23.3641308 C103.465992,23.0498151 102.901931,22.8053474 101.421272,22.8053474 C100.293151,22.8053474 97.3318339,23.0148912 97.3318339,25.3198727 C97.3318339,27.6597782 100.363659,27.6597782 100.857212,27.6597782 C103.607007,27.6597782 104.206321,26.3326676 104.171067,23.3641308 Z M96.0274441,10.8613523 C95.2166071,13.5155734 93.4186644,19.2081793 90.4573469,24.4816976 C89.9285402,25.3897206 89.329226,26.2628197 87.8485672,26.2628197 C86.3679085,26.2628197 84.7814884,25.2500248 84.7814884,23.7482944 C84.7814884,22.8053474 85.0635187,22.3862599 87.1082379,18.7890917 C88.7299117,15.9602508 89.8580327,12.4329306 90.3163318,11.0708961 C87.7780597,11.10582 87.1434917,11.140744 86.4384161,10.9661242 C85.5570716,10.7565804 84.851996,9.88348134 84.851996,8.45159889 C84.851996,6.25138926 86.4031623,6.04184549 86.9672228,5.9370736 C87.2139992,5.90214964 91.1976763,5.79737775 91.7969905,5.79737775 C91.9027519,5.27351831 92.3257972,2.9685368 92.4668123,2.51452529 C92.7840964,1.46680642 93.7006946,1.01279491 94.8993231,1.01279491 C95.6043987,1.01279491 97.9664019,1.15249076 97.9664019,3.21300454 C97.9664019,4.01625567 97.7548793,4.8195068 97.5786104,5.58783398 C97.9664019,5.58783398 99.6585833,5.48306209 100.011121,5.48306209 C100.821958,5.48306209 102.725662,5.55291001 102.725662,8.10235926 C102.725662,10.5470366 100.927719,10.6518085 99.870106,10.7216564 C99.2002842,10.7565804 98.8830002,10.7565804 96.0274441,10.8613523 Z M103.889037,3.91148378 C104.171067,3.56224416 104.94665,2.6891451 106.145279,2.6891451 C107.731699,2.6891451 111.891645,5.13382246 114.324156,7.01971643 C115.558038,7.99758738 115.981083,8.73099059 115.981083,9.63901361 C115.981083,11.2804398 114.500424,12.4678546 113.160781,12.4678546 C112.244183,12.4678546 111.609615,12.013843 110.869285,11.3852117 C108.930327,9.74378549 108.295759,9.21992606 105.052412,7.43880398 C104.38259,7.08956436 103.430738,6.56570492 103.430738,5.30844228 C103.430738,4.64488699 103.783276,4.08610359 103.889037,3.91148378 Z M141.182499,8.45159889 C139.314049,8.59129474 129.231468,9.35962191 128.31487,9.35962191 C126.481673,9.35962191 125.635582,8.10235926 125.635582,6.46093303 C125.635582,4.95920265 126.164389,3.73686397 128.173854,3.5273202 C129.654513,3.38762435 146.400058,2.75899303 153.239292,2.75899303 C155.178249,2.75899303 157.187715,2.75899303 157.187715,5.41321416 C157.187715,8.24205511 155.284011,8.31190304 153.274545,8.31190304 C151.159319,8.346827 149.008838,8.73099059 145.835998,10.5121127 C142.204859,12.5726264 138.608973,16.4491863 138.608973,20.5352899 C138.608973,24.9007852 142.240112,25.8786561 148.162747,25.8786561 L151.194572,25.8786561 C152.498962,25.8786561 153.909113,26.4025155 153.909113,28.4979533 C153.909113,31.7808057 151.335588,31.7808057 148.797315,31.7808057 C147.774956,31.7808057 144.531608,31.7458818 140.970976,30.8378588 C139.067272,30.3489233 132.756846,28.742421 132.756846,21.1988451 C132.756846,17.2524374 134.554789,14.3886725 136.564254,12.1884629 C138.362197,10.197797 139.842855,9.28977398 141.182499,8.45159889 Z M148.409524,14.5982163 C148.268509,14.3537485 147.669194,13.3060297 147.563433,13.0615619 C147.457672,12.8170942 147.35191,12.5377025 147.35191,12.2932347 C147.35191,11.5947555 148.233255,11.175668 148.762062,11.175668 C149.361376,11.175668 149.713914,11.5598315 150.454243,12.8520181 C150.701019,13.3060297 151.582364,15.0871517 151.582364,15.785631 C151.582364,16.728578 150.595258,16.9730457 150.172213,16.9730457 C149.995944,16.9730457 149.537645,16.9730457 149.185107,16.2396425 C149.044092,15.9951748 148.515285,14.842684 148.409524,14.5982163 Z M152.075917,12.95679 C151.934902,12.6773983 151.300334,11.4899836 151.194572,11.2455159 C151.088811,11.0010481 151.053557,10.7565804 151.053557,10.6168846 C151.053557,9.91840531 151.934902,9.53424172 152.428455,9.53424172 C153.13353,9.53424172 153.486068,10.0930251 154.120636,11.2455159 C154.578935,12.048767 155.284011,13.4108015 155.284011,14.1442047 C155.284011,14.9125319 154.473174,15.2966955 153.87386,15.2966955 C153.697591,15.2966955 153.239292,15.2966955 152.8515,14.5632923 C152.710485,14.3188246 152.181678,13.1663338 152.075917,12.95679 Z M175.690913,7.5086519 L175.690913,30.9077067 C175.690913,31.9205016 175.514644,33.4920799 173.187894,33.4920799 C170.966906,33.4920799 170.191323,32.7936006 170.191323,30.9077067 L170.191323,17.0079697 C169.521501,17.7762968 169.063202,18.3001563 168.11135,18.3001563 C166.595438,18.3001563 165.326301,16.8682738 165.326301,15.1569997 C165.326301,13.934661 165.467317,13.7600412 168.076096,10.4073408 C170.332338,7.47372794 171.495713,3.8067119 172.095027,2.02558982 C172.447565,0.942946983 172.835357,0.209543774 174.421777,0.209543774 C175.937689,0.209543774 177.277333,0.908023021 177.277333,2.27005755 C177.277333,3.42254831 176.360734,5.79737775 175.690913,7.5086519 Z M186.725346,4.5401151 L196.666911,4.5401151 C197.336733,4.5401151 199.275691,4.5401151 199.275691,6.98479247 C199.275691,8.9056104 198.570615,9.74378549 196.666911,9.74378549 L188.734811,9.74378549 L188.734811,13.0615619 L195.961836,13.0615619 C197.089957,13.0615619 198.535362,13.3060297 198.535362,15.5411632 C198.535362,16.4841102 198.394347,18.0906125 195.961836,18.0906125 L188.734811,18.0906125 L188.734811,21.4782368 L195.961836,21.4782368 C196.666911,21.4782368 198.570615,21.5131608 198.570615,23.8879902 C198.570615,25.8786561 197.759779,26.6120593 195.961836,26.6120593 L188.734811,26.6120593 L188.734811,30.9077067 C188.734811,31.8157297 188.593796,33.4920799 186.231793,33.4920799 C184.116566,33.4920799 183.270475,32.8285246 183.270475,30.9077067 L183.270475,12.048767 C182.459638,13.4457255 181.966085,14.2489766 181.26101,15.1569997 C180.732203,15.8554789 180.168143,16.4491863 179.145783,16.4491863 C177.453602,16.4491863 176.219719,14.842684 176.219719,13.6203453 C176.219719,12.7821702 176.713272,12.048767 177.171571,11.3852117 C179.604082,7.82296757 180.943726,5.62275794 181.860324,2.16528567 C182.142354,1.08264283 182.424385,0.104771887 184.328089,0.104771887 C185.420956,0.104771887 187.289406,0.314315661 187.289406,2.23513359 C187.289406,2.89868887 187.148391,3.28285246 186.725346,4.5401151 Z M224.336092,12.1186149 C225.182182,11.8392232 226.204542,11.6296795 227.649947,11.6296795 C229.44789,11.6296795 231.422101,11.9789191 233.290552,12.8170942 C236.710168,14.3188246 238.331842,17.8112208 238.331842,21.303617 C238.331842,24.0276861 237.344736,28.5678012 232.056669,30.9426306 C229.483144,32.0951214 226.662841,32.4094371 223.877793,32.4094371 C219.541578,32.4094371 217.461605,31.536338 215.980946,30.628315 C214.42978,29.650444 213.513181,27.9740938 213.513181,26.1580478 C213.513181,21.8624004 217.250082,19.9066585 221.269013,19.9066585 C223.490001,19.9066585 228.42553,20.5003659 228.42553,25.8088082 C228.42553,26.2628197 228.355023,26.6120593 228.249261,27.1009948 C232.056669,26.0881999 232.444461,22.8751953 232.444461,21.7925525 C232.444461,20.36067 231.880401,18.0556885 229.342128,17.0079697 C227.967231,16.4142623 226.310303,16.3793383 225.393705,16.3793383 C222.573403,16.3793383 218.62498,17.0079697 214.183003,20.9893014 C211.856254,23.1196631 211.644731,23.2593589 210.728133,23.2593589 C209.353236,23.2593589 207.802069,22.0370202 207.802069,20.2908221 C207.802069,19.1034074 208.225115,18.7890917 210.728133,16.9730457 C215.346378,13.6552693 218.765995,11.10582 222.538149,8.13728323 C222.961194,7.82296757 223.243225,7.57849983 223.736778,7.12448832 C222.150357,7.15941228 214.535541,7.71819568 213.759958,7.71819568 C212.913867,7.71819568 210.939656,7.64834775 210.939656,5.02905058 C210.939656,2.54944925 212.808106,2.4097534 213.936227,2.37482944 C223.066956,2.23513359 223.877793,2.23513359 228.284515,2.06051378 C228.637053,2.06051378 229.412636,2.02558982 230.152965,2.02558982 C231.210579,2.02558982 233.431567,2.06051378 233.431567,4.47026718 C233.431567,6.28631322 232.973268,6.56570492 228.954337,8.97545832 C226.803856,10.2676449 225.25269,11.4550596 224.336092,12.1186149 Z M223.913046,27.799474 C224.089315,27.0660708 224.089315,26.7866791 224.089315,26.6120593 C224.089315,24.7261653 222.749672,24.2023059 221.304267,24.2023059 C219.717847,24.2023059 218.448711,24.9007852 218.448711,26.0183519 C218.448711,27.1708427 219.964623,27.9740938 222.432388,27.9740938 C222.961194,27.9740938 223.313732,27.9042459 223.913046,27.799474 Z M261.03024,10.3724168 C259.866865,13.3409536 259.796357,13.5504974 259.161789,14.7029881 C260.994986,13.8298891 263.356989,12.7821702 267.199651,12.7821702 C269.596908,12.7821702 271.994165,13.0964859 274.179899,14.0394329 C277.599516,15.4713153 278.974413,18.8938636 278.974413,21.8274765 C278.974413,27.0660708 275.801573,29.2662804 274.144646,30.0346076 C271.958911,31.0124786 268.856579,31.9903495 262.969198,31.9903495 C259.655342,31.9903495 255.777427,31.6061859 254.332022,30.9426306 C253.838469,30.7330869 252.851363,30.2092274 252.851363,28.6376491 C252.851363,27.4502344 253.521185,25.948504 255.072351,25.948504 C255.636411,25.948504 255.847934,25.983428 257.716384,26.3675916 C258.315699,26.4723635 260.677702,26.856527 263.674273,26.856527 C267.622696,26.856527 273.051778,26.1231238 273.051778,21.7925525 C273.051778,17.9509166 268.504041,17.601677 266.670844,17.601677 C263.639019,17.601677 259.937373,18.2303083 257.152324,20.8146816 C256.270979,21.6179327 255.777427,22.0370202 254.614052,22.0370202 C252.992378,22.0370202 251.441212,21.0242253 251.441212,19.6621908 C251.441212,18.8589397 251.652734,18.4049282 252.322556,17.1825895 C253.626946,14.7379121 254.860828,11.4201357 255.178112,10.4422647 C254.367275,10.4422647 251.793749,10.4771887 251.229689,10.4073408 C250.736136,10.3724168 249.043955,10.162873 249.043955,7.82296757 C249.043955,5.23859435 250.982913,5.23859435 252.780855,5.23859435 C253.626946,5.23859435 255.354381,5.20367039 256.658771,5.20367039 C256.764532,4.78458284 257.187578,2.79391699 257.328593,2.4097534 C257.822146,0.977870946 259.338058,0.942946983 259.972626,0.942946983 C262.440391,0.942946983 263.074959,1.95574189 263.074959,3.2479285 C263.074959,3.63209208 263.039705,4.01625567 262.757675,5.13382246 C267.305412,5.02905058 270.26673,4.95920265 273.369062,4.85443077 C273.968377,4.8195068 276.471395,4.71473492 277.000202,4.71473492 C277.9168,4.71473492 279.855758,4.78458284 279.855758,7.33403209 C279.855758,9.77870946 278.057815,9.88348134 276.964948,9.91840531 C271.994165,10.162873 265.7895,10.2676449 261.03024,10.3724168 Z M308.371029,15.8554789 L308.47679,20.2908221 C311.08557,21.2337691 313.588588,22.4561078 315.84483,24.0626101 C318.136326,25.7040363 318.559371,26.3675916 318.559371,27.4502344 C318.559371,29.0218127 317.290235,30.628315 315.633308,30.628315 C314.54044,30.628315 314.011634,30.1044555 312.354706,28.5328772 C311.120824,27.3454625 309.851688,26.4025155 308.300521,25.5992644 C308.335775,26.4374395 308.335775,27.4851584 308.088999,28.3233335 C307.031385,31.8157297 302.906693,32.0951214 301.179258,32.0951214 C296.032206,32.0951214 292.683097,29.8949118 292.683097,25.7738842 C292.683097,21.7227046 296.208475,19.1732553 301.813826,19.1732553 C302.272125,19.1732553 302.624663,19.2081793 303.118216,19.2431033 L302.800932,9.08023021 C302.730424,7.19433624 303.788038,6.35616115 305.444965,6.35616115 C307.348669,6.35616115 308.230014,7.15941228 308.230014,9.08023021 L308.230014,10.7915044 C309.181866,10.7915044 309.78118,10.7915044 311.684884,10.7216564 C312.284199,10.7216564 314.822471,10.5819606 315.351277,10.5819606 C316.86719,10.5819606 317.678027,11.6296795 317.678027,13.0964859 C317.678027,15.2617715 316.197368,15.6110112 315.316024,15.6808591 C312.989274,15.8205549 310.662525,15.8205549 308.371029,15.8554789 Z M303.15347,23.9229142 C302.589409,23.8181423 302.236871,23.7482944 301.531796,23.7482944 C300.756213,23.7482944 297.830149,23.8530663 297.830149,25.7389602 C297.830149,27.1708427 299.346061,27.4851584 300.685705,27.4851584 C303.15347,27.4851584 303.15347,26.7866791 303.15347,23.9229142 Z M336.992061,28.742421 C336.992061,27.4502344 337.485614,26.1231238 339.636095,26.1231238 C339.953379,26.1231238 340.940485,26.1929718 341.328276,26.2278957 C342.033352,26.2977436 342.703174,26.2977436 343.372995,26.2977436 C347.250911,26.2977436 353.667099,25.8437321 353.667099,19.452647 C353.667099,15.3665434 350.882051,13.934661 347.779718,13.934661 C344.53637,13.934661 341.0815,14.877608 339.318811,15.4363914 C336.110717,16.4841102 335.722925,16.5888821 335.123611,16.5888821 C333.149399,16.5888821 332.620593,14.7728361 332.620593,13.7251172 C332.620593,11.8392232 333.783967,11.3852117 335.405641,10.8962763 C341.469291,9.15007813 346.12279,8.97545832 347.814972,8.97545832 C349.366138,8.97545832 353.561338,8.97545832 356.522655,12.013843 C358.778897,14.3537485 359.166689,17.4969051 359.166689,19.3827991 C359.166689,22.6656516 358.109075,26.4723635 354.266413,28.9868887 C350.741035,31.2918703 344.712639,31.4315661 342.562159,31.4315661 C339.389318,31.4315661 336.992061,31.3267942 336.992061,28.742421 Z M388.175513,9.88348134 C391.383607,8.66114266 397.694033,6.91494454 399.280453,6.91494454 C402.136009,6.91494454 402.136009,9.60408965 402.136009,9.88348134 C402.136009,11.9789191 400.690604,12.3980066 398.399109,12.8170942 C391.700891,14.0045089 386.694854,15.7157831 384.05082,17.0428936 C382.852192,17.636601 379.080038,19.522495 379.080038,22.6656516 C379.080038,25.4595685 381.265772,26.5072874 387.611452,26.5072874 C389.797187,26.5072874 392.44122,26.3675916 396.35439,25.7389602 C397.024211,25.6341884 398.22284,25.4246446 398.857408,25.4246446 C400.725858,25.4246446 401.67771,26.4025155 401.67771,28.2884095 C401.67771,30.1743035 400.620097,30.7330869 399.174692,31.0823265 C396.706927,31.6760338 391.41886,31.9205016 388.492797,31.9205016 C382.746431,31.9205016 373.016388,31.4664901 373.016388,23.189511 C373.016388,19.522495 375.131614,16.5888821 377.42311,14.9823798 C379.326814,13.6203453 381.054249,12.7821702 382.887446,11.9090712 C382.781684,11.0708961 382.640669,10.2676449 381.477295,5.83230171 C380.842727,3.49239623 380.772219,3.2479285 380.772219,2.82884095 C380.772219,1.04771887 382.393893,0.384163586 383.909805,0.384163586 C386.412824,0.384163586 386.624346,1.43188246 387.329422,4.95920265 C387.364676,5.16874643 388.140259,9.53424172 388.175513,9.88348134 Z M422.578165,17.8810687 L414.223019,17.8810687 C413.623705,17.8810687 411.61424,17.8810687 411.61424,15.4014674 C411.61424,13.026638 413.412182,12.9218661 414.223019,12.9218661 L425.680498,12.9218661 L425.680498,9.04530625 L416.338246,9.04530625 C415.703678,9.04530625 413.729466,9.04530625 413.729466,6.60062888 C413.729466,4.15595152 415.562663,4.08610359 416.338246,4.08610359 L425.680498,4.08610359 L425.680498,2.6891451 C425.680498,2.02558982 425.680498,0.104771887 428.21877,0.104771887 C430.510265,0.104771887 431.10958,1.08264283 431.10958,2.6891451 L431.10958,4.08610359 L440.487085,4.08610359 C441.086399,4.08610359 443.095865,4.08610359 443.095865,6.56570492 C443.095865,9.01038229 441.227414,9.04530625 440.487085,9.04530625 L431.10958,9.04530625 L431.10958,12.9218661 L442.567058,12.9218661 C443.166372,12.9218661 445.211091,12.9218661 445.211091,15.3665434 C445.211091,17.8112208 443.342641,17.8810687 442.567058,17.8810687 L434.211912,17.8810687 C435.622063,19.9066585 437.631529,22.5608797 442.390789,25.2849487 C443.941955,26.1929718 444.858554,26.7517552 444.858554,28.3233335 C444.858554,30.1044555 443.413149,31.501414 442.073505,31.501414 C440.522339,31.501414 437.807798,29.4409003 436.397646,28.2534855 C433.365821,25.7389602 431.849909,23.3990548 431.10958,22.1767161 L431.10958,30.9775546 C431.10958,31.6411099 431.10958,33.5968518 428.536054,33.5968518 C426.315066,33.5968518 425.680498,32.6539048 425.680498,30.9775546 L425.680498,22.2116401 C421.485298,28.742421 415.985708,31.501414 414.751826,31.501414 C413.553197,31.501414 411.966777,30.2441514 411.966777,28.3233335 C411.966777,26.8216031 412.530838,26.4723635 414.610811,25.1801769 C417.818905,23.189511 420.075147,21.4782368 422.578165,17.8810687 Z M479.684251,15.0871517 L483.667928,15.0871517 C484.302496,15.0871517 486.276708,15.0871517 486.276708,17.4270572 C486.276708,19.2780272 485.501125,20.0463544 483.667928,20.0463544 L475.312782,20.0463544 C476.440903,21.1289972 478.802907,23.3990548 482.927599,25.5992644 C485.395363,26.926375 486.135693,27.3105386 486.135693,28.8122689 C486.135693,30.3139993 485.007572,31.9903495 483.350644,31.9903495 C481.975747,31.9903495 479.966281,30.6632389 478.55613,29.650444 C475.277529,27.3105386 473.268063,24.8658612 472.034181,23.3641308 L472.034181,30.9077067 C472.034181,31.8157297 471.893166,33.4920799 469.566416,33.4920799 C467.627459,33.4920799 466.746114,32.8634486 466.746114,30.9077067 L466.746114,23.6435225 C463.361751,27.5550063 457.791654,32.0252735 455.60592,32.0252735 C454.195769,32.0252735 452.820871,30.6632389 452.820871,28.8471929 C452.820871,27.3803865 453.314424,27.1009948 455.711681,25.8786561 C460.08315,23.6085985 462.515661,21.0591493 463.467513,20.0463544 L455.253382,20.0463544 C454.654068,20.0463544 452.644602,20.0463544 452.644602,17.7064489 C452.644602,15.750707 453.596454,15.0871517 455.253382,15.0871517 L459.166552,15.0871517 C458.919775,14.6680642 458.038431,12.6424744 457.826908,12.2233868 C456.91031,10.5121127 456.839802,10.3374929 456.839802,9.74378549 C456.839802,8.80083851 457.439116,8.346827 457.721147,8.13728323 L456.628279,8.13728323 C456.028965,8.13728323 454.054754,8.13728323 454.054754,5.79737775 C454.054754,3.94640775 454.900844,3.2479285 456.628279,3.2479285 L466.746114,3.2479285 L466.746114,2.61929718 C466.746114,1.08264283 467.486443,0.174619812 469.249132,0.174619812 C470.694537,0.174619812 472.034181,0.488935473 472.034181,2.61929718 L472.034181,3.2479285 L482.328285,3.2479285 C482.998106,3.2479285 484.90181,3.28285246 484.90181,5.55291001 C484.90181,7.29910813 484.231989,8.13728323 482.328285,8.13728323 L481.270671,8.13728323 C481.869985,8.55637077 482.257777,9.11515417 482.257777,9.81363342 C482.257777,11.0010481 480.847626,13.5155734 479.684251,15.0871517 Z M472.034181,15.0871517 L475.242275,15.0871517 C475.030752,14.877608 474.748722,14.5283683 474.748722,13.8648131 C474.748722,13.1663338 474.889737,12.95679 476.088366,10.9661242 C476.335142,10.5470366 477.357502,8.52144681 477.674786,8.13728323 L472.034181,8.13728323 L472.034181,15.0871517 Z M466.746114,8.13728323 L461.458047,8.13728323 C462.198377,9.01038229 464.031573,12.4329306 464.031573,13.8298891 C464.031573,14.4934444 463.749543,14.877608 463.53802,15.0871517 L466.746114,15.0871517 L466.746114,8.13728323 Z M513.417082,7.43880398 C512.676752,13.3409536 510.737794,20.9194534 508.234776,24.7610893 C506.366326,27.6597782 504.286353,29.0567367 501.607065,29.0567367 C496.495267,29.0567367 494.309533,23.9229142 494.309533,18.7192438 C494.309533,7.43880398 502.840948,2.16528567 511.372362,2.16528567 C521.736974,2.16528567 526.566741,8.6262187 526.566741,16.7984259 C526.566741,29.8599878 514.33368,31.7808057 511.583885,31.7808057 C508.83409,31.7808057 508.763583,29.3012044 508.763583,28.9170408 C508.763583,26.6819072 510.350003,26.4374395 511.513377,26.2628197 C514.474695,25.8088082 520.67936,24.9007852 520.67936,16.4841102 C520.67936,10.4771887 517.189236,7.7880436 513.417082,7.43880398 Z M507.917492,7.57849983 C500.373183,9.60408965 499.738615,16.4142623 499.738615,18.7541678 C499.738615,21.6179327 500.831482,23.0498151 501.924349,23.0498151 C503.369754,23.0498151 504.392114,20.8496055 505.167697,18.7541678 C506.930386,13.934661 507.494447,10.4422647 507.917492,7.57849983 Z M544.787909,6.14661737 L548.912601,6.14661737 L548.912601,2.47960133 C548.912601,1.81604604 548.947855,0.0698479247 551.486127,0.0698479247 C553.777623,0.0698479247 554.412191,0.977870946 554.412191,2.47960133 L554.412191,6.14661737 L564.459518,6.14661737 C565.058832,6.14661737 566.892028,6.14661737 566.892028,8.55637077 C566.892028,10.5470366 566.045938,11.2105919 564.459518,11.2105919 L554.412191,11.2105919 L554.412191,16.5190342 L563.296143,16.5190342 C564.036472,16.5190342 565.728654,16.5888821 565.728654,18.9637116 C565.728654,21.1289972 564.424264,21.4433129 563.296143,21.4433129 L554.412191,21.4433129 L554.412191,27.4502344 L565.834415,27.4502344 C566.539491,27.4502344 568.231672,27.4851584 568.231672,29.7901399 C568.231672,31.6760338 567.56185,32.444361 565.834415,32.444361 L537.102585,32.444361 C536.432763,32.444361 534.670074,32.444361 534.670074,29.9647597 C534.670074,27.9042459 535.798195,27.4502344 537.102585,27.4502344 L548.912601,27.4502344 L548.912601,21.4433129 L539.605603,21.4433129 C538.900528,21.4433129 537.208346,21.338541 537.208346,19.1383314 C537.208346,17.4270572 537.842914,16.5190342 539.605603,16.5190342 L548.912601,16.5190342 L548.912601,11.2105919 L542.637428,11.2105919 C540.41644,15.5062393 539.429334,15.9951748 538.301213,15.9951748 C536.820555,15.9951748 535.163627,14.7379121 535.163627,13.2711057 C535.163627,12.5377025 535.269388,12.3630827 537.067331,9.74378549 C537.455123,9.1850021 538.971035,6.2164653 539.535096,4.67981095 C540.522201,1.85097 540.592709,1.67635019 541.051008,1.32711057 C541.4388,1.01279491 542.00286,0.873099059 542.566921,0.873099059 C542.989966,0.873099059 545.669253,0.977870946 545.669253,3.00346076 C545.669253,3.77178793 544.89367,5.83230171 544.787909,6.14661737 Z M598.932678,5.02905058 L606.970539,5.02905058 C608.944751,5.02905058 609.332542,6.53078096 609.332542,7.61342379 C609.332542,9.63901361 608.239675,10.3374929 607.499346,10.3374929 L606.900032,10.3374929 C606.653255,14.7029881 606.300717,19.4177231 603.3394,24.2721538 C603.938714,24.8658612 604.573282,25.4595685 607.746122,27.7296261 C608.768482,28.4630293 609.050512,28.9519648 609.050512,29.7552159 C609.050512,31.2918703 607.746122,33.1428403 606.159702,33.1428403 C605.525134,33.1428403 604.92582,33.1428403 602.281787,30.9426306 C601.047904,29.8949118 600.342829,29.1265846 599.88453,28.5678012 C597.381511,31.0124786 593.785626,33.1777642 592.340221,33.1777642 C591.071085,33.1777642 590.048725,32.1649693 589.696187,30.8727827 C588.88535,33.2476122 586.946393,33.2825361 585.536241,33.2825361 C583.103731,33.2825361 581.341042,33.2825361 581.341042,30.5235431 C581.341042,29.7552159 581.446803,28.0439418 583.315253,28.0439418 C584.478628,28.0439418 584.972181,27.9391699 585.183704,26.6120593 C585.536241,24.5515455 585.677256,20.4654419 585.677256,18.2303083 C585.677256,17.5318291 585.218957,17.5318291 584.972181,17.5318291 L583.421015,17.5318291 C583.174238,21.373465 582.680685,25.2500248 581.482057,28.9170408 C580.459697,32.0951214 579.860383,32.9332965 578.591247,32.9332965 C577.004827,32.9332965 575.418407,31.6760338 575.418407,30.2092274 C575.418407,29.6155201 575.629929,29.1964325 576.088228,28.2884095 C577.956679,24.4816976 578.661754,20.0463544 578.661754,15.4713153 L578.661754,9.77870946 L577.991933,9.77870946 C576.652289,9.77870946 575.559422,9.11515417 575.559422,7.36895605 C575.559422,5.23859435 576.969573,4.92427869 578.168201,4.92427869 L581.129519,4.92427869 L581.129519,2.27005755 C581.129519,0.733403209 582.046117,0.0698479247 583.526776,0.0698479247 C585.077942,0.0698479247 586.276571,0.419087548 586.276571,2.27005755 L586.276571,4.92427869 L589.132127,4.92427869 C590.18974,4.92427869 591.670399,5.13382246 591.670399,7.15941228 C591.670399,8.83576247 591.176846,9.77870946 589.132127,9.77870946 L583.526776,9.77870946 L583.526776,12.8520181 L587.122661,12.8520181 C588.145021,12.8520181 588.779589,12.8520181 589.519918,13.3758776 C589.801949,12.8170942 591.317861,10.3724168 591.564638,9.84855738 C592.763266,7.54357587 593.186311,6.04184549 594.38494,1.78112208 C594.66697,0.803251134 594.913747,0 596.711689,0 C596.958466,0 599.567246,0 599.567246,2.02558982 C599.567246,2.65422114 599.320469,3.63209208 598.932678,5.02905058 Z M601.964503,10.3374929 L597.346257,10.3374929 C597.663541,12.4329306 598.403871,16.2047185 600.060798,19.5574189 C601.188919,17.1476655 601.788234,14.80776 601.964503,10.3374929 Z M596.746943,24.0626101 C595.442553,21.7227046 594.490701,19.1732553 593.856133,16.5539582 C593.609357,16.8333499 593.08055,17.3572093 592.163952,17.3572093 C591.811414,17.3572093 591.247354,17.2873614 590.612786,16.9381217 C590.612786,19.1034074 590.507024,25.2151008 590.119233,28.5678012 C590.436517,28.2534855 590.859562,28.0090178 591.353115,27.7645501 C593.785626,26.5072874 595.266284,25.4944925 596.746943,24.0626101 Z M640.632862,12.4678546 L647.577857,12.4678546 C648.388694,12.4678546 650.151383,12.5377025 650.151383,14.80776 C650.151383,16.5888821 649.516815,17.4270572 647.577857,17.4270572 L642.325044,17.4270572 C643.911464,19.6621908 644.581285,20.0463544 648.459201,22.4211838 C648.705978,22.5958036 649.375799,23.189511 649.375799,24.3070778 C649.375799,25.4246446 648.705978,27.2406906 646.590751,27.2406906 C644.44027,27.2406906 640.491847,24.7610893 638.09459,20.1511263 C637.495276,21.338541 636.613931,23.0847391 634.322436,25.075405 C632.171955,26.9612989 631.149595,27.1359187 630.409266,27.1359187 C628.470308,27.1359187 627.412695,25.5992644 627.412695,24.2023059 C627.412695,22.9799672 627.659471,22.8053474 630.232997,21.1988451 C631.74891,20.2209742 633.088553,18.9986355 634.005152,17.4270572 L628.822846,17.4270572 C628.012009,17.4270572 626.24932,17.3572093 626.24932,15.1220757 C626.24932,13.3409536 626.883888,12.4678546 628.822846,12.4678546 L635.274288,12.4678546 L635.274288,9.70886153 L629.598429,9.70886153 C628.787592,9.70886153 627.060157,9.67393757 627.060157,7.33403209 C627.060157,5.72752982 627.624218,4.71473492 629.457414,4.71473492 L631.325864,4.71473492 C631.184849,4.50519114 630.656043,3.59716812 630.550281,3.38762435 C630.338759,2.9685368 630.16249,2.54944925 630.16249,2.09543774 C630.16249,0.873099059 631.643148,0 633.123807,0 C634.18142,0 634.674973,0.349239623 635.239034,1.29218661 C635.732587,2.06051378 636.437662,3.35270039 636.437662,4.08610359 C636.437662,4.36549529 636.331901,4.57503907 636.296647,4.71473492 L639.539995,4.71473492 C639.892533,4.05117963 640.315578,3.28285246 640.844385,1.95574189 C641.26743,0.873099059 641.619968,0 643.312149,0 C644.651793,0 646.308721,0.523859435 646.308721,1.88589397 C646.308721,2.79391699 645.74466,3.66701605 645.110092,4.71473492 L646.555497,4.71473492 C648.141917,4.71473492 649.058515,5.41321416 649.058515,7.01971643 C649.058515,8.80083851 648.494455,9.70886153 646.48499,9.70886153 L640.632862,9.70886153 L640.632862,12.4678546 Z M619.62161,0.59370736 C620.397193,0.488935473 621.384299,0.663555285 623.922571,2.86376491 C626.496097,5.13382246 626.637112,5.62275794 626.637112,6.42600907 C626.637112,7.92773945 625.297468,9.39454587 623.887317,9.39454587 C622.864957,9.39454587 622.688688,9.21992606 620.890746,7.54357587 C620.397193,7.05464039 618.070443,5.13382246 617.717906,4.64488699 C617.506383,4.36549529 617.330114,3.84163586 617.330114,3.35270039 C617.330114,2.1303617 618.387727,0.803251134 619.62161,0.59370736 Z M631.784163,27.4851584 L647.789379,27.4851584 C650.257144,27.4851584 650.362905,29.4758242 650.362905,29.9996837 C650.362905,30.2790754 650.362905,32.5491329 647.789379,32.5491329 L632.31297,32.5491329 C626.813381,32.5491329 625.121199,30.3838472 624.09884,29.0567367 C623.534779,29.8949118 623.252749,30.3139993 622.195135,31.3966421 C621.102268,32.5491329 620.573462,33.0380684 619.551102,33.0380684 C617.894174,33.0380684 616.554531,31.4664901 616.554531,29.8250638 C616.554531,28.6027252 617.01283,28.2884095 618.563996,27.1009948 C619.304326,26.5072874 620.256178,25.7738842 620.749731,25.3198727 C621.078766,25.0171984 621.078766,22.8868367 620.749731,18.9287876 C620.749731,18.6843199 620.749731,18.0207646 620.115163,18.0207646 L619.233818,18.0207646 C617.506383,18.0207646 616.801307,16.9730457 616.801307,15.6110112 C616.801307,13.7251172 617.506383,12.8869421 619.410087,12.8869421 L621.525314,12.8869421 C625.191707,12.8869421 625.896782,13.5854214 625.896782,17.2175134 L625.896782,23.5736746 C626.002544,24.4118497 626.214066,25.5294165 627.83574,26.5422114 C629.281145,27.4153104 631.114342,27.4851584 631.784163,27.4851584 Z M26.6018769,264.271776 C24.3053418,264.271776 22.0420297,264.007895 19.8119406,263.47875 C17.5818514,262.949605 15.4500467,262.167632 13.4206794,261.131447 C11.3885435,260.096645 9.60004246,258.717829 8.05517622,256.999145 C6.5075414,255.280461 5.67004671,253.231579 5.53715499,250.851118 L5.53715499,248.074145 L5.53715499,247.083553 C5.53715499,245.849803 5.98981741,244.824671 6.89514225,244.008158 C7.7990828,243.193026 8.87052229,242.785461 10.1080764,242.785461 C12.7576051,243.006513 14.1917282,244.439211 14.4132144,247.083553 L14.4132144,248.802237 C14.5018089,250.168618 15.0195329,251.302895 15.9705393,252.206447 C16.9187771,253.11 17.9791423,253.825658 19.1502505,254.354803 C20.3185902,254.883947 21.5339958,255.280461 22.7936985,255.545724 C24.052017,255.809605 25.3200255,255.942237 26.6018769,255.942237 C27.8823439,255.942237 29.1517367,255.809605 30.4100552,255.545724 C31.669758,255.280461 32.8837792,254.883947 34.0535032,254.354803 C35.2232272,253.825658 36.2835924,253.11 37.2332144,252.206447 C38.1828365,251.302895 38.7005605,250.168618 38.7905393,248.802237 L38.7905393,226.985724 C38.7905393,225.751974 39.2418174,224.726842 40.1485265,223.910329 C41.0524671,223.095197 42.1239066,222.687632 43.3600764,222.687632 C46.0109894,222.910066 47.4672611,224.341382 47.7330446,226.985724 L47.7330446,248.074145 L47.7330446,250.851118 C47.6001529,253.231579 46.7488153,255.280461 45.1818004,256.999145 C43.6147856,258.717829 41.8138259,260.096645 39.7830743,261.131447 C37.7523227,262.167632 35.620518,262.949605 33.3918132,263.47875 C31.1603397,264.007895 28.8970276,264.271776 26.6018769,264.271776 Z M55.3715499,258.644605 C55.3715499,257.410855 55.8020637,256.363618 56.6630913,255.504276 C57.5241189,254.643553 58.5734098,254.215263 59.8095796,254.215263 L72.5284246,254.215263 L72.5284246,232.927895 L59.8095796,232.927895 C58.5734098,232.927895 57.5338089,232.487171 56.6963142,231.605724 C55.8117537,230.768487 55.3715499,229.732303 55.3715499,228.498553 C55.3715499,227.264803 55.8020637,226.216184 56.6630913,225.356842 C57.5241189,224.4975 58.5734098,224.069211 59.8095796,224.069211 L94.1219448,224.069211 C95.3581146,224.069211 96.4170955,224.487829 97.3016561,225.325066 C98.140535,226.206513 98.5599745,227.264803 98.5599745,228.498553 C98.5599745,229.732303 98.1294607,230.778158 97.2684331,231.6375 C96.4074055,232.496842 95.3581146,232.927895 94.1219448,232.927895 L81.4709299,232.927895 L81.4709299,254.215263 L94.1219448,254.215263 C95.3581146,254.215263 96.4170955,254.635263 97.3016561,255.471118 C98.140535,256.353947 98.5599745,257.410855 98.5599745,258.644605 C98.5599745,259.879737 98.1294607,260.924211 97.2684331,261.783553 C96.4074055,262.644276 95.3581146,263.073947 94.1219448,263.073947 L59.8095796,263.073947 C58.5734098,263.073947 57.5338089,262.634605 56.6963142,261.751776 C55.8117537,260.915921 55.3715499,259.879737 55.3715499,258.644605 Z M122.487406,234.323289 C125.445631,232.339342 129.442072,230.334671 134.47673,228.307895 L145.340628,223.679605 C145.82513,223.459934 146.355312,223.327303 146.929792,223.283092 C148.165962,223.194671 149.224943,223.558026 150.109503,224.373158 C150.992679,225.189671 151.434268,226.235526 151.434268,227.513487 C151.434268,228.968289 151.136645,230.03625 150.540017,230.720132 C149.943389,231.404013 149.18203,231.966316 148.254556,232.405658 L138.981206,235.909342 C137.169172,236.615329 135.459575,237.308882 133.848263,237.991382 C132.235567,238.675263 130.766837,239.458618 129.442072,240.338684 C128.117308,241.133092 127.411321,242.036645 127.322726,243.049342 C127.411321,244.020592 128.117308,244.924145 129.442072,245.76 C130.766837,246.642829 132.235567,247.423421 133.848263,248.107303 C135.459575,248.791184 137.169172,249.486118 138.981206,250.189342 L149.314921,253.958289 C150.242395,254.399013 151.003754,254.961316 151.600382,255.643816 C152.195626,256.327697 152.494633,257.395658 152.494633,258.850461 C152.494633,260.129803 152.05166,261.175658 151.169868,261.989408 C150.285308,262.805921 149.224943,263.169276 147.990157,263.080855 C147.415677,263.036645 146.885495,262.904013 146.399609,262.684342 L134.47673,257.792171 C129.442072,255.766776 125.434556,253.749671 122.454183,251.742237 C119.473809,249.737566 117.959397,246.841776 117.916484,243.049342 C117.959397,239.259671 119.483499,236.351447 122.487406,234.323289 Z M111.159771,222.687632 C112.353028,222.731842 113.367711,223.161513 114.207975,223.976645 C115.045469,224.793158 115.487057,225.794803 115.532739,226.984342 L115.532739,259.379605 C115.266955,262.023947 113.809299,263.455263 111.159771,263.676316 C109.923601,263.676316 108.852161,263.267368 107.948221,262.452237 C107.041512,261.638487 106.590234,260.613355 106.590234,259.379605 L106.590234,226.984342 C106.633146,225.751974 107.096883,224.726842 107.981444,223.910329 C108.863236,223.095197 109.923601,222.687632 111.159771,222.687632 Z M176.474667,234.323289 C179.432892,232.339342 183.429333,230.334671 188.463992,228.307895 L199.32789,223.679605 C199.812391,223.459934 200.342573,223.327303 200.917053,223.283092 C202.153223,223.194671 203.212204,223.558026 204.096764,224.373158 C204.979941,225.189671 205.421529,226.235526 205.421529,227.513487 C205.421529,228.968289 205.123907,230.03625 204.527278,230.720132 C203.93065,231.404013 203.169291,231.966316 202.241817,232.405658 L192.968467,235.909342 C191.156433,236.615329 189.446837,237.308882 187.835524,237.991382 C186.221444,238.675263 184.754098,239.458618 183.429333,240.338684 C182.104569,241.133092 181.398582,242.036645 181.309987,243.049342 C181.398582,244.020592 182.104569,244.924145 183.429333,245.76 C184.754098,246.642829 186.221444,247.423421 187.835524,248.107303 C189.446837,248.791184 191.156433,249.486118 192.968467,250.189342 L203.302183,253.958289 C204.229656,254.399013 204.991015,254.961316 205.587643,255.643816 C206.182887,256.327697 206.481894,257.395658 206.481894,258.850461 C206.481894,260.129803 206.038921,261.175658 205.15713,261.989408 C204.272569,262.805921 203.212204,263.169276 201.977418,263.080855 C201.402938,263.036645 200.872756,262.904013 200.38687,262.684342 L188.463992,257.792171 C183.429333,255.766776 179.421817,253.749671 176.441444,251.742237 C173.46107,249.737566 171.946658,246.841776 171.903745,243.049342 C171.946658,239.259671 173.47076,236.351447 176.474667,234.323289 Z M165.147032,222.687632 C166.340289,222.731842 167.354972,223.161513 168.195236,223.976645 C169.03273,224.793158 169.474318,225.794803 169.52,226.984342 L169.52,259.379605 C169.254217,262.023947 167.796561,263.455263 165.147032,263.676316 C163.910862,263.676316 162.839423,263.267368 161.935482,262.452237 C161.028773,261.638487 160.577495,260.613355 160.577495,259.379605 L160.577495,226.984342 C160.620408,225.751974 161.084144,224.726842 161.968705,223.910329 C162.850497,223.095197 163.910862,222.687632 165.147032,222.687632 Z M254.78665,243.307697 C254.78665,244.542829 254.345062,245.579013 253.461885,246.414868 C252.623006,247.297697 251.58479,247.737039 250.34862,247.737039 L230.344263,247.737039 C229.106709,247.737039 228.058803,247.307368 227.197775,246.446645 C226.336747,245.587303 225.906234,244.542829 225.906234,243.307697 C225.906234,242.073947 226.324289,241.017039 227.164552,240.134211 C228.047728,239.298355 229.106709,238.878355 230.344263,238.878355 L250.34862,238.878355 C251.58479,238.878355 252.634081,239.306645 253.495108,240.167368 C254.356136,241.026711 254.78665,242.073947 254.78665,243.307697 Z M225.045206,224.069211 L228.092025,224.069211 L250.613019,224.069211 C251.849189,224.113421 252.876331,224.57625 253.693062,225.457697 C254.509792,226.340526 254.919541,227.397434 254.919541,228.631184 C254.698055,231.275526 253.262548,232.708224 250.613019,232.927895 L227.297444,232.927895 C225.618301,233.017697 224.227091,233.655987 223.123813,234.845526 C222.019151,236.035066 221.213495,237.390395 220.705461,238.910132 C220.197427,240.43125 219.944102,241.985526 219.944102,243.571579 C219.944102,245.159013 220.197427,246.711908 220.705461,248.231645 C221.213495,249.752763 222.019151,251.108092 223.123813,252.299013 C224.227091,253.488553 225.618301,254.128224 227.297444,254.216645 L250.613019,254.216645 C251.849189,254.260855 252.876331,254.723684 253.693062,255.60375 C254.509792,256.486579 254.919541,257.544868 254.919541,258.777237 C254.87386,259.968158 254.443346,260.969803 253.628,261.784934 C252.809885,262.601447 251.806276,263.031118 250.613019,263.075329 L226.303524,263.075329 L225.045206,263.075329 C221.952705,262.899868 219.402845,261.718618 217.394242,259.537105 C215.384255,257.355592 213.950132,254.877039 213.08772,252.100066 C212.226692,249.323092 211.796178,246.481184 211.796178,243.571579 C211.796178,240.663355 212.237766,237.820066 213.120943,235.044474 C214.004119,232.2675 215.439626,229.787566 217.427465,227.606053 C219.413919,225.424539 221.952705,224.246053 225.045206,224.069211 Z M285.463873,221.306053 C287.759023,221.306053 290.022335,221.569934 292.253809,222.099079 C294.482514,222.628224 296.614318,223.410197 298.64507,224.445 C300.675822,225.481184 302.476781,226.86 304.043796,228.578684 C305.610811,230.297368 306.462149,232.34625 306.59504,234.726711 L306.59504,237.503684 L306.59504,258.592105 C306.329257,261.236447 304.872985,262.667763 302.222072,262.890197 C300.985902,262.890197 299.914463,262.48125 299.010522,261.666118 C298.103813,260.850987 297.652535,259.827237 297.652535,258.592105 L297.652535,236.775592 C297.562556,235.410592 297.044832,234.274934 296.09521,233.37 C295.145588,232.467829 294.085223,231.752171 292.915499,231.223026 C291.745775,230.693882 290.531754,230.297368 289.272051,230.032105 C288.013732,229.768224 286.74434,229.635592 285.463873,229.635592 C284.182021,229.635592 282.914013,229.768224 281.655694,230.032105 C280.395992,230.297368 279.180586,230.693882 278.012246,231.223026 C276.841138,231.752171 275.780773,232.467829 274.832535,233.37 C273.881529,234.274934 273.363805,235.410592 273.27521,236.775592 L273.27521,258.592105 C273.053724,261.236447 271.619601,262.667763 268.970072,262.890197 C267.732518,262.890197 266.661079,262.48125 265.757138,261.666118 C264.851813,260.850987 264.399151,259.827237 264.399151,258.592105 L264.399151,237.503684 L264.399151,234.726711 C264.532042,232.34625 265.369537,230.297368 266.917172,228.578684 C268.462038,226.86 270.250539,225.481184 272.282675,224.445 C274.312042,223.410197 276.443847,222.628224 278.673936,222.099079 C280.904025,221.569934 283.167338,221.306053 285.463873,221.306053 Z M349.25882,222.687632 C350.450692,222.731842 351.46676,223.161513 352.305639,223.976645 C353.144518,224.791776 353.586106,225.794803 353.630403,226.984342 L353.630403,238.025921 L375.158862,238.025921 L375.158862,226.984342 C375.201775,225.751974 375.665512,224.726842 376.550072,223.910329 C377.433248,223.095197 378.492229,222.687632 379.729783,222.687632 C380.921656,222.731842 381.93634,223.161513 382.776603,223.976645 C383.614098,224.791776 384.05707,225.794803 384.101367,226.984342 L384.101367,259.379605 C383.836968,262.023947 382.379312,263.455263 379.729783,263.676316 C378.492229,263.676316 377.42079,263.267368 376.516849,262.452237 C375.611524,261.637105 375.158862,260.613355 375.158862,259.379605 L375.158862,246.884605 L353.630403,246.884605 L353.630403,259.379605 C353.366004,262.023947 351.908348,263.455263 349.25882,263.676316 C348.021265,263.676316 346.95121,263.267368 346.045885,262.452237 C345.140561,261.637105 344.687898,260.613355 344.687898,259.379605 L344.687898,226.984342 C344.730811,225.751974 345.194548,224.726842 346.079108,223.910329 C346.962285,223.095197 348.021265,222.687632 349.25882,222.687632 Z M428.318318,224.069211 C430.570556,224.113421 432.579159,224.819408 434.345512,226.184408 C436.111864,227.550789 437.536297,229.182434 438.618811,231.076579 C439.699941,232.972105 440.506981,234.976776 441.035779,237.091974 C441.565962,239.208553 441.831745,241.367961 441.831745,243.571579 C441.831745,246.479803 441.377699,249.334145 440.473758,252.131842 C439.567049,254.932303 438.088628,257.410855 436.035728,259.570263 C433.981444,261.729671 431.408051,262.898487 428.318318,263.073947 L405.200696,263.073947 C402.108195,262.941316 399.525113,261.795987 397.450064,259.636579 C395.373631,257.477171 393.906285,254.987566 393.045257,252.166382 C392.184229,249.346579 391.753715,246.479803 391.753715,243.571579 C391.753715,240.661974 392.193919,237.809013 393.07848,235.009934 C393.961656,232.210855 395.430386,229.72125 397.483287,227.538355 C399.536187,225.356842 402.108195,224.200461 405.200696,224.069211 L406.459015,224.069211 L427.06,224.069211 L428.318318,224.069211 Z M426.066081,254.215263 C427.743839,254.128224 429.146123,253.498224 430.272934,252.330789 C431.398361,251.163355 432.204017,249.809408 432.689902,248.264803 C433.175788,246.722961 433.419423,245.157632 433.419423,243.571579 C433.419423,241.984145 433.163329,240.429868 432.656679,238.910132 C432.148645,237.389013 431.342989,236.035066 430.239711,234.844145 C429.135049,233.654605 427.743839,233.016316 426.066081,232.927895 L407.253597,232.927895 C405.574454,233.016316 404.183244,233.654605 403.08135,234.844145 C401.976688,236.035066 401.169648,237.389013 400.662998,238.910132 C400.154964,240.429868 399.901639,241.984145 399.901639,243.571579 C399.901639,245.157632 400.142505,246.722961 400.629775,248.264803 C401.11566,249.809408 401.921316,251.163355 403.048127,252.330789 C404.173554,253.498224 405.574454,254.128224 407.253597,254.215263 L426.066081,254.215263 Z M469.574276,264.271776 C467.277741,264.271776 465.014429,264.007895 462.78434,263.47875 C460.554251,262.949605 458.422446,262.167632 456.393079,261.131447 C454.360943,260.096645 452.572442,258.717829 451.027575,256.999145 C449.479941,255.280461 448.642446,253.231579 448.509554,250.851118 L448.509554,248.074145 L448.509554,226.985724 C448.509554,225.751974 448.962217,224.726842 449.867541,223.910329 C450.771482,223.095197 451.842921,222.687632 453.080476,222.687632 C455.730004,222.910066 457.164127,224.341382 457.385614,226.985724 L457.385614,248.802237 C457.474208,250.168618 457.991932,251.302895 458.942938,252.206447 C459.891176,253.11 460.951541,253.825658 462.12265,254.354803 C463.290989,254.883947 464.506395,255.280461 465.766098,255.545724 C467.024416,255.809605 468.292425,255.942237 469.574276,255.942237 C470.854743,255.942237 472.124136,255.809605 473.382454,255.545724 C474.642157,255.280461 475.856178,254.883947 477.025902,254.354803 C478.195626,253.825658 479.255992,253.11 480.205614,252.206447 C481.155236,251.302895 481.67296,250.168618 481.762938,248.802237 L481.762938,226.985724 C481.762938,225.751974 482.214217,224.726842 483.120926,223.910329 C484.024866,223.095197 485.096306,222.687632 486.332476,222.687632 C488.983389,222.910066 490.43966,224.341382 490.705444,226.985724 L490.705444,248.074145 L490.705444,250.851118 C490.572552,253.231579 489.721214,255.280461 488.1542,256.999145 C486.587185,258.717829 484.786225,260.096645 482.755473,261.131447 C480.724722,262.167632 478.592917,262.949605 476.364212,263.47875 C474.132739,264.007895 471.869427,264.271776 469.574276,264.271776 Z M542.127618,228.498553 C542.127618,229.733684 541.687414,230.769868 540.802854,231.605724 C539.965359,232.488553 538.925758,232.927895 537.690972,232.927895 L511.194301,232.927895 C510.354038,232.972105 509.659125,233.158618 509.106794,233.488816 C508.554463,233.820395 508.147482,234.194803 507.881699,234.613421 C507.617299,235.032039 507.484408,235.463092 507.484408,235.902434 C507.484408,236.344539 507.617299,236.772829 507.881699,237.191447 C508.147482,237.611447 508.554463,237.984474 509.106794,238.314671 C509.659125,238.64625 510.354038,238.834145 511.194301,238.878355 L530.006786,238.878355 C533.097902,238.966776 535.646378,239.682434 537.656365,241.025329 C539.667737,242.370987 541.100476,243.912829 541.962887,245.653618 C542.822531,247.395789 543.254429,249.169737 543.254429,250.976842 C543.254429,252.739737 542.811456,254.490197 541.929665,256.230987 C541.046488,257.973158 539.610981,259.515 537.623142,260.859276 C535.636688,262.203553 533.097902,262.876382 530.006786,262.876382 L529.609495,262.876382 C529.345096,262.920592 529.079312,262.942697 528.814913,262.942697 L503.774514,262.942697 C502.538344,262.942697 501.490437,262.511645 500.628025,261.652303 C499.766998,260.792961 499.336484,259.747105 499.336484,258.513355 C499.336484,257.279605 499.778072,256.243421 500.661248,255.406184 C501.500127,254.524737 502.538344,254.084013 503.774514,254.084013 L530.404076,254.084013 C531.242955,254.128224 531.937868,253.973487 532.488815,253.621184 C533.043915,253.268882 533.450896,252.859934 533.716679,252.397105 C533.981079,251.934276 534.11397,251.461776 534.11397,250.976842 C534.11397,250.66875 533.981079,250.237697 533.716679,249.686447 C533.450896,249.136579 533.043915,248.684803 532.488815,248.331118 C531.937868,247.980197 531.242955,247.78125 530.404076,247.737039 L511.591592,247.737039 C508.500476,247.648618 505.949231,246.944013 503.940628,245.621842 C501.930641,244.299671 500.496518,242.789605 499.63549,241.091645 C498.774463,239.396447 498.343949,237.666711 498.343949,235.902434 C498.343949,234.18375 498.784153,232.476118 499.668713,230.778158 C500.550505,229.082961 501.986013,227.572895 503.973851,226.250724 C505.96169,224.928553 508.500476,224.223947 511.591592,224.135526 L511.988883,224.135526 C512.253282,224.092697 512.519066,224.069211 512.784849,224.069211 L537.690972,224.069211 C538.925758,224.069211 539.975049,224.4975 540.834692,225.358224 C541.697104,226.217566 542.127618,227.264803 542.127618,228.498553 Z M586.127236,224.069211 C588.379473,224.113421 590.388076,224.819408 592.154429,226.184408 C593.920781,227.550789 595.345214,229.182434 596.427728,231.076579 C597.510242,232.972105 598.315898,234.976776 598.844696,237.091974 C599.374879,239.208553 599.640662,241.367961 599.640662,243.571579 C599.640662,246.479803 599.188,249.334145 598.282675,252.131842 C597.37735,254.932303 595.89893,257.410855 593.843261,259.570263 C591.791745,261.729671 589.216968,262.898487 586.127236,263.073947 L563.009614,263.073947 C559.917113,262.941316 557.33403,261.795987 555.258981,259.636579 C553.182548,257.477171 551.715202,254.987566 550.854174,252.166382 C549.991762,249.346579 549.562633,246.479803 549.562633,243.571579 C549.562633,240.661974 550.002837,237.809013 550.887397,235.009934 C551.770573,232.210855 553.239304,229.72125 555.292204,227.538355 C557.346488,225.356842 559.917113,224.200461 563.009614,224.069211 L564.267932,224.069211 L584.868917,224.069211 L586.127236,224.069211 Z M583.874998,254.215263 C585.552756,254.128224 586.95504,253.498224 588.081851,252.330789 C589.207278,251.163355 590.012934,249.809408 590.49882,248.264803 C590.984705,246.722961 591.22834,245.157632 591.22834,243.571579 C591.22834,241.984145 590.973631,240.429868 590.466981,238.910132 C589.958947,237.389013 589.151907,236.035066 588.048628,234.844145 C586.943966,233.654605 585.552756,233.016316 583.874998,232.927895 L565.062514,232.927895 C563.383372,233.016316 561.992161,233.654605 560.890268,234.844145 C559.785605,236.035066 558.979949,237.389013 558.470531,238.910132 C557.963881,240.429868 557.710556,241.984145 557.710556,243.571579 C557.710556,245.157632 557.951423,246.722961 558.438692,248.264803 C558.924577,249.809408 559.731618,251.163355 560.85566,252.330789 C561.983856,253.498224 563.383372,254.128224 565.062514,254.215263 L583.874998,254.215263 Z M628.767482,264.271776 C626.470947,264.271776 624.207635,264.007895 621.97893,263.47875 C619.747456,262.949605 617.615652,262.167632 615.586285,261.131447 C613.554149,260.096645 611.765648,258.717829 610.220781,256.999145 C608.673146,255.280461 607.835652,253.231579 607.70276,250.851118 L607.70276,248.074145 L607.70276,226.985724 C607.70276,225.751974 608.155423,224.726842 609.060747,223.910329 C609.966072,223.095197 611.036127,222.687632 612.273682,222.687632 C614.92321,222.910066 616.357333,224.341382 616.57882,226.985724 L616.57882,248.802237 C616.667414,250.168618 617.186522,251.302895 618.136144,252.206447 C619.085766,253.11 620.144747,253.825658 621.315856,254.354803 C622.48558,254.883947 623.700985,255.280461 624.957919,255.545724 C626.217622,255.809605 627.485631,255.942237 628.767482,255.942237 C630.047949,255.942237 631.317342,255.809605 632.577045,255.545724 C633.833979,255.280461 635.049384,254.883947 636.219108,254.354803 C637.390217,253.825658 638.449197,253.11 639.39882,252.206447 C640.348442,251.302895 640.866166,250.168618 640.956144,248.802237 L640.956144,226.985724 C640.956144,225.751974 641.408807,224.726842 642.312747,223.910329 C643.218072,223.095197 644.289512,222.687632 645.525682,222.687632 C648.176594,222.910066 649.632866,224.341382 649.89865,226.985724 L649.89865,248.074145 L649.89865,250.851118 C649.765758,253.231579 648.915805,255.280461 647.347406,256.999145 C645.780391,258.717829 643.979431,260.096645 641.948679,261.131447 C639.917928,262.167632 637.787507,262.949605 635.556034,263.47875 C633.327329,264.007895 631.062633,264.271776 628.767482,264.271776 Z M129.761843,159.677961 L84.1592187,158.726053 C92.7113546,168.898618 109.810089,177.639868 132.778208,179.230066 C139.150089,179.706711 141.998955,183.52125 141.998955,187.496053 C141.998955,192.263882 138.143711,197.190592 131.269333,197.190592 C131.101834,197.190592 92.5438556,195.442895 70.5821146,166.672895 C53.6481104,192.581645 14.4173673,197.986382 9.38824628,197.986382 C3.18524841,197.986382 0,193.534934 0,189.24375 C0,185.588092 2.34775372,181.931053 7.37687473,181.296908 C32.8602463,177.79875 47.2776136,169.850526 54.6544883,158.884934 L11.4010021,159.677961 L11.2321189,159.677961 C5.70050106,159.677961 3.18524841,156.022303 3.18524841,152.207763 C3.18524841,148.234342 6.03688323,144.102039 11.4010021,144.102039 L60.3536051,144.419803 C60.8561019,141.558553 61.1910998,138.697303 61.1910998,135.675789 L30.5124926,135.836053 C24.9794904,135.836053 22.4656221,132.657039 22.4656221,129.319145 C22.4656221,125.822368 25.3144883,122.165329 30.5124926,122.165329 L61.1910998,122.324211 C61.1910998,119.783487 61.3585987,117.079737 61.3585987,114.537632 L28.1661231,114.696513 C23.1356178,114.696513 20.4528662,111.992763 19.9489851,108.81375 C18.1051125,110.721711 15.0887473,111.675 12.2384968,111.675 C7.7132569,111.675 3.18524841,109.132895 3.01774947,103.567895 C3.01774947,101.502434 2.85025053,99.1192105 2.85025053,96.5757237 C2.85025053,94.0322368 3.01774947,91.3298684 3.01774947,88.7863816 C3.35274735,81.4736842 9.72462845,73.3679605 22.80062,73.2090789 C35.5416136,73.0488158 48.1151083,72.8913158 60.688603,72.8913158 L60.688603,62.71875 C60.688603,56.99625 65.7191083,54.135 70.5821146,54.135 C75.6098514,54.135 80.6389724,56.99625 80.6389724,62.71875 L80.6389724,72.8913158 C93.5488493,72.8913158 106.288459,72.8913158 119.032221,73.2090789 C129.59296,73.3679605 137.641214,81.7928289 137.976212,89.4219079 C138.143711,91.8065132 138.143711,94.8266447 138.143711,97.6878947 C138.143711,99.7547368 138.143711,101.661316 137.976212,103.251513 C137.473715,108.654868 132.610709,111.199737 127.747703,111.199737 C125.066335,111.199737 122.383584,110.403947 120.539711,108.654868 C120.037214,111.835263 117.355847,114.696513 112.66034,114.696513 L80.1364756,114.537632 C80.1364756,117.079737 79.9689766,119.783487 79.9689766,122.324211 L110.31397,122.165329 C115.343091,122.165329 118.025843,125.662105 118.025843,129.160263 C118.025843,132.498158 115.511975,135.836053 110.31397,135.836053 L79.6339788,135.675789 C79.6339788,138.697303 79.2975966,141.558553 78.7950998,144.419803 L129.761843,144.102039 C135.125962,144.102039 137.808713,148.075461 137.808713,152.050263 C137.808713,155.863421 135.294845,159.677961 129.929342,159.677961 L129.761843,159.677961 Z M112.66034,100.071118 C115.175592,100.071118 117.188348,101.025789 118.52834,102.296842 C118.52834,90.3751974 118.360841,87.9919737 108.637597,87.8330921 C94.5552272,87.6742105 79.1300977,87.5153289 64.0413503,87.5153289 C52.9781146,87.5153289 42.0796093,87.5153289 32.3563652,87.8330921 C24.4769936,87.9919737 22.2981231,90.5354605 21.794242,95.4621711 L21.794242,102.457105 C23.1356178,101.025789 25.3144883,100.071118 28.1661231,100.071118 L61.3585987,100.23 C61.3585987,98.6411842 61.1910998,97.0509868 61.1910998,95.4621711 L61.1910998,94.9841447 C61.1910998,90.2163158 65.5516093,87.9919737 70.2457325,87.9919737 C74.9398556,87.9919737 79.8014777,90.3751974 79.9689766,95.1444079 C79.9689766,96.7332237 80.1364756,98.6411842 80.1364756,100.23 L112.66034,100.071118 Z M583.092875,87.9546711 C580.579006,87.9546711 578.063754,86.8411184 576.38738,83.9798684 C573.53713,79.0531579 569.513002,74.9194737 566.999134,72.6951316 C565.32276,71.2638158 564.652764,69.675 564.652764,68.0848026 C564.652764,64.4291447 568.843006,60.7734868 573.53713,60.7734868 C580.579006,60.7734868 592.146123,73.6484211 592.146123,79.6886842 C592.146123,84.2990132 587.620883,87.9546711 583.092875,87.9546711 Z M638.92124,131.825329 L610.085121,131.188421 C616.623117,141.839013 627.352739,150.422763 642.106488,157.258816 C645.459236,158.847632 646.799227,161.548618 646.799227,164.41125 C646.799227,169.020197 643.280365,173.788026 637.57848,173.788026 C630.874369,173.788026 610.755117,160.436447 599.355499,139.136645 C590.469749,158.68875 570.016883,173.470263 562.807507,173.470263 C557.778386,173.470263 553.923142,169.339342 553.923142,165.205658 C553.923142,162.821053 555.263134,160.436447 558.280883,159.006513 C573.53713,151.693816 581.584,142.474539 585.608127,131.188421 L560.963635,131.825329 L560.627253,131.825329 C555.263134,131.825329 552.581766,128.168289 552.581766,124.512632 C552.581766,120.855592 555.432017,117.042434 560.963635,117.042434 L588.793376,117.042434 C589.128374,113.545658 589.464756,109.89 589.464756,106.074079 L589.464756,104.644145 L566.496637,104.644145 C560.796136,104.644145 557.945885,100.988487 557.945885,97.3314474 C557.945885,93.6771711 560.796136,90.0201316 566.496637,90.0201316 L598.685503,90.0201316 C602.540747,84.2990132 609.078743,71.8993421 611.593996,64.9044079 C612.935372,61.2501316 616.119236,59.6613158 619.473367,59.6613158 C624.502488,59.6613158 630.03549,62.9992105 630.03549,67.6081579 C630.03549,69.1983553 629.532994,72.53625 616.286735,90.0201316 L632.214361,90.0201316 C637.410981,90.0201316 640.095117,93.6771711 640.095117,97.3314474 C640.095117,100.988487 637.410981,104.644145 632.214361,104.644145 L606.899873,104.644145 L606.732374,106.552105 C606.564875,110.048882 606.229877,113.704539 605.725996,117.042434 L638.92124,117.042434 C643.950361,117.042434 646.464229,120.698092 646.464229,124.512632 C646.464229,128.168289 643.950361,131.825329 639.088739,131.825329 L638.92124,131.825329 Z M531.792518,92.2444737 C527.265894,86.8411184 521.231779,82.5499342 516.033775,80.0064474 C513.016025,78.5751316 511.842149,76.5096711 511.842149,74.2839474 C511.842149,70.1502632 516.368773,65.7015789 521.734276,65.7015789 C526.763397,65.7015789 548.39014,75.555 548.39014,85.5686842 C548.39014,90.8145395 543.528518,95.5823684 538.330514,95.5823684 C536.151643,95.5823684 533.805274,94.6304605 531.792518,92.2444737 Z M512.009648,197.154671 C506.141648,197.154671 501.112527,192.226579 501.112527,187.299868 C501.112527,184.757763 502.453902,182.212895 505.80665,180.463816 C514.692399,175.695987 523.243151,170.610395 528.60727,164.729013 C528.774769,157.258816 528.942268,150.899408 528.942268,144.541382 C528.942268,136.912303 528.942268,136.115132 522.069274,136.115132 L515.194896,136.115132 C512.009648,136.115132 504.800272,136.115132 504.800272,128.328553 C504.800272,124.194868 507.650522,120.062566 513.016025,120.062566 C519.554021,120.062566 525.087023,120.062566 530.451142,120.221447 C541.515762,120.539211 546.713766,125.149539 546.713766,135.79875 C546.713766,145.018026 546.378769,156.145263 546.378769,165.841184 C556.437011,177.445066 571.525758,180.941842 595.163873,180.941842 C611.761495,180.941842 629.867992,179.194145 642.608985,178.239474 L643.615363,178.239474 C649.483363,178.239474 652.668611,182.532039 652.668611,186.823224 C652.668611,191.114408 649.650862,195.248092 643.111482,195.883618 C632.718242,196.836908 617.796994,197.790197 602.708246,197.790197 C559.622259,197.790197 549.562633,189.844737 537.660518,178.557237 C530.618641,186.028816 518.882641,197.154671 512.009648,197.154671 Z M473.394913,103.838684 C471.383541,123.389408 465.68304,142.463487 455.2898,158.677697 C462.83279,166.465658 472.557418,173.141447 485.298412,178.546184 C489.321155,180.136382 490.998913,183.155132 490.998913,186.334145 C490.998913,191.421118 486.470904,196.665592 480.604289,196.665592 C476.246548,196.665592 460.151423,189.354276 444.893792,172.347039 C430.476425,188.242105 410.694938,197.621645 405.161936,197.621645 C399.461435,197.621645 395.438692,192.852434 395.438692,188.242105 C395.438692,187.288816 395.606191,186.493026 395.941189,185.541118 C391.415949,190.944474 385.714064,193.168816 380.013563,193.168816 C375.823321,193.168816 365.261197,192.216908 365.261197,183.474276 C365.261197,179.340592 367.77645,175.208289 372.135575,175.208289 C373.140569,175.208289 374.146947,175.367171 375.320824,175.843816 C376.828314,176.479342 378.16969,176.798487 379.176068,176.798487 C382.361316,176.798487 383.870191,174.255 385.044068,170.758224 C389.403193,158.201053 390.57707,142.463487 390.744569,128.635263 C390.744569,125.932895 389.068195,124.820724 387.222938,124.661842 L378.337189,124.661842 C375.488323,150.093947 369.787822,175.843816 355.537953,192.692171 C353.525197,195.076776 350.84383,196.190329 348.161079,196.190329 C342.964459,196.190329 337.766454,192.216908 337.766454,187.765461 C337.766454,186.334145 338.43645,184.745329 339.611711,183.314013 C357.212943,162.649737 361.070955,127.362829 362.914828,96.2096053 L351.513826,96.3684868 L351.178828,96.3684868 C345.479711,96.3684868 342.460577,92.3950658 342.460577,88.2613816 C342.460577,84.2879605 345.312212,80.3145395 351.178828,80.3145395 L351.346327,80.3145395 L368.44783,80.6323026 L368.280331,64.1003289 L368.280331,63.9414474 C368.280331,58.3792105 372.97307,55.5165789 377.667193,55.5165789 C382.5302,55.5165789 387.390437,58.3792105 387.390437,64.1003289 L387.222938,80.6323026 L404.826938,80.3145395 L404.994437,80.3145395 C410.694938,80.3145395 413.37769,84.2879605 413.37769,88.2613816 C413.37769,92.2361842 410.527439,96.3684868 404.994437,96.3684868 L404.826938,96.3684868 L380.684943,96.0493421 L379.678565,110.036447 C382.192433,109.878947 384.876569,109.878947 387.390437,109.878947 C396.108688,109.878947 402.311686,110.196711 405.664433,115.441184 L407.005809,113.216842 C416.226556,101.136316 424.608425,76.3397368 426.62118,63.7825658 C427.291176,59.1722368 431.316688,57.1067763 435.339431,57.1067763 C440.033554,57.1067763 444.893792,59.9680263 444.893792,65.055 C444.893792,67.1218421 443.217418,74.7495395 438.189682,88.4202632 L481.945665,88.2613816 C487.142285,88.2613816 489.825036,92.0759211 489.825036,96.0493421 C489.825036,99.8638816 487.142285,103.838684 481.945665,103.838684 L473.394913,103.838684 Z M431.819185,103.838684 L431.484187,104.316711 C433.495558,118.939342 437.350803,132.449803 444.391295,144.371447 C450.594293,132.449803 453.948425,118.779079 455.457299,103.838684 L431.819185,103.838684 Z M407.844688,125.454868 C407.677189,136.105461 406.670811,169.644671 398.120059,182.678487 C398.958938,181.884079 400.131431,181.247171 401.472807,180.771908 C415.724059,175.684934 426.453682,168.054474 434.669435,158.677697 C427.460059,147.550461 422.597053,135.469934 419.746803,123.866053 C418.070429,125.138487 415.891558,125.774013 413.880187,125.774013 C411.701316,125.774013 409.522446,124.979605 407.844688,123.866053 L407.844688,125.454868 Z M217.954177,158.88782 L195.037277,172.641439 C192.360063,174.867162 188.817668,175.718215 185.380479,174.912754 C181.637362,174.038215 178.650067,171.351044 177.393133,167.724399 L176.554254,165.305254 L162.40267,174.382228 C161.30216,175.088215 160.071528,175.423939 158.853354,175.423939 C156.691095,175.423939 154.571749,174.360123 153.316199,172.407952 C151.353277,169.360189 152.237838,165.299728 155.292963,163.340649 L170.546441,153.557689 C173.2638,151.337491 176.856029,150.525123 180.290449,151.38032 C183.95743,152.294926 186.885201,154.966899 188.121371,158.531373 L188.967171,160.971241 L211.1767,147.639004 C214.287197,145.773873 218.327935,146.775518 220.200878,149.881307 C222.071052,152.987097 221.066059,157.019926 217.954177,158.88782 Z M192.722946,140.471496 C185.346071,140.459062 177.64112,136.94847 177.322733,126.615641 C177.164924,120.734259 177.18292,110.719194 177.199531,100.865772 C177.217527,91.1698514 177.232754,81.6328119 177.409943,76.7047198 C177.761553,67.1676803 183.974241,61.2973514 193.363871,61.1550488 C198.057994,61.1633382 210.966487,61.0265619 221.193612,61.0445225 C226.390232,61.0528119 230.749357,61.0611014 233.095727,61.2227461 C237.287353,61.3899172 239.293188,64.5716935 239.28765,67.7507067 C239.282113,71.2488646 236.928822,74.7401146 232.0672,74.8907067 L217.983447,74.8672198 L217.968219,83.6098514 L227.860347,83.6278119 C232.55447,83.6347198 234.896686,86.6589961 234.891149,89.6791277 C234.885612,92.8581409 232.533706,95.8741277 227.838198,95.8658382 L217.947455,95.8492593 L217.930844,105.226036 L227.822971,105.243996 C232.517094,105.252286 234.859311,108.276562 234.853774,111.295312 C234.848236,114.315444 232.49633,117.332812 227.802207,117.324522 L217.910079,117.307944 L217.893468,126.844983 L222.188916,126.856036 C226.084304,126.856036 228.624474,128.537417 228.624474,133.77222 C228.624474,139.077483 225.39216,140.485312 221.29605,140.485312 C220.566529,140.485312 212.969553,140.188272 209.153069,140.181365 C203.78895,140.171694 198.088449,140.322286 193.226827,140.472878 L192.722946,140.471496 Z M192.967965,95.8064303 L192.951353,105.184588 L203.680975,105.202549 L203.697587,95.8243909 L192.967965,95.8064303 Z M193.164534,79.1155751 L193.156228,83.5670225 L203.718351,83.584983 L203.733578,74.6834698 C200.715829,74.6779435 198.20196,74.8326803 197.028084,74.8312988 C194.68033,74.9860356 193.33757,76.4145882 193.164534,79.1155751 Z M203.643599,126.820115 L203.660211,117.283075 L193.098088,117.265115 L193.088398,122.827351 C193.085629,124.735312 194.590351,126.804917 197.609485,126.810444 L203.643599,126.820115 Z M230.239084,168.1171 C234.958124,170.309665 235.56029,175.154863 234.894447,177.741179 C231.068273,188.466376 223.422846,196.637034 208.11815,196.610784 C192.358022,196.583152 191.024952,191.81256 191.031874,187.519994 C191.038795,183.705455 193.560969,179.736179 198.255092,179.744468 C198.925088,179.74585 199.596468,179.906113 200.433963,180.066376 C203.785326,180.86631 206.634192,181.1896 208.981946,181.193744 C215.692978,181.204797 218.746719,175.90506 220.194685,170.724139 C221.328417,167.706771 226.893258,166.562823 230.239084,168.1171 Z M301.131262,110.593245 C311.100909,110.593245 319.211457,118.687916 319.211457,128.638048 L319.211457,154.096403 C319.211457,164.045153 311.100909,172.141206 301.131262,172.141206 L296.949325,172.141206 C298.837495,174.451206 300.760272,176.692127 302.071194,177.934166 C304.201614,179.94989 308.569045,182.120351 310.821283,183.015614 C314.369215,184.424824 316.107882,188.43693 314.701444,191.98068 C313.624468,194.692719 311.022005,196.346469 308.26727,196.346469 C307.422854,196.346469 306.564595,196.191732 305.731253,195.862916 C304.882684,195.528574 297.313393,192.47114 292.544518,187.957522 C288.339049,183.975811 281.236264,174.557587 280.440298,173.496535 C280.117758,173.066864 279.868586,172.609561 279.660943,172.141206 L273.403958,172.141206 C273.196315,172.609561 272.945758,173.066864 272.624603,173.495153 C271.828637,174.557587 264.725852,183.975811 260.520383,187.957522 C255.751508,192.47114 248.180833,195.528574 247.333648,195.862916 C246.500306,196.191732 245.640663,196.347851 244.794862,196.347851 C242.035975,196.347851 239.429359,194.689956 238.355151,191.973772 C236.952867,188.42864 238.692918,184.419298 242.242234,183.015614 C244.495856,182.120351 248.863287,179.94989 250.993707,177.934166 C252.306013,176.690745 254.230175,174.449824 256.115576,172.141206 L251.782752,172.141206 C241.813104,172.141206 233.702557,164.045153 233.702557,154.096403 L233.702557,128.638048 C233.702557,118.687916 241.813104,110.593245 251.782752,110.593245 L268.028765,110.593245 L267.927712,104.570943 L257.700586,104.554364 C254.682837,104.548837 252.841733,102.955877 252.007007,100.730153 C246.800697,106.284101 244.115177,107.711272 241.097427,107.705745 C236.570803,107.698837 232.553597,103.874627 232.560518,99.8998243 C232.564671,97.9946269 233.406319,96.0880479 235.589342,94.3431137 C245.325045,86.7306137 253.558794,76.095219 260.955049,64.8215348 C264.652485,59.2648243 269.685758,56.88989 274.714879,56.8981795 C279.912884,56.906469 285.27285,59.4596269 289.45617,64.0754821 C298.157809,73.7866006 307.865826,82.8635743 318.414107,90.8297585 C320.925206,92.7418637 321.926047,95.1278506 321.921894,97.5110743 C321.913589,102.280285 317.715041,107.041206 312.518421,107.032916 C309.165673,107.02739 308.328179,106.389101 300.461266,98.9050874 C299.953232,101.923837 297.936323,104.623443 294.081079,104.616535 L284.356451,104.599956 L284.348145,110.593245 L301.131262,110.593245 Z M309.521436,154.096403 L309.521436,128.638048 C309.521436,124.01943 305.757555,120.264298 301.131262,120.264298 L251.782752,120.264298 C247.156459,120.264298 243.392578,124.01943 243.392578,128.638048 L243.392578,154.096403 C243.392578,158.71364 247.156459,162.470153 251.782752,162.470153 L267.117903,162.470153 C267.254947,162.470153 267.389223,162.461864 267.527652,162.470153 L285.546939,162.470153 C285.671525,162.461864 285.793342,162.471535 285.917928,162.470153 L301.131262,162.470153 C305.757555,162.470153 309.521436,158.71364 309.521436,154.096403 Z M260.910752,90.7316664 L292.595737,90.7855479 C286.90631,84.5767321 281.384383,78.3679164 277.202446,73.5917979 C276.699949,73.1137716 275.862455,72.7946269 275.191075,72.7932453 C274.521079,72.7918637 274.017198,72.9507453 273.680816,73.42739 C269.646998,79.6196269 265.278183,85.335219 260.910752,90.7316664 Z M278.196258,147.256184 L283.61298,153.203882 C284.332811,153.995526 283.770789,155.263816 282.69935,155.263816 L271.172377,155.263816 C270.100938,155.263816 269.538917,153.995526 270.260131,153.203882 L275.675469,147.256184 C276.351002,146.515658 277.520726,146.515658 278.196258,147.256184 Z M293.236654,130.121842 C296.165809,130.121842 298.539864,132.49125 298.539864,135.414671 C298.539864,138.338092 296.165809,140.708882 293.236654,140.708882 C290.307499,140.708882 287.932059,138.338092 287.932059,135.414671 C287.932059,132.49125 290.307499,130.121842 293.236654,130.121842 Z M260.01234,135.648158 C262.941495,135.648158 265.316934,138.017566 265.316934,140.942368 C265.316934,143.864408 262.941495,146.233816 260.01234,146.233816 C257.083185,146.233816 254.70913,143.864408 254.70913,140.940987 C254.70913,138.017566 257.083185,135.648158 260.01234,135.648158 Z" fill="#fff"></path>
</svg>
