<?xml version="1.0" encoding="iso-8859-1"?>
<!-- Generator: Adobe Illustrator 22.0.1, SVG Export Plug-In . SVG Version: 6.00 Build 0)  -->
<svg version="1.1" id="&#x30EC;&#x30A4;&#x30E4;&#x30FC;_1"
	 xmlns="http://www.w3.org/2000/svg" xmlns:xlink="http://www.w3.org/1999/xlink" x="0px" y="0px" viewBox="0 0 246 51.003"
	 style="enable-background:new 0 0 246 51.003;" xml:space="preserve">
<g>
	<g>
		<path style="fill:#252525;" d="M43.092,27.585c-1.814,0-3.285,1.474-3.285,3.293v16.831c0,1.819,1.471,3.293,3.285,3.293
			c1.814,0,3.285-1.474,3.285-3.293V30.878C46.377,29.059,44.906,27.585,43.092,27.585z M44.734,17.706h-3.285
			c-1.814,0-3.285,1.474-3.285,3.293s1.471,3.293,3.285,3.293h3.285c1.814,0,3.285-1.474,3.285-3.293S46.549,17.706,44.734,17.706z
			 M16.424,17.706C7.214,17.706,0,23.492,0,30.878v16.831c0,1.821,1.468,3.293,3.285,3.293c1.813,0,3.285-1.472,3.285-3.293v-16.83
			c0-3.635,4.411-6.586,9.854-6.586c5.44,0,9.854,2.951,9.854,6.586V47.71c0,1.821,1.468,3.293,3.285,3.293
			c1.813,0,3.285-1.472,3.285-3.293V30.879C32.848,23.492,25.632,17.706,16.424,17.706z M114.185,17.706h-13.139
			c-7.368,0-13.139,7.232-13.139,16.465s5.771,16.465,13.139,16.465h13.139c7.368,0,13.139-7.232,13.139-16.464
			C127.325,24.938,121.553,17.706,114.185,17.706z M114.185,44.049h-13.139c-3.628,0-6.57-4.423-6.57-9.879s2.941-9.879,6.57-9.879
			h13.139c3.628,0,6.57,4.423,6.57,9.879S117.814,44.049,114.185,44.049z M65.303,24.292h16.424c1.813,0,3.285-1.472,3.285-3.293
			c0-1.818-1.471-3.293-3.285-3.293H65.303c-7.368,0-13.139,7.234-13.139,16.465c0,9.233,5.771,16.465,13.139,16.465h16.424
			c1.813,0,3.285-1.472,3.285-3.293c0-1.818-1.472-3.293-3.285-3.293H65.303c-3.63,0-6.57-4.422-6.57-9.879
			C58.734,28.717,61.674,24.292,65.303,24.292z M204.773,17.706c-1.454,0-2.686,0.948-3.118,2.261
			c-1.959-1.439-4.256-2.261-6.736-2.261h-9.854c-7.368,0-13.139,7.232-13.139,16.465s5.771,16.465,13.139,16.465h9.854
			c2.48,0,4.777-0.822,6.736-2.261c0.432,1.313,1.664,2.261,3.118,2.261c1.814,0,3.285-1.474,3.285-3.293V34.172V20.999
			C208.057,19.18,206.587,17.706,204.773,17.706z M195.148,44.049h-10.084c-3.628,0-6.569-4.422-6.57-9.879
			c0-5.456,2.941-9.879,6.57-9.879h10.084c3.628,0,6.569,4.422,6.57,9.878C201.717,39.625,198.776,44.049,195.148,44.049z
			 M236.109,30.878h-13.066c-1.821,0-3.297-1.474-3.297-3.293s1.476-3.293,3.297-3.293h19.672c1.814,0,3.285-1.474,3.285-3.293
			s-1.471-3.293-3.285-3.293h-19.672c-5.454,0-9.891,4.432-9.891,9.879s4.437,9.879,9.891,9.879h13.066
			c1.821,0,3.297,1.474,3.297,3.293s-1.476,3.293-3.297,3.293h-19.672c-1.814,0-3.285,1.474-3.285,3.293s1.471,3.293,3.285,3.293
			l0,0h19.672c5.454,0,9.891-4.432,9.891-9.879C246,35.309,241.563,30.878,236.109,30.878z M153.179,36.578l-2.964,3.268
			c-0.394,0.435-0.086,1.132,0.5,1.132h6.307c0.586,0,0.894-0.697,0.5-1.132l-2.964-3.268
			C154.188,36.17,153.549,36.17,153.179,36.578z M160.193,30.133c0,1.607,1.299,2.909,2.902,2.909c1.603,0,2.902-1.302,2.902-2.909
			s-1.299-2.909-2.902-2.909C161.492,27.224,160.193,28.527,160.193,30.133z M141.74,33.042c0,1.607,1.299,2.909,2.902,2.909
			s2.902-1.302,2.902-2.909s-1.299-2.909-2.902-2.909C143.04,30.133,141.74,31.435,141.74,33.042z M168.417,20.894
			c0-1.82-1.492-3.203-3.307-3.203l-9.168-0.002v-1.756c3.198-1.116,5.505-4.141,5.505-7.727c0-4.532-3.665-8.206-8.186-8.206
			s-8.186,3.674-8.186,8.206c0,3.574,2.291,6.589,5.472,7.715v1.763l-5.898,0.008c-7.371,0-13.145,7.235-13.145,16.472
			c0,9.237,5.774,16.472,13.145,16.472h20.462c1.815,0,3.286-1.294,3.286-3.113c0-1.82-1.476-3.061-3.291-3.061h-20.713
			c-3.63,0-6.711-4.857-6.711-10.316c0-5.458,3.081-10.096,6.711-10.096h20.718C166.925,24.049,168.417,22.713,168.417,20.894z
			 M153.236,11.314c-1.7,0-3.078-1.382-3.078-3.086s1.378-3.086,3.078-3.086s3.078,1.382,3.078,3.086
			C156.314,9.933,154.936,11.314,153.236,11.314z"/>
	</g>
</g>
</svg>
