<svg viewBox="0 0 101 25" version="1.1" xmlns="http://www.w3.org/2000/svg">
  <path d="M10.75,13.225 L10.75,4.05 C10.75,1.95 11.675,1.35 13.475,1.35 L20.725,1.35 C22.6,1.35 23.45,2.025 23.45,4.05 L23.45,13.225 C23.45,15.2 22.65,15.925 20.725,15.925 L19.925,15.925 L19.925,20.55 C19.925,21.25 20.225,21.3 20.825,21.3 C21.575,21.3 21.65,21.175 21.725,19.45 C21.775,18.45 21.8,17.775 22.9,17.775 C24.25,17.775 24.25,18.825 24.25,19.275 C24.25,20.375 24.15,22.475 23.575,23.325 C23,24.175 22.025,24.175 20.475,24.175 C17.825,24.175 17.125,23.95 17.125,21.35 L17.125,15.925 L15.525,15.925 C15.4,18.125 14.675,21.1 12.1,23.025 C11.525,23.45 10.35,24.15 9.725,24.15 C8.925,24.15 8.2,23.425 8.2,22.55 C8.2,22.15 8.375,21.725 8.825,21.475 C11.425,20.025 12.425,19 12.925,15.9 C11.375,15.75 10.75,14.975 10.75,13.225 Z M20.45,9.45 L20.45,7.725 L13.725,7.725 L13.725,9.45 L20.45,9.45 Z M13.725,4.5 L13.725,5.675 L20.45,5.675 L20.45,4.5 C20.45,4.125 20.25,3.9 19.85,3.9 L14.325,3.9 C14,3.9 13.725,4.05 13.725,4.5 Z M20.45,11.55 L13.725,11.55 L13.725,12.85 C13.725,13.25 13.95,13.45 14.325,13.45 L19.85,13.45 C20.2,13.45 20.45,13.275 20.45,12.85 L20.45,11.55 Z M6.925,4.375 L7.4,4.375 C8.65,4.375 9.325,5.05 9.325,6.325 C9.325,7.275 9,8.775 7.725,10.9 C8.45,11.775 9.075,12.4 9.25,12.55 C10.1,13.375 10.35,13.6 10.35,14.125 C10.35,14.875 9.75,15.775 8.975,15.775 C8.275,15.775 7.55,14.775 6.925,13.925 L6.925,22.825 C6.925,23.875 6.5,24.35 5.3,24.35 C3.85,24.35 3.85,23.225 3.85,22.825 L3.85,15.5 C2.9,16.3 2.525,16.525 1.975,16.525 C1.05,16.525 0.45,15.625 0.45,14.85 C0.45,14 0.775,13.825 2.15,12.775 C4.25,11.175 6.05,8.35 6.05,7.65 C6.05,7.3 5.7,7.3 5.55,7.3 L2.175,7.3 C1.05,7.3 0.65,6.8 0.65,5.75 C0.65,4.375 1.8,4.375 2.175,4.375 L3.85,4.375 L3.85,2.15 C3.85,0.975 4.425,0.6 5.5,0.6 C6.8,0.6 6.925,1.625 6.925,2.15 L6.925,4.375 Z M37.35,2.6 L41.35,2.6 L41.35,1.85 C41.35,0.975 41.975,0.65 42.7,0.65 C43.35,0.65 44.25,0.775 44.25,1.85 L44.25,2.6 L48.925,2.6 C49.3,2.6 50.25,2.6 50.25,3.95 C50.25,5.275 49.425,5.325 48.925,5.325 L44.25,5.325 L44.25,6.65 L46.725,6.65 C49.025,6.65 49.525,7.15 49.525,9.45 L49.525,11.9 C49.525,14.175 49.025,14.7 46.725,14.7 L41.9,14.7 C42.3,14.875 42.95,15.15 43.95,15.75 C44.85,16.275 45.1,16.475 45.1,17.025 C45.1,17.675 44.575,18.4 43.9,18.4 C43.6,18.4 43.475,18.35 42.15,17.55 C41.85,17.375 40.525,16.7 40.25,16.55 C40.025,16.425 39.775,16.225 39.775,15.75 C39.775,15.675 39.775,15.075 40.3,14.7 L39.05,14.7 C36.775,14.7 36.175,14.3 36.175,11.9 L36.175,9.45 C36.175,7.15 36.675,6.65 38.975,6.65 L41.35,6.65 L41.35,5.325 L37.35,5.325 C36.925,5.325 35.875,5.325 36.05,3.65 C35.825,4.15 35.55,4.2 35.175,4.25 L35.175,21.075 C35.925,19.45 35.975,19.225 36.5,17.3 C36.6,16.925 36.8,16.375 37.6,16.375 C37.925,16.375 38.925,16.55 38.925,17.425 C38.925,18.05 38.375,20 37.925,21.225 C37.35,22.775 37,23.025 36.45,23.025 C36.15,23.025 35.55,22.9 35.175,22.425 L35.175,23.025 C35.175,23.375 35.175,24.375 33.875,24.375 C32.525,24.375 32.525,23.4 32.525,23.025 L32.525,20.325 C32,20.5 31.125,20.725 30.675,20.825 C29.95,21 28.275,21.45 27.725,21.45 C26.675,21.45 26.475,20.225 26.475,19.75 C26.475,18.65 27.275,18.5 27.75,18.4 L27.75,4.25 C26.675,4.1 26.6,3.15 26.6,2.85 C26.6,2.5 26.725,1.4 28,1.4 L34.85,1.4 C35.45,1.4 36.025,1.5 36.175,2.55 C36.225,2.85 36.2,3.025 36.175,3.175 C36.475,2.65 36.925,2.6 37.35,2.6 Z M43.45,12.325 L43.45,9.05 L42.125,9.05 L42.125,12.325 L43.45,12.325 Z M39.175,12.325 L39.875,12.325 L39.875,9.05 L39.175,9.05 C38.875,9.05 38.6,9.175 38.6,9.65 L38.6,11.725 C38.6,12.125 38.8,12.325 39.175,12.325 Z M45.6,9.05 L45.6,12.325 L46.475,12.325 C46.775,12.325 47.05,12.175 47.05,11.725 L47.05,9.65 C47.05,9.25 46.85,9.05 46.475,9.05 L45.6,9.05 Z M32.525,12.25 L32.525,9.575 L30.375,9.575 L30.375,12.25 L32.525,12.25 Z M32.525,6.95 L32.525,4.275 L30.375,4.275 L30.375,6.95 L32.525,6.95 Z M30.375,14.875 L30.375,17.925 C30.675,17.875 32.1,17.55 32.525,17.45 L32.525,14.875 L30.375,14.875 Z M41.8,18.325 L41.8,20.65 C41.8,21.325 41.95,21.325 43.4,21.325 C44.075,21.325 44.175,21.25 44.3,20.6 C44.45,19.8 44.525,19.25 45.4,19.25 C45.95,19.25 46.725,19.425 46.725,20.475 C46.725,20.825 46.5,22.75 45.675,23.5 C45.1,24 44.45,24 42.975,24 C39.975,24 39.125,24 39.125,21.175 L39.125,18.325 C39.125,17.925 39.15,17 40.375,17 C41.35,17 41.8,17.3 41.8,18.325 Z M47.3,16.175 C47.975,16.175 48.225,16.35 49.1,18.35 C49.45,19.175 50.25,21.05 50.25,21.8 C50.25,22.75 49.225,23 48.75,23 C47.925,23 47.85,22.7 47.375,21.1 C47.05,20.075 46.725,19.4 46.125,18.075 C46.075,17.975 45.925,17.625 45.925,17.325 C45.925,16.625 46.525,16.175 47.3,16.175 Z M70.025,6.925 L70.025,12.175 C70.275,12.875 70.625,13.875 70.625,15.525 C70.625,20.5 67.3,22.625 63.25,23.225 C61.425,23.5 59.85,23.525 59.525,23.525 C59.025,23.525 57.55,23.525 57.55,21.9 C57.55,20.575 58.425,20.575 60.025,20.55 C65.75,20.5 66.925,18.325 67.35,16.575 C66.65,17.35 65.775,18.3 63.175,18.3 C59.2,18.3 57.025,16.075 57.025,13.375 C57.025,10.725 59.175,8.4 63.175,8.4 C63.55,8.4 65.4,8.4 66.8,9.125 L66.75,6.975 C63.65,7.05 60.625,7.1 57.4,7.1 C54.675,7.1 54.575,7.075 54.25,7 C54,6.925 53.375,6.65 53.375,5.575 C53.375,4.1 54.5,4.1 55.3,4.1 L58.075,4.1 C61.5,4.1 64.7,4.05 66.7,4 L66.675,2.85 C66.675,2.45 66.65,1.15 68.325,1.15 C70.025,1.15 70.025,2.4 70.025,2.8 L70.025,3.95 C70.5,3.925 73.775,3.825 73.95,3.825 C74.575,3.825 75.6,3.925 75.6,5.325 C75.6,6.775 74.7,6.8 73.1,6.85 C72.6,6.85 70.45,6.9 70.025,6.925 Z M63.45,15.75 C66.025,15.75 66.8,14.4 66.8,13.275 C66.8,11.175 64.5,10.9 63.65,10.9 C62.25,10.9 60.225,11.525 60.225,13.375 C60.225,15.225 62.225,15.75 63.45,15.75 Z M90.275,9.45 C90.95,9.2 91.675,8.9 93.25,8.9 C98.475,8.9 100.775,12.125 100.775,15.775 C100.775,17.75 100.025,21 96.2,22.6 C94.45,23.325 92.55,23.55 90.675,23.55 C87.7,23.55 86.275,22.95 85.3,22.35 C84.2,21.675 83.55,20.5 83.55,19.25 C83.55,16.225 86.275,14.975 88.85,14.975 C90.025,14.975 93.8,15.175 93.8,19.2 C93.8,19.7 93.75,19.95 93.6,20.375 C96.55,19.75 97.325,17.625 97.325,16.05 C97.325,14.775 96.825,13.425 95.75,12.675 C94.6,11.875 93.075,11.725 91.925,11.725 C88.35,11.725 85.675,13.35 83.525,15.3 C81.925,16.75 81.825,16.825 81.275,16.825 C80.35,16.825 79.525,16.05 79.525,15.1 C79.525,14.4 79.7,14.25 81.675,12.75 C84.7,10.5 90.075,6.475 91.675,4.95 C91.075,5 84.525,5.375 83.525,5.375 C83.025,5.375 81.825,5.35 81.825,3.775 C81.825,2.275 83,2.225 83.6,2.2 C84.975,2.175 91.1,2.075 92.35,2.025 C92.625,2 94.125,1.95 95,1.95 C95.9,1.95 97.125,2.125 97.125,3.55 C97.125,4.7 96.85,4.875 94.025,6.7 C92,8 90.975,8.875 90.275,9.45 Z M90.925,20.775 C91.075,20.35 91.175,20.075 91.175,19.6 C91.175,17.725 89.625,17.55 88.8,17.55 C87.5,17.55 86.475,18.2 86.475,19.175 C86.475,20.325 88.075,20.875 89.8,20.875 C90.2,20.875 90.475,20.85 90.925,20.775 Z" id="mc-flow_button_watch" fill="#FFFFFF"></path>
</svg>
