<svg viewBox="0 0 101 25" version="1.1" xmlns="http://www.w3.org/2000/svg" xmlns:xlink="http://www.w3.org/1999/xlink">
  <path d="M16.55,4.35 L22.925,4.35 C24.175,4.35 24.325,5.3 24.325,5.875 C24.325,6.95 23.775,7.45 23.2,7.45 L22.525,7.45 C22.35,10.55 22,14.4 19.7,17.975 C20.475,18.85 20.975,19.275 23.35,20.9 C23.975,21.325 24.15,21.625 24.15,22.15 C24.15,23.05 23.425,24.125 22.475,24.125 C22.125,24.125 21.775,24.125 19.95,22.7 C18.825,21.825 18.1,21 17.675,20.5 C15.725,22.5 12.875,24.15 12.05,24.15 C11.075,24.15 10.45,23.15 10.45,22.275 C10.45,21.5 10.925,21.225 11.5,20.95 C13.1,20.15 14.55,19.125 15.825,17.875 C14.55,15.675 13.8,13.325 13.4,11.675 C12.95,12.275 12.625,12.525 12.125,12.525 C11.75,12.525 11.35,12.375 11.05,12.125 C11.05,13.175 10.975,19.675 10.475,21.925 C10.025,24.05 8.675,24.15 7.475,24.15 C6.55,24.15 5.725,24.075 5.525,24 C5.05,23.825 4.725,23.15 4.725,22.5 C4.725,21.05 5.6,21.05 6.175,21.05 C6.825,21.05 7.3,21.05 7.55,20.55 C7.95,19.725 8.125,15.675 8.125,13.575 L8.125,13.15 C8.125,12.575 7.95,12.475 7.45,12.475 L5.9,12.475 C5.825,14.125 5.5,17.45 4.725,20.075 C4.4,21.225 3.825,22.8 3.4,23.425 C3.15,23.825 2.825,23.975 2.425,23.975 C1.5,23.975 0.575,23.2 0.575,22.35 C0.575,21.975 0.7,21.7 0.975,21.175 C2.2,18.85 3.075,15.875 3.075,11.3 L3.075,7 L2.1,7 C1.15,7 0.65,6.45 0.65,5.55 C0.65,4.275 1.55,4.1 2.2,4.1 L4.775,4.1 L4.775,1.95 C4.775,1.075 5.25,0.6 6.175,0.6 C7.1,0.6 7.8,0.825 7.8,1.95 L7.8,4.1 L10.4,4.1 C10.9,4.1 11.9,4.175 11.9,5.45 C11.9,6.425 11.6,7 10.4,7 L5.925,7 L5.925,9.7 L8.65,9.7 C9.4,9.7 10.025,9.725 10.55,10.3 C10.75,9.9 11.75,8.25 11.95,7.875 C13.1,5.625 13.7,3.325 14.025,1.95 C14.25,1.05 14.425,0.55 15.5,0.55 C16.325,0.55 17.125,0.975 17.125,1.8 C17.125,2.35 16.825,3.375 16.55,4.35 Z M19.6,7.45 L15.5,7.45 C15.45,7.575 15.45,7.6 15.4,7.7 C15.825,10.325 16.575,12.9 17.8,15.25 C19.05,12.95 19.475,10.575 19.6,7.45 Z M43.275,9.75 L48.775,9.75 C49.225,9.75 50.3,9.775 50.3,11.125 C50.3,12.2 49.9,12.675 48.775,12.675 L44.05,12.675 C44.9,14.45 46.3,15.65 47.35,16.25 C47.65,16.425 49.275,17.35 49.375,17.45 C49.8,17.85 49.8,18.275 49.8,18.45 C49.8,19.525 48.95,20.1 48.225,20.1 C47.15,20.1 43.825,18.575 41.775,14.475 C41.225,15.6 40.425,17.325 37.9,19.125 C36.875,19.85 36.375,19.975 35.9,19.975 C34.775,19.975 34.175,19 34.175,18.325 C34.175,17.825 34.375,17.45 34.875,17.15 C37.175,15.75 38.5,14.95 39.525,12.675 L34.85,12.675 C34.425,12.675 33.325,12.675 33.325,11.3 C33.325,10.25 33.725,9.75 34.85,9.75 L40.15,9.75 L40.15,7.125 L35.55,7.125 C35.1,7.125 34.05,7.125 34.05,5.7 C34.05,4.75 34.4,4.175 35.475,4.175 L37.35,4.175 C37.25,4.025 36.925,3.325 36.85,3.2 C36.5,2.55 36.35,2.25 36.35,1.825 C36.35,1 37.275,0.625 38.025,0.625 C38.85,0.625 39.125,1.15 39.4,1.625 C39.525,1.85 40.075,2.825 40.075,3.375 C40.075,3.45 40.075,3.8 39.7,4.175 L43.025,4.175 C43.525,3.325 43.6,3.175 44.325,1.55 C44.525,1.125 44.75,0.625 45.7,0.625 C46.35,0.625 47.425,0.9 47.425,1.825 C47.425,2.45 46.75,3.475 46.3,4.175 L47.975,4.175 C48.825,4.175 49.45,4.525 49.45,5.55 C49.45,6.575 49.125,7.125 47.925,7.125 L43.275,7.125 L43.275,9.75 Z M28.525,1.075 C29.15,1 29.7,1.325 31.075,2.425 C31.425,2.7 32.775,3.95 33.05,4.275 C33.25,4.5 33.35,4.775 33.35,5.1 C33.35,6 32.525,6.85 31.75,6.85 C31.2,6.85 30.85,6.6 30.175,5.95 C29.675,5.45 28.825,4.7 28.3,4.275 C27.45,3.625 27.175,3.275 27.175,2.675 C27.175,1.95 27.8,1.175 28.525,1.075 Z M37.475,20.725 L48.925,20.725 C50.225,20.725 50.425,21.6 50.425,22.175 C50.425,22.35 50.425,23.725 48.875,23.725 L37.775,23.725 C35,23.725 33,23.05 31.625,20.9 C30.925,21.85 30.825,22 30.125,22.75 C29.3,23.625 28.975,23.95 28.3,23.95 C27.325,23.95 26.575,23 26.575,22.075 C26.575,21.4 26.725,21.275 28,20.225 C28.075,20.175 29.4,19.025 29.7,18.675 L29.7,13.8 C29.7,13.625 29.7,13.075 29.125,13.075 L28.225,13.075 C27.175,13.075 26.775,12.45 26.775,11.625 C26.775,10.5 27.225,10.05 28.325,10.05 L29.925,10.05 C32.2,10.05 32.725,10.525 32.725,12.85 L32.725,17.425 C33.075,19.95 35.15,20.725 37.475,20.725 Z M70.025,6.925 L70.025,12.175 C70.275,12.875 70.625,13.875 70.625,15.525 C70.625,20.5 67.3,22.625 63.25,23.225 C61.425,23.5 59.85,23.525 59.525,23.525 C59.025,23.525 57.55,23.525 57.55,21.9 C57.55,20.575 58.425,20.575 60.025,20.55 C65.75,20.5 66.925,18.325 67.35,16.575 C66.65,17.35 65.775,18.3 63.175,18.3 C59.2,18.3 57.025,16.075 57.025,13.375 C57.025,10.725 59.175,8.4 63.175,8.4 C63.55,8.4 65.4,8.4 66.8,9.125 L66.75,6.975 C63.65,7.05 60.625,7.1 57.4,7.1 C54.675,7.1 54.575,7.075 54.25,7 C54,6.925 53.375,6.65 53.375,5.575 C53.375,4.1 54.5,4.1 55.3,4.1 L58.075,4.1 C61.5,4.1 64.7,4.05 66.7,4 L66.675,2.85 C66.675,2.45 66.65,1.15 68.325,1.15 C70.025,1.15 70.025,2.4 70.025,2.8 L70.025,3.95 C70.5,3.925 73.775,3.825 73.95,3.825 C74.575,3.825 75.6,3.925 75.6,5.325 C75.6,6.775 74.7,6.8 73.1,6.85 C72.6,6.85 70.45,6.9 70.025,6.925 Z M63.45,15.75 C66.025,15.75 66.8,14.4 66.8,13.275 C66.8,11.175 64.5,10.9 63.65,10.9 C62.25,10.9 60.225,11.525 60.225,13.375 C60.225,15.225 62.225,15.75 63.45,15.75 Z M90.275,9.45 C90.95,9.2 91.675,8.9 93.25,8.9 C98.475,8.9 100.775,12.125 100.775,15.775 C100.775,17.75 100.025,21 96.2,22.6 C94.45,23.325 92.55,23.55 90.675,23.55 C87.7,23.55 86.275,22.95 85.3,22.35 C84.2,21.675 83.55,20.5 83.55,19.25 C83.55,16.225 86.275,14.975 88.85,14.975 C90.025,14.975 93.8,15.175 93.8,19.2 C93.8,19.7 93.75,19.95 93.6,20.375 C96.55,19.75 97.325,17.625 97.325,16.05 C97.325,14.775 96.825,13.425 95.75,12.675 C94.6,11.875 93.075,11.725 91.925,11.725 C88.35,11.725 85.675,13.35 83.525,15.3 C81.925,16.75 81.825,16.825 81.275,16.825 C80.35,16.825 79.525,16.05 79.525,15.1 C79.525,14.4 79.7,14.25 81.675,12.75 C84.7,10.5 90.075,6.475 91.675,4.95 C91.075,5 84.525,5.375 83.525,5.375 C83.025,5.375 81.825,5.35 81.825,3.775 C81.825,2.275 83,2.225 83.6,2.2 C84.975,2.175 91.1,2.075 92.35,2.025 C92.625,2 94.125,1.95 95,1.95 C95.9,1.95 97.125,2.125 97.125,3.55 C97.125,4.7 96.85,4.875 94.025,6.7 C92,8 90.975,8.875 90.275,9.45 Z M90.925,20.775 C91.075,20.35 91.175,20.075 91.175,19.6 C91.175,17.725 89.625,17.55 88.8,17.55 C87.5,17.55 86.475,18.2 86.475,19.175 C86.475,20.325 88.075,20.875 89.8,20.875 C90.2,20.875 90.475,20.85 90.925,20.775 Z" fill="#fff"></path>
</svg>
